G75*
G70*
%OFA0B0*%
%FSLAX24Y24*%
%IPPOS*%
%LPD*%
%AMOC8*
5,1,8,0,0,1.08239X$1,22.5*
%
%ADD10C,0.0010*%
%ADD11R,0.0118X0.0118*%
D10*
X007773Y014016D02*
X007788Y014001D01*
X007773Y014016D02*
X007773Y014046D01*
X007788Y014061D01*
X007803Y014061D01*
X007818Y014046D01*
X007818Y014031D01*
X007818Y014046D02*
X007833Y014061D01*
X007848Y014061D01*
X007863Y014046D01*
X007863Y014016D01*
X007848Y014001D01*
X007863Y014094D02*
X007803Y014094D01*
X007773Y014124D01*
X007803Y014154D01*
X007863Y014154D01*
X007848Y014186D02*
X007863Y014201D01*
X007863Y014231D01*
X007848Y014246D01*
X007833Y014246D01*
X007818Y014231D01*
X007803Y014246D01*
X007788Y014246D01*
X007773Y014231D01*
X007773Y014201D01*
X007788Y014186D01*
X007818Y014216D02*
X007818Y014231D01*
X008373Y014214D02*
X008373Y014169D01*
X008463Y014169D01*
X008463Y014214D01*
X008448Y014229D01*
X008388Y014229D01*
X008373Y014214D01*
X008373Y014137D02*
X008463Y014137D01*
X008463Y014077D02*
X008373Y014137D01*
X008373Y014077D02*
X008463Y014077D01*
X008448Y014045D02*
X008463Y014030D01*
X008463Y014000D01*
X008448Y013985D01*
X008388Y013985D01*
X008373Y014000D01*
X008373Y014030D01*
X008388Y014045D01*
X008418Y014045D01*
X008418Y014015D01*
D11*
X008438Y004216D03*
X009018Y004226D03*
X013008Y008206D03*
X013008Y008796D03*
X012788Y009526D03*
X009008Y012796D03*
X008448Y012796D03*
X004928Y009856D03*
X004508Y008806D03*
X004508Y008216D03*
M02*
