G75*
G70*
%OFA0B0*%
%FSLAX24Y24*%
%IPPOS*%
%LPD*%
%AMOC8*
5,1,8,0,0,1.08239X$1,22.5*
%
%ADD10C,0.0300*%
%ADD11R,0.0315X0.0315*%
%ADD12R,0.0315X0.0315*%
%ADD13R,0.0430X0.0750*%
%ADD14R,0.0110X0.0169*%
%ADD15R,0.0169X0.0110*%
%ADD16R,0.0098X0.0138*%
%ADD17R,0.0138X0.0098*%
%ADD18R,0.0394X0.0394*%
%ADD19R,0.0197X0.0157*%
%ADD20R,0.0276X0.0354*%
%ADD21R,0.0118X0.0157*%
%ADD22R,0.0091X0.0551*%
%ADD23R,0.0551X0.0091*%
%ADD24R,0.1142X0.1142*%
%ADD25C,0.0240*%
%ADD26C,0.0060*%
%ADD27C,0.0180*%
D10*
X004489Y004689D03*
X004911Y004267D03*
X005375Y003891D03*
X005876Y003566D03*
X006408Y003295D03*
X006965Y003081D03*
X007542Y002926D03*
X008132Y002833D03*
X008728Y002802D03*
X009324Y002833D03*
X009914Y002926D03*
X010491Y003081D03*
X011049Y003295D03*
X011581Y003566D03*
X012081Y003891D03*
X012545Y004267D03*
X012968Y004689D03*
X013343Y005153D03*
X013669Y005654D03*
X013940Y006186D03*
X014154Y006744D03*
X014308Y007320D03*
X014402Y007910D03*
X014433Y008506D03*
X014402Y009103D03*
X014308Y009693D03*
X014154Y010269D03*
X013940Y010827D03*
X013669Y011359D03*
X013343Y011860D03*
X012968Y012324D03*
X012545Y012746D03*
X012081Y013122D03*
X011581Y013447D03*
X011049Y013718D03*
X010491Y013932D03*
X009914Y014086D03*
X009324Y014180D03*
X008728Y014211D03*
X008132Y014180D03*
X007542Y014086D03*
X006965Y013932D03*
X006408Y013718D03*
X005876Y013447D03*
X005375Y013122D03*
X004911Y012746D03*
X004489Y012324D03*
X004113Y011860D03*
X003788Y011359D03*
X003517Y010827D03*
X003303Y010269D03*
X003148Y009693D03*
X003055Y009103D03*
X003023Y008506D03*
X003055Y007910D03*
X003148Y007320D03*
X003303Y006744D03*
X003517Y006186D03*
X003788Y005654D03*
X004113Y005153D03*
X004922Y005741D03*
X004654Y006154D03*
X004430Y006593D03*
X004254Y007053D03*
X004126Y007528D03*
X004049Y008015D03*
X004023Y008506D03*
X004049Y008998D03*
X004126Y009485D03*
X004254Y009960D03*
X004430Y010420D03*
X004654Y010859D03*
X004922Y011272D03*
X005232Y011655D03*
X005580Y012003D03*
X005963Y012313D03*
X006376Y012581D03*
X006815Y012804D03*
X007274Y012981D03*
X007750Y013108D03*
X008236Y013185D03*
X008728Y013211D03*
X009220Y013185D03*
X009706Y013108D03*
X010182Y012981D03*
X010642Y012804D03*
X011081Y012581D03*
X011494Y012313D03*
X011876Y012003D03*
X012224Y011655D03*
X012534Y011272D03*
X012803Y010859D03*
X013026Y010420D03*
X013203Y009960D03*
X013330Y009485D03*
X013407Y008998D03*
X013433Y008506D03*
X013407Y008015D03*
X013330Y007528D03*
X013203Y007053D03*
X013026Y006593D03*
X012803Y006154D03*
X012534Y005741D03*
X012224Y005358D03*
X011876Y005010D03*
X011494Y004700D03*
X011081Y004432D03*
X010642Y004208D03*
X010182Y004032D03*
X009706Y003905D03*
X009220Y003827D03*
X008728Y003802D03*
X008236Y003827D03*
X007750Y003905D03*
X007274Y004032D03*
X006815Y004208D03*
X006376Y004432D03*
X005963Y004700D03*
X005580Y005010D03*
X005232Y005358D03*
X005520Y006654D03*
X006876Y005298D03*
X008728Y004802D03*
X010581Y005298D03*
X011937Y006654D03*
X012433Y008506D03*
X011937Y010359D03*
X010581Y011715D03*
X008728Y012211D03*
X006876Y011715D03*
X005520Y010359D03*
X005023Y008506D03*
D11*
X004433Y008506D03*
X003433Y008506D03*
X002433Y008506D03*
X008728Y004211D03*
X008728Y003211D03*
X008728Y002211D03*
X013023Y008506D03*
X014023Y008506D03*
X015023Y008506D03*
X008728Y012802D03*
X008728Y013802D03*
X008728Y014802D03*
D12*
G36*
X004039Y004073D02*
X003829Y004305D01*
X004061Y004515D01*
X004271Y004283D01*
X004039Y004073D01*
G37*
G36*
X004527Y003607D02*
X004295Y003817D01*
X004505Y004049D01*
X004737Y003839D01*
X004527Y003607D01*
G37*
G36*
X005062Y003194D02*
X004809Y003379D01*
X004994Y003632D01*
X005247Y003447D01*
X005062Y003194D01*
G37*
G36*
X005638Y002841D02*
X005367Y002998D01*
X005524Y003269D01*
X005795Y003112D01*
X005638Y002841D01*
G37*
G36*
X006247Y002548D02*
X005961Y002676D01*
X006089Y002962D01*
X006375Y002834D01*
X006247Y002548D01*
G37*
G36*
X006883Y002322D02*
X006586Y002419D01*
X006683Y002716D01*
X006980Y002619D01*
X006883Y002322D01*
G37*
G36*
X007539Y002163D02*
X007233Y002229D01*
X007299Y002535D01*
X007605Y002469D01*
X007539Y002163D01*
G37*
G36*
X008209Y002074D02*
X007898Y002107D01*
X007931Y002418D01*
X008242Y002385D01*
X008209Y002074D01*
G37*
G36*
X008314Y003068D02*
X008003Y003101D01*
X008036Y003412D01*
X008347Y003379D01*
X008314Y003068D01*
G37*
G36*
X007747Y003141D02*
X007441Y003207D01*
X007507Y003513D01*
X007813Y003447D01*
X007747Y003141D01*
G37*
G36*
X007192Y003273D02*
X006895Y003370D01*
X006992Y003667D01*
X007289Y003570D01*
X007192Y003273D01*
G37*
G36*
X006653Y003462D02*
X006367Y003590D01*
X006495Y003876D01*
X006781Y003748D01*
X006653Y003462D01*
G37*
G36*
X006138Y003707D02*
X005867Y003864D01*
X006024Y004135D01*
X006295Y003978D01*
X006138Y003707D01*
G37*
G36*
X005650Y004003D02*
X005397Y004188D01*
X005582Y004441D01*
X005835Y004256D01*
X005650Y004003D01*
G37*
G36*
X005196Y004350D02*
X004964Y004560D01*
X005174Y004792D01*
X005406Y004582D01*
X005196Y004350D01*
G37*
G36*
X004782Y004742D02*
X004572Y004974D01*
X004804Y005184D01*
X005014Y004952D01*
X004782Y004742D01*
G37*
G36*
X004410Y005175D02*
X004225Y005428D01*
X004478Y005613D01*
X004663Y005360D01*
X004410Y005175D01*
G37*
G36*
X004085Y005645D02*
X003928Y005916D01*
X004199Y006073D01*
X004356Y005802D01*
X004085Y005645D01*
G37*
G36*
X003812Y006146D02*
X003684Y006432D01*
X003970Y006560D01*
X004098Y006274D01*
X003812Y006146D01*
G37*
G36*
X003592Y006673D02*
X003495Y006970D01*
X003792Y007067D01*
X003889Y006770D01*
X003592Y006673D01*
G37*
G36*
X002898Y005739D02*
X002770Y006025D01*
X003056Y006153D01*
X003184Y005867D01*
X002898Y005739D01*
G37*
G36*
X003219Y005145D02*
X003062Y005416D01*
X003333Y005573D01*
X003490Y005302D01*
X003219Y005145D01*
G37*
G36*
X003601Y004587D02*
X003416Y004840D01*
X003669Y005025D01*
X003854Y004772D01*
X003601Y004587D01*
G37*
G36*
X004951Y006145D02*
X004794Y006416D01*
X005065Y006573D01*
X005222Y006302D01*
X004951Y006145D01*
G37*
G36*
X003429Y007219D02*
X003363Y007525D01*
X003669Y007591D01*
X003735Y007285D01*
X003429Y007219D01*
G37*
G36*
X003323Y007781D02*
X003290Y008092D01*
X003601Y008125D01*
X003634Y007814D01*
X003323Y007781D01*
G37*
G36*
X002328Y007676D02*
X002295Y007987D01*
X002606Y008020D01*
X002639Y007709D01*
X002328Y007676D01*
G37*
G36*
X002450Y007012D02*
X002384Y007318D01*
X002690Y007384D01*
X002756Y007078D01*
X002450Y007012D01*
G37*
G36*
X002641Y006364D02*
X002544Y006661D01*
X002841Y006758D01*
X002938Y006461D01*
X002641Y006364D01*
G37*
G36*
X003290Y008921D02*
X003323Y009232D01*
X003634Y009199D01*
X003601Y008888D01*
X003290Y008921D01*
G37*
G36*
X003363Y009487D02*
X003429Y009793D01*
X003735Y009727D01*
X003669Y009421D01*
X003363Y009487D01*
G37*
G36*
X003495Y010043D02*
X003592Y010340D01*
X003889Y010243D01*
X003792Y009946D01*
X003495Y010043D01*
G37*
G36*
X003684Y010581D02*
X003812Y010867D01*
X004098Y010739D01*
X003970Y010453D01*
X003684Y010581D01*
G37*
G36*
X003928Y011097D02*
X004085Y011368D01*
X004356Y011211D01*
X004199Y010940D01*
X003928Y011097D01*
G37*
G36*
X004225Y011585D02*
X004410Y011838D01*
X004663Y011653D01*
X004478Y011400D01*
X004225Y011585D01*
G37*
G36*
X004572Y012039D02*
X004782Y012271D01*
X005014Y012061D01*
X004804Y011829D01*
X004572Y012039D01*
G37*
G36*
X004964Y012453D02*
X005196Y012663D01*
X005406Y012431D01*
X005174Y012221D01*
X004964Y012453D01*
G37*
G36*
X005397Y012824D02*
X005650Y013009D01*
X005835Y012756D01*
X005582Y012571D01*
X005397Y012824D01*
G37*
G36*
X005867Y013149D02*
X006138Y013306D01*
X006295Y013035D01*
X006024Y012878D01*
X005867Y013149D01*
G37*
G36*
X006367Y013423D02*
X006653Y013551D01*
X006781Y013265D01*
X006495Y013137D01*
X006367Y013423D01*
G37*
G36*
X005367Y014015D02*
X005638Y014172D01*
X005795Y013901D01*
X005524Y013744D01*
X005367Y014015D01*
G37*
G36*
X004809Y013633D02*
X005062Y013818D01*
X005247Y013565D01*
X004994Y013380D01*
X004809Y013633D01*
G37*
G36*
X004295Y013196D02*
X004527Y013406D01*
X004737Y013174D01*
X004505Y012964D01*
X004295Y013196D01*
G37*
G36*
X003829Y012708D02*
X004039Y012940D01*
X004271Y012730D01*
X004061Y012498D01*
X003829Y012708D01*
G37*
G36*
X003416Y012173D02*
X003601Y012426D01*
X003854Y012241D01*
X003669Y011988D01*
X003416Y012173D01*
G37*
G36*
X003062Y011597D02*
X003219Y011868D01*
X003490Y011711D01*
X003333Y011440D01*
X003062Y011597D01*
G37*
G36*
X002770Y010988D02*
X002898Y011274D01*
X003184Y011146D01*
X003056Y010860D01*
X002770Y010988D01*
G37*
G36*
X002544Y010352D02*
X002641Y010649D01*
X002938Y010552D01*
X002841Y010255D01*
X002544Y010352D01*
G37*
G36*
X002384Y009695D02*
X002450Y010001D01*
X002756Y009935D01*
X002690Y009629D01*
X002384Y009695D01*
G37*
G36*
X002295Y009025D02*
X002328Y009336D01*
X002639Y009303D01*
X002606Y008992D01*
X002295Y009025D01*
G37*
G36*
X004794Y010597D02*
X004951Y010868D01*
X005222Y010711D01*
X005065Y010440D01*
X004794Y010597D01*
G37*
G36*
X006367Y012283D02*
X006638Y012440D01*
X006795Y012169D01*
X006524Y012012D01*
X006367Y012283D01*
G37*
G36*
X006895Y013643D02*
X007192Y013740D01*
X007289Y013443D01*
X006992Y013346D01*
X006895Y013643D01*
G37*
G36*
X005961Y014336D02*
X006247Y014464D01*
X006375Y014178D01*
X006089Y014050D01*
X005961Y014336D01*
G37*
G36*
X006586Y014594D02*
X006883Y014691D01*
X006980Y014394D01*
X006683Y014297D01*
X006586Y014594D01*
G37*
G36*
X007233Y014784D02*
X007539Y014850D01*
X007605Y014544D01*
X007299Y014478D01*
X007233Y014784D01*
G37*
G36*
X007898Y014906D02*
X008209Y014939D01*
X008242Y014628D01*
X007931Y014595D01*
X007898Y014906D01*
G37*
G36*
X008003Y013912D02*
X008314Y013945D01*
X008347Y013634D01*
X008036Y013601D01*
X008003Y013912D01*
G37*
G36*
X007441Y013806D02*
X007747Y013872D01*
X007813Y013566D01*
X007507Y013500D01*
X007441Y013806D01*
G37*
G36*
X009143Y013945D02*
X009454Y013912D01*
X009421Y013601D01*
X009110Y013634D01*
X009143Y013945D01*
G37*
G36*
X009709Y013872D02*
X010015Y013806D01*
X009949Y013500D01*
X009643Y013566D01*
X009709Y013872D01*
G37*
G36*
X010264Y013740D02*
X010561Y013643D01*
X010464Y013346D01*
X010167Y013443D01*
X010264Y013740D01*
G37*
G36*
X010803Y013551D02*
X011089Y013423D01*
X010961Y013137D01*
X010675Y013265D01*
X010803Y013551D01*
G37*
G36*
X011319Y013306D02*
X011590Y013149D01*
X011433Y012878D01*
X011162Y013035D01*
X011319Y013306D01*
G37*
G36*
X011807Y013009D02*
X012060Y012824D01*
X011875Y012571D01*
X011622Y012756D01*
X011807Y013009D01*
G37*
G36*
X012260Y012663D02*
X012492Y012453D01*
X012282Y012221D01*
X012050Y012431D01*
X012260Y012663D01*
G37*
G36*
X012674Y012271D02*
X012884Y012039D01*
X012652Y011829D01*
X012442Y012061D01*
X012674Y012271D01*
G37*
G36*
X013046Y011838D02*
X013231Y011585D01*
X012978Y011400D01*
X012793Y011653D01*
X013046Y011838D01*
G37*
G36*
X013371Y011368D02*
X013528Y011097D01*
X013257Y010940D01*
X013100Y011211D01*
X013371Y011368D01*
G37*
G36*
X013645Y010867D02*
X013773Y010581D01*
X013487Y010453D01*
X013359Y010739D01*
X013645Y010867D01*
G37*
G36*
X013864Y010340D02*
X013961Y010043D01*
X013664Y009946D01*
X013567Y010243D01*
X013864Y010340D01*
G37*
G36*
X014558Y011274D02*
X014686Y010988D01*
X014400Y010860D01*
X014272Y011146D01*
X014558Y011274D01*
G37*
G36*
X014237Y011868D02*
X014394Y011597D01*
X014123Y011440D01*
X013966Y011711D01*
X014237Y011868D01*
G37*
G36*
X013855Y012426D02*
X014040Y012173D01*
X013787Y011988D01*
X013602Y012241D01*
X013855Y012426D01*
G37*
G36*
X013417Y012940D02*
X013627Y012708D01*
X013395Y012498D01*
X013185Y012730D01*
X013417Y012940D01*
G37*
G36*
X012930Y013406D02*
X013162Y013196D01*
X012952Y012964D01*
X012720Y013174D01*
X012930Y013406D01*
G37*
G36*
X012394Y013818D02*
X012647Y013633D01*
X012462Y013380D01*
X012209Y013565D01*
X012394Y013818D01*
G37*
G36*
X011819Y014172D02*
X012090Y014015D01*
X011933Y013744D01*
X011662Y013901D01*
X011819Y014172D01*
G37*
G36*
X011210Y014464D02*
X011496Y014336D01*
X011368Y014050D01*
X011082Y014178D01*
X011210Y014464D01*
G37*
G36*
X010574Y014691D02*
X010871Y014594D01*
X010774Y014297D01*
X010477Y014394D01*
X010574Y014691D01*
G37*
G36*
X009917Y014850D02*
X010223Y014784D01*
X010157Y014478D01*
X009851Y014544D01*
X009917Y014850D01*
G37*
G36*
X009247Y014939D02*
X009558Y014906D01*
X009525Y014595D01*
X009214Y014628D01*
X009247Y014939D01*
G37*
G36*
X010819Y012440D02*
X011090Y012283D01*
X010933Y012012D01*
X010662Y012169D01*
X010819Y012440D01*
G37*
G36*
X012505Y010868D02*
X012662Y010597D01*
X012391Y010440D01*
X012234Y010711D01*
X012505Y010868D01*
G37*
G36*
X014028Y009793D02*
X014094Y009487D01*
X013788Y009421D01*
X013722Y009727D01*
X014028Y009793D01*
G37*
G36*
X014815Y010649D02*
X014912Y010352D01*
X014615Y010255D01*
X014518Y010552D01*
X014815Y010649D01*
G37*
G36*
X015006Y010001D02*
X015072Y009695D01*
X014766Y009629D01*
X014700Y009935D01*
X015006Y010001D01*
G37*
G36*
X015128Y009336D02*
X015161Y009025D01*
X014850Y008992D01*
X014817Y009303D01*
X015128Y009336D01*
G37*
G36*
X014133Y009232D02*
X014166Y008921D01*
X013855Y008888D01*
X013822Y009199D01*
X014133Y009232D01*
G37*
G36*
X014166Y008092D02*
X014133Y007781D01*
X013822Y007814D01*
X013855Y008125D01*
X014166Y008092D01*
G37*
G36*
X014094Y007525D02*
X014028Y007219D01*
X013722Y007285D01*
X013788Y007591D01*
X014094Y007525D01*
G37*
G36*
X013961Y006970D02*
X013864Y006673D01*
X013567Y006770D01*
X013664Y007067D01*
X013961Y006970D01*
G37*
G36*
X013773Y006432D02*
X013645Y006146D01*
X013359Y006274D01*
X013487Y006560D01*
X013773Y006432D01*
G37*
G36*
X013528Y005916D02*
X013371Y005645D01*
X013100Y005802D01*
X013257Y006073D01*
X013528Y005916D01*
G37*
G36*
X013231Y005428D02*
X013046Y005175D01*
X012793Y005360D01*
X012978Y005613D01*
X013231Y005428D01*
G37*
G36*
X012884Y004974D02*
X012674Y004742D01*
X012442Y004952D01*
X012652Y005184D01*
X012884Y004974D01*
G37*
G36*
X012492Y004560D02*
X012260Y004350D01*
X012050Y004582D01*
X012282Y004792D01*
X012492Y004560D01*
G37*
G36*
X012060Y004188D02*
X011807Y004003D01*
X011622Y004256D01*
X011875Y004441D01*
X012060Y004188D01*
G37*
G36*
X011590Y003864D02*
X011319Y003707D01*
X011162Y003978D01*
X011433Y004135D01*
X011590Y003864D01*
G37*
G36*
X011089Y003590D02*
X010803Y003462D01*
X010675Y003748D01*
X010961Y003876D01*
X011089Y003590D01*
G37*
G36*
X010561Y003370D02*
X010264Y003273D01*
X010167Y003570D01*
X010464Y003667D01*
X010561Y003370D01*
G37*
G36*
X010015Y003207D02*
X009709Y003141D01*
X009643Y003447D01*
X009949Y003513D01*
X010015Y003207D01*
G37*
G36*
X010871Y002419D02*
X010574Y002322D01*
X010477Y002619D01*
X010774Y002716D01*
X010871Y002419D01*
G37*
G36*
X011496Y002676D02*
X011210Y002548D01*
X011082Y002834D01*
X011368Y002962D01*
X011496Y002676D01*
G37*
G36*
X012090Y002998D02*
X011819Y002841D01*
X011662Y003112D01*
X011933Y003269D01*
X012090Y002998D01*
G37*
G36*
X012647Y003379D02*
X012394Y003194D01*
X012209Y003447D01*
X012462Y003632D01*
X012647Y003379D01*
G37*
G36*
X013162Y003817D02*
X012930Y003607D01*
X012720Y003839D01*
X012952Y004049D01*
X013162Y003817D01*
G37*
G36*
X013627Y004305D02*
X013417Y004073D01*
X013185Y004283D01*
X013395Y004515D01*
X013627Y004305D01*
G37*
G36*
X014040Y004840D02*
X013855Y004587D01*
X013602Y004772D01*
X013787Y005025D01*
X014040Y004840D01*
G37*
G36*
X014394Y005416D02*
X014237Y005145D01*
X013966Y005302D01*
X014123Y005573D01*
X014394Y005416D01*
G37*
G36*
X014686Y006025D02*
X014558Y005739D01*
X014272Y005867D01*
X014400Y006153D01*
X014686Y006025D01*
G37*
G36*
X014912Y006661D02*
X014815Y006364D01*
X014518Y006461D01*
X014615Y006758D01*
X014912Y006661D01*
G37*
G36*
X015072Y007318D02*
X015006Y007012D01*
X014700Y007078D01*
X014766Y007384D01*
X015072Y007318D01*
G37*
G36*
X015161Y007987D02*
X015128Y007676D01*
X014817Y007709D01*
X014850Y008020D01*
X015161Y007987D01*
G37*
G36*
X012662Y006416D02*
X012505Y006145D01*
X012234Y006302D01*
X012391Y006573D01*
X012662Y006416D01*
G37*
G36*
X011090Y004730D02*
X010819Y004573D01*
X010662Y004844D01*
X010933Y005001D01*
X011090Y004730D01*
G37*
G36*
X009454Y003101D02*
X009143Y003068D01*
X009110Y003379D01*
X009421Y003412D01*
X009454Y003101D01*
G37*
G36*
X010223Y002229D02*
X009917Y002163D01*
X009851Y002469D01*
X010157Y002535D01*
X010223Y002229D01*
G37*
G36*
X009558Y002107D02*
X009247Y002074D01*
X009214Y002385D01*
X009525Y002418D01*
X009558Y002107D01*
G37*
G36*
X006638Y004573D02*
X006367Y004730D01*
X006524Y005001D01*
X006795Y004844D01*
X006638Y004573D01*
G37*
D13*
X007848Y005986D03*
X008828Y005986D03*
D14*
X012358Y008186D03*
X012559Y008186D03*
X012559Y008826D03*
X012358Y008826D03*
X012358Y009086D03*
X012559Y009086D03*
X009819Y011136D03*
X009618Y011136D03*
X007869Y010406D03*
X007668Y010406D03*
X005139Y009086D03*
X004938Y009086D03*
X004938Y008826D03*
X005139Y008826D03*
X005139Y008186D03*
X004938Y008186D03*
D15*
X008398Y004827D03*
X008398Y004626D03*
X009058Y004636D03*
X009058Y004837D03*
X008828Y010456D03*
X008828Y010657D03*
X009178Y012126D03*
X009178Y012327D03*
X008288Y012327D03*
X008288Y012126D03*
D16*
X008227Y005456D03*
X008030Y005456D03*
X008450Y005456D03*
X008647Y005456D03*
D17*
X010528Y007198D03*
X010528Y007395D03*
X008248Y010608D03*
X008248Y010805D03*
D18*
X008228Y011296D03*
X007228Y011296D03*
X009228Y011296D03*
X010228Y011296D03*
D19*
X007318Y010404D03*
X007318Y010089D03*
D20*
X007044Y007136D03*
X007044Y006646D03*
X006532Y006646D03*
X006532Y007136D03*
D21*
X006690Y007566D03*
X006887Y007566D03*
D22*
X007842Y007207D03*
X008039Y007207D03*
X008236Y007207D03*
X008433Y007207D03*
X008630Y007207D03*
X008827Y007207D03*
X009023Y007207D03*
X009220Y007207D03*
X009417Y007207D03*
X009614Y007207D03*
X009614Y009806D03*
X009417Y009806D03*
X009220Y009806D03*
X009023Y009806D03*
X008827Y009806D03*
X008630Y009806D03*
X008433Y009806D03*
X008236Y009806D03*
X008039Y009806D03*
X007842Y009806D03*
D23*
X007429Y009392D03*
X007429Y009195D03*
X007429Y008999D03*
X007429Y008802D03*
X007429Y008605D03*
X007429Y008408D03*
X007429Y008211D03*
X007429Y008014D03*
X007429Y007817D03*
X007429Y007621D03*
X010027Y007621D03*
X010027Y007817D03*
X010027Y008014D03*
X010027Y008211D03*
X010027Y008408D03*
X010027Y008605D03*
X010027Y008802D03*
X010027Y008999D03*
X010027Y009195D03*
X010027Y009392D03*
D24*
X008728Y008506D03*
D25*
X008728Y008506D03*
X008334Y008506D03*
X008334Y008900D03*
X008728Y008900D03*
X009122Y008900D03*
X009122Y008506D03*
X009122Y008113D03*
X008728Y008113D03*
X008334Y008113D03*
D26*
X007449Y003687D02*
X007671Y003629D01*
X007896Y003581D01*
X008123Y003544D01*
X008352Y003518D01*
X008581Y003503D01*
X008811Y003499D01*
X009041Y003506D01*
X009270Y003524D01*
X009499Y003552D01*
X009725Y003592D01*
X009950Y003642D01*
X010171Y003703D01*
X010390Y003774D01*
X010605Y003856D01*
X010816Y003948D01*
X011022Y004049D01*
X011223Y004161D01*
X011419Y004282D01*
X011609Y004412D01*
X011792Y004551D01*
X011969Y004698D01*
X012138Y004854D01*
X012300Y005017D01*
X012453Y005189D01*
X012599Y005367D01*
X012598Y005366D02*
X012534Y005741D01*
X012918Y005786D01*
X013314Y005859D02*
X013012Y005394D01*
X012663Y004963D01*
X012271Y004571D01*
X011841Y004223D01*
X011376Y003921D02*
X010882Y003669D01*
X010364Y003470D01*
X009829Y003327D01*
X009282Y003240D01*
X008728Y003211D01*
X008458Y003225D01*
X008418Y002506D01*
X008728Y002211D02*
X008070Y002246D01*
X007419Y002349D01*
X006783Y002519D01*
X006168Y002755D01*
X005581Y003055D01*
X005028Y003414D01*
X004516Y003828D02*
X004050Y004294D01*
X003635Y004806D01*
X003276Y005359D01*
X002977Y005946D01*
X002741Y006561D01*
X002570Y007198D01*
X002467Y007848D01*
X002448Y008176D01*
X003028Y008206D01*
X003462Y007953D02*
X003433Y008506D01*
X003448Y008786D01*
X003058Y008806D01*
X003448Y008786D02*
X003462Y009060D01*
X003549Y009607D01*
X003692Y010143D01*
X003408Y010546D02*
X002828Y010766D01*
X002977Y011067D01*
X003276Y011654D01*
X003635Y012207D01*
X004050Y012719D01*
X004516Y013185D01*
X005028Y013599D01*
X005581Y013958D01*
X006168Y014257D01*
X006783Y014494D01*
X007419Y014664D01*
X008070Y014767D01*
X008728Y014802D01*
X008428Y014216D02*
X008459Y013788D01*
X008728Y013802D01*
X008459Y013788D02*
X008175Y013773D01*
X007627Y013686D01*
X007092Y013543D01*
X006574Y013344D01*
X006081Y013092D01*
X005616Y012790D01*
X005185Y012442D01*
X004793Y012050D01*
X004444Y011619D01*
X004142Y011154D01*
X003891Y010660D01*
X004568Y011206D02*
X004922Y011272D01*
X004848Y011666D01*
X005480Y010908D02*
X005520Y010359D01*
X005682Y010196D01*
X006548Y010196D01*
X006798Y010616D02*
X006876Y010694D01*
X006876Y011715D01*
X007477Y011715D01*
X007988Y012226D01*
X007988Y012826D01*
X008236Y013075D01*
X008236Y013185D01*
X007750Y013108D02*
X007750Y013008D01*
X007750Y013108D02*
X007750Y012538D01*
X007658Y012446D01*
X008288Y012327D02*
X008348Y012576D01*
X008728Y012692D02*
X008728Y012802D01*
X008728Y012692D02*
X008988Y012432D01*
X008988Y011936D01*
X008828Y011786D01*
X008738Y011696D01*
X008738Y010747D01*
X008828Y010657D01*
X008828Y010456D02*
X008828Y009807D01*
X009023Y009806D02*
X009023Y010841D01*
X008888Y010976D01*
X008888Y011596D01*
X009178Y011886D01*
X009178Y012126D01*
X009178Y012327D02*
X009118Y012586D01*
X009478Y012236D02*
X010000Y011715D01*
X010581Y011715D01*
X010581Y010316D01*
X010358Y010316D01*
X010581Y010316D02*
X010581Y009391D01*
X010027Y009391D01*
X010027Y009392D01*
X010027Y009196D02*
X010027Y009195D01*
X010027Y009196D02*
X010968Y009196D01*
X010608Y009391D02*
X010581Y009391D01*
X010608Y009391D02*
X012458Y009386D01*
X012718Y009266D02*
X012718Y009246D01*
X012559Y009086D01*
X012358Y009086D02*
X012270Y008999D01*
X010027Y008999D01*
X012599Y009756D02*
X012637Y009636D01*
X012670Y009514D01*
X012697Y009391D01*
X012719Y009266D01*
X012728Y008826D02*
X012559Y008826D01*
X012358Y008826D02*
X012333Y008802D01*
X010027Y008802D01*
X010027Y008605D02*
X012334Y008605D01*
X012433Y008506D01*
X012333Y008211D02*
X012358Y008186D01*
X012333Y008211D02*
X010027Y008211D01*
X010040Y008026D02*
X010027Y008014D01*
X010040Y008026D02*
X010578Y008026D01*
X012268Y008026D01*
X012528Y007766D01*
X012758Y007766D01*
X012728Y008186D02*
X012559Y008186D01*
X011937Y007618D02*
X011738Y007816D01*
X010028Y007816D01*
X010027Y007621D02*
X010302Y007621D01*
X010528Y007395D01*
X010528Y007198D02*
X010528Y007006D01*
X009815Y007006D01*
X009614Y007207D01*
X009418Y007208D02*
X009417Y007207D01*
X009417Y006897D01*
X009568Y006746D01*
X010058Y006746D01*
X010098Y006786D01*
X009568Y006576D02*
X009568Y005196D01*
X009278Y004906D01*
X009128Y004906D01*
X009058Y004837D01*
X009058Y004636D02*
X009028Y004436D01*
X008728Y004802D02*
X008943Y005016D01*
X009228Y005016D01*
X009458Y005246D01*
X009458Y006526D01*
X009248Y006736D01*
X009023Y006736D01*
X009023Y007207D01*
X008827Y007207D02*
X008827Y006626D01*
X008828Y006626D01*
X009198Y006626D01*
X009348Y006476D01*
X009348Y005296D01*
X009178Y005126D01*
X008508Y005126D01*
X008398Y005016D01*
X008398Y004827D01*
X008398Y004626D02*
X008428Y004436D01*
X008238Y003829D02*
X008236Y003828D01*
X008175Y003240D02*
X007627Y003327D01*
X007092Y003470D01*
X006574Y003669D01*
X006081Y003921D01*
X005616Y004223D01*
X005185Y004571D02*
X004793Y004963D01*
X004444Y005394D01*
X004142Y005859D01*
X003891Y006353D01*
X003692Y006870D01*
X003549Y007406D01*
X003462Y007953D01*
X002448Y008176D02*
X002433Y008506D01*
X002467Y009164D01*
X002570Y009815D01*
X002741Y010452D01*
X004738Y009206D02*
X004858Y009086D01*
X004938Y009086D01*
X005139Y009086D02*
X005226Y008999D01*
X007429Y008999D01*
X007428Y009196D02*
X006648Y009196D01*
X006588Y009196D01*
X006648Y009196D02*
X005418Y009196D01*
X005288Y009326D01*
X005068Y009326D01*
X005068Y009566D02*
X005298Y009566D01*
X005468Y009396D01*
X006428Y009396D01*
X006788Y009396D01*
X006798Y009406D01*
X006798Y010616D01*
X007318Y010404D02*
X007665Y010404D01*
X007668Y010406D01*
X007868Y010407D02*
X007869Y010406D01*
X007898Y010406D01*
X007898Y010396D01*
X008038Y010256D01*
X007868Y010407D02*
X007868Y010656D01*
X008017Y010805D01*
X008248Y010805D01*
X008248Y010608D02*
X008248Y010396D01*
X008288Y010356D01*
X008578Y010336D02*
X008630Y010285D01*
X008630Y009806D01*
X008578Y010336D02*
X008578Y012061D01*
X008728Y012211D01*
X008288Y012126D02*
X008288Y011686D01*
X009228Y011296D02*
X009418Y011106D01*
X009418Y009807D01*
X009220Y009806D02*
X009220Y010649D01*
X009608Y010256D02*
X009608Y011127D01*
X009618Y011136D01*
X009618Y011266D01*
X009738Y011386D01*
X010138Y011386D01*
X010228Y011296D01*
X009819Y011136D02*
X010098Y010857D01*
X010098Y010146D01*
X009618Y010046D02*
X009618Y009810D01*
X009618Y010046D02*
X009608Y010056D01*
X009608Y010256D01*
X011108Y010206D02*
X011784Y010206D01*
X011937Y010359D01*
X011937Y010088D01*
X012338Y009686D01*
X011937Y010359D02*
X011937Y010895D01*
X011938Y010896D01*
X012534Y011272D02*
X012928Y011226D01*
X013314Y011154D02*
X013012Y011619D01*
X012663Y012050D01*
X012271Y012442D01*
X011841Y012790D01*
X011376Y013092D01*
X010882Y013344D01*
X010364Y013543D01*
X009829Y013686D01*
X009282Y013773D01*
X009028Y014026D01*
X009028Y014206D01*
X009386Y014767D02*
X010037Y014664D01*
X010674Y014494D01*
X011289Y014257D01*
X011876Y013958D01*
X012428Y013599D01*
X012941Y013185D01*
X013406Y012719D01*
X013821Y012207D01*
X014180Y011654D01*
X014479Y011067D01*
X014715Y010452D01*
X014798Y010136D01*
X014248Y009986D01*
X013764Y010143D02*
X013566Y010660D01*
X013314Y011154D01*
X014886Y009815D02*
X014989Y009164D01*
X015023Y008506D01*
X015006Y008176D01*
X014898Y008186D01*
X015006Y008176D02*
X014989Y007848D01*
X014886Y007198D01*
X014715Y006561D01*
X014479Y005946D01*
X014180Y005359D01*
X013821Y004806D01*
X013406Y004294D01*
X012941Y003828D01*
X012428Y003414D01*
X011876Y003055D02*
X011289Y002755D01*
X010674Y002519D01*
X010037Y002349D01*
X009386Y002246D01*
X009059Y002229D01*
X009058Y002226D01*
X009059Y002229D02*
X008728Y002211D01*
X009058Y002506D02*
X008728Y002802D01*
X008458Y003225D02*
X008175Y003240D01*
X007448Y003686D02*
X007274Y004032D01*
X006978Y004966D02*
X006876Y005298D01*
X007428Y005356D02*
X007428Y006466D01*
X007518Y006506D01*
X007998Y006506D01*
X008038Y006596D01*
X008038Y006802D01*
X008039Y006802D01*
X008039Y007206D01*
X008039Y007205D01*
X008039Y006802D01*
X008102Y006802D01*
X008116Y006806D01*
X008116Y006488D01*
X008085Y006451D01*
X007596Y006451D01*
X007543Y006399D01*
X007543Y005574D01*
X007596Y005521D01*
X007832Y005521D01*
X007891Y005443D01*
X007891Y005350D01*
X007943Y005298D01*
X008084Y005298D01*
X008098Y005284D01*
X008127Y005266D01*
X008160Y005258D01*
X008226Y005258D01*
X008226Y005456D01*
X008227Y005456D01*
X008227Y005258D01*
X008293Y005258D01*
X008326Y005266D01*
X008338Y005273D01*
X008350Y005266D01*
X008383Y005258D01*
X008450Y005258D01*
X008516Y005258D01*
X008549Y005266D01*
X008579Y005284D01*
X008593Y005298D01*
X008733Y005298D01*
X008786Y005350D01*
X008786Y005457D01*
X008824Y005521D01*
X009080Y005521D01*
X009133Y005574D01*
X009133Y006399D01*
X009228Y006399D01*
X009228Y006427D02*
X009228Y005346D01*
X009128Y005246D01*
X008558Y005246D01*
X008458Y005246D01*
X008449Y005236D01*
X007568Y005236D01*
X007428Y005356D01*
X007441Y005345D02*
X007896Y005345D01*
X007891Y005404D02*
X007428Y005404D01*
X007428Y005462D02*
X007876Y005462D01*
X007833Y005521D02*
X007428Y005521D01*
X007428Y005579D02*
X007543Y005579D01*
X007543Y005638D02*
X007428Y005638D01*
X007428Y005696D02*
X007543Y005696D01*
X007543Y005755D02*
X007428Y005755D01*
X007428Y005813D02*
X007543Y005813D01*
X007543Y005872D02*
X007428Y005872D01*
X007428Y005931D02*
X007543Y005931D01*
X007543Y005989D02*
X007428Y005989D01*
X007428Y006048D02*
X007543Y006048D01*
X007543Y006106D02*
X007428Y006106D01*
X007428Y006165D02*
X007543Y006165D01*
X007543Y006223D02*
X007428Y006223D01*
X007428Y006282D02*
X007543Y006282D01*
X007543Y006340D02*
X007428Y006340D01*
X007428Y006399D02*
X007543Y006399D01*
X007428Y006457D02*
X008090Y006457D01*
X008116Y006516D02*
X008002Y006516D01*
X008028Y006575D02*
X008116Y006575D01*
X008116Y006633D02*
X008038Y006633D01*
X008038Y006692D02*
X008116Y006692D01*
X008116Y006750D02*
X008038Y006750D01*
X008039Y006809D02*
X008039Y006809D01*
X008039Y006867D02*
X008039Y006867D01*
X008039Y006926D02*
X008039Y006926D01*
X008039Y006984D02*
X008039Y006984D01*
X008039Y007043D02*
X008039Y007043D01*
X008039Y007101D02*
X008039Y007101D01*
X008039Y007160D02*
X008039Y007160D01*
X007842Y007207D02*
X007842Y007501D01*
X007978Y007636D01*
X009298Y007636D01*
X009418Y007516D01*
X009418Y007208D01*
X009220Y007207D02*
X009220Y006846D01*
X009308Y006846D01*
X009568Y006576D01*
X009228Y006427D02*
X009149Y006506D01*
X008678Y006506D01*
X008628Y006606D01*
X008628Y006802D01*
X008567Y006802D01*
X008553Y006806D01*
X008553Y006496D01*
X008591Y006451D01*
X009080Y006451D01*
X009133Y006399D01*
X009133Y006340D02*
X009228Y006340D01*
X009228Y006282D02*
X009133Y006282D01*
X009133Y006223D02*
X009228Y006223D01*
X009228Y006165D02*
X009133Y006165D01*
X009133Y006106D02*
X009228Y006106D01*
X009228Y006048D02*
X009133Y006048D01*
X009133Y005989D02*
X009228Y005989D01*
X009228Y005931D02*
X009133Y005931D01*
X009133Y005872D02*
X009228Y005872D01*
X009228Y005813D02*
X009133Y005813D01*
X009133Y005755D02*
X009228Y005755D01*
X009228Y005696D02*
X009133Y005696D01*
X009133Y005638D02*
X009228Y005638D01*
X009228Y005579D02*
X009133Y005579D01*
X009228Y005521D02*
X008823Y005521D01*
X008789Y005462D02*
X009228Y005462D01*
X009228Y005404D02*
X008786Y005404D01*
X008781Y005345D02*
X009227Y005345D01*
X009169Y005287D02*
X008582Y005287D01*
X008450Y005287D02*
X008450Y005287D01*
X008450Y005258D02*
X008450Y005456D01*
X008450Y005456D01*
X008450Y005258D01*
X008450Y005345D02*
X008450Y005345D01*
X008450Y005404D02*
X008450Y005404D01*
X008449Y005456D02*
X008406Y005456D01*
X008227Y005456D01*
X008227Y005457D01*
X008226Y005457D01*
X008226Y005655D01*
X008160Y005655D01*
X008153Y005653D01*
X008153Y006161D01*
X008324Y006363D01*
X008338Y006377D01*
X008345Y006370D01*
X008523Y006160D01*
X008523Y005653D01*
X008516Y005655D01*
X008450Y005655D01*
X008450Y005457D01*
X008450Y005457D01*
X008450Y005655D01*
X008383Y005655D01*
X008350Y005646D01*
X008338Y005639D01*
X008326Y005646D01*
X008293Y005655D01*
X008227Y005655D01*
X008227Y005457D01*
X008406Y005457D01*
X008449Y005457D01*
X008449Y005456D01*
X008450Y005456D02*
X008227Y005456D01*
X008226Y005462D02*
X008227Y005462D01*
X008226Y005404D02*
X008227Y005404D01*
X008226Y005345D02*
X008227Y005345D01*
X008226Y005287D02*
X008227Y005287D01*
X008095Y005287D02*
X007510Y005287D01*
X007828Y005728D02*
X007848Y005986D01*
X008236Y006444D01*
X008236Y007207D01*
X008433Y007207D02*
X008433Y006452D01*
X008828Y005986D01*
X008808Y005733D01*
X008647Y005456D01*
X008450Y005462D02*
X008450Y005462D01*
X008450Y005521D02*
X008450Y005521D01*
X008450Y005579D02*
X008450Y005579D01*
X008450Y005638D02*
X008450Y005638D01*
X008523Y005696D02*
X008153Y005696D01*
X008153Y005755D02*
X008523Y005755D01*
X008523Y005813D02*
X008153Y005813D01*
X008153Y005872D02*
X008523Y005872D01*
X008523Y005931D02*
X008153Y005931D01*
X008153Y005989D02*
X008523Y005989D01*
X008523Y006048D02*
X008153Y006048D01*
X008153Y006106D02*
X008523Y006106D01*
X008519Y006165D02*
X008156Y006165D01*
X008206Y006223D02*
X008470Y006223D01*
X008420Y006282D02*
X008256Y006282D01*
X008305Y006340D02*
X008370Y006340D01*
X008585Y006457D02*
X009197Y006457D01*
X008828Y006626D02*
X008827Y006628D01*
X008673Y006516D02*
X008553Y006516D01*
X008553Y006575D02*
X008644Y006575D01*
X008628Y006633D02*
X008553Y006633D01*
X008553Y006692D02*
X008628Y006692D01*
X008628Y006696D02*
X008630Y006698D01*
X008630Y007207D01*
X008628Y006750D02*
X008553Y006750D01*
X008098Y004586D02*
X007990Y004596D01*
X007882Y004610D01*
X007775Y004630D01*
X007669Y004655D01*
X007565Y004685D01*
X007462Y004720D01*
X007360Y004760D01*
X007261Y004805D01*
X007164Y004854D01*
X007070Y004908D01*
X006978Y004966D01*
X007828Y005728D02*
X008030Y005456D01*
X008226Y005521D02*
X008227Y005521D01*
X008226Y005579D02*
X008227Y005579D01*
X008226Y005638D02*
X008227Y005638D01*
X007044Y006646D02*
X007044Y007136D01*
X007115Y007207D01*
X007842Y007207D01*
X007428Y007816D02*
X005738Y007816D01*
X005520Y007598D01*
X005520Y006654D01*
X006208Y007146D02*
X006522Y007146D01*
X006532Y007136D01*
X006532Y006646D01*
X007115Y007207D02*
X006887Y007436D01*
X006887Y007566D01*
X006690Y007566D02*
X006680Y007576D01*
X006278Y007576D01*
X006888Y008006D02*
X007421Y008006D01*
X007429Y008211D02*
X005163Y008211D01*
X005139Y008186D01*
X004938Y008186D02*
X004728Y008206D01*
X005023Y008506D02*
X005122Y008605D01*
X007429Y008605D01*
X007429Y008802D02*
X005173Y008802D01*
X005139Y008826D01*
X004938Y008826D02*
X004728Y008806D01*
X005238Y008006D02*
X006888Y008006D01*
X006958Y008406D02*
X006960Y008408D01*
X007429Y008408D01*
X004738Y009206D02*
X004749Y009303D01*
X004763Y009399D01*
X004782Y009495D01*
X004805Y009590D01*
X004833Y009684D01*
X004864Y009776D01*
X004899Y009867D01*
X004938Y009956D01*
X006788Y009396D02*
X007075Y009396D01*
X007078Y009393D01*
X007428Y009393D01*
X007429Y009392D01*
X007078Y009393D02*
X006878Y009393D01*
X006876Y009393D01*
X007078Y009636D02*
X007078Y011146D01*
X007228Y011296D01*
X007318Y010089D02*
X007842Y010089D01*
X007842Y009806D01*
X014319Y006357D02*
X014208Y006092D01*
X014085Y005833D01*
X013951Y005580D01*
X013804Y005334D01*
X013646Y005095D01*
X013476Y004863D01*
X013296Y004640D01*
X013106Y004426D01*
X012906Y004221D01*
X012696Y004025D01*
X012477Y003840D01*
X012250Y003665D01*
X012014Y003501D01*
X011772Y003349D01*
X011522Y003208D01*
X011266Y003079D01*
X011004Y002962D01*
X010737Y002858D01*
X010465Y002767D01*
X010189Y002688D01*
X009910Y002623D01*
X009628Y002571D01*
X009344Y002532D01*
X009059Y002507D01*
X010508Y004966D02*
X010581Y005298D01*
X011937Y006654D02*
X011937Y007618D01*
X010978Y008406D02*
X010770Y008406D01*
X010768Y008408D01*
X010027Y008408D01*
X010768Y008408D02*
X010977Y008408D01*
X010978Y008406D01*
X007658Y012447D02*
X007429Y012357D01*
X007206Y012257D01*
X006987Y012146D01*
X006774Y012024D01*
X006567Y011893D01*
X006366Y011751D01*
X006173Y011600D01*
X005987Y011440D01*
X005810Y011271D01*
X005640Y011094D01*
X005480Y010908D01*
X005238Y008006D02*
X004998Y007766D01*
X004688Y007766D01*
X004548Y005786D02*
X004922Y005741D01*
X012918Y005786D02*
X013042Y005991D01*
X013157Y006201D01*
X013261Y006416D01*
X013355Y006636D01*
X013438Y006861D01*
X013511Y007089D01*
X013573Y007320D01*
X013624Y007553D01*
X013664Y007789D01*
X013693Y008027D01*
X013710Y008266D01*
X013716Y008505D01*
X013711Y008744D01*
X013694Y008983D01*
X013666Y009220D01*
X013628Y009456D01*
X013577Y009690D01*
X013516Y009922D01*
X013444Y010150D01*
X013362Y010374D01*
X013269Y010595D01*
X013165Y010810D01*
X013052Y011021D01*
X012928Y011226D01*
X013908Y009607D02*
X013994Y009060D01*
X014009Y008776D01*
X014418Y008806D01*
X014009Y008776D02*
X014023Y008506D01*
X013994Y007953D01*
X013908Y007406D01*
X013764Y006870D01*
X013566Y006353D01*
X013314Y005859D01*
X014318Y006356D02*
X014154Y006744D01*
X010508Y004966D02*
X010414Y004906D01*
X010317Y004849D01*
X010218Y004798D01*
X010116Y004751D01*
X010012Y004710D01*
X009907Y004673D01*
X009799Y004641D01*
X009690Y004615D01*
X009581Y004593D01*
X009470Y004577D01*
X009358Y004566D01*
X004847Y011667D02*
X005003Y011849D01*
X005168Y012023D01*
X005340Y012189D01*
X005520Y012346D01*
X005707Y012496D01*
X005902Y012636D01*
X006102Y012766D01*
X006309Y012887D01*
X006521Y012999D01*
X006738Y013100D01*
X006959Y013190D01*
X007185Y013271D01*
X007414Y013340D01*
X007646Y013398D01*
X007881Y013446D01*
X008117Y013482D01*
X008355Y013507D01*
X008594Y013521D01*
X008834Y013524D01*
X009073Y013515D01*
X009312Y013495D01*
X009549Y013463D01*
X009785Y013421D01*
X010018Y013367D01*
X010018Y013366D02*
X010182Y013203D01*
X010182Y012981D01*
X009708Y012496D02*
X009928Y012346D01*
X011078Y012578D02*
X011081Y012581D01*
X009928Y012346D02*
X010111Y012282D01*
X010291Y012210D01*
X010467Y012129D01*
X010639Y012039D01*
X010806Y011941D01*
X010969Y011836D01*
X011126Y011722D01*
X011277Y011602D01*
X011423Y011474D01*
X011562Y011339D01*
X011695Y011197D01*
X011820Y011050D01*
X011938Y010896D01*
X004568Y011207D02*
X004442Y011004D01*
X004327Y010795D01*
X004222Y010580D01*
X004127Y010361D01*
X004042Y010138D01*
X003969Y009911D01*
X003906Y009681D01*
X003854Y009448D01*
X003814Y009213D01*
X003785Y008976D01*
X003767Y008738D01*
X003760Y008499D01*
X003765Y008261D01*
X003781Y008023D01*
X003809Y007786D01*
X003847Y007550D01*
X003897Y007317D01*
X003958Y007086D01*
X004030Y006859D01*
X004113Y006635D01*
X004206Y006415D01*
X004310Y006200D01*
X004424Y005990D01*
X004548Y005786D01*
X010876Y012226D02*
X011051Y012120D01*
X011220Y012005D01*
X011384Y011883D01*
X011541Y011753D01*
X011693Y011615D01*
X011837Y011471D01*
X011975Y011319D01*
X012105Y011162D01*
X012227Y010998D01*
X012342Y010829D01*
X012448Y010654D01*
X006580Y004787D02*
X006405Y004893D01*
X006236Y005008D01*
X006072Y005130D01*
X005915Y005260D01*
X005763Y005398D01*
X005619Y005542D01*
X005481Y005694D01*
X005351Y005851D01*
X005229Y006015D01*
X005114Y006184D01*
X005008Y006359D01*
X005008Y006358D02*
X004910Y006538D01*
X004821Y006722D01*
X004741Y006910D01*
X004669Y007101D01*
X004607Y007296D01*
X004554Y007493D01*
X004511Y007693D01*
X004477Y007895D01*
X004452Y008098D01*
X004438Y008302D01*
X004433Y008506D01*
X010876Y004787D02*
X011051Y004893D01*
X011220Y005008D01*
X011384Y005130D01*
X011541Y005260D01*
X011693Y005398D01*
X011837Y005542D01*
X011975Y005694D01*
X012105Y005851D01*
X012227Y006015D01*
X012342Y006184D01*
X012448Y006359D01*
X013023Y008506D02*
X013018Y008710D01*
X013004Y008914D01*
X012979Y009117D01*
X012945Y009319D01*
X012902Y009519D01*
X012849Y009716D01*
X012787Y009911D01*
X012715Y010102D01*
X012635Y010290D01*
X012546Y010474D01*
X012448Y010654D01*
X010876Y012227D02*
X010696Y012325D01*
X010512Y012414D01*
X010324Y012494D01*
X010133Y012566D01*
X009938Y012628D01*
X009741Y012681D01*
X009541Y012724D01*
X009339Y012758D01*
X009136Y012783D01*
X008932Y012797D01*
X008728Y012802D01*
X006581Y012226D02*
X006406Y012119D01*
X006237Y012005D01*
X006073Y011882D01*
X005915Y011752D01*
X005764Y011614D01*
X005620Y011470D01*
X005482Y011319D01*
X005352Y011161D01*
X005229Y010997D01*
X005115Y010828D01*
X005008Y010653D01*
X013023Y008506D02*
X013018Y008302D01*
X013004Y008098D01*
X012979Y007895D01*
X012945Y007693D01*
X012902Y007493D01*
X012849Y007296D01*
X012787Y007101D01*
X012715Y006910D01*
X012635Y006722D01*
X012546Y006538D01*
X012448Y006358D01*
X010876Y004786D02*
X010696Y004688D01*
X010512Y004599D01*
X010324Y004519D01*
X010133Y004447D01*
X009938Y004385D01*
X009741Y004332D01*
X009541Y004289D01*
X009339Y004255D01*
X009136Y004230D01*
X008932Y004216D01*
X008728Y004211D01*
X008524Y004216D01*
X008320Y004230D01*
X008117Y004255D01*
X007915Y004289D01*
X007715Y004332D01*
X007518Y004385D01*
X007323Y004447D01*
X007132Y004519D01*
X006944Y004599D01*
X006760Y004688D01*
X006580Y004786D01*
X004433Y008506D02*
X004438Y008710D01*
X004452Y008914D01*
X004477Y009117D01*
X004511Y009319D01*
X004554Y009519D01*
X004607Y009716D01*
X004669Y009911D01*
X004741Y010102D01*
X004821Y010290D01*
X004910Y010474D01*
X005008Y010653D01*
D27*
X005688Y010836D03*
X006548Y010196D03*
X006798Y010616D03*
X007078Y009636D03*
X007578Y009716D03*
X008038Y010256D03*
X008288Y010356D03*
X009220Y010649D03*
X009608Y010256D03*
X010098Y010146D03*
X010358Y010316D03*
X010788Y010836D03*
X011108Y010206D03*
X011228Y009906D03*
X011933Y009716D03*
X012338Y009686D03*
X012598Y009756D03*
X012458Y009386D03*
X012728Y008826D03*
X012728Y008186D03*
X012758Y007766D03*
X010978Y008406D03*
X010578Y008026D03*
X010528Y007006D03*
X010098Y006786D03*
X009778Y006566D03*
X010068Y006366D03*
X011118Y006036D03*
X010098Y005076D03*
X009358Y004566D03*
X009028Y004436D03*
X008428Y004436D03*
X008098Y004586D03*
X007208Y006166D03*
X007548Y006706D03*
X006208Y007146D03*
X005938Y007186D03*
X006278Y007576D03*
X006888Y008006D03*
X006958Y008406D03*
X006648Y009196D03*
X006428Y009396D03*
X005618Y009846D03*
X005068Y009566D03*
X005068Y009326D03*
X004728Y008806D03*
X004728Y008206D03*
X004688Y007766D03*
X005338Y007026D03*
X006098Y006156D03*
X003028Y008206D03*
X003058Y008806D03*
X003408Y010546D03*
X004938Y009956D03*
X008288Y011686D03*
X008348Y012576D03*
X009118Y012586D03*
X009478Y012236D03*
X009708Y012496D03*
X009728Y011656D03*
X009888Y009716D03*
X010968Y009196D03*
X012258Y010156D03*
X014248Y009986D03*
X014418Y008806D03*
X014898Y008186D03*
X009058Y002226D03*
X008418Y002506D03*
X008428Y014216D03*
X009028Y014206D03*
M02*
