G75*
G70*
%OFA0B0*%
%FSLAX24Y24*%
%IPPOS*%
%LPD*%
%AMOC8*
5,1,8,0,0,1.08239X$1,22.5*
%
%ADD10C,0.0380*%
%ADD11R,0.0395X0.0395*%
%ADD12R,0.0370X0.0354*%
%ADD13R,0.0395X0.0395*%
%ADD14R,0.0354X0.0370*%
%ADD15R,0.0510X0.0830*%
%ADD16R,0.0190X0.0249*%
%ADD17R,0.0249X0.0190*%
%ADD18R,0.0178X0.0218*%
%ADD19R,0.0218X0.0178*%
%ADD20R,0.0277X0.0237*%
%ADD21R,0.0356X0.0434*%
%ADD22R,0.0171X0.0631*%
%ADD23R,0.0631X0.0171*%
%ADD24R,0.1222X0.1222*%
%ADD25C,0.0320*%
D10*
X004489Y004689D03*
X004911Y004267D03*
X005375Y003891D03*
X005876Y003566D03*
X006408Y003295D03*
X006965Y003081D03*
X007542Y002926D03*
X008132Y002833D03*
X008728Y002802D03*
X009324Y002833D03*
X009914Y002926D03*
X010491Y003081D03*
X011049Y003295D03*
X011581Y003566D03*
X012081Y003891D03*
X012545Y004267D03*
X012968Y004689D03*
X013343Y005153D03*
X013669Y005654D03*
X013940Y006186D03*
X014154Y006744D03*
X014308Y007320D03*
X014402Y007910D03*
X014433Y008506D03*
X014402Y009103D03*
X014308Y009693D03*
X014154Y010269D03*
X013940Y010827D03*
X013669Y011359D03*
X013343Y011860D03*
X012968Y012324D03*
X012545Y012746D03*
X012081Y013122D03*
X011581Y013447D03*
X011049Y013718D03*
X010491Y013932D03*
X009914Y014086D03*
X009324Y014180D03*
X008728Y014211D03*
X008132Y014180D03*
X007542Y014086D03*
X006965Y013932D03*
X006408Y013718D03*
X005876Y013447D03*
X005375Y013122D03*
X004911Y012746D03*
X004489Y012324D03*
X004113Y011860D03*
X003788Y011359D03*
X003517Y010827D03*
X003303Y010269D03*
X003148Y009693D03*
X003055Y009103D03*
X003023Y008506D03*
X003055Y007910D03*
X003148Y007320D03*
X003303Y006744D03*
X003517Y006186D03*
X003788Y005654D03*
X004113Y005153D03*
X004922Y005741D03*
X004654Y006154D03*
X004430Y006593D03*
X004254Y007053D03*
X004126Y007528D03*
X004049Y008015D03*
X004023Y008506D03*
X004049Y008998D03*
X004126Y009485D03*
X004254Y009960D03*
X004430Y010420D03*
X004654Y010859D03*
X004922Y011272D03*
X005232Y011655D03*
X005580Y012003D03*
X005963Y012313D03*
X006376Y012581D03*
X006815Y012804D03*
X007274Y012981D03*
X007750Y013108D03*
X008236Y013185D03*
X008728Y013211D03*
X009220Y013185D03*
X009706Y013108D03*
X010182Y012981D03*
X010642Y012804D03*
X011081Y012581D03*
X011494Y012313D03*
X011876Y012003D03*
X012224Y011655D03*
X012534Y011272D03*
X012803Y010859D03*
X013026Y010420D03*
X013203Y009960D03*
X013330Y009485D03*
X013407Y008998D03*
X013433Y008506D03*
X013407Y008015D03*
X013330Y007528D03*
X013203Y007053D03*
X013026Y006593D03*
X012803Y006154D03*
X012534Y005741D03*
X012224Y005358D03*
X011876Y005010D03*
X011494Y004700D03*
X011081Y004432D03*
X010642Y004208D03*
X010182Y004032D03*
X009706Y003905D03*
X009220Y003827D03*
X008728Y003802D03*
X008236Y003827D03*
X007750Y003905D03*
X007274Y004032D03*
X006815Y004208D03*
X006376Y004432D03*
X005963Y004700D03*
X005580Y005010D03*
X005232Y005358D03*
X005520Y006654D03*
X006876Y005298D03*
X008728Y004802D03*
X010581Y005298D03*
X011937Y006654D03*
X012433Y008506D03*
X011937Y010359D03*
X010581Y011715D03*
X008728Y012211D03*
X006876Y011715D03*
X005520Y010359D03*
X005023Y008506D03*
D11*
X004433Y008506D03*
X003433Y008506D03*
X002433Y008506D03*
X008728Y004211D03*
X008728Y003211D03*
X008728Y002211D03*
X013023Y008506D03*
X014023Y008506D03*
X015023Y008506D03*
X008728Y012802D03*
X008728Y013802D03*
X008728Y014802D03*
D12*
X008728Y014211D03*
G36*
X008334Y014024D02*
X007967Y013985D01*
X007930Y014336D01*
X008297Y014375D01*
X008334Y014024D01*
G37*
G36*
X007759Y013952D02*
X007398Y013875D01*
X007325Y014220D01*
X007686Y014297D01*
X007759Y013952D01*
G37*
G36*
X007195Y013821D02*
X006844Y013707D01*
X006735Y014043D01*
X007086Y014157D01*
X007195Y013821D01*
G37*
G36*
X006648Y013632D02*
X006311Y013482D01*
X006168Y013804D01*
X006505Y013954D01*
X006648Y013632D01*
G37*
G36*
X006124Y013387D02*
X005805Y013202D01*
X005628Y013507D01*
X005947Y013692D01*
X006124Y013387D01*
G37*
G36*
X005628Y013088D02*
X005330Y012871D01*
X005122Y013156D01*
X005420Y013373D01*
X005628Y013088D01*
G37*
G36*
X005166Y012739D02*
X004892Y012491D01*
X004656Y012753D01*
X004930Y013001D01*
X005166Y012739D01*
G37*
G36*
X004744Y012343D02*
X004496Y012069D01*
X004234Y012305D01*
X004482Y012579D01*
X004744Y012343D01*
G37*
G36*
X004364Y011905D02*
X004147Y011607D01*
X003862Y011815D01*
X004079Y012113D01*
X004364Y011905D01*
G37*
G36*
X005173Y011317D02*
X004956Y011019D01*
X004671Y011227D01*
X004888Y011525D01*
X005173Y011317D01*
G37*
G36*
X005487Y011674D02*
X005239Y011400D01*
X004977Y011636D01*
X005225Y011910D01*
X005487Y011674D01*
G37*
G36*
X005835Y011996D02*
X005561Y011748D01*
X005325Y012010D01*
X005599Y012258D01*
X005835Y011996D01*
G37*
G36*
X006216Y012279D02*
X005918Y012062D01*
X005710Y012347D01*
X006008Y012564D01*
X006216Y012279D01*
G37*
G36*
X006624Y012521D02*
X006305Y012336D01*
X006128Y012641D01*
X006447Y012826D01*
X006624Y012521D01*
G37*
G36*
X007055Y012718D02*
X006718Y012568D01*
X006575Y012890D01*
X006912Y013040D01*
X007055Y012718D01*
G37*
G36*
X007504Y012870D02*
X007153Y012756D01*
X007044Y013092D01*
X007395Y013206D01*
X007504Y012870D01*
G37*
G36*
X007967Y012974D02*
X007606Y012897D01*
X007533Y013242D01*
X007894Y013319D01*
X007967Y012974D01*
G37*
G36*
X008438Y013029D02*
X008071Y012990D01*
X008034Y013341D01*
X008401Y013380D01*
X008438Y013029D01*
G37*
X008728Y013211D03*
G36*
X009385Y012990D02*
X009018Y013029D01*
X009055Y013380D01*
X009422Y013341D01*
X009385Y012990D01*
G37*
G36*
X009850Y012897D02*
X009489Y012974D01*
X009562Y013319D01*
X009923Y013242D01*
X009850Y012897D01*
G37*
G36*
X010303Y012756D02*
X009952Y012870D01*
X010061Y013206D01*
X010412Y013092D01*
X010303Y012756D01*
G37*
G36*
X010739Y012568D02*
X010402Y012718D01*
X010545Y013040D01*
X010882Y012890D01*
X010739Y012568D01*
G37*
G36*
X011152Y012336D02*
X010833Y012521D01*
X011010Y012826D01*
X011329Y012641D01*
X011152Y012336D01*
G37*
G36*
X011539Y012062D02*
X011241Y012279D01*
X011449Y012564D01*
X011747Y012347D01*
X011539Y012062D01*
G37*
G36*
X011895Y011748D02*
X011621Y011996D01*
X011857Y012258D01*
X012131Y012010D01*
X011895Y011748D01*
G37*
G36*
X012217Y011400D02*
X011969Y011674D01*
X012231Y011910D01*
X012479Y011636D01*
X012217Y011400D01*
G37*
G36*
X012500Y011019D02*
X012283Y011317D01*
X012568Y011525D01*
X012785Y011227D01*
X012500Y011019D01*
G37*
G36*
X012743Y010611D02*
X012558Y010930D01*
X012863Y011107D01*
X013048Y010788D01*
X012743Y010611D01*
G37*
G36*
X012940Y010180D02*
X012790Y010517D01*
X013112Y010660D01*
X013262Y010323D01*
X012940Y010180D01*
G37*
G36*
X013092Y009730D02*
X012978Y010081D01*
X013314Y010190D01*
X013428Y009839D01*
X013092Y009730D01*
G37*
G36*
X013196Y009268D02*
X013119Y009629D01*
X013464Y009702D01*
X013541Y009341D01*
X013196Y009268D01*
G37*
G36*
X013251Y008796D02*
X013212Y009163D01*
X013563Y009200D01*
X013602Y008833D01*
X013251Y008796D01*
G37*
G36*
X013212Y007850D02*
X013251Y008217D01*
X013602Y008180D01*
X013563Y007813D01*
X013212Y007850D01*
G37*
G36*
X013119Y007384D02*
X013196Y007745D01*
X013541Y007672D01*
X013464Y007311D01*
X013119Y007384D01*
G37*
G36*
X012978Y006932D02*
X013092Y007283D01*
X013428Y007174D01*
X013314Y006823D01*
X012978Y006932D01*
G37*
G36*
X012790Y006496D02*
X012940Y006833D01*
X013262Y006690D01*
X013112Y006353D01*
X012790Y006496D01*
G37*
G36*
X012558Y006083D02*
X012743Y006402D01*
X013048Y006225D01*
X012863Y005906D01*
X012558Y006083D01*
G37*
G36*
X012283Y005696D02*
X012500Y005994D01*
X012785Y005786D01*
X012568Y005488D01*
X012283Y005696D01*
G37*
G36*
X011969Y005339D02*
X012217Y005613D01*
X012479Y005377D01*
X012231Y005103D01*
X011969Y005339D01*
G37*
G36*
X011621Y005017D02*
X011895Y005265D01*
X012131Y005003D01*
X011857Y004755D01*
X011621Y005017D01*
G37*
G36*
X011241Y004734D02*
X011539Y004951D01*
X011747Y004666D01*
X011449Y004449D01*
X011241Y004734D01*
G37*
G36*
X010833Y004492D02*
X011152Y004677D01*
X011329Y004372D01*
X011010Y004187D01*
X010833Y004492D01*
G37*
G36*
X010402Y004294D02*
X010739Y004444D01*
X010882Y004122D01*
X010545Y003972D01*
X010402Y004294D01*
G37*
G36*
X009952Y004143D02*
X010303Y004257D01*
X010412Y003921D01*
X010061Y003807D01*
X009952Y004143D01*
G37*
G36*
X009489Y004039D02*
X009850Y004116D01*
X009923Y003771D01*
X009562Y003694D01*
X009489Y004039D01*
G37*
G36*
X009018Y003983D02*
X009385Y004022D01*
X009422Y003671D01*
X009055Y003632D01*
X009018Y003983D01*
G37*
X008728Y003802D03*
G36*
X008071Y004022D02*
X008438Y003983D01*
X008401Y003632D01*
X008034Y003671D01*
X008071Y004022D01*
G37*
G36*
X007606Y004116D02*
X007967Y004039D01*
X007894Y003694D01*
X007533Y003771D01*
X007606Y004116D01*
G37*
G36*
X007153Y004257D02*
X007504Y004143D01*
X007395Y003807D01*
X007044Y003921D01*
X007153Y004257D01*
G37*
G36*
X006718Y004444D02*
X007055Y004294D01*
X006912Y003972D01*
X006575Y004122D01*
X006718Y004444D01*
G37*
G36*
X006305Y004677D02*
X006624Y004492D01*
X006447Y004187D01*
X006128Y004372D01*
X006305Y004677D01*
G37*
G36*
X005918Y004951D02*
X006216Y004734D01*
X006008Y004449D01*
X005710Y004666D01*
X005918Y004951D01*
G37*
G36*
X005561Y005265D02*
X005835Y005017D01*
X005599Y004755D01*
X005325Y005003D01*
X005561Y005265D01*
G37*
G36*
X005239Y005613D02*
X005487Y005339D01*
X005225Y005103D01*
X004977Y005377D01*
X005239Y005613D01*
G37*
G36*
X004956Y005994D02*
X005173Y005696D01*
X004888Y005488D01*
X004671Y005786D01*
X004956Y005994D01*
G37*
G36*
X004714Y006402D02*
X004899Y006083D01*
X004594Y005906D01*
X004409Y006225D01*
X004714Y006402D01*
G37*
G36*
X004516Y006833D02*
X004666Y006496D01*
X004344Y006353D01*
X004194Y006690D01*
X004516Y006833D01*
G37*
G36*
X004365Y007283D02*
X004479Y006932D01*
X004143Y006823D01*
X004029Y007174D01*
X004365Y007283D01*
G37*
G36*
X004260Y007745D02*
X004337Y007384D01*
X003992Y007311D01*
X003915Y007672D01*
X004260Y007745D01*
G37*
G36*
X004205Y008217D02*
X004244Y007850D01*
X003893Y007813D01*
X003854Y008180D01*
X004205Y008217D01*
G37*
G36*
X004244Y009163D02*
X004205Y008796D01*
X003854Y008833D01*
X003893Y009200D01*
X004244Y009163D01*
G37*
G36*
X004337Y009629D02*
X004260Y009268D01*
X003915Y009341D01*
X003992Y009702D01*
X004337Y009629D01*
G37*
G36*
X004479Y010081D02*
X004365Y009730D01*
X004029Y009839D01*
X004143Y010190D01*
X004479Y010081D01*
G37*
G36*
X004666Y010517D02*
X004516Y010180D01*
X004194Y010323D01*
X004344Y010660D01*
X004666Y010517D01*
G37*
G36*
X004899Y010930D02*
X004714Y010611D01*
X004409Y010788D01*
X004594Y011107D01*
X004899Y010930D01*
G37*
G36*
X005765Y010430D02*
X005580Y010111D01*
X005275Y010288D01*
X005460Y010607D01*
X005765Y010430D01*
G37*
G36*
X007124Y011655D02*
X006805Y011470D01*
X006628Y011775D01*
X006947Y011960D01*
X007124Y011655D01*
G37*
X008728Y012211D03*
G36*
X010652Y011470D02*
X010333Y011655D01*
X010510Y011960D01*
X010829Y011775D01*
X010652Y011470D01*
G37*
G36*
X011877Y010111D02*
X011692Y010430D01*
X011997Y010607D01*
X012182Y010288D01*
X011877Y010111D01*
G37*
G36*
X013609Y011111D02*
X013424Y011430D01*
X013729Y011607D01*
X013914Y011288D01*
X013609Y011111D01*
G37*
G36*
X013854Y010587D02*
X013704Y010924D01*
X014026Y011067D01*
X014176Y010730D01*
X013854Y010587D01*
G37*
G36*
X014043Y010039D02*
X013929Y010390D01*
X014265Y010499D01*
X014379Y010148D01*
X014043Y010039D01*
G37*
G36*
X014174Y009476D02*
X014097Y009837D01*
X014442Y009910D01*
X014519Y009549D01*
X014174Y009476D01*
G37*
G36*
X014246Y008901D02*
X014207Y009268D01*
X014558Y009305D01*
X014597Y008938D01*
X014246Y008901D01*
G37*
G36*
X014207Y007745D02*
X014246Y008112D01*
X014597Y008075D01*
X014558Y007708D01*
X014207Y007745D01*
G37*
G36*
X014097Y007176D02*
X014174Y007537D01*
X014519Y007464D01*
X014442Y007103D01*
X014097Y007176D01*
G37*
G36*
X013929Y006623D02*
X014043Y006974D01*
X014379Y006865D01*
X014265Y006514D01*
X013929Y006623D01*
G37*
G36*
X013704Y006089D02*
X013854Y006426D01*
X014176Y006283D01*
X014026Y005946D01*
X013704Y006089D01*
G37*
G36*
X013424Y005583D02*
X013609Y005902D01*
X013914Y005725D01*
X013729Y005406D01*
X013424Y005583D01*
G37*
G36*
X013092Y005108D02*
X013309Y005406D01*
X013594Y005198D01*
X013377Y004900D01*
X013092Y005108D01*
G37*
G36*
X012713Y004670D02*
X012961Y004944D01*
X013223Y004708D01*
X012975Y004434D01*
X012713Y004670D01*
G37*
G36*
X012290Y004274D02*
X012564Y004522D01*
X012800Y004260D01*
X012526Y004012D01*
X012290Y004274D01*
G37*
G36*
X011828Y003925D02*
X012126Y004142D01*
X012334Y003857D01*
X012036Y003640D01*
X011828Y003925D01*
G37*
G36*
X011333Y003626D02*
X011652Y003811D01*
X011829Y003506D01*
X011510Y003321D01*
X011333Y003626D01*
G37*
G36*
X010809Y003381D02*
X011146Y003531D01*
X011289Y003209D01*
X010952Y003059D01*
X010809Y003381D01*
G37*
G36*
X010261Y003192D02*
X010612Y003306D01*
X010721Y002970D01*
X010370Y002856D01*
X010261Y003192D01*
G37*
G36*
X009697Y003060D02*
X010058Y003137D01*
X010131Y002792D01*
X009770Y002715D01*
X009697Y003060D01*
G37*
G36*
X009122Y002989D02*
X009489Y003028D01*
X009526Y002677D01*
X009159Y002638D01*
X009122Y002989D01*
G37*
X008728Y002802D03*
G36*
X007967Y003028D02*
X008334Y002989D01*
X008297Y002638D01*
X007930Y002677D01*
X007967Y003028D01*
G37*
G36*
X007398Y003137D02*
X007759Y003060D01*
X007686Y002715D01*
X007325Y002792D01*
X007398Y003137D01*
G37*
G36*
X006844Y003306D02*
X007195Y003192D01*
X007086Y002856D01*
X006735Y002970D01*
X006844Y003306D01*
G37*
G36*
X006311Y003531D02*
X006648Y003381D01*
X006505Y003059D01*
X006168Y003209D01*
X006311Y003531D01*
G37*
G36*
X005805Y003811D02*
X006124Y003626D01*
X005947Y003321D01*
X005628Y003506D01*
X005805Y003811D01*
G37*
G36*
X005330Y004142D02*
X005628Y003925D01*
X005420Y003640D01*
X005122Y003857D01*
X005330Y004142D01*
G37*
G36*
X004892Y004522D02*
X005166Y004274D01*
X004930Y004012D01*
X004656Y004260D01*
X004892Y004522D01*
G37*
G36*
X004496Y004944D02*
X004744Y004670D01*
X004482Y004434D01*
X004234Y004708D01*
X004496Y004944D01*
G37*
G36*
X004147Y005406D02*
X004364Y005108D01*
X004079Y004900D01*
X003862Y005198D01*
X004147Y005406D01*
G37*
G36*
X003848Y005902D02*
X004033Y005583D01*
X003728Y005406D01*
X003543Y005725D01*
X003848Y005902D01*
G37*
G36*
X003603Y006426D02*
X003753Y006089D01*
X003431Y005946D01*
X003281Y006283D01*
X003603Y006426D01*
G37*
G36*
X003414Y006974D02*
X003528Y006623D01*
X003192Y006514D01*
X003078Y006865D01*
X003414Y006974D01*
G37*
G36*
X003282Y007537D02*
X003359Y007176D01*
X003014Y007103D01*
X002937Y007464D01*
X003282Y007537D01*
G37*
G36*
X003211Y008112D02*
X003250Y007745D01*
X002899Y007708D01*
X002860Y008075D01*
X003211Y008112D01*
G37*
G36*
X003250Y009268D02*
X003211Y008901D01*
X002860Y008938D01*
X002899Y009305D01*
X003250Y009268D01*
G37*
G36*
X003359Y009837D02*
X003282Y009476D01*
X002937Y009549D01*
X003014Y009910D01*
X003359Y009837D01*
G37*
G36*
X003528Y010390D02*
X003414Y010039D01*
X003078Y010148D01*
X003192Y010499D01*
X003528Y010390D01*
G37*
G36*
X003753Y010924D02*
X003603Y010587D01*
X003281Y010730D01*
X003431Y011067D01*
X003753Y010924D01*
G37*
G36*
X004033Y011430D02*
X003848Y011111D01*
X003543Y011288D01*
X003728Y011607D01*
X004033Y011430D01*
G37*
G36*
X005580Y006902D02*
X005765Y006583D01*
X005460Y006406D01*
X005275Y006725D01*
X005580Y006902D01*
G37*
G36*
X006805Y005543D02*
X007124Y005358D01*
X006947Y005053D01*
X006628Y005238D01*
X006805Y005543D01*
G37*
X008728Y004802D03*
G36*
X010333Y005358D02*
X010652Y005543D01*
X010829Y005238D01*
X010510Y005053D01*
X010333Y005358D01*
G37*
G36*
X011692Y006583D02*
X011877Y006902D01*
X012182Y006725D01*
X011997Y006406D01*
X011692Y006583D01*
G37*
G36*
X013309Y011607D02*
X013092Y011905D01*
X013377Y012113D01*
X013594Y011815D01*
X013309Y011607D01*
G37*
G36*
X012961Y012069D02*
X012713Y012343D01*
X012975Y012579D01*
X013223Y012305D01*
X012961Y012069D01*
G37*
G36*
X012564Y012491D02*
X012290Y012739D01*
X012526Y013001D01*
X012800Y012753D01*
X012564Y012491D01*
G37*
G36*
X012126Y012871D02*
X011828Y013088D01*
X012036Y013373D01*
X012334Y013156D01*
X012126Y012871D01*
G37*
G36*
X011652Y013202D02*
X011333Y013387D01*
X011510Y013692D01*
X011829Y013507D01*
X011652Y013202D01*
G37*
G36*
X011146Y013482D02*
X010809Y013632D01*
X010952Y013954D01*
X011289Y013804D01*
X011146Y013482D01*
G37*
G36*
X010612Y013707D02*
X010261Y013821D01*
X010370Y014157D01*
X010721Y014043D01*
X010612Y013707D01*
G37*
G36*
X010058Y013875D02*
X009697Y013952D01*
X009770Y014297D01*
X010131Y014220D01*
X010058Y013875D01*
G37*
G36*
X009489Y013985D02*
X009122Y014024D01*
X009159Y014375D01*
X009526Y014336D01*
X009489Y013985D01*
G37*
D13*
G36*
X004036Y004016D02*
X003772Y004308D01*
X004064Y004572D01*
X004328Y004280D01*
X004036Y004016D01*
G37*
G36*
X004530Y003550D02*
X004238Y003814D01*
X004502Y004106D01*
X004794Y003842D01*
X004530Y003550D01*
G37*
G36*
X005071Y003138D02*
X004753Y003370D01*
X004985Y003688D01*
X005303Y003456D01*
X005071Y003138D01*
G37*
G36*
X005653Y002786D02*
X005312Y002983D01*
X005509Y003324D01*
X005850Y003127D01*
X005653Y002786D01*
G37*
G36*
X006267Y002495D02*
X005908Y002656D01*
X006069Y003015D01*
X006428Y002854D01*
X006267Y002495D01*
G37*
G36*
X006909Y002271D02*
X006535Y002393D01*
X006657Y002767D01*
X007031Y002645D01*
X006909Y002271D01*
G37*
G36*
X007570Y002116D02*
X007186Y002198D01*
X007268Y002582D01*
X007652Y002500D01*
X007570Y002116D01*
G37*
G36*
X008245Y002030D02*
X007854Y002071D01*
X007895Y002462D01*
X008286Y002421D01*
X008245Y002030D01*
G37*
G36*
X009602Y002071D02*
X009211Y002030D01*
X009170Y002421D01*
X009561Y002462D01*
X009602Y002071D01*
G37*
G36*
X010270Y002198D02*
X009886Y002116D01*
X009804Y002500D01*
X010188Y002582D01*
X010270Y002198D01*
G37*
G36*
X010922Y002393D02*
X010548Y002271D01*
X010426Y002645D01*
X010800Y002767D01*
X010922Y002393D01*
G37*
G36*
X011549Y002656D02*
X011190Y002495D01*
X011029Y002854D01*
X011388Y003015D01*
X011549Y002656D01*
G37*
G36*
X012145Y002983D02*
X011804Y002786D01*
X011607Y003127D01*
X011948Y003324D01*
X012145Y002983D01*
G37*
G36*
X012703Y003370D02*
X012385Y003138D01*
X012153Y003456D01*
X012471Y003688D01*
X012703Y003370D01*
G37*
G36*
X013219Y003814D02*
X012927Y003550D01*
X012663Y003842D01*
X012955Y004106D01*
X013219Y003814D01*
G37*
G36*
X013684Y004308D02*
X013420Y004016D01*
X013128Y004280D01*
X013392Y004572D01*
X013684Y004308D01*
G37*
G36*
X014096Y004849D02*
X013864Y004531D01*
X013546Y004763D01*
X013778Y005081D01*
X014096Y004849D01*
G37*
G36*
X014449Y005431D02*
X014252Y005090D01*
X013911Y005287D01*
X014108Y005628D01*
X014449Y005431D01*
G37*
G36*
X014739Y006045D02*
X014578Y005686D01*
X014219Y005847D01*
X014380Y006206D01*
X014739Y006045D01*
G37*
G36*
X014963Y006687D02*
X014841Y006313D01*
X014467Y006435D01*
X014589Y006809D01*
X014963Y006687D01*
G37*
G36*
X015119Y007349D02*
X015037Y006965D01*
X014653Y007047D01*
X014735Y007431D01*
X015119Y007349D01*
G37*
G36*
X015205Y008023D02*
X015164Y007632D01*
X014773Y007673D01*
X014814Y008064D01*
X015205Y008023D01*
G37*
G36*
X015164Y009380D02*
X015205Y008989D01*
X014814Y008948D01*
X014773Y009339D01*
X015164Y009380D01*
G37*
G36*
X015037Y010048D02*
X015119Y009664D01*
X014735Y009582D01*
X014653Y009966D01*
X015037Y010048D01*
G37*
G36*
X014841Y010700D02*
X014963Y010326D01*
X014589Y010204D01*
X014467Y010578D01*
X014841Y010700D01*
G37*
G36*
X014578Y011327D02*
X014739Y010968D01*
X014380Y010807D01*
X014219Y011166D01*
X014578Y011327D01*
G37*
G36*
X014252Y011923D02*
X014449Y011582D01*
X014108Y011385D01*
X013911Y011726D01*
X014252Y011923D01*
G37*
G36*
X013864Y012482D02*
X014096Y012164D01*
X013778Y011932D01*
X013546Y012250D01*
X013864Y012482D01*
G37*
G36*
X013420Y012997D02*
X013684Y012705D01*
X013392Y012441D01*
X013128Y012733D01*
X013420Y012997D01*
G37*
G36*
X012927Y013463D02*
X013219Y013199D01*
X012955Y012907D01*
X012663Y013171D01*
X012927Y013463D01*
G37*
G36*
X012385Y013874D02*
X012703Y013642D01*
X012471Y013324D01*
X012153Y013556D01*
X012385Y013874D01*
G37*
G36*
X011804Y014227D02*
X012145Y014030D01*
X011948Y013689D01*
X011607Y013886D01*
X011804Y014227D01*
G37*
G36*
X011190Y014517D02*
X011549Y014356D01*
X011388Y013997D01*
X011029Y014158D01*
X011190Y014517D01*
G37*
G36*
X010548Y014742D02*
X010922Y014620D01*
X010800Y014246D01*
X010426Y014368D01*
X010548Y014742D01*
G37*
G36*
X009886Y014897D02*
X010270Y014815D01*
X010188Y014431D01*
X009804Y014513D01*
X009886Y014897D01*
G37*
G36*
X009211Y014983D02*
X009602Y014942D01*
X009561Y014551D01*
X009170Y014592D01*
X009211Y014983D01*
G37*
G36*
X007854Y014942D02*
X008245Y014983D01*
X008286Y014592D01*
X007895Y014551D01*
X007854Y014942D01*
G37*
G36*
X007186Y014815D02*
X007570Y014897D01*
X007652Y014513D01*
X007268Y014431D01*
X007186Y014815D01*
G37*
G36*
X006535Y014620D02*
X006909Y014742D01*
X007031Y014368D01*
X006657Y014246D01*
X006535Y014620D01*
G37*
G36*
X005908Y014356D02*
X006267Y014517D01*
X006428Y014158D01*
X006069Y013997D01*
X005908Y014356D01*
G37*
G36*
X005312Y014030D02*
X005653Y014227D01*
X005850Y013886D01*
X005509Y013689D01*
X005312Y014030D01*
G37*
G36*
X004753Y013642D02*
X005071Y013874D01*
X005303Y013556D01*
X004985Y013324D01*
X004753Y013642D01*
G37*
G36*
X004238Y013199D02*
X004530Y013463D01*
X004794Y013171D01*
X004502Y012907D01*
X004238Y013199D01*
G37*
G36*
X003772Y012705D02*
X004036Y012997D01*
X004328Y012733D01*
X004064Y012441D01*
X003772Y012705D01*
G37*
G36*
X003360Y012164D02*
X003592Y012482D01*
X003910Y012250D01*
X003678Y011932D01*
X003360Y012164D01*
G37*
G36*
X003007Y011582D02*
X003204Y011923D01*
X003545Y011726D01*
X003348Y011385D01*
X003007Y011582D01*
G37*
G36*
X002717Y010968D02*
X002878Y011327D01*
X003237Y011166D01*
X003076Y010807D01*
X002717Y010968D01*
G37*
G36*
X002493Y010326D02*
X002615Y010700D01*
X002989Y010578D01*
X002867Y010204D01*
X002493Y010326D01*
G37*
G36*
X002337Y009664D02*
X002419Y010048D01*
X002803Y009966D01*
X002721Y009582D01*
X002337Y009664D01*
G37*
G36*
X002251Y008989D02*
X002292Y009380D01*
X002683Y009339D01*
X002642Y008948D01*
X002251Y008989D01*
G37*
G36*
X002292Y007632D02*
X002251Y008023D01*
X002642Y008064D01*
X002683Y007673D01*
X002292Y007632D01*
G37*
G36*
X002419Y006965D02*
X002337Y007349D01*
X002721Y007431D01*
X002803Y007047D01*
X002419Y006965D01*
G37*
G36*
X002615Y006313D02*
X002493Y006687D01*
X002867Y006809D01*
X002989Y006435D01*
X002615Y006313D01*
G37*
G36*
X002878Y005686D02*
X002717Y006045D01*
X003076Y006206D01*
X003237Y005847D01*
X002878Y005686D01*
G37*
G36*
X003204Y005090D02*
X003007Y005431D01*
X003348Y005628D01*
X003545Y005287D01*
X003204Y005090D01*
G37*
G36*
X003592Y004531D02*
X003360Y004849D01*
X003678Y005081D01*
X003910Y004763D01*
X003592Y004531D01*
G37*
G36*
X004401Y005119D02*
X004169Y005437D01*
X004487Y005669D01*
X004719Y005351D01*
X004401Y005119D01*
G37*
G36*
X004779Y004685D02*
X004515Y004977D01*
X004807Y005241D01*
X005071Y004949D01*
X004779Y004685D01*
G37*
G36*
X005199Y004293D02*
X004907Y004557D01*
X005171Y004849D01*
X005463Y004585D01*
X005199Y004293D01*
G37*
G36*
X005659Y003947D02*
X005341Y004179D01*
X005573Y004497D01*
X005891Y004265D01*
X005659Y003947D01*
G37*
G36*
X006153Y003652D02*
X005812Y003849D01*
X006009Y004190D01*
X006350Y003993D01*
X006153Y003652D01*
G37*
G36*
X006673Y003409D02*
X006314Y003570D01*
X006475Y003929D01*
X006834Y003768D01*
X006673Y003409D01*
G37*
G36*
X007218Y003222D02*
X006844Y003344D01*
X006966Y003718D01*
X007340Y003596D01*
X007218Y003222D01*
G37*
G36*
X007778Y003094D02*
X007394Y003176D01*
X007476Y003560D01*
X007860Y003478D01*
X007778Y003094D01*
G37*
G36*
X008350Y003024D02*
X007959Y003065D01*
X008000Y003456D01*
X008391Y003415D01*
X008350Y003024D01*
G37*
G36*
X009498Y003065D02*
X009107Y003024D01*
X009066Y003415D01*
X009457Y003456D01*
X009498Y003065D01*
G37*
G36*
X010062Y003176D02*
X009678Y003094D01*
X009596Y003478D01*
X009980Y003560D01*
X010062Y003176D01*
G37*
G36*
X010612Y003344D02*
X010238Y003222D01*
X010116Y003596D01*
X010490Y003718D01*
X010612Y003344D01*
G37*
G36*
X011142Y003570D02*
X010783Y003409D01*
X010622Y003768D01*
X010981Y003929D01*
X011142Y003570D01*
G37*
G36*
X011645Y003849D02*
X011304Y003652D01*
X011107Y003993D01*
X011448Y004190D01*
X011645Y003849D01*
G37*
G36*
X012116Y004179D02*
X011798Y003947D01*
X011566Y004265D01*
X011884Y004497D01*
X012116Y004179D01*
G37*
G36*
X012549Y004557D02*
X012257Y004293D01*
X011993Y004585D01*
X012285Y004849D01*
X012549Y004557D01*
G37*
G36*
X012941Y004977D02*
X012677Y004685D01*
X012385Y004949D01*
X012649Y005241D01*
X012941Y004977D01*
G37*
G36*
X013287Y005437D02*
X013055Y005119D01*
X012737Y005351D01*
X012969Y005669D01*
X013287Y005437D01*
G37*
G36*
X013583Y005931D02*
X013386Y005590D01*
X013045Y005787D01*
X013242Y006128D01*
X013583Y005931D01*
G37*
G36*
X013826Y006452D02*
X013665Y006093D01*
X013306Y006254D01*
X013467Y006613D01*
X013826Y006452D01*
G37*
G36*
X014012Y006996D02*
X013890Y006622D01*
X013516Y006744D01*
X013638Y007118D01*
X014012Y006996D01*
G37*
G36*
X014141Y007556D02*
X014059Y007172D01*
X013675Y007254D01*
X013757Y007638D01*
X014141Y007556D01*
G37*
G36*
X014210Y008128D02*
X014169Y007737D01*
X013778Y007778D01*
X013819Y008169D01*
X014210Y008128D01*
G37*
G36*
X014169Y009276D02*
X014210Y008885D01*
X013819Y008844D01*
X013778Y009235D01*
X014169Y009276D01*
G37*
G36*
X014059Y009840D02*
X014141Y009456D01*
X013757Y009374D01*
X013675Y009758D01*
X014059Y009840D01*
G37*
G36*
X013890Y010391D02*
X014012Y010017D01*
X013638Y009895D01*
X013516Y010269D01*
X013890Y010391D01*
G37*
G36*
X013665Y010920D02*
X013826Y010561D01*
X013467Y010400D01*
X013306Y010759D01*
X013665Y010920D01*
G37*
G36*
X013386Y011423D02*
X013583Y011082D01*
X013242Y010885D01*
X013045Y011226D01*
X013386Y011423D01*
G37*
G36*
X013055Y011894D02*
X013287Y011576D01*
X012969Y011344D01*
X012737Y011662D01*
X013055Y011894D01*
G37*
G36*
X012677Y012328D02*
X012941Y012036D01*
X012649Y011772D01*
X012385Y012064D01*
X012677Y012328D01*
G37*
G36*
X012257Y012720D02*
X012549Y012456D01*
X012285Y012164D01*
X011993Y012428D01*
X012257Y012720D01*
G37*
G36*
X011798Y013065D02*
X012116Y012833D01*
X011884Y012515D01*
X011566Y012747D01*
X011798Y013065D01*
G37*
G36*
X011304Y013361D02*
X011645Y013164D01*
X011448Y012823D01*
X011107Y013020D01*
X011304Y013361D01*
G37*
G36*
X010783Y013604D02*
X011142Y013443D01*
X010981Y013084D01*
X010622Y013245D01*
X010783Y013604D01*
G37*
G36*
X010238Y013791D02*
X010612Y013669D01*
X010490Y013295D01*
X010116Y013417D01*
X010238Y013791D01*
G37*
G36*
X009678Y013919D02*
X010062Y013837D01*
X009980Y013453D01*
X009596Y013535D01*
X009678Y013919D01*
G37*
G36*
X009107Y013989D02*
X009498Y013948D01*
X009457Y013557D01*
X009066Y013598D01*
X009107Y013989D01*
G37*
G36*
X007959Y013948D02*
X008350Y013989D01*
X008391Y013598D01*
X008000Y013557D01*
X007959Y013948D01*
G37*
G36*
X007394Y013837D02*
X007778Y013919D01*
X007860Y013535D01*
X007476Y013453D01*
X007394Y013837D01*
G37*
G36*
X006844Y013669D02*
X007218Y013791D01*
X007340Y013417D01*
X006966Y013295D01*
X006844Y013669D01*
G37*
G36*
X006314Y013443D02*
X006673Y013604D01*
X006834Y013245D01*
X006475Y013084D01*
X006314Y013443D01*
G37*
G36*
X005812Y013164D02*
X006153Y013361D01*
X006350Y013020D01*
X006009Y012823D01*
X005812Y013164D01*
G37*
G36*
X005341Y012833D02*
X005659Y013065D01*
X005891Y012747D01*
X005573Y012515D01*
X005341Y012833D01*
G37*
G36*
X004907Y012456D02*
X005199Y012720D01*
X005463Y012428D01*
X005171Y012164D01*
X004907Y012456D01*
G37*
G36*
X004515Y012036D02*
X004779Y012328D01*
X005071Y012064D01*
X004807Y011772D01*
X004515Y012036D01*
G37*
G36*
X004169Y011576D02*
X004401Y011894D01*
X004719Y011662D01*
X004487Y011344D01*
X004169Y011576D01*
G37*
G36*
X003873Y011082D02*
X004070Y011423D01*
X004411Y011226D01*
X004214Y010885D01*
X003873Y011082D01*
G37*
G36*
X003631Y010561D02*
X003792Y010920D01*
X004151Y010759D01*
X003990Y010400D01*
X003631Y010561D01*
G37*
G36*
X003444Y010017D02*
X003566Y010391D01*
X003940Y010269D01*
X003818Y009895D01*
X003444Y010017D01*
G37*
G36*
X003316Y009456D02*
X003398Y009840D01*
X003782Y009758D01*
X003700Y009374D01*
X003316Y009456D01*
G37*
G36*
X003246Y008885D02*
X003287Y009276D01*
X003678Y009235D01*
X003637Y008844D01*
X003246Y008885D01*
G37*
G36*
X003287Y007737D02*
X003246Y008128D01*
X003637Y008169D01*
X003678Y007778D01*
X003287Y007737D01*
G37*
G36*
X003398Y007172D02*
X003316Y007556D01*
X003700Y007638D01*
X003782Y007254D01*
X003398Y007172D01*
G37*
G36*
X003566Y006622D02*
X003444Y006996D01*
X003818Y007118D01*
X003940Y006744D01*
X003566Y006622D01*
G37*
G36*
X003792Y006093D02*
X003631Y006452D01*
X003990Y006613D01*
X004151Y006254D01*
X003792Y006093D01*
G37*
G36*
X004070Y005590D02*
X003873Y005931D01*
X004214Y006128D01*
X004411Y005787D01*
X004070Y005590D01*
G37*
G36*
X004936Y006090D02*
X004739Y006431D01*
X005080Y006628D01*
X005277Y006287D01*
X004936Y006090D01*
G37*
G36*
X006653Y004518D02*
X006312Y004715D01*
X006509Y005056D01*
X006850Y004859D01*
X006653Y004518D01*
G37*
G36*
X011145Y004715D02*
X010804Y004518D01*
X010607Y004859D01*
X010948Y005056D01*
X011145Y004715D01*
G37*
G36*
X012717Y006431D02*
X012520Y006090D01*
X012179Y006287D01*
X012376Y006628D01*
X012717Y006431D01*
G37*
G36*
X012520Y010923D02*
X012717Y010582D01*
X012376Y010385D01*
X012179Y010726D01*
X012520Y010923D01*
G37*
G36*
X010804Y012495D02*
X011145Y012298D01*
X010948Y011957D01*
X010607Y012154D01*
X010804Y012495D01*
G37*
G36*
X006312Y012298D02*
X006653Y012495D01*
X006850Y012154D01*
X006509Y011957D01*
X006312Y012298D01*
G37*
G36*
X004739Y010582D02*
X004936Y010923D01*
X005277Y010726D01*
X005080Y010385D01*
X004739Y010582D01*
G37*
D14*
X005023Y008506D03*
X004023Y008506D03*
X003023Y008506D03*
X012433Y008506D03*
X013433Y008506D03*
X014433Y008506D03*
D15*
X008828Y005986D03*
X007848Y005986D03*
D16*
X005139Y008186D03*
X004938Y008186D03*
X004938Y008826D03*
X005139Y008826D03*
X005139Y009086D03*
X004938Y009086D03*
X007668Y010406D03*
X007869Y010406D03*
X009618Y011136D03*
X009819Y011136D03*
X012358Y009086D03*
X012559Y009086D03*
X012559Y008826D03*
X012358Y008826D03*
X012358Y008186D03*
X012559Y008186D03*
D17*
X008828Y010456D03*
X008828Y010657D03*
X009178Y012126D03*
X009178Y012327D03*
X008288Y012327D03*
X008288Y012126D03*
X008398Y004827D03*
X008398Y004626D03*
X009058Y004636D03*
X009058Y004837D03*
D18*
X008647Y005456D03*
X008450Y005456D03*
X008227Y005456D03*
X008030Y005456D03*
D19*
X010528Y007198D03*
X010528Y007395D03*
X008248Y010608D03*
X008248Y010805D03*
D20*
X007318Y010404D03*
X007318Y010089D03*
D21*
X007044Y007136D03*
X007044Y006646D03*
X006532Y006646D03*
X006532Y007136D03*
D22*
X007842Y007207D03*
X008039Y007207D03*
X008236Y007207D03*
X008433Y007207D03*
X008630Y007207D03*
X008827Y007207D03*
X009023Y007207D03*
X009220Y007207D03*
X009417Y007207D03*
X009614Y007207D03*
X009614Y009806D03*
X009417Y009806D03*
X009220Y009806D03*
X009023Y009806D03*
X008827Y009806D03*
X008630Y009806D03*
X008433Y009806D03*
X008236Y009806D03*
X008039Y009806D03*
X007842Y009806D03*
D23*
X007429Y009392D03*
X007429Y009195D03*
X007429Y008999D03*
X007429Y008802D03*
X007429Y008605D03*
X007429Y008408D03*
X007429Y008211D03*
X007429Y008014D03*
X007429Y007817D03*
X007429Y007621D03*
X010027Y007621D03*
X010027Y007817D03*
X010027Y008014D03*
X010027Y008211D03*
X010027Y008408D03*
X010027Y008605D03*
X010027Y008802D03*
X010027Y008999D03*
X010027Y009195D03*
X010027Y009392D03*
D24*
X008728Y008506D03*
D25*
X008728Y008506D03*
X008334Y008506D03*
X008334Y008900D03*
X008728Y008900D03*
X009122Y008900D03*
X009122Y008506D03*
X009122Y008113D03*
X008728Y008113D03*
X008334Y008113D03*
M02*
