G75*
G70*
%OFA0B0*%
%FSLAX24Y24*%
%IPPOS*%
%LPD*%
%AMOC8*
5,1,8,0,0,1.08239X$1,22.5*
%
%ADD10C,0.0320*%
%ADD11R,0.1080X0.2080*%
%ADD12C,0.2580*%
%ADD13C,0.0380*%
%ADD14R,0.0249X0.0190*%
%ADD15R,0.0190X0.0249*%
%ADD16R,0.0474X0.0474*%
%ADD17R,0.0415X0.0414*%
D10*
X008334Y008113D03*
X008728Y008113D03*
X009122Y008113D03*
X009122Y008506D03*
X008728Y008506D03*
X008334Y008506D03*
X008334Y008900D03*
X008728Y008900D03*
X009122Y008900D03*
D11*
X011728Y008506D03*
X005728Y008506D03*
D12*
X008728Y008506D03*
D13*
X004489Y004689D03*
X004911Y004267D03*
X005375Y003891D03*
X005876Y003566D03*
X006408Y003295D03*
X006965Y003081D03*
X007542Y002926D03*
X008132Y002833D03*
X008728Y002802D03*
X009324Y002833D03*
X009914Y002926D03*
X010491Y003081D03*
X011049Y003295D03*
X011581Y003566D03*
X012081Y003891D03*
X012545Y004267D03*
X012968Y004689D03*
X013343Y005153D03*
X013669Y005654D03*
X013940Y006186D03*
X014154Y006744D03*
X014308Y007320D03*
X014402Y007910D03*
X014433Y008506D03*
X014402Y009103D03*
X014308Y009693D03*
X014154Y010269D03*
X013940Y010827D03*
X013669Y011359D03*
X013343Y011860D03*
X012968Y012324D03*
X012545Y012746D03*
X012081Y013122D03*
X011581Y013447D03*
X011049Y013718D03*
X010491Y013932D03*
X009914Y014086D03*
X009324Y014180D03*
X008728Y014211D03*
X008132Y014180D03*
X007542Y014086D03*
X006965Y013932D03*
X006408Y013718D03*
X005876Y013447D03*
X005375Y013122D03*
X004911Y012746D03*
X004489Y012324D03*
X004113Y011860D03*
X003788Y011359D03*
X003517Y010827D03*
X003303Y010269D03*
X003148Y009693D03*
X003055Y009103D03*
X003023Y008506D03*
X003055Y007910D03*
X003148Y007320D03*
X003303Y006744D03*
X003517Y006186D03*
X003788Y005654D03*
X004113Y005153D03*
X004922Y005741D03*
X004654Y006154D03*
X004430Y006593D03*
X004254Y007053D03*
X004126Y007528D03*
X004049Y008015D03*
X004023Y008506D03*
X004049Y008998D03*
X004126Y009485D03*
X004254Y009960D03*
X004430Y010420D03*
X004654Y010859D03*
X004922Y011272D03*
X005232Y011655D03*
X005580Y012003D03*
X005963Y012313D03*
X006376Y012581D03*
X006815Y012804D03*
X007274Y012981D03*
X007750Y013108D03*
X008236Y013185D03*
X008728Y013211D03*
X009220Y013185D03*
X009706Y013108D03*
X010182Y012981D03*
X010642Y012804D03*
X011081Y012581D03*
X011494Y012313D03*
X011876Y012003D03*
X012224Y011655D03*
X012534Y011272D03*
X012803Y010859D03*
X013026Y010420D03*
X013203Y009960D03*
X013330Y009485D03*
X013407Y008998D03*
X013433Y008506D03*
X013407Y008015D03*
X013330Y007528D03*
X013203Y007053D03*
X013026Y006593D03*
X012803Y006154D03*
X012534Y005741D03*
X012224Y005358D03*
X011876Y005010D03*
X011494Y004700D03*
X011081Y004432D03*
X010642Y004208D03*
X010182Y004032D03*
X009706Y003905D03*
X009220Y003827D03*
X008728Y003802D03*
X008236Y003827D03*
X007750Y003905D03*
X007274Y004032D03*
X006815Y004208D03*
X006376Y004432D03*
X005963Y004700D03*
X005580Y005010D03*
X005232Y005358D03*
X005520Y006654D03*
X006876Y005298D03*
X008728Y004802D03*
X010581Y005298D03*
X011937Y006654D03*
X012433Y008506D03*
X011937Y010359D03*
X010581Y011715D03*
X008728Y012211D03*
X006876Y011715D03*
X005520Y010359D03*
X005023Y008506D03*
D14*
X004928Y009756D03*
X004928Y009957D03*
X008448Y012696D03*
X008448Y012897D03*
X009008Y012897D03*
X009008Y012696D03*
X012788Y009627D03*
X012788Y009426D03*
X009018Y004327D03*
X009018Y004126D03*
X008438Y004116D03*
X008438Y004317D03*
D15*
X004609Y008216D03*
X004408Y008216D03*
X004408Y008806D03*
X004609Y008806D03*
X012908Y008796D03*
X013109Y008796D03*
X013109Y008206D03*
X012908Y008206D03*
D16*
X009919Y014686D03*
X009132Y014686D03*
X008344Y014686D03*
X007557Y014686D03*
D17*
G36*
X014069Y011776D02*
X013862Y012133D01*
X014219Y012340D01*
X014426Y011983D01*
X014069Y011776D01*
G37*
G36*
X014532Y010975D02*
X014325Y011332D01*
X014682Y011539D01*
X014889Y011182D01*
X014532Y010975D01*
G37*
G36*
X014355Y005711D02*
X014562Y006068D01*
X014919Y005861D01*
X014712Y005504D01*
X014355Y005711D01*
G37*
G36*
X013892Y004910D02*
X014099Y005267D01*
X014456Y005060D01*
X014249Y004703D01*
X013892Y004910D01*
G37*
M02*
