%
M48
M72
T01C0.0100
T02C0.0118
T03C0.0130
%
T01
X5868Y6376
X6348Y7053
X7058Y6656
X7708Y6656
X8328Y6116
X9218Y6086
X9388Y6266
X9568Y6436
X9948Y6656
X10398Y6666
X10278Y6056
X9826Y5516
X10178Y4966
X10938Y5626
X11148Y6056
X11968Y7053
X12428Y7836
X12658Y8026
X12438Y8206
X12438Y8796
X12788Y9006
X12577Y9195
X12328Y9606
X11108Y10236
X11408Y10716
X11868Y11116
X11348Y11636
X10908Y11446
X10328Y10816
X9918Y10806
X9708Y10556
X9418Y10736
X9038Y10736
X9218Y11166
X9218Y11716
X9008Y12506
X9438Y12936
X9918Y12826
X8988Y13496
X8478Y13496
X8008Y12946
X8448Y12506
X8228Y11716
X7758Y11036
X7488Y11196
X7758Y10676
X8008Y10526
X7108Y9986
X5908Y9816
X5158Y9626
X4880Y9195
X4798Y8976
X5028Y8806
X5018Y8216
X4818Y8016
X5028Y7856
X6458Y8014
X6578Y8406
X3728Y8766
X2448Y8176
X2828Y10766
X5908Y11436
X7198Y12106
X8418Y14336
X10338Y9896
X10888Y9195
X10918Y8406
X10978Y8014
X11068Y7776
X13728Y8766
X14088Y9936
X15008Y8166
X9218Y4736
X9018Y4516
X8438Y4486
X8238Y4736
X8448Y2946
X9048Y2426
T02
X9122Y8113
X8728Y8113
X8334Y8113
X8334Y8506
X8334Y8900
X8728Y8900
X8728Y8506
X9122Y8506
X9122Y8900
T03
X4489Y4689
X4911Y4267
X5375Y3891
X5876Y3566
X6408Y3295
X6965Y3081
X7542Y2926
X8132Y2833
X8728Y2802
X9324Y2833
X9914Y2926
X10491Y3081
X11049Y3295
X11581Y3566
X12081Y3891
X12545Y4267
X12968Y4689
X13343Y5153
X13669Y5654
X13940Y6186
X14154Y6744
X14308Y7320
X14402Y7910
X14433Y8506
X14402Y9103
X14308Y9693
X14154Y10269
X13940Y10827
X13669Y11359
X13343Y11860
X12968Y12324
X12545Y12746
X12081Y13122
X11581Y13447
X11049Y13718
X10491Y13932
X9914Y14086
X9324Y14180
X8728Y14211
X8132Y14180
X7542Y14086
X6965Y13932
X6408Y13718
X5876Y13447
X5375Y13122
X4911Y12746
X4489Y12324
X4113Y11860
X3788Y11359
X3517Y10827
X3303Y10269
X3148Y9693
X3055Y9103
X3023Y8506
X3055Y7910
X3148Y7320
X3303Y6744
X3517Y6186
X3788Y5654
X4113Y5153
X4922Y5741
X4654Y6154
X4430Y6593
X4254Y7053
X4126Y7528
X4049Y8015
X4023Y8506
X4049Y8998
X4126Y9485
X4254Y9960
X4430Y10420
X4654Y10859
X4922Y11272
X5232Y11655
X5580Y12003
X5963Y12313
X6376Y12581
X6815Y12804
X7274Y12981
X7750Y13108
X8236Y13185
X8728Y13211
X9220Y13185
X9706Y13108
X10182Y12981
X10642Y12804
X11081Y12581
X11494Y12313
X11876Y12003
X12224Y11655
X12534Y11272
X12803Y10859
X13026Y10420
X13203Y9960
X13330Y9485
X13407Y8998
X13433Y8506
X13407Y8015
X13330Y7528
X13203Y7053
X13026Y6593
X12803Y6154
X12534Y5741
X12224Y5358
X11876Y5010
X11494Y4700
X11081Y4432
X10642Y4208
X10182Y4032
X9706Y3905
X9220Y3827
X8728Y3802
X8236Y3827
X7750Y3905
X7274Y4032
X6815Y4208
X6376Y4432
X5963Y4700
X5580Y5010
X5232Y5358
X5520Y6654
X6876Y5298
X8728Y4802
X10581Y5298
X11937Y6654
X12433Y8506
X11937Y10359
X10581Y11715
X8728Y12211
X6876Y11715
X5520Y10359
X5023Y8506
M30
