G75*
G70*
%OFA0B0*%
%FSLAX24Y24*%
%IPPOS*%
%LPD*%
%AMOC8*
5,1,8,0,0,1.08239X$1,22.5*
%
%ADD10C,0.0060*%
%ADD11C,0.0300*%
%ADD12R,0.0394X0.0394*%
%ADD13C,0.0240*%
%ADD14C,0.0180*%
D10*
X002128Y008506D02*
X002136Y008830D01*
X002160Y009153D01*
X002199Y009474D01*
X002255Y009794D01*
X002326Y010110D01*
X002412Y010422D01*
X002514Y010729D01*
X002630Y011032D01*
X002762Y011328D01*
X002907Y011617D01*
X003067Y011899D01*
X003240Y012173D01*
X003427Y012438D01*
X003626Y012693D01*
X003838Y012938D01*
X004061Y013173D01*
X004296Y013396D01*
X004541Y013608D01*
X004796Y013807D01*
X005061Y013994D01*
X005335Y014167D01*
X005617Y014327D01*
X005906Y014472D01*
X006202Y014604D01*
X006505Y014720D01*
X006812Y014822D01*
X007124Y014908D01*
X007440Y014979D01*
X007760Y015035D01*
X008081Y015074D01*
X008404Y015098D01*
X008728Y015106D01*
X009052Y015098D01*
X009375Y015074D01*
X009696Y015035D01*
X010016Y014979D01*
X010332Y014908D01*
X010644Y014822D01*
X010951Y014720D01*
X011254Y014604D01*
X011550Y014472D01*
X011839Y014327D01*
X012121Y014167D01*
X012395Y013994D01*
X012660Y013807D01*
X012915Y013608D01*
X013160Y013396D01*
X013395Y013173D01*
X013618Y012938D01*
X013830Y012693D01*
X014029Y012438D01*
X014216Y012173D01*
X014389Y011899D01*
X014549Y011617D01*
X014694Y011328D01*
X014826Y011032D01*
X014942Y010729D01*
X015044Y010422D01*
X015130Y010110D01*
X015201Y009794D01*
X015257Y009474D01*
X015296Y009153D01*
X015320Y008830D01*
X015328Y008506D01*
X015320Y008182D01*
X015296Y007859D01*
X015257Y007538D01*
X015201Y007218D01*
X015130Y006902D01*
X015044Y006590D01*
X014942Y006283D01*
X014826Y005980D01*
X014694Y005684D01*
X014549Y005395D01*
X014389Y005113D01*
X014216Y004839D01*
X014029Y004574D01*
X013830Y004319D01*
X013618Y004074D01*
X013395Y003839D01*
X013160Y003616D01*
X012915Y003404D01*
X012660Y003205D01*
X012395Y003018D01*
X012121Y002845D01*
X011839Y002685D01*
X011550Y002540D01*
X011254Y002408D01*
X010951Y002292D01*
X010644Y002190D01*
X010332Y002104D01*
X010016Y002033D01*
X009696Y001977D01*
X009375Y001938D01*
X009052Y001914D01*
X008728Y001906D01*
X008404Y001914D01*
X008081Y001938D01*
X007760Y001977D01*
X007440Y002033D01*
X007124Y002104D01*
X006812Y002190D01*
X006505Y002292D01*
X006202Y002408D01*
X005906Y002540D01*
X005617Y002685D01*
X005335Y002845D01*
X005061Y003018D01*
X004796Y003205D01*
X004541Y003404D01*
X004296Y003616D01*
X004061Y003839D01*
X003838Y004074D01*
X003626Y004319D01*
X003427Y004574D01*
X003240Y004839D01*
X003067Y005113D01*
X002907Y005395D01*
X002762Y005684D01*
X002630Y005980D01*
X002514Y006283D01*
X002412Y006590D01*
X002326Y006902D01*
X002255Y007218D01*
X002199Y007538D01*
X002160Y007859D01*
X002136Y008182D01*
X002128Y008506D01*
D11*
X004489Y004689D03*
X004911Y004267D03*
X005375Y003891D03*
X005876Y003566D03*
X006408Y003295D03*
X006965Y003081D03*
X007542Y002926D03*
X008132Y002833D03*
X008728Y002802D03*
X009324Y002833D03*
X009914Y002926D03*
X010491Y003081D03*
X011049Y003295D03*
X011581Y003566D03*
X012081Y003891D03*
X012545Y004267D03*
X012968Y004689D03*
X013343Y005153D03*
X013669Y005654D03*
X013940Y006186D03*
X014154Y006744D03*
X014308Y007320D03*
X014402Y007910D03*
X014433Y008506D03*
X014402Y009103D03*
X014308Y009693D03*
X014154Y010269D03*
X013940Y010827D03*
X013669Y011359D03*
X013343Y011860D03*
X012968Y012324D03*
X012545Y012746D03*
X012081Y013122D03*
X011581Y013447D03*
X011049Y013718D03*
X010491Y013932D03*
X009914Y014086D03*
X009324Y014180D03*
X008728Y014211D03*
X008132Y014180D03*
X007542Y014086D03*
X006965Y013932D03*
X006408Y013718D03*
X005876Y013447D03*
X005375Y013122D03*
X004911Y012746D03*
X004489Y012324D03*
X004113Y011860D03*
X003788Y011359D03*
X003517Y010827D03*
X003303Y010269D03*
X003148Y009693D03*
X003055Y009103D03*
X003023Y008506D03*
X003055Y007910D03*
X003148Y007320D03*
X003303Y006744D03*
X003517Y006186D03*
X003788Y005654D03*
X004113Y005153D03*
X004922Y005741D03*
X004654Y006154D03*
X004430Y006593D03*
X004254Y007053D03*
X004126Y007528D03*
X004049Y008015D03*
X004023Y008506D03*
X004049Y008998D03*
X004126Y009485D03*
X004254Y009960D03*
X004430Y010420D03*
X004654Y010859D03*
X004922Y011272D03*
X005232Y011655D03*
X005580Y012003D03*
X005963Y012313D03*
X006376Y012581D03*
X006815Y012804D03*
X007274Y012981D03*
X007750Y013108D03*
X008236Y013185D03*
X008728Y013211D03*
X009220Y013185D03*
X009706Y013108D03*
X010182Y012981D03*
X010642Y012804D03*
X011081Y012581D03*
X011494Y012313D03*
X011876Y012003D03*
X012224Y011655D03*
X012534Y011272D03*
X012803Y010859D03*
X013026Y010420D03*
X013203Y009960D03*
X013330Y009485D03*
X013407Y008998D03*
X013433Y008506D03*
X013407Y008015D03*
X013330Y007528D03*
X013203Y007053D03*
X013026Y006593D03*
X012803Y006154D03*
X012534Y005741D03*
X012224Y005358D03*
X011876Y005010D03*
X011494Y004700D03*
X011081Y004432D03*
X010642Y004208D03*
X010182Y004032D03*
X009706Y003905D03*
X009220Y003827D03*
X008728Y003802D03*
X008236Y003827D03*
X007750Y003905D03*
X007274Y004032D03*
X006815Y004208D03*
X006376Y004432D03*
X005963Y004700D03*
X005580Y005010D03*
X005232Y005358D03*
X005520Y006654D03*
X006876Y005298D03*
X008728Y004802D03*
X010581Y005298D03*
X011937Y006654D03*
X012433Y008506D03*
X011937Y010359D03*
X010581Y011715D03*
X008728Y012211D03*
X006876Y011715D03*
X005520Y010359D03*
X005023Y008506D03*
D12*
X007228Y011296D03*
X008228Y011296D03*
X009228Y011296D03*
X010228Y011296D03*
D13*
X009122Y008900D03*
X009122Y008506D03*
X008728Y008506D03*
X008334Y008506D03*
X008334Y008900D03*
X008728Y008900D03*
X008728Y008113D03*
X008334Y008113D03*
X009122Y008113D03*
D14*
X010098Y006786D03*
X009778Y006566D03*
X010068Y006366D03*
X010528Y007006D03*
X011118Y006036D03*
X010098Y005076D03*
X009358Y004566D03*
X009028Y004436D03*
X008428Y004436D03*
X008098Y004586D03*
X007208Y006166D03*
X007548Y006706D03*
X006208Y007146D03*
X005938Y007186D03*
X006278Y007576D03*
X006888Y008006D03*
X006958Y008406D03*
X006648Y009196D03*
X006428Y009396D03*
X007078Y009636D03*
X007578Y009716D03*
X008038Y010256D03*
X008288Y010356D03*
X009220Y010649D03*
X009608Y010256D03*
X010098Y010146D03*
X010358Y010316D03*
X010788Y010836D03*
X011108Y010206D03*
X011228Y009906D03*
X011933Y009716D03*
X012338Y009686D03*
X012598Y009756D03*
X012458Y009386D03*
X012728Y008826D03*
X012728Y008186D03*
X012758Y007766D03*
X010978Y008406D03*
X010578Y008026D03*
X010968Y009196D03*
X009888Y009716D03*
X009728Y011656D03*
X009478Y012236D03*
X009708Y012496D03*
X009118Y012586D03*
X008348Y012576D03*
X008288Y011686D03*
X006798Y010616D03*
X006548Y010196D03*
X005618Y009846D03*
X005068Y009566D03*
X005068Y009326D03*
X004728Y008806D03*
X004728Y008206D03*
X004688Y007766D03*
X005338Y007026D03*
X006098Y006156D03*
X003028Y008206D03*
X003058Y008806D03*
X003408Y010546D03*
X004938Y009956D03*
X005688Y010836D03*
X008428Y014216D03*
X009028Y014206D03*
X012258Y010156D03*
X014248Y009986D03*
X014418Y008806D03*
X014898Y008186D03*
X009058Y002226D03*
X008418Y002506D03*
M02*
