G75*
G70*
%OFA0B0*%
%FSLAX24Y24*%
%IPPOS*%
%LPD*%
%AMOC8*
5,1,8,0,0,1.08239X$1,22.5*
%
%ADD10C,0.0080*%
%ADD11C,0.0040*%
%ADD12C,0.0050*%
%ADD13R,0.0118X0.0118*%
%ADD14C,0.0039*%
D10*
X007449Y007325D02*
X007451Y007344D01*
X007456Y007363D01*
X007466Y007379D01*
X007478Y007394D01*
X007493Y007406D01*
X007509Y007416D01*
X007528Y007421D01*
X007547Y007423D01*
X007566Y007421D01*
X007585Y007416D01*
X007601Y007406D01*
X007616Y007394D01*
X007628Y007379D01*
X007638Y007363D01*
X007643Y007344D01*
X007645Y007325D01*
X007643Y007306D01*
X007638Y007287D01*
X007628Y007271D01*
X007616Y007256D01*
X007601Y007244D01*
X007585Y007234D01*
X007566Y007229D01*
X007547Y007227D01*
X007528Y007229D01*
X007509Y007234D01*
X007493Y007244D01*
X007478Y007256D01*
X007466Y007271D01*
X007456Y007287D01*
X007451Y007306D01*
X007449Y007325D01*
X005628Y008356D02*
X005558Y008286D01*
X005418Y008286D01*
X005348Y008356D01*
X005418Y008497D02*
X005628Y008497D01*
X005628Y008637D02*
X005558Y008707D01*
X005418Y008707D01*
X005348Y008637D01*
X005348Y008567D01*
X005418Y008497D01*
X005628Y008356D02*
X005628Y008637D01*
X008368Y011406D02*
X008648Y011406D01*
X008508Y011406D02*
X008508Y011827D01*
X008368Y011687D01*
X008829Y011757D02*
X008899Y011827D01*
X009039Y011827D01*
X009109Y011757D01*
X009109Y011687D01*
X008829Y011406D01*
X009109Y011406D01*
X011868Y008707D02*
X012008Y008707D01*
X012078Y008637D01*
X012078Y008567D01*
X012008Y008497D01*
X012078Y008427D01*
X012078Y008356D01*
X012008Y008286D01*
X011868Y008286D01*
X011798Y008356D01*
X011938Y008497D02*
X012008Y008497D01*
X011798Y008637D02*
X011868Y008707D01*
X008878Y005547D02*
X008738Y005477D01*
X008598Y005337D01*
X008808Y005337D01*
X008878Y005267D01*
X008878Y005196D01*
X008808Y005126D01*
X008668Y005126D01*
X008598Y005196D01*
X008598Y005337D01*
D11*
X007453Y010896D02*
X007453Y010997D01*
X007419Y011030D01*
X007386Y010997D01*
X007386Y010896D01*
X007319Y010896D02*
X007319Y011030D01*
X007353Y011030D01*
X007386Y010997D01*
X007232Y010997D02*
X007232Y010930D01*
X007198Y010896D01*
X007098Y010896D01*
X007098Y010830D02*
X007098Y011030D01*
X007198Y011030D01*
X007232Y010997D01*
D12*
X004299Y004518D02*
X004404Y004401D01*
X004299Y004518D02*
X004240Y004465D01*
X004299Y004518D02*
X004193Y004635D01*
X003999Y004875D02*
X003906Y005003D01*
X003842Y004957D01*
X003906Y005003D02*
X003813Y005130D01*
X003645Y005390D02*
X003566Y005526D01*
X003498Y005487D01*
X003566Y005526D02*
X003487Y005663D01*
X003347Y005938D02*
X003283Y006082D01*
X003211Y006050D01*
X003283Y006082D02*
X003219Y006226D01*
X003108Y006515D02*
X003059Y006665D01*
X002984Y006640D01*
X003059Y006665D02*
X003011Y006814D01*
X002931Y007113D02*
X002898Y007267D01*
X002821Y007251D01*
X002898Y007267D02*
X002865Y007421D01*
X002817Y007727D02*
X002800Y007883D01*
X002722Y007875D01*
X002800Y007883D02*
X002784Y008040D01*
X002768Y008349D02*
X002768Y008506D01*
X002689Y008506D01*
X002768Y008506D02*
X002768Y008664D01*
X002784Y008973D02*
X002800Y009129D01*
X002722Y009138D01*
X002800Y009129D02*
X002817Y009286D01*
X002865Y009592D02*
X002898Y009746D01*
X002821Y009762D01*
X002898Y009746D02*
X002931Y009900D01*
X003011Y010199D02*
X003059Y010348D01*
X002984Y010373D01*
X003059Y010348D02*
X003108Y010498D01*
X003219Y010787D02*
X003283Y010931D01*
X003211Y010963D01*
X003283Y010931D02*
X003347Y011075D01*
X003487Y011350D02*
X003566Y011487D01*
X003498Y011526D01*
X003566Y011487D02*
X003645Y011623D01*
X003813Y011883D02*
X003906Y012010D01*
X003842Y012056D01*
X003906Y012010D02*
X003999Y012137D01*
X004193Y012378D02*
X004299Y012495D01*
X004240Y012548D01*
X004299Y012495D02*
X004404Y012612D01*
X004623Y012831D02*
X004740Y012936D01*
X004687Y012995D01*
X004740Y012936D02*
X004857Y013041D01*
X005097Y013236D02*
X005225Y013329D01*
X005178Y013392D01*
X005225Y013329D02*
X005352Y013421D01*
X005611Y013590D02*
X005748Y013668D01*
X005709Y013737D01*
X005748Y013668D02*
X005884Y013747D01*
X006160Y013888D02*
X006304Y013952D01*
X006272Y014024D01*
X006304Y013952D02*
X006448Y014016D01*
X006736Y014127D02*
X006886Y014175D01*
X006862Y014250D01*
X006886Y014175D02*
X007036Y014224D01*
X007335Y014304D02*
X007489Y014337D01*
X007473Y014414D01*
X007489Y014337D02*
X007643Y014370D01*
X007949Y014418D02*
X008105Y014434D01*
X008097Y014513D01*
X008105Y014434D02*
X008262Y014451D01*
X008571Y014467D02*
X008728Y014467D01*
X008728Y014546D01*
X008728Y014467D02*
X008886Y014467D01*
X009195Y014451D02*
X009351Y014434D01*
X009359Y014513D01*
X009351Y014434D02*
X009508Y014418D01*
X009813Y014370D02*
X009967Y014337D01*
X009984Y014414D01*
X009967Y014337D02*
X010121Y014304D01*
X010420Y014224D02*
X010570Y014175D01*
X010594Y014250D01*
X010570Y014175D02*
X010720Y014127D01*
X011009Y014016D02*
X011153Y013952D01*
X011185Y014024D01*
X011153Y013952D02*
X011296Y013888D01*
X011572Y013747D02*
X011709Y013668D01*
X011748Y013737D01*
X011709Y013668D02*
X011845Y013590D01*
X012104Y013421D02*
X012232Y013329D01*
X012278Y013392D01*
X012232Y013329D02*
X012359Y013236D01*
X012600Y013041D02*
X012717Y012936D01*
X012769Y012995D01*
X012717Y012936D02*
X012834Y012831D01*
X013052Y012612D02*
X013158Y012495D01*
X013216Y012548D01*
X013158Y012495D02*
X013263Y012378D01*
X013458Y012137D02*
X013550Y012010D01*
X013614Y012056D01*
X013550Y012010D02*
X013643Y011883D01*
X013811Y011623D02*
X013890Y011487D01*
X013958Y011526D01*
X013890Y011487D02*
X013969Y011350D01*
X014109Y011075D02*
X014173Y010931D01*
X014245Y010963D01*
X014173Y010931D02*
X014238Y010787D01*
X014348Y010498D02*
X014397Y010348D01*
X014472Y010373D01*
X014397Y010348D02*
X014446Y010199D01*
X014526Y009900D02*
X014559Y009746D01*
X014636Y009762D01*
X014559Y009746D02*
X014591Y009592D01*
X014640Y009286D02*
X014656Y009129D01*
X014734Y009138D01*
X014656Y009129D02*
X014673Y008973D01*
X014689Y008664D02*
X014689Y008506D01*
X014768Y008506D01*
X014689Y008506D02*
X014689Y008349D01*
X014673Y008040D02*
X014656Y007883D01*
X014734Y007875D01*
X014656Y007883D02*
X014640Y007727D01*
X014591Y007421D02*
X014559Y007267D01*
X014636Y007251D01*
X014559Y007267D02*
X014526Y007113D01*
X014446Y006814D02*
X014397Y006665D01*
X014472Y006640D01*
X014397Y006665D02*
X014348Y006515D01*
X014238Y006226D02*
X014173Y006082D01*
X014245Y006050D01*
X014173Y006082D02*
X014109Y005938D01*
X013969Y005663D02*
X013890Y005526D01*
X013958Y005487D01*
X013890Y005526D02*
X013811Y005390D01*
X013643Y005130D02*
X013550Y005003D01*
X013614Y004957D01*
X013550Y005003D02*
X013458Y004875D01*
X013263Y004635D02*
X013158Y004518D01*
X013216Y004465D01*
X013158Y004518D02*
X013052Y004401D01*
X012834Y004182D02*
X012717Y004077D01*
X012769Y004018D01*
X012717Y004077D02*
X012600Y003971D01*
X012359Y003777D02*
X012232Y003684D01*
X012278Y003620D01*
X012232Y003684D02*
X012104Y003592D01*
X011845Y003423D02*
X011709Y003344D01*
X011748Y003276D01*
X011709Y003344D02*
X011572Y003266D01*
X011296Y003125D02*
X011153Y003061D01*
X011185Y002989D01*
X011153Y003061D02*
X011009Y002997D01*
X010720Y002886D02*
X010570Y002838D01*
X010594Y002763D01*
X010570Y002838D02*
X010420Y002789D01*
X010121Y002709D02*
X009967Y002676D01*
X009984Y002599D01*
X009967Y002676D02*
X009813Y002643D01*
X009508Y002595D02*
X009351Y002578D01*
X009359Y002500D01*
X009351Y002578D02*
X009195Y002562D01*
X008886Y002546D02*
X008728Y002546D01*
X008728Y002467D01*
X008728Y002546D02*
X008571Y002546D01*
X008262Y002562D02*
X008105Y002578D01*
X008097Y002500D01*
X008105Y002578D02*
X007949Y002595D01*
X007643Y002643D02*
X007489Y002676D01*
X007473Y002599D01*
X007489Y002676D02*
X007335Y002709D01*
X007036Y002789D02*
X006886Y002838D01*
X006862Y002763D01*
X006886Y002838D02*
X006736Y002886D01*
X006448Y002997D02*
X006304Y003061D01*
X006272Y002989D01*
X006304Y003061D02*
X006160Y003125D01*
X005884Y003266D02*
X005748Y003344D01*
X005709Y003276D01*
X005748Y003344D02*
X005611Y003423D01*
X005352Y003592D02*
X005225Y003684D01*
X005178Y003620D01*
X005225Y003684D02*
X005097Y003777D01*
X004857Y003971D02*
X004740Y004077D01*
X004687Y004018D01*
X004740Y004077D02*
X004623Y004182D01*
X005356Y004761D02*
X005409Y004820D01*
X005292Y004925D01*
X005409Y004820D02*
X005526Y004715D01*
X005685Y004586D02*
X005812Y004493D01*
X005766Y004429D01*
X005812Y004493D02*
X005940Y004401D01*
X006111Y004289D02*
X006248Y004210D01*
X006209Y004142D01*
X006248Y004210D02*
X006384Y004132D01*
X006567Y004039D02*
X006710Y003975D01*
X006678Y003903D01*
X006710Y003975D02*
X006854Y003911D01*
X007045Y003837D02*
X007195Y003789D01*
X007171Y003714D01*
X007195Y003789D02*
X007345Y003740D01*
X007543Y003687D02*
X007697Y003654D01*
X007680Y003577D01*
X007697Y003654D02*
X007851Y003621D01*
X008053Y003589D02*
X008210Y003573D01*
X008201Y003495D01*
X008210Y003573D02*
X008366Y003557D01*
X008571Y003546D02*
X008728Y003546D01*
X008728Y003467D01*
X008728Y003546D02*
X008886Y003546D01*
X009090Y003557D02*
X009247Y003573D01*
X009255Y003495D01*
X009247Y003573D02*
X009403Y003589D01*
X009606Y003621D02*
X009760Y003654D01*
X009776Y003577D01*
X009760Y003654D02*
X009914Y003687D01*
X010111Y003740D02*
X010261Y003789D01*
X010285Y003714D01*
X010261Y003789D02*
X010411Y003837D01*
X010602Y003911D02*
X010746Y003975D01*
X010778Y003903D01*
X010746Y003975D02*
X010890Y004039D01*
X011072Y004132D02*
X011209Y004210D01*
X011248Y004142D01*
X011209Y004210D02*
X011345Y004289D01*
X011517Y004401D02*
X011644Y004493D01*
X011690Y004429D01*
X011644Y004493D02*
X011771Y004586D01*
X011930Y004715D02*
X012047Y004820D01*
X012100Y004761D01*
X012047Y004820D02*
X012165Y004925D01*
X012309Y005070D02*
X012415Y005187D01*
X012473Y005134D01*
X012415Y005187D02*
X012520Y005304D01*
X012649Y005463D02*
X012741Y005591D01*
X012805Y005544D01*
X012741Y005591D02*
X012834Y005718D01*
X012945Y005890D02*
X013024Y006026D01*
X013092Y005987D01*
X013024Y006026D02*
X013103Y006163D01*
X013196Y006345D02*
X013260Y006489D01*
X013332Y006457D01*
X013260Y006489D02*
X013324Y006633D01*
X013397Y006824D02*
X013446Y006974D01*
X013521Y006949D01*
X013446Y006974D02*
X013495Y007123D01*
X013548Y007321D02*
X013580Y007475D01*
X013657Y007459D01*
X013580Y007475D02*
X013613Y007629D01*
X013645Y007831D02*
X013662Y007988D01*
X013740Y007980D01*
X013662Y007988D02*
X013678Y008145D01*
X013689Y008349D02*
X013689Y008506D01*
X013768Y008506D01*
X013689Y008506D02*
X013689Y008664D01*
X013678Y008868D02*
X013662Y009025D01*
X013740Y009033D01*
X013662Y009025D02*
X013645Y009182D01*
X013613Y009384D02*
X013580Y009538D01*
X013657Y009554D01*
X013580Y009538D02*
X013548Y009692D01*
X013495Y009890D02*
X013446Y010039D01*
X013521Y010064D01*
X013446Y010039D02*
X013397Y010189D01*
X013324Y010380D02*
X013260Y010524D01*
X013332Y010556D01*
X013260Y010524D02*
X013196Y010668D01*
X013103Y010850D02*
X013024Y010987D01*
X013092Y011026D01*
X013024Y010987D02*
X012945Y011123D01*
X012834Y011295D02*
X012741Y011422D01*
X012805Y011469D01*
X012741Y011422D02*
X012649Y011550D01*
X012520Y011709D02*
X012415Y011826D01*
X012473Y011878D01*
X012415Y011826D02*
X012309Y011943D01*
X012165Y012088D02*
X012047Y012193D01*
X012100Y012251D01*
X012047Y012193D02*
X011930Y012298D01*
X011771Y012427D02*
X011644Y012520D01*
X011690Y012583D01*
X011644Y012520D02*
X011517Y012612D01*
X011345Y012724D02*
X011209Y012802D01*
X011248Y012871D01*
X011209Y012802D02*
X011072Y012881D01*
X010890Y012974D02*
X010746Y013038D01*
X010778Y013110D01*
X010746Y013038D02*
X010602Y013102D01*
X010411Y013176D02*
X010261Y013224D01*
X010285Y013299D01*
X010261Y013224D02*
X010111Y013273D01*
X009914Y013326D02*
X009760Y013359D01*
X009776Y013436D01*
X009760Y013359D02*
X009606Y013391D01*
X009403Y013423D02*
X009247Y013440D01*
X009255Y013518D01*
X009247Y013440D02*
X009090Y013456D01*
X008886Y013467D02*
X008728Y013467D01*
X008728Y013546D01*
X008728Y013467D02*
X008571Y013467D01*
X008366Y013456D02*
X008210Y013440D01*
X008201Y013518D01*
X008210Y013440D02*
X008053Y013423D01*
X007851Y013391D02*
X007697Y013359D01*
X007680Y013436D01*
X007697Y013359D02*
X007543Y013326D01*
X007345Y013273D02*
X007195Y013224D01*
X007171Y013299D01*
X007195Y013224D02*
X007045Y013176D01*
X006854Y013102D02*
X006710Y013038D01*
X006678Y013110D01*
X006710Y013038D02*
X006567Y012974D01*
X006384Y012881D02*
X006248Y012802D01*
X006209Y012871D01*
X006248Y012802D02*
X006111Y012724D01*
X005940Y012612D02*
X005812Y012520D01*
X005766Y012583D01*
X005812Y012520D02*
X005685Y012427D01*
X005526Y012298D02*
X005409Y012193D01*
X005356Y012251D01*
X005409Y012193D02*
X005292Y012088D01*
X005147Y011943D02*
X005042Y011826D01*
X004983Y011878D01*
X005042Y011826D02*
X004936Y011709D01*
X004808Y011550D02*
X004715Y011422D01*
X004651Y011469D01*
X004715Y011422D02*
X004622Y011295D01*
X004511Y011123D02*
X004432Y010987D01*
X004364Y011026D01*
X004432Y010987D02*
X004353Y010850D01*
X004260Y010668D02*
X004196Y010524D01*
X004124Y010556D01*
X004196Y010524D02*
X004132Y010380D01*
X004059Y010189D02*
X004010Y010039D01*
X003935Y010064D01*
X004010Y010039D02*
X003962Y009890D01*
X003909Y009692D02*
X003876Y009538D01*
X003799Y009554D01*
X003876Y009538D02*
X003843Y009384D01*
X003811Y009182D02*
X003795Y009025D01*
X003716Y009033D01*
X003795Y009025D02*
X003778Y008868D01*
X003768Y008664D02*
X003768Y008506D01*
X003689Y008506D01*
X003768Y008506D02*
X003768Y008349D01*
X003778Y008145D02*
X003795Y007988D01*
X003716Y007980D01*
X003795Y007988D02*
X003811Y007831D01*
X003843Y007629D02*
X003876Y007475D01*
X003799Y007459D01*
X003876Y007475D02*
X003909Y007321D01*
X003962Y007123D02*
X004010Y006974D01*
X003935Y006949D01*
X004010Y006974D02*
X004059Y006824D01*
X004132Y006633D02*
X004196Y006489D01*
X004124Y006457D01*
X004196Y006489D02*
X004260Y006345D01*
X004353Y006163D02*
X004432Y006026D01*
X004364Y005987D01*
X004432Y006026D02*
X004511Y005890D01*
X004622Y005718D02*
X004715Y005591D01*
X004651Y005544D01*
X004715Y005591D02*
X004808Y005463D01*
X004936Y005304D02*
X005042Y005187D01*
X004983Y005134D01*
X005042Y005187D02*
X005147Y005070D01*
X005377Y006390D02*
X005298Y006526D01*
X005230Y006487D01*
X005298Y006526D02*
X005219Y006663D01*
X006611Y005155D02*
X006748Y005076D01*
X006709Y005008D01*
X006748Y005076D02*
X006884Y004998D01*
X008571Y004546D02*
X008728Y004546D01*
X008728Y004467D01*
X008728Y004546D02*
X008886Y004546D01*
X010572Y004998D02*
X010709Y005076D01*
X010748Y005008D01*
X010709Y005076D02*
X010845Y005155D01*
X012079Y006390D02*
X012158Y006526D01*
X012226Y006487D01*
X012158Y006526D02*
X012237Y006663D01*
X012689Y008349D02*
X012689Y008506D01*
X012768Y008506D01*
X012689Y008506D02*
X012689Y008664D01*
X012237Y010350D02*
X012158Y010487D01*
X012226Y010526D01*
X012158Y010487D02*
X012079Y010623D01*
X010845Y011858D02*
X010709Y011936D01*
X010748Y012005D01*
X010709Y011936D02*
X010572Y012015D01*
X008886Y012467D02*
X008728Y012467D01*
X008728Y012546D01*
X008728Y012467D02*
X008571Y012467D01*
X006884Y012015D02*
X006748Y011936D01*
X006709Y012005D01*
X006748Y011936D02*
X006611Y011858D01*
X005377Y010623D02*
X005298Y010487D01*
X005230Y010526D01*
X005298Y010487D02*
X005219Y010350D01*
X004768Y008664D02*
X004768Y008506D01*
X004689Y008506D01*
X004768Y008506D02*
X004768Y008349D01*
D13*
X007108Y010286D03*
X008828Y010326D03*
X010338Y010246D03*
D14*
X007280Y010603D02*
X007280Y010646D01*
X007245Y010646D01*
X007280Y010646D02*
X007280Y010694D01*
M02*
