M48
;DRILL file {KiCad 4.0.6} date 08/27/17 16:41:43
;FORMAT={-:-/ absolute / inch / decimal}
FMAT,2
INCH,TZ
T1C0.010
T2C0.012
T3C0.026
%
G90
G05
M72
T1
X3.2492Y-4.4866
X3.3279Y-4.3012
X3.3433Y-4.7358
X3.4563Y-4.737
X3.461Y-4.426
X3.4701Y-4.4598
X3.4949Y-4.313
X3.4957Y-4.6543
X3.5126Y-4.4693
X3.5136Y-4.3256
X3.5138Y-4.6827
X3.565Y-4.5803
X3.572Y-4.5598
X3.5972Y-4.5224
X3.6161Y-4.0535
X3.6161Y-4.5035
X3.6382Y-4.1374
X3.6427Y-4.6621
X3.6516Y-4.1575
X3.6626Y-4.4181
X3.6634Y-4.4575
X3.6634Y-4.4776
X3.665Y-4.3591
X3.7134Y-5.0071
X3.7311Y-4.1504
X3.774Y-4.6024
X3.7949Y-4.6024
X3.8071Y-3.9764
X3.8091Y-4.8012
X3.8161Y-4.6028
X3.8276Y-4.7445
X3.837Y-4.6035
X3.8457Y-4.6528
X3.8457Y-4.8161
X3.8484Y-5.
X3.852Y-3.8449
X3.8748Y-4.6035
X3.8969Y-4.6039
X3.9138Y-3.7453
X3.9138Y-3.9579
X3.915Y-4.6528
X3.9339Y-4.6035
X3.9535Y-4.7331
X3.963Y-3.9835
X3.9684Y-4.6031
X3.9941Y-4.7736
X3.9945Y-4.6657
X4.0028Y-3.9862
X4.0043Y-4.6031
X4.0193Y-4.7669
X4.0362Y-4.7843
X4.039Y-4.7256
X4.0409Y-4.6496
X4.0421Y-3.9906
X4.0421Y-4.0858
X4.0476Y-4.8248
X4.0571Y-4.7681
X4.0799Y-4.1638
X4.087Y-4.5295
X4.0976Y-4.363
X4.0992Y-4.3949
X4.1004Y-4.9606
X4.1142Y-4.4602
X4.1169Y-5.0039
X4.1201Y-4.5587
X4.1268Y-4.0996
X4.1516Y-4.035
X4.1591Y-4.6669
X4.1638Y-4.272
X4.2114Y-4.65
X4.2295Y-4.5547
X4.2303Y-4.6299
X4.2437Y-4.5035
X4.2504Y-4.2933
X4.2685Y-4.5697
X4.2693Y-4.2
X4.289Y-4.4457
X4.2917Y-4.2866
X4.2917Y-4.3295
X4.3079Y-4.422
X4.3083Y-4.3531
X4.424Y-4.3571
X4.5083Y-4.4213
T2
X3.2794Y-4.3878
X3.2827Y-4.325
X3.2827Y-4.4506
X3.2926Y-4.263
X3.2926Y-4.5126
X3.3088Y-4.2022
X3.3088Y-4.5734
X3.3314Y-4.1436
X3.3314Y-4.632
X3.3599Y-4.0876
X3.3599Y-4.688
X3.3794Y-4.3878
X3.3822Y-4.3355
X3.3822Y-4.4401
X3.3904Y-4.2837
X3.3904Y-4.4918
X3.3941Y-4.0348
X3.3941Y-4.7407
X3.4039Y-4.2331
X3.4039Y-4.5424
X3.4227Y-4.1842
X3.4227Y-4.5914
X3.4337Y-3.986
X3.4337Y-4.7896
X3.4465Y-4.1376
X3.4465Y-4.638
X3.475Y-4.0936
X3.475Y-4.682
X3.4781Y-3.9416
X3.4781Y-4.834
X3.4794Y-4.3878
X3.508Y-4.0529
X3.508Y-4.7227
X3.527Y-3.902
X3.527Y-4.8736
X3.5331Y-4.1876
X3.5331Y-4.588
X3.545Y-4.0159
X3.545Y-4.7597
X3.5797Y-3.8678
X3.5797Y-4.9078
X3.5858Y-3.9829
X3.5858Y-4.7927
X3.6297Y-3.9544
X3.6297Y-4.8212
X3.6357Y-3.8392
X3.6357Y-4.9364
X3.6764Y-3.9306
X3.6764Y-4.845
X3.6797Y-4.041
X3.6797Y-4.7346
X3.6944Y-3.8167
X3.6944Y-4.9589
X3.7253Y-3.9118
X3.7253Y-4.8638
X3.7551Y-3.8004
X3.7551Y-4.9751
X3.7759Y-3.8983
X3.7759Y-4.8773
X3.8172Y-3.7906
X3.8172Y-4.985
X3.8276Y-3.8901
X3.8276Y-4.8855
X3.8453Y-4.3492
X3.8453Y-4.3886
X3.8453Y-4.428
X3.8799Y-3.7873
X3.8799Y-3.8873
X3.8799Y-3.9873
X3.8799Y-4.7883
X3.8799Y-4.8883
X3.8799Y-4.9883
X3.8846Y-4.3492
X3.8846Y-4.3886
X3.8846Y-4.428
X3.924Y-4.3492
X3.924Y-4.3886
X3.924Y-4.428
X3.9322Y-3.8901
X3.9322Y-4.8855
X3.9427Y-3.7906
X3.9427Y-4.985
X3.984Y-3.8983
X3.984Y-4.8773
X4.0048Y-3.8004
X4.0048Y-4.9751
X4.0346Y-3.9118
X4.0346Y-4.8638
X4.0655Y-3.8167
X4.0655Y-4.9589
X4.0802Y-4.041
X4.0802Y-4.7346
X4.0835Y-3.9306
X4.0835Y-4.845
X4.1242Y-3.8392
X4.1242Y-4.9364
X4.1302Y-3.9544
X4.1302Y-4.8212
X4.1741Y-3.9829
X4.1741Y-4.7927
X4.1802Y-3.8678
X4.1802Y-4.9078
X4.2148Y-4.0159
X4.2148Y-4.7597
X4.2267Y-4.1876
X4.2267Y-4.588
X4.2329Y-3.902
X4.2329Y-4.8736
X4.2518Y-4.0529
X4.2518Y-4.7227
X4.2804Y-4.3878
X4.2817Y-3.9416
X4.2817Y-4.834
X4.2848Y-4.0936
X4.2848Y-4.682
X4.3133Y-4.1376
X4.3133Y-4.638
X4.3262Y-3.986
X4.3262Y-4.7896
X4.3371Y-4.1842
X4.3371Y-4.5914
X4.3559Y-4.2331
X4.3559Y-4.5424
X4.3657Y-4.0348
X4.3657Y-4.7407
X4.3695Y-4.2837
X4.3695Y-4.4918
X4.3777Y-4.3355
X4.3777Y-4.4401
X4.3804Y-4.3878
X4.3999Y-4.0876
X4.3999Y-4.688
X4.4285Y-4.1436
X4.4285Y-4.632
X4.451Y-4.2022
X4.451Y-4.5734
X4.4673Y-4.263
X4.4673Y-4.5126
X4.4771Y-4.325
X4.4771Y-4.4506
X4.4804Y-4.3878
T3
X3.8047Y-5.1012
X3.8547Y-5.1012
X3.9047Y-5.1012
X3.9547Y-5.1012
T0
M30
