G04 #@! TF.FileFunction,Copper,L1,Top,Signal*
%FSLAX46Y46*%
G04 Gerber Fmt 4.6, Leading zero omitted, Abs format (unit mm)*
G04 Created by KiCad (PCBNEW 4.0.6) date 02/04/18 20:59:17*
%MOMM*%
%LPD*%
G01*
G04 APERTURE LIST*
%ADD10C,0.100000*%
%ADD11R,0.400000X0.600000*%
%ADD12R,0.800000X0.800000*%
%ADD13R,0.600000X0.400000*%
%ADD14R,0.230000X0.800000*%
%ADD15R,0.800000X0.230000*%
%ADD16R,2.900000X2.900000*%
%ADD17C,0.300000*%
%ADD18R,0.600000X0.500000*%
%ADD19R,1.100000X1.900000*%
%ADD20C,1.000000*%
%ADD21C,0.355600*%
%ADD22C,0.127000*%
%ADD23C,0.152400*%
G04 APERTURE END LIST*
D10*
D11*
X94310000Y-108920000D03*
X93410000Y-108920000D03*
X108530000Y-110570000D03*
X109430000Y-110570000D03*
D10*
G36*
X104532410Y-101888162D02*
X103839590Y-101488162D01*
X104239590Y-100795342D01*
X104932410Y-101195342D01*
X104532410Y-101888162D01*
X104532410Y-101888162D01*
G37*
G36*
X103782410Y-103187200D02*
X103089590Y-102787200D01*
X103489590Y-102094380D01*
X104182410Y-102494380D01*
X103782410Y-103187200D01*
X103782410Y-103187200D01*
G37*
D12*
X98550000Y-99778000D03*
X98550000Y-101278000D03*
D10*
G36*
X93260410Y-101488162D02*
X92567590Y-101888162D01*
X92167590Y-101195342D01*
X92860410Y-100795342D01*
X93260410Y-101488162D01*
X93260410Y-101488162D01*
G37*
G36*
X94010410Y-102787200D02*
X93317590Y-103187200D01*
X92917590Y-102494380D01*
X93610410Y-102094380D01*
X94010410Y-102787200D01*
X94010410Y-102787200D01*
G37*
G36*
X88988162Y-105467590D02*
X88588162Y-106160410D01*
X87895342Y-105760410D01*
X88295342Y-105067590D01*
X88988162Y-105467590D01*
X88988162Y-105467590D01*
G37*
G36*
X90287200Y-106217590D02*
X89887200Y-106910410D01*
X89194380Y-106510410D01*
X89594380Y-105817590D01*
X90287200Y-106217590D01*
X90287200Y-106217590D01*
G37*
D12*
X86878000Y-111450000D03*
X88378000Y-111450000D03*
D10*
G36*
X88588162Y-116739589D02*
X88988162Y-117432409D01*
X88295342Y-117832409D01*
X87895342Y-117139589D01*
X88588162Y-116739589D01*
X88588162Y-116739589D01*
G37*
G36*
X89887200Y-115989589D02*
X90287200Y-116682409D01*
X89594380Y-117082409D01*
X89194380Y-116389589D01*
X89887200Y-115989589D01*
X89887200Y-115989589D01*
G37*
G36*
X92567591Y-121011838D02*
X93260411Y-121411838D01*
X92860411Y-122104658D01*
X92167591Y-121704658D01*
X92567591Y-121011838D01*
X92567591Y-121011838D01*
G37*
G36*
X93317591Y-119712800D02*
X94010411Y-120112800D01*
X93610411Y-120805620D01*
X92917591Y-120405620D01*
X93317591Y-119712800D01*
X93317591Y-119712800D01*
G37*
D12*
X98550000Y-123122000D03*
X98550000Y-121622000D03*
D10*
G36*
X103839590Y-121411838D02*
X104532410Y-121011838D01*
X104932410Y-121704658D01*
X104239590Y-122104658D01*
X103839590Y-121411838D01*
X103839590Y-121411838D01*
G37*
G36*
X103089590Y-120112800D02*
X103782410Y-119712800D01*
X104182410Y-120405620D01*
X103489590Y-120805620D01*
X103089590Y-120112800D01*
X103089590Y-120112800D01*
G37*
G36*
X108111838Y-117432409D02*
X108511838Y-116739589D01*
X109204658Y-117139589D01*
X108804658Y-117832409D01*
X108111838Y-117432409D01*
X108111838Y-117432409D01*
G37*
G36*
X106812800Y-116682409D02*
X107212800Y-115989589D01*
X107905620Y-116389589D01*
X107505620Y-117082409D01*
X106812800Y-116682409D01*
X106812800Y-116682409D01*
G37*
D12*
X110222000Y-111450000D03*
X108722000Y-111450000D03*
D11*
X108520000Y-112320000D03*
X109420000Y-112320000D03*
D10*
G36*
X112328147Y-110404062D02*
X112244524Y-109608445D01*
X113040141Y-109524822D01*
X113123764Y-110320439D01*
X112328147Y-110404062D01*
X112328147Y-110404062D01*
G37*
G36*
X110836365Y-110560854D02*
X110752742Y-109765237D01*
X111548359Y-109681614D01*
X111631982Y-110477231D01*
X110836365Y-110560854D01*
X110836365Y-110560854D01*
G37*
G36*
X112143340Y-108969583D02*
X111977010Y-108187065D01*
X112759528Y-108020735D01*
X112925858Y-108803253D01*
X112143340Y-108969583D01*
X112143340Y-108969583D01*
G37*
G36*
X110676118Y-109281451D02*
X110509788Y-108498933D01*
X111292306Y-108332603D01*
X111458636Y-109115121D01*
X110676118Y-109281451D01*
X110676118Y-109281451D01*
G37*
G36*
X111809598Y-107562280D02*
X111562385Y-106801435D01*
X112323230Y-106554222D01*
X112570443Y-107315067D01*
X111809598Y-107562280D01*
X111809598Y-107562280D01*
G37*
G36*
X110383014Y-108025806D02*
X110135801Y-107264961D01*
X110896646Y-107017748D01*
X111143859Y-107778593D01*
X110383014Y-108025806D01*
X110383014Y-108025806D01*
G37*
G36*
X111330583Y-106197573D02*
X111005194Y-105466736D01*
X111736031Y-105141347D01*
X112061420Y-105872184D01*
X111330583Y-106197573D01*
X111330583Y-106197573D01*
G37*
G36*
X109960265Y-106807677D02*
X109634876Y-106076840D01*
X110365713Y-105751451D01*
X110691102Y-106482288D01*
X109960265Y-106807677D01*
X109960265Y-106807677D01*
G37*
G36*
X110711542Y-104890410D02*
X110311542Y-104197590D01*
X111004362Y-103797590D01*
X111404362Y-104490410D01*
X110711542Y-104890410D01*
X110711542Y-104890410D01*
G37*
G36*
X109412504Y-105640410D02*
X109012504Y-104947590D01*
X109705324Y-104547590D01*
X110105324Y-105240410D01*
X109412504Y-105640410D01*
X109412504Y-105640410D01*
G37*
G36*
X109959256Y-103655117D02*
X109489028Y-103007903D01*
X110136242Y-102537675D01*
X110606470Y-103184889D01*
X109959256Y-103655117D01*
X109959256Y-103655117D01*
G37*
G36*
X108745730Y-104536795D02*
X108275502Y-103889581D01*
X108922716Y-103419353D01*
X109392944Y-104066567D01*
X108745730Y-104536795D01*
X108745730Y-104536795D01*
G37*
G36*
X109081968Y-102505226D02*
X108546664Y-101910710D01*
X109141180Y-101375406D01*
X109676484Y-101969922D01*
X109081968Y-102505226D01*
X109081968Y-102505226D01*
G37*
G36*
X107967250Y-103508922D02*
X107431946Y-102914406D01*
X108026462Y-102379102D01*
X108561766Y-102973618D01*
X107967250Y-103508922D01*
X107967250Y-103508922D01*
G37*
G36*
X108089290Y-101453336D02*
X107494774Y-100918032D01*
X108030078Y-100323516D01*
X108624594Y-100858820D01*
X108089290Y-101453336D01*
X108089290Y-101453336D01*
G37*
G36*
X107085594Y-102568054D02*
X106491078Y-102032750D01*
X107026382Y-101438234D01*
X107620898Y-101973538D01*
X107085594Y-102568054D01*
X107085594Y-102568054D01*
G37*
G36*
X106992097Y-100510972D02*
X106344883Y-100040744D01*
X106815111Y-99393530D01*
X107462325Y-99863758D01*
X106992097Y-100510972D01*
X106992097Y-100510972D01*
G37*
G36*
X106110419Y-101724498D02*
X105463205Y-101254270D01*
X105933433Y-100607056D01*
X106580647Y-101077284D01*
X106110419Y-101724498D01*
X106110419Y-101724498D01*
G37*
G36*
X105802410Y-99688458D02*
X105109590Y-99288458D01*
X105509590Y-98595638D01*
X106202410Y-98995638D01*
X105802410Y-99688458D01*
X105802410Y-99688458D01*
G37*
G36*
X105052410Y-100987496D02*
X104359590Y-100587496D01*
X104759590Y-99894676D01*
X105452410Y-100294676D01*
X105052410Y-100987496D01*
X105052410Y-100987496D01*
G37*
G36*
X104533264Y-98994806D02*
X103802427Y-98669417D01*
X104127816Y-97938580D01*
X104858653Y-98263969D01*
X104533264Y-98994806D01*
X104533264Y-98994806D01*
G37*
G36*
X103923160Y-100365124D02*
X103192323Y-100039735D01*
X103517712Y-99308898D01*
X104248549Y-99634287D01*
X103923160Y-100365124D01*
X103923160Y-100365124D01*
G37*
G36*
X103198565Y-98437615D02*
X102437720Y-98190402D01*
X102684933Y-97429557D01*
X103445778Y-97676770D01*
X103198565Y-98437615D01*
X103198565Y-98437615D01*
G37*
G36*
X102735039Y-99864199D02*
X101974194Y-99616986D01*
X102221407Y-98856141D01*
X102982252Y-99103354D01*
X102735039Y-99864199D01*
X102735039Y-99864199D01*
G37*
D13*
X97520000Y-101900000D03*
X97520000Y-101000000D03*
D10*
G36*
X114854233Y-110138560D02*
X114770610Y-109342943D01*
X115566227Y-109259320D01*
X115649850Y-110054937D01*
X114854233Y-110138560D01*
X114854233Y-110138560D01*
G37*
G36*
X113362451Y-110295352D02*
X113278828Y-109499735D01*
X114074445Y-109416112D01*
X114158068Y-110211729D01*
X113362451Y-110295352D01*
X113362451Y-110295352D01*
G37*
G36*
X114627834Y-108441488D02*
X114461504Y-107658970D01*
X115244022Y-107492640D01*
X115410352Y-108275158D01*
X114627834Y-108441488D01*
X114627834Y-108441488D01*
G37*
G36*
X113160612Y-108753356D02*
X112994282Y-107970838D01*
X113776800Y-107804508D01*
X113943130Y-108587026D01*
X113160612Y-108753356D01*
X113160612Y-108753356D01*
G37*
G36*
X114225282Y-106777377D02*
X113978069Y-106016532D01*
X114738914Y-105769319D01*
X114986127Y-106530164D01*
X114225282Y-106777377D01*
X114225282Y-106777377D01*
G37*
G36*
X112798698Y-107240903D02*
X112551485Y-106480058D01*
X113312330Y-106232845D01*
X113559543Y-106993690D01*
X112798698Y-107240903D01*
X112798698Y-107240903D01*
G37*
G36*
X113650989Y-105164462D02*
X113325600Y-104433625D01*
X114056437Y-104108236D01*
X114381826Y-104839073D01*
X113650989Y-105164462D01*
X113650989Y-105164462D01*
G37*
G36*
X112280671Y-105774566D02*
X111955282Y-105043729D01*
X112686119Y-104718340D01*
X113011508Y-105449177D01*
X112280671Y-105774566D01*
X112280671Y-105774566D01*
G37*
G36*
X112911247Y-103620410D02*
X112511247Y-102927590D01*
X113204067Y-102527590D01*
X113604067Y-103220410D01*
X112911247Y-103620410D01*
X112911247Y-103620410D01*
G37*
G36*
X111612209Y-104370410D02*
X111212209Y-103677590D01*
X111905029Y-103277590D01*
X112305029Y-103970410D01*
X111612209Y-104370410D01*
X111612209Y-104370410D01*
G37*
G36*
X112014159Y-102162143D02*
X111543931Y-101514929D01*
X112191145Y-101044701D01*
X112661373Y-101691915D01*
X112014159Y-102162143D01*
X112014159Y-102162143D01*
G37*
G36*
X110800633Y-103043821D02*
X110330405Y-102396607D01*
X110977619Y-101926379D01*
X111447847Y-102573593D01*
X110800633Y-103043821D01*
X110800633Y-103043821D01*
G37*
G36*
X110969556Y-100805635D02*
X110434252Y-100211119D01*
X111028768Y-99675815D01*
X111564072Y-100270331D01*
X110969556Y-100805635D01*
X110969556Y-100805635D01*
G37*
G36*
X109854838Y-101809331D02*
X109319534Y-101214815D01*
X109914050Y-100679511D01*
X110449354Y-101274027D01*
X109854838Y-101809331D01*
X109854838Y-101809331D01*
G37*
G36*
X109788881Y-99565748D02*
X109194365Y-99030444D01*
X109729669Y-98435928D01*
X110324185Y-98971232D01*
X109788881Y-99565748D01*
X109788881Y-99565748D01*
G37*
G36*
X108785185Y-100680466D02*
X108190669Y-100145162D01*
X108725973Y-99550646D01*
X109320489Y-100085950D01*
X108785185Y-100680466D01*
X108785185Y-100680466D01*
G37*
G36*
X108485071Y-98456069D02*
X107837857Y-97985841D01*
X108308085Y-97338627D01*
X108955299Y-97808855D01*
X108485071Y-98456069D01*
X108485071Y-98456069D01*
G37*
G36*
X107603393Y-99669595D02*
X106956179Y-99199367D01*
X107426407Y-98552153D01*
X108073621Y-99022381D01*
X107603393Y-99669595D01*
X107603393Y-99669595D01*
G37*
G36*
X107072410Y-97488753D02*
X106379590Y-97088753D01*
X106779590Y-96395933D01*
X107472410Y-96795933D01*
X107072410Y-97488753D01*
X107072410Y-97488753D01*
G37*
G36*
X106322410Y-98787791D02*
X105629590Y-98387791D01*
X106029590Y-97694971D01*
X106722410Y-98094971D01*
X106322410Y-98787791D01*
X106322410Y-98787791D01*
G37*
G36*
X105566375Y-96674400D02*
X104835538Y-96349011D01*
X105160927Y-95618174D01*
X105891764Y-95943563D01*
X105566375Y-96674400D01*
X105566375Y-96674400D01*
G37*
G36*
X104956271Y-98044718D02*
X104225434Y-97719329D01*
X104550823Y-96988492D01*
X105281660Y-97313881D01*
X104956271Y-98044718D01*
X104956271Y-98044718D01*
G37*
G36*
X103983468Y-96021931D02*
X103222623Y-95774718D01*
X103469836Y-95013873D01*
X104230681Y-95261086D01*
X103983468Y-96021931D01*
X103983468Y-96021931D01*
G37*
G36*
X103519942Y-97448515D02*
X102759097Y-97201302D01*
X103006310Y-96440457D01*
X103767155Y-96687670D01*
X103519942Y-97448515D01*
X103519942Y-97448515D01*
G37*
D13*
X99640000Y-101940000D03*
X99640000Y-101040000D03*
D10*
G36*
X101812935Y-98022990D02*
X101030417Y-97856660D01*
X101196747Y-97074142D01*
X101979265Y-97240472D01*
X101812935Y-98022990D01*
X101812935Y-98022990D01*
G37*
G36*
X101501067Y-99490212D02*
X100718549Y-99323882D01*
X100884879Y-98541364D01*
X101667397Y-98707694D01*
X101501067Y-99490212D01*
X101501067Y-99490212D01*
G37*
G36*
X100391555Y-97755476D02*
X99595938Y-97671853D01*
X99679561Y-96876236D01*
X100475178Y-96959859D01*
X100391555Y-97755476D01*
X100391555Y-97755476D01*
G37*
G36*
X100234763Y-99247258D02*
X99439146Y-99163635D01*
X99522769Y-98368018D01*
X100318386Y-98451641D01*
X100234763Y-99247258D01*
X100234763Y-99247258D01*
G37*
D12*
X98550000Y-97238000D03*
X98550000Y-98738000D03*
D10*
G36*
X97504062Y-97671853D02*
X96708445Y-97755476D01*
X96624822Y-96959859D01*
X97420439Y-96876236D01*
X97504062Y-97671853D01*
X97504062Y-97671853D01*
G37*
G36*
X97660854Y-99163635D02*
X96865237Y-99247258D01*
X96781614Y-98451641D01*
X97577231Y-98368018D01*
X97660854Y-99163635D01*
X97660854Y-99163635D01*
G37*
G36*
X96069583Y-97856660D02*
X95287065Y-98022990D01*
X95120735Y-97240472D01*
X95903253Y-97074142D01*
X96069583Y-97856660D01*
X96069583Y-97856660D01*
G37*
G36*
X96381451Y-99323882D02*
X95598933Y-99490212D01*
X95432603Y-98707694D01*
X96215121Y-98541364D01*
X96381451Y-99323882D01*
X96381451Y-99323882D01*
G37*
G36*
X94662280Y-98190402D02*
X93901435Y-98437615D01*
X93654222Y-97676770D01*
X94415067Y-97429557D01*
X94662280Y-98190402D01*
X94662280Y-98190402D01*
G37*
G36*
X95125806Y-99616986D02*
X94364961Y-99864199D01*
X94117748Y-99103354D01*
X94878593Y-98856141D01*
X95125806Y-99616986D01*
X95125806Y-99616986D01*
G37*
G36*
X93297573Y-98669417D02*
X92566736Y-98994806D01*
X92241347Y-98263969D01*
X92972184Y-97938580D01*
X93297573Y-98669417D01*
X93297573Y-98669417D01*
G37*
G36*
X93907677Y-100039735D02*
X93176840Y-100365124D01*
X92851451Y-99634287D01*
X93582288Y-99308898D01*
X93907677Y-100039735D01*
X93907677Y-100039735D01*
G37*
G36*
X91990410Y-99288458D02*
X91297590Y-99688458D01*
X90897590Y-98995638D01*
X91590410Y-98595638D01*
X91990410Y-99288458D01*
X91990410Y-99288458D01*
G37*
G36*
X92740410Y-100587496D02*
X92047590Y-100987496D01*
X91647590Y-100294676D01*
X92340410Y-99894676D01*
X92740410Y-100587496D01*
X92740410Y-100587496D01*
G37*
G36*
X90755117Y-100040744D02*
X90107903Y-100510972D01*
X89637675Y-99863758D01*
X90284889Y-99393530D01*
X90755117Y-100040744D01*
X90755117Y-100040744D01*
G37*
G36*
X91636795Y-101254270D02*
X90989581Y-101724498D01*
X90519353Y-101077284D01*
X91166567Y-100607056D01*
X91636795Y-101254270D01*
X91636795Y-101254270D01*
G37*
G36*
X89605226Y-100918032D02*
X89010710Y-101453336D01*
X88475406Y-100858820D01*
X89069922Y-100323516D01*
X89605226Y-100918032D01*
X89605226Y-100918032D01*
G37*
G36*
X90608922Y-102032750D02*
X90014406Y-102568054D01*
X89479102Y-101973538D01*
X90073618Y-101438234D01*
X90608922Y-102032750D01*
X90608922Y-102032750D01*
G37*
G36*
X88553336Y-101910710D02*
X88018032Y-102505226D01*
X87423516Y-101969922D01*
X87958820Y-101375406D01*
X88553336Y-101910710D01*
X88553336Y-101910710D01*
G37*
G36*
X89668054Y-102914406D02*
X89132750Y-103508922D01*
X88538234Y-102973618D01*
X89073538Y-102379102D01*
X89668054Y-102914406D01*
X89668054Y-102914406D01*
G37*
G36*
X87610972Y-103007903D02*
X87140744Y-103655117D01*
X86493530Y-103184889D01*
X86963758Y-102537675D01*
X87610972Y-103007903D01*
X87610972Y-103007903D01*
G37*
G36*
X88824498Y-103889581D02*
X88354270Y-104536795D01*
X87707056Y-104066567D01*
X88177284Y-103419353D01*
X88824498Y-103889581D01*
X88824498Y-103889581D01*
G37*
D11*
X88790000Y-110500000D03*
X87890000Y-110500000D03*
D10*
G36*
X102341030Y-95538496D02*
X101558512Y-95372166D01*
X101724842Y-94589648D01*
X102507360Y-94755978D01*
X102341030Y-95538496D01*
X102341030Y-95538496D01*
G37*
G36*
X102029162Y-97005718D02*
X101246644Y-96839388D01*
X101412974Y-96056870D01*
X102195492Y-96223200D01*
X102029162Y-97005718D01*
X102029162Y-97005718D01*
G37*
G36*
X100657057Y-95229390D02*
X99861440Y-95145767D01*
X99945063Y-94350150D01*
X100740680Y-94433773D01*
X100657057Y-95229390D01*
X100657057Y-95229390D01*
G37*
G36*
X100500265Y-96721172D02*
X99704648Y-96637549D01*
X99788271Y-95841932D01*
X100583888Y-95925555D01*
X100500265Y-96721172D01*
X100500265Y-96721172D01*
G37*
D12*
X98550000Y-94698000D03*
X98550000Y-96198000D03*
D10*
G36*
X97238560Y-95145767D02*
X96442943Y-95229390D01*
X96359320Y-94433773D01*
X97154937Y-94350150D01*
X97238560Y-95145767D01*
X97238560Y-95145767D01*
G37*
G36*
X97395352Y-96637549D02*
X96599735Y-96721172D01*
X96516112Y-95925555D01*
X97311729Y-95841932D01*
X97395352Y-96637549D01*
X97395352Y-96637549D01*
G37*
G36*
X95541488Y-95372166D02*
X94758970Y-95538496D01*
X94592640Y-94755978D01*
X95375158Y-94589648D01*
X95541488Y-95372166D01*
X95541488Y-95372166D01*
G37*
G36*
X95853356Y-96839388D02*
X95070838Y-97005718D01*
X94904508Y-96223200D01*
X95687026Y-96056870D01*
X95853356Y-96839388D01*
X95853356Y-96839388D01*
G37*
G36*
X90720410Y-97088753D02*
X90027590Y-97488753D01*
X89627590Y-96795933D01*
X90320410Y-96395933D01*
X90720410Y-97088753D01*
X90720410Y-97088753D01*
G37*
G36*
X91470410Y-98387791D02*
X90777590Y-98787791D01*
X90377590Y-98094971D01*
X91070410Y-97694971D01*
X91470410Y-98387791D01*
X91470410Y-98387791D01*
G37*
G36*
X87905635Y-99030444D02*
X87311119Y-99565748D01*
X86775815Y-98971232D01*
X87370331Y-98435928D01*
X87905635Y-99030444D01*
X87905635Y-99030444D01*
G37*
G36*
X88909331Y-100145162D02*
X88314815Y-100680466D01*
X87779511Y-100085950D01*
X88374027Y-99550646D01*
X88909331Y-100145162D01*
X88909331Y-100145162D01*
G37*
G36*
X86665748Y-100211119D02*
X86130444Y-100805635D01*
X85535928Y-100270331D01*
X86071232Y-99675815D01*
X86665748Y-100211119D01*
X86665748Y-100211119D01*
G37*
G36*
X87780466Y-101214815D02*
X87245162Y-101809331D01*
X86650646Y-101274027D01*
X87185950Y-100679511D01*
X87780466Y-101214815D01*
X87780466Y-101214815D01*
G37*
G36*
X85556069Y-101514929D02*
X85085841Y-102162143D01*
X84438627Y-101691915D01*
X84908855Y-101044701D01*
X85556069Y-101514929D01*
X85556069Y-101514929D01*
G37*
G36*
X86769595Y-102396607D02*
X86299367Y-103043821D01*
X85652153Y-102573593D01*
X86122381Y-101926379D01*
X86769595Y-102396607D01*
X86769595Y-102396607D01*
G37*
D11*
X88810000Y-112420000D03*
X87910000Y-112420000D03*
D10*
G36*
X86788458Y-104197590D02*
X86388458Y-104890410D01*
X85695638Y-104490410D01*
X86095638Y-103797590D01*
X86788458Y-104197590D01*
X86788458Y-104197590D01*
G37*
G36*
X88087496Y-104947590D02*
X87687496Y-105640410D01*
X86994676Y-105240410D01*
X87394676Y-104547590D01*
X88087496Y-104947590D01*
X88087496Y-104947590D01*
G37*
G36*
X86094806Y-105466736D02*
X85769417Y-106197573D01*
X85038580Y-105872184D01*
X85363969Y-105141347D01*
X86094806Y-105466736D01*
X86094806Y-105466736D01*
G37*
G36*
X87465124Y-106076840D02*
X87139735Y-106807677D01*
X86408898Y-106482288D01*
X86734287Y-105751451D01*
X87465124Y-106076840D01*
X87465124Y-106076840D01*
G37*
G36*
X85537615Y-106801435D02*
X85290402Y-107562280D01*
X84529557Y-107315067D01*
X84776770Y-106554222D01*
X85537615Y-106801435D01*
X85537615Y-106801435D01*
G37*
G36*
X86964199Y-107264961D02*
X86716986Y-108025806D01*
X85956141Y-107778593D01*
X86203354Y-107017748D01*
X86964199Y-107264961D01*
X86964199Y-107264961D01*
G37*
G36*
X85122990Y-108187065D02*
X84956660Y-108969583D01*
X84174142Y-108803253D01*
X84340472Y-108020735D01*
X85122990Y-108187065D01*
X85122990Y-108187065D01*
G37*
G36*
X86590212Y-108498933D02*
X86423882Y-109281451D01*
X85641364Y-109115121D01*
X85807694Y-108332603D01*
X86590212Y-108498933D01*
X86590212Y-108498933D01*
G37*
G36*
X84855476Y-109608445D02*
X84771853Y-110404062D01*
X83976236Y-110320439D01*
X84059859Y-109524822D01*
X84855476Y-109608445D01*
X84855476Y-109608445D01*
G37*
G36*
X86347258Y-109765237D02*
X86263635Y-110560854D01*
X85468018Y-110477231D01*
X85551641Y-109681614D01*
X86347258Y-109765237D01*
X86347258Y-109765237D01*
G37*
D12*
X84338000Y-111450000D03*
X85838000Y-111450000D03*
D10*
G36*
X84771853Y-112495938D02*
X84855476Y-113291555D01*
X84059859Y-113375178D01*
X83976236Y-112579561D01*
X84771853Y-112495938D01*
X84771853Y-112495938D01*
G37*
G36*
X86263635Y-112339146D02*
X86347258Y-113134763D01*
X85551641Y-113218386D01*
X85468018Y-112422769D01*
X86263635Y-112339146D01*
X86263635Y-112339146D01*
G37*
G36*
X84956660Y-113930417D02*
X85122990Y-114712935D01*
X84340472Y-114879265D01*
X84174142Y-114096747D01*
X84956660Y-113930417D01*
X84956660Y-113930417D01*
G37*
G36*
X86423882Y-113618549D02*
X86590212Y-114401067D01*
X85807694Y-114567397D01*
X85641364Y-113784879D01*
X86423882Y-113618549D01*
X86423882Y-113618549D01*
G37*
G36*
X85290402Y-115337720D02*
X85537615Y-116098565D01*
X84776770Y-116345778D01*
X84529557Y-115584933D01*
X85290402Y-115337720D01*
X85290402Y-115337720D01*
G37*
G36*
X86716986Y-114874194D02*
X86964199Y-115635039D01*
X86203354Y-115882252D01*
X85956141Y-115121407D01*
X86716986Y-114874194D01*
X86716986Y-114874194D01*
G37*
G36*
X85769417Y-116702427D02*
X86094806Y-117433264D01*
X85363969Y-117758653D01*
X85038580Y-117027816D01*
X85769417Y-116702427D01*
X85769417Y-116702427D01*
G37*
G36*
X87139735Y-116092323D02*
X87465124Y-116823160D01*
X86734287Y-117148549D01*
X86408898Y-116417712D01*
X87139735Y-116092323D01*
X87139735Y-116092323D01*
G37*
G36*
X86388458Y-118009589D02*
X86788458Y-118702409D01*
X86095638Y-119102409D01*
X85695638Y-118409589D01*
X86388458Y-118009589D01*
X86388458Y-118009589D01*
G37*
G36*
X87687496Y-117259589D02*
X88087496Y-117952409D01*
X87394676Y-118352409D01*
X86994676Y-117659589D01*
X87687496Y-117259589D01*
X87687496Y-117259589D01*
G37*
G36*
X87140744Y-119244883D02*
X87610972Y-119892097D01*
X86963758Y-120362325D01*
X86493530Y-119715111D01*
X87140744Y-119244883D01*
X87140744Y-119244883D01*
G37*
G36*
X88354270Y-118363205D02*
X88824498Y-119010419D01*
X88177284Y-119480647D01*
X87707056Y-118833433D01*
X88354270Y-118363205D01*
X88354270Y-118363205D01*
G37*
G36*
X83774400Y-104433625D02*
X83449011Y-105164462D01*
X82718174Y-104839073D01*
X83043563Y-104108236D01*
X83774400Y-104433625D01*
X83774400Y-104433625D01*
G37*
G36*
X85144718Y-105043729D02*
X84819329Y-105774566D01*
X84088492Y-105449177D01*
X84413881Y-104718340D01*
X85144718Y-105043729D01*
X85144718Y-105043729D01*
G37*
G36*
X83121931Y-106016532D02*
X82874718Y-106777377D01*
X82113873Y-106530164D01*
X82361086Y-105769319D01*
X83121931Y-106016532D01*
X83121931Y-106016532D01*
G37*
G36*
X84548515Y-106480058D02*
X84301302Y-107240903D01*
X83540457Y-106993690D01*
X83787670Y-106232845D01*
X84548515Y-106480058D01*
X84548515Y-106480058D01*
G37*
G36*
X82329390Y-109342943D02*
X82245767Y-110138560D01*
X81450150Y-110054937D01*
X81533773Y-109259320D01*
X82329390Y-109342943D01*
X82329390Y-109342943D01*
G37*
G36*
X83821172Y-109499735D02*
X83737549Y-110295352D01*
X82941932Y-110211729D01*
X83025555Y-109416112D01*
X83821172Y-109499735D01*
X83821172Y-109499735D01*
G37*
D12*
X81798000Y-111450000D03*
X83298000Y-111450000D03*
D10*
G36*
X82245767Y-112761440D02*
X82329390Y-113557057D01*
X81533773Y-113640680D01*
X81450150Y-112845063D01*
X82245767Y-112761440D01*
X82245767Y-112761440D01*
G37*
G36*
X83737549Y-112604648D02*
X83821172Y-113400265D01*
X83025555Y-113483888D01*
X82941932Y-112688271D01*
X83737549Y-112604648D01*
X83737549Y-112604648D01*
G37*
G36*
X82472166Y-114458512D02*
X82638496Y-115241030D01*
X81855978Y-115407360D01*
X81689648Y-114624842D01*
X82472166Y-114458512D01*
X82472166Y-114458512D01*
G37*
G36*
X83939388Y-114146644D02*
X84105718Y-114929162D01*
X83323200Y-115095492D01*
X83156870Y-114312974D01*
X83939388Y-114146644D01*
X83939388Y-114146644D01*
G37*
G36*
X82874718Y-116122623D02*
X83121931Y-116883468D01*
X82361086Y-117130681D01*
X82113873Y-116369836D01*
X82874718Y-116122623D01*
X82874718Y-116122623D01*
G37*
G36*
X84301302Y-115659097D02*
X84548515Y-116419942D01*
X83787670Y-116667155D01*
X83540457Y-115906310D01*
X84301302Y-115659097D01*
X84301302Y-115659097D01*
G37*
G36*
X83449011Y-117735538D02*
X83774400Y-118466375D01*
X83043563Y-118791764D01*
X82718174Y-118060927D01*
X83449011Y-117735538D01*
X83449011Y-117735538D01*
G37*
G36*
X84819329Y-117125434D02*
X85144718Y-117856271D01*
X84413881Y-118181660D01*
X84088492Y-117450823D01*
X84819329Y-117125434D01*
X84819329Y-117125434D01*
G37*
G36*
X84188753Y-119279589D02*
X84588753Y-119972409D01*
X83895933Y-120372409D01*
X83495933Y-119679589D01*
X84188753Y-119279589D01*
X84188753Y-119279589D01*
G37*
G36*
X85487791Y-118529589D02*
X85887791Y-119222409D01*
X85194971Y-119622409D01*
X84794971Y-118929589D01*
X85487791Y-118529589D01*
X85487791Y-118529589D01*
G37*
G36*
X85085841Y-120737857D02*
X85556069Y-121385071D01*
X84908855Y-121855299D01*
X84438627Y-121208085D01*
X85085841Y-120737857D01*
X85085841Y-120737857D01*
G37*
G36*
X86299367Y-119856179D02*
X86769595Y-120503393D01*
X86122381Y-120973621D01*
X85652153Y-120326407D01*
X86299367Y-119856179D01*
X86299367Y-119856179D01*
G37*
D11*
X91280000Y-109460000D03*
X90380000Y-109460000D03*
D10*
G36*
X88018032Y-120394774D02*
X88553336Y-120989290D01*
X87958820Y-121524594D01*
X87423516Y-120930078D01*
X88018032Y-120394774D01*
X88018032Y-120394774D01*
G37*
G36*
X89132750Y-119391078D02*
X89668054Y-119985594D01*
X89073538Y-120520898D01*
X88538234Y-119926382D01*
X89132750Y-119391078D01*
X89132750Y-119391078D01*
G37*
G36*
X89010710Y-121446664D02*
X89605226Y-121981968D01*
X89069922Y-122576484D01*
X88475406Y-122041180D01*
X89010710Y-121446664D01*
X89010710Y-121446664D01*
G37*
G36*
X90014406Y-120331946D02*
X90608922Y-120867250D01*
X90073618Y-121461766D01*
X89479102Y-120926462D01*
X90014406Y-120331946D01*
X90014406Y-120331946D01*
G37*
G36*
X90107903Y-122389028D02*
X90755117Y-122859256D01*
X90284889Y-123506470D01*
X89637675Y-123036242D01*
X90107903Y-122389028D01*
X90107903Y-122389028D01*
G37*
G36*
X90989581Y-121175502D02*
X91636795Y-121645730D01*
X91166567Y-122292944D01*
X90519353Y-121822716D01*
X90989581Y-121175502D01*
X90989581Y-121175502D01*
G37*
G36*
X91297591Y-123211542D02*
X91990411Y-123611542D01*
X91590411Y-124304362D01*
X90897591Y-123904362D01*
X91297591Y-123211542D01*
X91297591Y-123211542D01*
G37*
G36*
X92047591Y-121912504D02*
X92740411Y-122312504D01*
X92340411Y-123005324D01*
X91647591Y-122605324D01*
X92047591Y-121912504D01*
X92047591Y-121912504D01*
G37*
G36*
X92566736Y-123905194D02*
X93297573Y-124230583D01*
X92972184Y-124961420D01*
X92241347Y-124636031D01*
X92566736Y-123905194D01*
X92566736Y-123905194D01*
G37*
G36*
X93176840Y-122534876D02*
X93907677Y-122860265D01*
X93582288Y-123591102D01*
X92851451Y-123265713D01*
X93176840Y-122534876D01*
X93176840Y-122534876D01*
G37*
G36*
X93901435Y-124462385D02*
X94662280Y-124709598D01*
X94415067Y-125470443D01*
X93654222Y-125223230D01*
X93901435Y-124462385D01*
X93901435Y-124462385D01*
G37*
G36*
X94364961Y-123035801D02*
X95125806Y-123283014D01*
X94878593Y-124043859D01*
X94117748Y-123796646D01*
X94364961Y-123035801D01*
X94364961Y-123035801D01*
G37*
G36*
X95287065Y-124877010D02*
X96069583Y-125043340D01*
X95903253Y-125825858D01*
X95120735Y-125659528D01*
X95287065Y-124877010D01*
X95287065Y-124877010D01*
G37*
G36*
X95598933Y-123409788D02*
X96381451Y-123576118D01*
X96215121Y-124358636D01*
X95432603Y-124192306D01*
X95598933Y-123409788D01*
X95598933Y-123409788D01*
G37*
G36*
X96708445Y-125144524D02*
X97504062Y-125228147D01*
X97420439Y-126023764D01*
X96624822Y-125940141D01*
X96708445Y-125144524D01*
X96708445Y-125144524D01*
G37*
G36*
X96865237Y-123652742D02*
X97660854Y-123736365D01*
X97577231Y-124531982D01*
X96781614Y-124448359D01*
X96865237Y-123652742D01*
X96865237Y-123652742D01*
G37*
D12*
X98550000Y-125662000D03*
X98550000Y-124162000D03*
D10*
G36*
X99595938Y-125228147D02*
X100391555Y-125144524D01*
X100475178Y-125940141D01*
X99679561Y-126023764D01*
X99595938Y-125228147D01*
X99595938Y-125228147D01*
G37*
G36*
X99439146Y-123736365D02*
X100234763Y-123652742D01*
X100318386Y-124448359D01*
X99522769Y-124531982D01*
X99439146Y-123736365D01*
X99439146Y-123736365D01*
G37*
G36*
X101030417Y-125043340D02*
X101812935Y-124877010D01*
X101979265Y-125659528D01*
X101196747Y-125825858D01*
X101030417Y-125043340D01*
X101030417Y-125043340D01*
G37*
G36*
X100718549Y-123576118D02*
X101501067Y-123409788D01*
X101667397Y-124192306D01*
X100884879Y-124358636D01*
X100718549Y-123576118D01*
X100718549Y-123576118D01*
G37*
G36*
X102437720Y-124709598D02*
X103198565Y-124462385D01*
X103445778Y-125223230D01*
X102684933Y-125470443D01*
X102437720Y-124709598D01*
X102437720Y-124709598D01*
G37*
G36*
X101974194Y-123283014D02*
X102735039Y-123035801D01*
X102982252Y-123796646D01*
X102221407Y-124043859D01*
X101974194Y-123283014D01*
X101974194Y-123283014D01*
G37*
D13*
X99430000Y-121440000D03*
X99430000Y-122340000D03*
D10*
G36*
X86130444Y-122094365D02*
X86665748Y-122688881D01*
X86071232Y-123224185D01*
X85535928Y-122629669D01*
X86130444Y-122094365D01*
X86130444Y-122094365D01*
G37*
G36*
X87245162Y-121090669D02*
X87780466Y-121685185D01*
X87185950Y-122220489D01*
X86650646Y-121625973D01*
X87245162Y-121090669D01*
X87245162Y-121090669D01*
G37*
G36*
X87311119Y-123334252D02*
X87905635Y-123869556D01*
X87370331Y-124464072D01*
X86775815Y-123928768D01*
X87311119Y-123334252D01*
X87311119Y-123334252D01*
G37*
G36*
X88314815Y-122219534D02*
X88909331Y-122754838D01*
X88374027Y-123349354D01*
X87779511Y-122814050D01*
X88314815Y-122219534D01*
X88314815Y-122219534D01*
G37*
G36*
X88614929Y-124443931D02*
X89262143Y-124914159D01*
X88791915Y-125561373D01*
X88144701Y-125091145D01*
X88614929Y-124443931D01*
X88614929Y-124443931D01*
G37*
G36*
X89496607Y-123230405D02*
X90143821Y-123700633D01*
X89673593Y-124347847D01*
X89026379Y-123877619D01*
X89496607Y-123230405D01*
X89496607Y-123230405D01*
G37*
G36*
X90027591Y-125411247D02*
X90720411Y-125811247D01*
X90320411Y-126504067D01*
X89627591Y-126104067D01*
X90027591Y-125411247D01*
X90027591Y-125411247D01*
G37*
G36*
X90777591Y-124112209D02*
X91470411Y-124512209D01*
X91070411Y-125205029D01*
X90377591Y-124805029D01*
X90777591Y-124112209D01*
X90777591Y-124112209D01*
G37*
G36*
X91533625Y-126225600D02*
X92264462Y-126550989D01*
X91939073Y-127281826D01*
X91208236Y-126956437D01*
X91533625Y-126225600D01*
X91533625Y-126225600D01*
G37*
G36*
X92143729Y-124855282D02*
X92874566Y-125180671D01*
X92549177Y-125911508D01*
X91818340Y-125586119D01*
X92143729Y-124855282D01*
X92143729Y-124855282D01*
G37*
G36*
X94758970Y-127361504D02*
X95541488Y-127527834D01*
X95375158Y-128310352D01*
X94592640Y-128144022D01*
X94758970Y-127361504D01*
X94758970Y-127361504D01*
G37*
G36*
X95070838Y-125894282D02*
X95853356Y-126060612D01*
X95687026Y-126843130D01*
X94904508Y-126676800D01*
X95070838Y-125894282D01*
X95070838Y-125894282D01*
G37*
G36*
X96442943Y-127670610D02*
X97238560Y-127754233D01*
X97154937Y-128549850D01*
X96359320Y-128466227D01*
X96442943Y-127670610D01*
X96442943Y-127670610D01*
G37*
G36*
X96599735Y-126178828D02*
X97395352Y-126262451D01*
X97311729Y-127058068D01*
X96516112Y-126974445D01*
X96599735Y-126178828D01*
X96599735Y-126178828D01*
G37*
D12*
X98550000Y-128202000D03*
X98550000Y-126702000D03*
D10*
G36*
X99861440Y-127754233D02*
X100657057Y-127670610D01*
X100740680Y-128466227D01*
X99945063Y-128549850D01*
X99861440Y-127754233D01*
X99861440Y-127754233D01*
G37*
G36*
X99704648Y-126262451D02*
X100500265Y-126178828D01*
X100583888Y-126974445D01*
X99788271Y-127058068D01*
X99704648Y-126262451D01*
X99704648Y-126262451D01*
G37*
G36*
X101558512Y-127527834D02*
X102341030Y-127361504D01*
X102507360Y-128144022D01*
X101724842Y-128310352D01*
X101558512Y-127527834D01*
X101558512Y-127527834D01*
G37*
G36*
X101246644Y-126060612D02*
X102029162Y-125894282D01*
X102195492Y-126676800D01*
X101412974Y-126843130D01*
X101246644Y-126060612D01*
X101246644Y-126060612D01*
G37*
G36*
X103222623Y-127125282D02*
X103983468Y-126878069D01*
X104230681Y-127638914D01*
X103469836Y-127886127D01*
X103222623Y-127125282D01*
X103222623Y-127125282D01*
G37*
G36*
X102759097Y-125698698D02*
X103519942Y-125451485D01*
X103767155Y-126212330D01*
X103006310Y-126459543D01*
X102759097Y-125698698D01*
X102759097Y-125698698D01*
G37*
G36*
X105109590Y-123611542D02*
X105802410Y-123211542D01*
X106202410Y-123904362D01*
X105509590Y-124304362D01*
X105109590Y-123611542D01*
X105109590Y-123611542D01*
G37*
G36*
X104359590Y-122312504D02*
X105052410Y-121912504D01*
X105452410Y-122605324D01*
X104759590Y-123005324D01*
X104359590Y-122312504D01*
X104359590Y-122312504D01*
G37*
G36*
X106344883Y-122859256D02*
X106992097Y-122389028D01*
X107462325Y-123036242D01*
X106815111Y-123506470D01*
X106344883Y-122859256D01*
X106344883Y-122859256D01*
G37*
G36*
X105463205Y-121645730D02*
X106110419Y-121175502D01*
X106580647Y-121822716D01*
X105933433Y-122292944D01*
X105463205Y-121645730D01*
X105463205Y-121645730D01*
G37*
G36*
X108546664Y-120989290D02*
X109081968Y-120394774D01*
X109676484Y-120930078D01*
X109141180Y-121524594D01*
X108546664Y-120989290D01*
X108546664Y-120989290D01*
G37*
G36*
X107431946Y-119985594D02*
X107967250Y-119391078D01*
X108561766Y-119926382D01*
X108026462Y-120520898D01*
X107431946Y-119985594D01*
X107431946Y-119985594D01*
G37*
G36*
X110311542Y-118702409D02*
X110711542Y-118009589D01*
X111404362Y-118409589D01*
X111004362Y-119102409D01*
X110311542Y-118702409D01*
X110311542Y-118702409D01*
G37*
G36*
X109012504Y-117952409D02*
X109412504Y-117259589D01*
X110105324Y-117659589D01*
X109705324Y-118352409D01*
X109012504Y-117952409D01*
X109012504Y-117952409D01*
G37*
G36*
X111005194Y-117433264D02*
X111330583Y-116702427D01*
X112061420Y-117027816D01*
X111736031Y-117758653D01*
X111005194Y-117433264D01*
X111005194Y-117433264D01*
G37*
G36*
X109634876Y-116823160D02*
X109960265Y-116092323D01*
X110691102Y-116417712D01*
X110365713Y-117148549D01*
X109634876Y-116823160D01*
X109634876Y-116823160D01*
G37*
G36*
X111562385Y-116098565D02*
X111809598Y-115337720D01*
X112570443Y-115584933D01*
X112323230Y-116345778D01*
X111562385Y-116098565D01*
X111562385Y-116098565D01*
G37*
G36*
X110135801Y-115635039D02*
X110383014Y-114874194D01*
X111143859Y-115121407D01*
X110896646Y-115882252D01*
X110135801Y-115635039D01*
X110135801Y-115635039D01*
G37*
G36*
X111977010Y-114712935D02*
X112143340Y-113930417D01*
X112925858Y-114096747D01*
X112759528Y-114879265D01*
X111977010Y-114712935D01*
X111977010Y-114712935D01*
G37*
G36*
X110509788Y-114401067D02*
X110676118Y-113618549D01*
X111458636Y-113784879D01*
X111292306Y-114567397D01*
X110509788Y-114401067D01*
X110509788Y-114401067D01*
G37*
G36*
X112244524Y-113291555D02*
X112328147Y-112495938D01*
X113123764Y-112579561D01*
X113040141Y-113375178D01*
X112244524Y-113291555D01*
X112244524Y-113291555D01*
G37*
G36*
X110752742Y-113134763D02*
X110836365Y-112339146D01*
X111631982Y-112422769D01*
X111548359Y-113218386D01*
X110752742Y-113134763D01*
X110752742Y-113134763D01*
G37*
D12*
X112762000Y-111450000D03*
X111262000Y-111450000D03*
D11*
X105640000Y-113300000D03*
X106540000Y-113300000D03*
D10*
G36*
X104835538Y-126550989D02*
X105566375Y-126225600D01*
X105891764Y-126956437D01*
X105160927Y-127281826D01*
X104835538Y-126550989D01*
X104835538Y-126550989D01*
G37*
G36*
X104225434Y-125180671D02*
X104956271Y-124855282D01*
X105281660Y-125586119D01*
X104550823Y-125911508D01*
X104225434Y-125180671D01*
X104225434Y-125180671D01*
G37*
G36*
X106379590Y-125811247D02*
X107072410Y-125411247D01*
X107472410Y-126104067D01*
X106779590Y-126504067D01*
X106379590Y-125811247D01*
X106379590Y-125811247D01*
G37*
G36*
X105629590Y-124512209D02*
X106322410Y-124112209D01*
X106722410Y-124805029D01*
X106029590Y-125205029D01*
X105629590Y-124512209D01*
X105629590Y-124512209D01*
G37*
G36*
X107837857Y-124914159D02*
X108485071Y-124443931D01*
X108955299Y-125091145D01*
X108308085Y-125561373D01*
X107837857Y-124914159D01*
X107837857Y-124914159D01*
G37*
G36*
X106956179Y-123700633D02*
X107603393Y-123230405D01*
X108073621Y-123877619D01*
X107426407Y-124347847D01*
X106956179Y-123700633D01*
X106956179Y-123700633D01*
G37*
G36*
X109194365Y-123869556D02*
X109788881Y-123334252D01*
X110324185Y-123928768D01*
X109729669Y-124464072D01*
X109194365Y-123869556D01*
X109194365Y-123869556D01*
G37*
G36*
X108190669Y-122754838D02*
X108785185Y-122219534D01*
X109320489Y-122814050D01*
X108725973Y-123349354D01*
X108190669Y-122754838D01*
X108190669Y-122754838D01*
G37*
G36*
X110434252Y-122688881D02*
X110969556Y-122094365D01*
X111564072Y-122629669D01*
X111028768Y-123224185D01*
X110434252Y-122688881D01*
X110434252Y-122688881D01*
G37*
G36*
X109319534Y-121685185D02*
X109854838Y-121090669D01*
X110449354Y-121625973D01*
X109914050Y-122220489D01*
X109319534Y-121685185D01*
X109319534Y-121685185D01*
G37*
G36*
X111543931Y-121385071D02*
X112014159Y-120737857D01*
X112661373Y-121208085D01*
X112191145Y-121855299D01*
X111543931Y-121385071D01*
X111543931Y-121385071D01*
G37*
G36*
X110330405Y-120503393D02*
X110800633Y-119856179D01*
X111447847Y-120326407D01*
X110977619Y-120973621D01*
X110330405Y-120503393D01*
X110330405Y-120503393D01*
G37*
G36*
X112511247Y-119972409D02*
X112911247Y-119279589D01*
X113604067Y-119679589D01*
X113204067Y-120372409D01*
X112511247Y-119972409D01*
X112511247Y-119972409D01*
G37*
G36*
X111212209Y-119222409D02*
X111612209Y-118529589D01*
X112305029Y-118929589D01*
X111905029Y-119622409D01*
X111212209Y-119222409D01*
X111212209Y-119222409D01*
G37*
G36*
X113325600Y-118466375D02*
X113650989Y-117735538D01*
X114381826Y-118060927D01*
X114056437Y-118791764D01*
X113325600Y-118466375D01*
X113325600Y-118466375D01*
G37*
G36*
X111955282Y-117856271D02*
X112280671Y-117125434D01*
X113011508Y-117450823D01*
X112686119Y-118181660D01*
X111955282Y-117856271D01*
X111955282Y-117856271D01*
G37*
G36*
X113978069Y-116883468D02*
X114225282Y-116122623D01*
X114986127Y-116369836D01*
X114738914Y-117130681D01*
X113978069Y-116883468D01*
X113978069Y-116883468D01*
G37*
G36*
X112551485Y-116419942D02*
X112798698Y-115659097D01*
X113559543Y-115906310D01*
X113312330Y-116667155D01*
X112551485Y-116419942D01*
X112551485Y-116419942D01*
G37*
G36*
X114461504Y-115241030D02*
X114627834Y-114458512D01*
X115410352Y-114624842D01*
X115244022Y-115407360D01*
X114461504Y-115241030D01*
X114461504Y-115241030D01*
G37*
G36*
X112994282Y-114929162D02*
X113160612Y-114146644D01*
X113943130Y-114312974D01*
X113776800Y-115095492D01*
X112994282Y-114929162D01*
X112994282Y-114929162D01*
G37*
G36*
X114770610Y-113557057D02*
X114854233Y-112761440D01*
X115649850Y-112845063D01*
X115566227Y-113640680D01*
X114770610Y-113557057D01*
X114770610Y-113557057D01*
G37*
G36*
X113278828Y-113400265D02*
X113362451Y-112604648D01*
X114158068Y-112688271D01*
X114074445Y-113483888D01*
X113278828Y-113400265D01*
X113278828Y-113400265D01*
G37*
D12*
X115302000Y-111450000D03*
X113802000Y-111450000D03*
D11*
X93410000Y-107930000D03*
X94310000Y-107930000D03*
D14*
X100920000Y-108470000D03*
X100420000Y-108470000D03*
X99920000Y-108470000D03*
X99420000Y-108470000D03*
X98920000Y-108470000D03*
X98420000Y-108470000D03*
X97920000Y-108470000D03*
X97420000Y-108470000D03*
X96920000Y-108470000D03*
X96420000Y-108470000D03*
D15*
X95670000Y-111220000D03*
X95670000Y-110720000D03*
X95670000Y-110220000D03*
X95670000Y-109720000D03*
X95670000Y-109220000D03*
X95670000Y-111720000D03*
X95670000Y-112220000D03*
X95670000Y-112720000D03*
X95670000Y-113220000D03*
X95670000Y-113720000D03*
X101670000Y-111220000D03*
X101670000Y-110720000D03*
X101670000Y-110220000D03*
X101670000Y-109720000D03*
X101670000Y-109220000D03*
X101670000Y-111720000D03*
X101670000Y-112220000D03*
X101670000Y-112720000D03*
X101670000Y-113220000D03*
X101670000Y-113720000D03*
D14*
X98920000Y-114470000D03*
X99420000Y-114470000D03*
X99920000Y-114470000D03*
X100420000Y-114470000D03*
X100920000Y-114470000D03*
X98420000Y-114470000D03*
X97920000Y-114470000D03*
X97420000Y-114470000D03*
X96920000Y-114470000D03*
X96420000Y-114470000D03*
D16*
X98670000Y-111470000D03*
D17*
X98670000Y-111470000D03*
X97670000Y-111470000D03*
X97670000Y-110470000D03*
X98670000Y-110470000D03*
X99670000Y-110470000D03*
X99670000Y-111470000D03*
X99670000Y-112470000D03*
X98670000Y-112470000D03*
X97670000Y-112470000D03*
D18*
X97220000Y-104420000D03*
X96120000Y-104420000D03*
X98150000Y-104420000D03*
X99250000Y-104420000D03*
X103100000Y-108980000D03*
X104200000Y-108980000D03*
X106680000Y-109300000D03*
X105580000Y-109300000D03*
X103100000Y-108080000D03*
X104200000Y-108080000D03*
X103100000Y-107150000D03*
X104200000Y-107150000D03*
D10*
G36*
X108511838Y-106160410D02*
X108111838Y-105467590D01*
X108804658Y-105067590D01*
X109204658Y-105760410D01*
X108511838Y-106160410D01*
X108511838Y-106160410D01*
G37*
G36*
X107212800Y-106910410D02*
X106812800Y-106217590D01*
X107505620Y-105817590D01*
X107905620Y-106510410D01*
X107212800Y-106910410D01*
X107212800Y-106910410D01*
G37*
G36*
X84588753Y-102927590D02*
X84188753Y-103620410D01*
X83495933Y-103220410D01*
X83895933Y-102527590D01*
X84588753Y-102927590D01*
X84588753Y-102927590D01*
G37*
G36*
X85887791Y-103677590D02*
X85487791Y-104370410D01*
X84794971Y-103970410D01*
X85194971Y-103277590D01*
X85887791Y-103677590D01*
X85887791Y-103677590D01*
G37*
D19*
X98920000Y-105900000D03*
X96420000Y-105900000D03*
D10*
G36*
X93116532Y-126878069D02*
X93877377Y-127125282D01*
X93630164Y-127886127D01*
X92869319Y-127638914D01*
X93116532Y-126878069D01*
X93116532Y-126878069D01*
G37*
G36*
X93580058Y-125451485D02*
X94340903Y-125698698D01*
X94093690Y-126459543D01*
X93332845Y-126212330D01*
X93580058Y-125451485D01*
X93580058Y-125451485D01*
G37*
G36*
X107494774Y-121981968D02*
X108089290Y-121446664D01*
X108624594Y-122041180D01*
X108030078Y-122576484D01*
X107494774Y-121981968D01*
X107494774Y-121981968D01*
G37*
G36*
X106491078Y-120867250D02*
X107085594Y-120331946D01*
X107620898Y-120926462D01*
X107026382Y-121461766D01*
X106491078Y-120867250D01*
X106491078Y-120867250D01*
G37*
G36*
X109489028Y-119892097D02*
X109959256Y-119244883D01*
X110606470Y-119715111D01*
X110136242Y-120362325D01*
X109489028Y-119892097D01*
X109489028Y-119892097D01*
G37*
G36*
X108275502Y-119010419D02*
X108745730Y-118363205D01*
X109392944Y-118833433D01*
X108922716Y-119480647D01*
X108275502Y-119010419D01*
X108275502Y-119010419D01*
G37*
G36*
X82638496Y-107658970D02*
X82472166Y-108441488D01*
X81689648Y-108275158D01*
X81855978Y-107492640D01*
X82638496Y-107658970D01*
X82638496Y-107658970D01*
G37*
G36*
X84105718Y-107970838D02*
X83939388Y-108753356D01*
X83156870Y-108587026D01*
X83323200Y-107804508D01*
X84105718Y-107970838D01*
X84105718Y-107970838D01*
G37*
G36*
X89262143Y-97985841D02*
X88614929Y-98456069D01*
X88144701Y-97808855D01*
X88791915Y-97338627D01*
X89262143Y-97985841D01*
X89262143Y-97985841D01*
G37*
G36*
X90143821Y-99199367D02*
X89496607Y-99669595D01*
X89026379Y-99022381D01*
X89673593Y-98552153D01*
X90143821Y-99199367D01*
X90143821Y-99199367D01*
G37*
G36*
X93877377Y-95774718D02*
X93116532Y-96021931D01*
X92869319Y-95261086D01*
X93630164Y-95013873D01*
X93877377Y-95774718D01*
X93877377Y-95774718D01*
G37*
G36*
X94340903Y-97201302D02*
X93580058Y-97448515D01*
X93332845Y-96687670D01*
X94093690Y-96440457D01*
X94340903Y-97201302D01*
X94340903Y-97201302D01*
G37*
D11*
X91250000Y-113520000D03*
X90350000Y-113520000D03*
D13*
X97680000Y-121430000D03*
X97680000Y-122330000D03*
D10*
G36*
X92264462Y-96349011D02*
X91533625Y-96674400D01*
X91208236Y-95943563D01*
X91939073Y-95618174D01*
X92264462Y-96349011D01*
X92264462Y-96349011D01*
G37*
G36*
X92874566Y-97719329D02*
X92143729Y-98044718D01*
X91818340Y-97313881D01*
X92549177Y-96988492D01*
X92874566Y-97719329D01*
X92874566Y-97719329D01*
G37*
G36*
X103802427Y-124230583D02*
X104533264Y-123905194D01*
X104858653Y-124636031D01*
X104127816Y-124961420D01*
X103802427Y-124230583D01*
X103802427Y-124230583D01*
G37*
G36*
X103192323Y-122860265D02*
X103923160Y-122534876D01*
X104248549Y-123265713D01*
X103517712Y-123591102D01*
X103192323Y-122860265D01*
X103192323Y-122860265D01*
G37*
G36*
X107762658Y-126441156D02*
X108653665Y-125987165D01*
X109107656Y-126878172D01*
X108216649Y-127332163D01*
X107762658Y-126441156D01*
X107762658Y-126441156D01*
G37*
D20*
X107303579Y-127236232D02*
X107303579Y-127236232D01*
X106172000Y-127812800D02*
X106172000Y-127812800D01*
X105040422Y-128389368D02*
X105040422Y-128389368D01*
D12*
X93204600Y-106883200D03*
X94704600Y-106883200D03*
D21*
X101930200Y-122758200D03*
X102209600Y-107746800D03*
X97688400Y-104420000D03*
X98670000Y-111470000D03*
X94770000Y-105420000D03*
X105760000Y-108510000D03*
X105640000Y-118540000D03*
X104500000Y-113290000D03*
X101930200Y-118008400D03*
X100914200Y-116636800D03*
X107960000Y-109050000D03*
X107790000Y-114390000D03*
X107450000Y-117600000D03*
X94320000Y-127180000D03*
X93050428Y-113730428D03*
X99440000Y-118180000D03*
X88140000Y-113280000D03*
X107430000Y-115690000D03*
X102640000Y-118100000D03*
X96390000Y-116900000D03*
X106970000Y-118110000D03*
X97220000Y-120510000D03*
X91850000Y-102960000D03*
X91850000Y-114390000D03*
X98420000Y-116930000D03*
X105450000Y-102490000D03*
X104650000Y-115790000D03*
X91370000Y-114870000D03*
X93050000Y-113220000D03*
X97680000Y-118180000D03*
X99920000Y-116930000D03*
X104820000Y-104130000D03*
X90730000Y-115820000D03*
X103810000Y-115050000D03*
X101460000Y-118510000D03*
X101092000Y-117957600D03*
X102670000Y-103780000D03*
X102670000Y-101360000D03*
X90550000Y-116340000D03*
X108940000Y-112920000D03*
X102090000Y-121080000D03*
X108420000Y-116070000D03*
X97460000Y-116930000D03*
X96930000Y-116910000D03*
X95860000Y-116900000D03*
X104120000Y-111630000D03*
X93030000Y-112220000D03*
X103630000Y-105760000D03*
X100660000Y-101180000D03*
X92524010Y-118416858D03*
X92750000Y-105600000D03*
X92410000Y-105090000D03*
X101670000Y-101250000D03*
X102590000Y-120030000D03*
X103050000Y-121110000D03*
X109010000Y-108880000D03*
X109010000Y-109970000D03*
X104080000Y-110820000D03*
X93090000Y-110720000D03*
X108440000Y-106680000D03*
X103911400Y-122199400D03*
X100420000Y-120220000D03*
X104150000Y-126000000D03*
X97750000Y-127000000D03*
X97680000Y-122330000D03*
X102520000Y-121520000D03*
X102810000Y-122550000D03*
X88790000Y-118220000D03*
X84920000Y-120290000D03*
X89245198Y-109870000D03*
X89250000Y-118940000D03*
X87790000Y-120320000D03*
X89220000Y-113520000D03*
X82530000Y-113960000D03*
X87910000Y-112420000D03*
X84529012Y-109250000D03*
X88770000Y-109550000D03*
X99410000Y-95130000D03*
X99410000Y-100530000D03*
X97840000Y-97660000D03*
X96700000Y-101000000D03*
X112370000Y-110670000D03*
X109430000Y-110570000D03*
X114510000Y-112300000D03*
X109420000Y-112320000D03*
D22*
X101955600Y-108539499D02*
X103690501Y-108539499D01*
X101231499Y-108539499D02*
X101955600Y-108539499D01*
X102666597Y-108539499D02*
X102209600Y-108082502D01*
X102209600Y-108082502D02*
X102209600Y-107746800D01*
X101955600Y-108539499D02*
X102666597Y-108539499D01*
X97688400Y-104420000D02*
X98150000Y-104420000D01*
X97220000Y-104420000D02*
X97688400Y-104420000D01*
X99670000Y-110470000D02*
X100920000Y-109220000D01*
X100920000Y-109220000D02*
X100920000Y-108470000D01*
X93919499Y-106270501D02*
X94770000Y-105420000D01*
X104200000Y-108980000D02*
X105260000Y-108980000D01*
X105260000Y-108980000D02*
X105580000Y-109300000D01*
X104200000Y-108980000D02*
X104200000Y-108080000D01*
X100920000Y-108470000D02*
X101162000Y-108470000D01*
X101162000Y-108470000D02*
X101231499Y-108539499D01*
X103690501Y-108539499D02*
X104150000Y-108080000D01*
X104150000Y-108080000D02*
X104200000Y-108080000D01*
X104200000Y-107150000D02*
X104200000Y-108080000D01*
X104030000Y-108060000D02*
X104020000Y-108070000D01*
X94310000Y-107930000D02*
X94310000Y-107830000D01*
X94310000Y-107830000D02*
X93919499Y-107439499D01*
X93919499Y-107439499D02*
X93919499Y-106270501D01*
X100991499Y-108529499D02*
X100932000Y-108470000D01*
X103800000Y-106500000D02*
X104442902Y-106500000D01*
X104442902Y-106500000D02*
X105760000Y-107817098D01*
X105760000Y-107817098D02*
X105760000Y-108510000D01*
X103100000Y-107150000D02*
X103150000Y-107150000D01*
X103150000Y-107150000D02*
X103800000Y-106500000D01*
X103100000Y-107150000D02*
X103100000Y-108080000D01*
X100420000Y-107882098D02*
X101152098Y-107150000D01*
X101152098Y-107150000D02*
X103100000Y-107150000D01*
X102920000Y-108070000D02*
X102970000Y-108070000D01*
X100420000Y-108470000D02*
X100420000Y-107882098D01*
X102930000Y-108060000D02*
X102920000Y-108070000D01*
X100240000Y-109240000D02*
X100420000Y-109060000D01*
X100420000Y-109060000D02*
X100420000Y-108470000D01*
X96663000Y-109240000D02*
X100240000Y-109240000D01*
X96420000Y-108470000D02*
X96420000Y-108997000D01*
X96420000Y-108997000D02*
X96663000Y-109240000D01*
X105640000Y-113300000D02*
X104510000Y-113300000D01*
X104510000Y-113300000D02*
X104500000Y-113290000D01*
X101930200Y-118008400D02*
X100914200Y-116992400D01*
X100914200Y-116992400D02*
X100914200Y-116636800D01*
X100920000Y-116447709D02*
X100920000Y-115595400D01*
X100920000Y-115595400D02*
X100920000Y-114470000D01*
X100920000Y-116447709D02*
X100920000Y-116631000D01*
X100920000Y-116631000D02*
X100914200Y-116636800D01*
X106680000Y-109300000D02*
X107710000Y-109300000D01*
X107710000Y-109300000D02*
X107960000Y-109050000D01*
X106540000Y-113300000D02*
X106540000Y-113400000D01*
X106540000Y-113400000D02*
X107530000Y-114390000D01*
X107530000Y-114390000D02*
X107790000Y-114390000D01*
X101670000Y-109220000D02*
X101910000Y-108980000D01*
X101910000Y-108980000D02*
X103100000Y-108980000D01*
X98920000Y-105330000D02*
X99250000Y-105000000D01*
X99250000Y-105000000D02*
X99250000Y-104420000D01*
X98920000Y-105900000D02*
X98920000Y-105330000D01*
X97920000Y-108350000D02*
X97920000Y-106223000D01*
X97920000Y-106223000D02*
X98243000Y-105900000D01*
X98243000Y-105900000D02*
X98920000Y-105900000D01*
X96420000Y-105340000D02*
X96120000Y-105040000D01*
X96120000Y-105040000D02*
X96120000Y-104420000D01*
X96420000Y-105900000D02*
X96420000Y-105340000D01*
X97420000Y-108350000D02*
X97420000Y-106223000D01*
X97420000Y-106223000D02*
X97097000Y-105900000D01*
X97097000Y-105900000D02*
X96420000Y-105900000D01*
X89837000Y-111720000D02*
X95670000Y-111720000D01*
X88810000Y-112420000D02*
X89137000Y-112420000D01*
X89137000Y-112420000D02*
X89837000Y-111720000D01*
X101440000Y-113720000D02*
X103570000Y-113720000D01*
X103570000Y-113720000D02*
X107450000Y-117600000D01*
X89837000Y-111220000D02*
X95670000Y-111220000D01*
X88790000Y-110500000D02*
X89117000Y-110500000D01*
X89117000Y-110500000D02*
X89837000Y-111220000D01*
X93050428Y-113730428D02*
X95659572Y-113730428D01*
X95659572Y-113730428D02*
X95670000Y-113720000D01*
X99430000Y-121440000D02*
X99430000Y-118190000D01*
X99430000Y-118190000D02*
X99440000Y-118180000D01*
X92397000Y-110220000D02*
X95670000Y-110220000D01*
X91310000Y-109460000D02*
X91637000Y-109460000D01*
X91637000Y-109460000D02*
X92397000Y-110220000D01*
X89740790Y-116535999D02*
X89740790Y-114880790D01*
X89740790Y-114880790D02*
X88140000Y-113280000D01*
X101440000Y-113220000D02*
X103884914Y-113220000D01*
X106354914Y-115690000D02*
X107430000Y-115690000D01*
X103884914Y-113220000D02*
X106354914Y-115690000D01*
X96920000Y-114470000D02*
X96920000Y-116370000D01*
X96920000Y-116370000D02*
X96390000Y-116900000D01*
X91850000Y-114390000D02*
X91850000Y-118645209D01*
X91850000Y-118645209D02*
X93464001Y-120259210D01*
X97220000Y-120510000D02*
X96969210Y-120259210D01*
X96969210Y-120259210D02*
X93464001Y-120259210D01*
X98420000Y-116930000D02*
X98420000Y-120940000D01*
X98420000Y-120940000D02*
X98550000Y-121070000D01*
X98550000Y-121070000D02*
X98550000Y-121622000D01*
X98420000Y-116930000D02*
X98420000Y-114470000D01*
X98877499Y-121949499D02*
X98550000Y-121622000D01*
X92377000Y-112720000D02*
X95670000Y-112720000D01*
X91250000Y-113520000D02*
X91577000Y-113520000D01*
X91577000Y-113520000D02*
X92377000Y-112720000D01*
X93050000Y-113220000D02*
X95670000Y-113220000D01*
X97680000Y-121430000D02*
X97680000Y-118180000D01*
X99920000Y-116930000D02*
X99920000Y-114470000D01*
X103636000Y-120259210D02*
X103636000Y-115224000D01*
X103636000Y-115224000D02*
X103810000Y-115050000D01*
X101460000Y-118510000D02*
X101886790Y-118510000D01*
X101886790Y-118510000D02*
X103636000Y-120259210D01*
X101091699Y-119361699D02*
X101091699Y-117957901D01*
X101091699Y-117957901D02*
X101092000Y-117957600D01*
X102090000Y-121080000D02*
X102090000Y-120360000D01*
X102090000Y-120360000D02*
X101091699Y-119361699D01*
X101440000Y-112220000D02*
X107577098Y-112220000D01*
X107577098Y-112220000D02*
X108277098Y-112920000D01*
X108277098Y-112920000D02*
X108940000Y-112920000D01*
X108420000Y-116070000D02*
X106149499Y-113799499D01*
X106149499Y-113799499D02*
X106149499Y-112966597D01*
X106149499Y-112966597D02*
X105902902Y-112720000D01*
X105902902Y-112720000D02*
X101967000Y-112720000D01*
X101967000Y-112720000D02*
X101440000Y-112720000D01*
X99545991Y-107804009D02*
X99420000Y-107930000D01*
X99420000Y-107930000D02*
X99420000Y-108470000D01*
X99775215Y-107804009D02*
X99545991Y-107804009D01*
X100084009Y-102711009D02*
X100084009Y-103644785D01*
X100084009Y-103644785D02*
X100864010Y-104424786D01*
X100864010Y-104424786D02*
X100864009Y-106715215D01*
X100864009Y-106715215D02*
X99775215Y-107804009D01*
X99640000Y-101940000D02*
X99640000Y-102267000D01*
X99640000Y-102267000D02*
X100084009Y-102711009D01*
X97920000Y-114470000D02*
X97920000Y-116470000D01*
X97920000Y-116470000D02*
X97460000Y-116930000D01*
X97420000Y-114470000D02*
X97420000Y-116424914D01*
X97420000Y-116424914D02*
X97194914Y-116650000D01*
X97194914Y-116650000D02*
X97190000Y-116650000D01*
X97190000Y-116650000D02*
X96930000Y-116910000D01*
X96420000Y-114470000D02*
X96420000Y-116340000D01*
X96420000Y-116340000D02*
X95860000Y-116900000D01*
X85700000Y-108040000D02*
X86460170Y-107521777D01*
X85380000Y-108610000D02*
X85700000Y-108040000D01*
X106980000Y-121760000D02*
X106021926Y-121734223D01*
X107550000Y-121450000D02*
X106980000Y-121760000D01*
X108550000Y-120460000D02*
X107550000Y-121450000D01*
X109440000Y-119370000D02*
X108550000Y-120460000D01*
X110220000Y-118170000D02*
X109440000Y-119370000D01*
X110850000Y-116930000D02*
X110220000Y-118170000D01*
X111350000Y-115610000D02*
X110850000Y-116930000D01*
X111720000Y-114250000D02*
X111350000Y-115610000D01*
X111940000Y-112870000D02*
X111720000Y-114250000D01*
X112020000Y-111460000D02*
X111940000Y-112870000D01*
X111830000Y-110760000D02*
X112020000Y-111460000D01*
X111940000Y-110050000D02*
X111830000Y-110760000D01*
X111740000Y-108630000D02*
X111940000Y-110050000D01*
X111460000Y-108040000D02*
X111740000Y-108630000D01*
X110639830Y-107521777D02*
X111460000Y-108040000D01*
X90170000Y-121770000D02*
X91078074Y-121734223D01*
X89540000Y-121460000D02*
X90170000Y-121770000D01*
X88540000Y-120460000D02*
X89540000Y-121460000D01*
X87670000Y-119390000D02*
X88540000Y-120460000D01*
X86890000Y-118210000D02*
X87670000Y-119390000D01*
X86240000Y-116900000D02*
X86890000Y-118210000D01*
X85770000Y-115610000D02*
X86240000Y-116900000D01*
X85390000Y-114250000D02*
X85770000Y-115610000D01*
X85160000Y-112870000D02*
X85390000Y-114250000D01*
X85090000Y-111440000D02*
X85160000Y-112870000D01*
X85160000Y-110040000D02*
X85090000Y-111440000D01*
X85380000Y-108610000D02*
X85160000Y-110040000D01*
X86130000Y-106620000D02*
X86460170Y-107521777D01*
X86260000Y-105940000D02*
X86130000Y-106620000D01*
X86890000Y-104720000D02*
X86260000Y-105940000D01*
X87650000Y-103530000D02*
X86890000Y-104720000D01*
X88540000Y-102460000D02*
X87650000Y-103530000D01*
X89560000Y-101450000D02*
X88540000Y-102460000D01*
X90640000Y-100550000D02*
X89560000Y-101450000D01*
X91830000Y-99800000D02*
X90640000Y-100550000D01*
X93080000Y-99130000D02*
X91830000Y-99800000D01*
X94390000Y-98660000D02*
X93080000Y-99130000D01*
X95750000Y-98260000D02*
X94390000Y-98660000D01*
X97150000Y-98070000D02*
X95750000Y-98260000D01*
X97880000Y-98190000D02*
X97150000Y-98070000D01*
X98550000Y-98738000D02*
X97880000Y-98190000D01*
X99320000Y-98140000D02*
X98550000Y-98738000D01*
X99960000Y-98050000D02*
X99320000Y-98140000D01*
X101360000Y-98260000D02*
X99960000Y-98050000D01*
X102720000Y-98650000D02*
X101360000Y-98260000D01*
X104020000Y-99120000D02*
X102720000Y-98650000D01*
X105260000Y-99800000D02*
X104020000Y-99120000D01*
X106450000Y-100560000D02*
X105260000Y-99800000D01*
X107560000Y-101440000D02*
X106450000Y-100560000D01*
X108550000Y-102450000D02*
X107560000Y-101440000D01*
X109450000Y-103550000D02*
X108550000Y-102450000D01*
X110220000Y-104710000D02*
X109450000Y-103550000D01*
X110880000Y-105970000D02*
X110220000Y-104710000D01*
X110960000Y-106720000D02*
X110880000Y-105970000D01*
X110639830Y-107521777D02*
X110960000Y-106720000D01*
X97520000Y-101900000D02*
X97520000Y-102227000D01*
X98773000Y-103480000D02*
X99560000Y-103480000D01*
X99560000Y-103480000D02*
X100610000Y-104530000D01*
X97520000Y-102227000D02*
X98773000Y-103480000D01*
X99670000Y-107550000D02*
X99180000Y-107550000D01*
X100610000Y-104530000D02*
X100610000Y-106610000D01*
X100610000Y-106610000D02*
X99670000Y-107550000D01*
X99180000Y-107550000D02*
X98920000Y-107810000D01*
X98920000Y-107810000D02*
X98920000Y-108470000D01*
X104120000Y-111630000D02*
X107830000Y-111630000D01*
X107830000Y-111630000D02*
X108520000Y-112320000D01*
X93030000Y-112220000D02*
X95670000Y-112220000D01*
X108510000Y-112320000D02*
X108520000Y-112320000D01*
X103630000Y-105760000D02*
X103630000Y-104245000D01*
X103630000Y-104245000D02*
X103636000Y-104239000D01*
X101602874Y-106340000D02*
X103050000Y-106340000D01*
X103050000Y-106340000D02*
X103630000Y-105760000D01*
X99920000Y-108470000D02*
X99920000Y-108022874D01*
X99920000Y-108022874D02*
X101602874Y-106340000D01*
X100660000Y-101180000D02*
X102120790Y-102640790D01*
X102120790Y-102640790D02*
X103636000Y-102640790D01*
X103636000Y-104239000D02*
X103636000Y-102640790D01*
X101670000Y-101250000D02*
X102323870Y-101903870D01*
X102323870Y-101903870D02*
X103861324Y-101903870D01*
X103861324Y-101903870D02*
X107359210Y-105401756D01*
X107359210Y-105401756D02*
X107359210Y-106364000D01*
X103050000Y-121110000D02*
X102590000Y-120650000D01*
X102590000Y-120650000D02*
X102590000Y-120030000D01*
X103625990Y-110094010D02*
X103000000Y-110720000D01*
X103000000Y-110720000D02*
X101440000Y-110720000D01*
X108114914Y-109970000D02*
X107990904Y-110094010D01*
X107990904Y-110094010D02*
X103625990Y-110094010D01*
X109010000Y-108880000D02*
X109010000Y-109970000D01*
X108114914Y-109970000D02*
X109010000Y-109970000D01*
X94913000Y-109720000D02*
X95670000Y-109720000D01*
X94310000Y-108920000D02*
X94310000Y-109117000D01*
X94310000Y-109117000D02*
X94913000Y-109720000D01*
X104080000Y-110820000D02*
X108280000Y-110820000D01*
X108280000Y-110820000D02*
X108530000Y-110570000D01*
X93090000Y-110720000D02*
X95670000Y-110720000D01*
X101440000Y-110220000D02*
X102770000Y-110220000D01*
X102770000Y-110220000D02*
X103150000Y-109840000D01*
X103150000Y-109840000D02*
X105932902Y-109840000D01*
X106070501Y-109702401D02*
X106070501Y-109049499D01*
X105932902Y-109840000D02*
X106070501Y-109702401D01*
X106070501Y-109049499D02*
X108440000Y-106680000D01*
X100420000Y-120220000D02*
X100420000Y-114470000D01*
X86280000Y-101400000D02*
X86210874Y-102485100D01*
X86640000Y-100730000D02*
X86280000Y-101400000D01*
X85220000Y-102910000D02*
X86210874Y-102485100D01*
X84710000Y-103420000D02*
X85220000Y-102910000D01*
X108722000Y-111450000D02*
X108195000Y-111450000D01*
X108195000Y-111450000D02*
X107965000Y-111220000D01*
X107965000Y-111220000D02*
X101967000Y-111220000D01*
X101967000Y-111220000D02*
X101440000Y-111220000D01*
X114360000Y-110530000D02*
X113802000Y-111450000D01*
X114480000Y-109790000D02*
X114360000Y-110530000D01*
X114210000Y-108130000D02*
X114480000Y-109790000D01*
X113780000Y-106520000D02*
X114210000Y-108130000D01*
X113190000Y-104950000D02*
X113780000Y-106520000D01*
X112430000Y-103440000D02*
X113190000Y-104950000D01*
X111530000Y-102060000D02*
X112430000Y-103440000D01*
X110450000Y-100730000D02*
X111530000Y-102060000D01*
X109260000Y-99550000D02*
X110450000Y-100730000D01*
X107970000Y-98510000D02*
X109260000Y-99550000D01*
X106560000Y-97590000D02*
X107970000Y-98510000D01*
X105060000Y-96820000D02*
X106560000Y-97590000D01*
X104260000Y-96740000D02*
X105060000Y-96820000D01*
X103263126Y-96944486D02*
X104260000Y-96740000D01*
X102620000Y-96220000D02*
X103263126Y-96944486D01*
X101890000Y-95780000D02*
X102620000Y-96220000D01*
X100220000Y-95520000D02*
X101890000Y-95780000D01*
X99360000Y-95660000D02*
X100220000Y-95520000D01*
X98540000Y-95440000D02*
X99360000Y-95660000D01*
X96870000Y-95520000D02*
X98540000Y-95440000D01*
X95210000Y-95780000D02*
X96870000Y-95520000D01*
X93610000Y-96220000D02*
X95210000Y-95780000D01*
X92030000Y-96830000D02*
X93610000Y-96220000D01*
X90550000Y-97580000D02*
X92030000Y-96830000D01*
X89150000Y-98480000D02*
X90550000Y-97580000D01*
X87830000Y-99550000D02*
X89150000Y-98480000D01*
X86640000Y-100730000D02*
X87830000Y-99550000D01*
X83940000Y-104950000D02*
X84710000Y-103420000D01*
X83350000Y-106490000D02*
X83940000Y-104950000D01*
X82910000Y-108090000D02*
X83350000Y-106490000D01*
X82660000Y-109750000D02*
X82910000Y-108090000D01*
X82540000Y-111440000D02*
X82660000Y-109750000D01*
X82630000Y-113140000D02*
X82540000Y-111440000D01*
X82800000Y-113600000D02*
X82630000Y-113140000D01*
X83060000Y-113920000D02*
X82800000Y-113600000D01*
X82890000Y-114290000D02*
X83060000Y-113920000D01*
X82890000Y-114780000D02*
X82890000Y-114290000D01*
X83350000Y-116400000D02*
X82890000Y-114780000D01*
X83940000Y-117950000D02*
X83350000Y-116400000D01*
X84670000Y-119480000D02*
X83940000Y-117950000D01*
X85360000Y-120010000D02*
X84670000Y-119480000D01*
X86210874Y-120414900D02*
X85360000Y-120010000D01*
X102700000Y-126800000D02*
X103263126Y-125955514D01*
X101880000Y-127110000D02*
X102700000Y-126800000D01*
X100220000Y-127360000D02*
X101880000Y-127110000D01*
X98550000Y-127460000D02*
X100220000Y-127360000D01*
X96870000Y-127380000D02*
X98550000Y-127460000D01*
X95240000Y-127090000D02*
X96870000Y-127380000D01*
X94420000Y-126700000D02*
X95240000Y-127090000D01*
X93610000Y-126670000D02*
X94420000Y-126700000D01*
X92040000Y-126060000D02*
X93610000Y-126670000D01*
X90560000Y-125320000D02*
X92040000Y-126060000D01*
X89160000Y-124410000D02*
X90560000Y-125320000D01*
X87840000Y-123350000D02*
X89160000Y-124410000D01*
X87600000Y-123130000D02*
X87840000Y-123350000D01*
X86610000Y-122170000D02*
X87600000Y-123130000D01*
X86350000Y-121410000D02*
X86610000Y-122170000D01*
X86210874Y-120414900D02*
X86350000Y-121410000D01*
X95670000Y-109220000D02*
X95670000Y-108299400D01*
X95670000Y-108299400D02*
X94755400Y-107384800D01*
X94755400Y-107384800D02*
X94755400Y-106857800D01*
X93410000Y-107930000D02*
X93410000Y-107012400D01*
X93410000Y-107012400D02*
X93255400Y-106857800D01*
X93310000Y-107830000D02*
X93410000Y-107930000D01*
X104150000Y-126000000D02*
X105363651Y-126753713D01*
D23*
X106926000Y-125957657D02*
X105363651Y-126753713D01*
X108396578Y-125002652D02*
X106926000Y-125957657D01*
X109759275Y-123899162D02*
X108396578Y-125002652D01*
X110999162Y-122659275D02*
X109759275Y-123899162D01*
X112102652Y-121296578D02*
X110999162Y-122659275D01*
X113057657Y-119825999D02*
X112102652Y-121296578D01*
X113853713Y-118263651D02*
X113057657Y-119825999D01*
X114482098Y-116626652D02*
X113853713Y-118263651D01*
X114935928Y-114932936D02*
X114482098Y-116626652D01*
X115210230Y-113201060D02*
X114935928Y-114932936D01*
X115302000Y-111450000D02*
X115210230Y-113201060D01*
D22*
X103280000Y-123740000D02*
X104330540Y-124433307D01*
X102520000Y-121520000D02*
X99430000Y-122340000D01*
X103280000Y-123740000D02*
X102810000Y-122550000D01*
D23*
X112684144Y-112935558D02*
X112762000Y-111450000D01*
X112451434Y-114404841D02*
X112684144Y-112935558D01*
X112066414Y-115841749D02*
X112451434Y-114404841D01*
X111533307Y-117230540D02*
X112066414Y-115841749D01*
X110857952Y-118555999D02*
X111533307Y-117230540D01*
X110047749Y-119803604D02*
X110857952Y-118555999D01*
X109111574Y-120959684D02*
X110047749Y-119803604D01*
X108059684Y-122011574D02*
X109111574Y-120959684D01*
X106903604Y-122947749D02*
X108059684Y-122011574D01*
X105656000Y-123757952D02*
X106903604Y-122947749D01*
X104330540Y-124433307D02*
X105656000Y-123757952D01*
D22*
X84920000Y-120290000D02*
X85360000Y-120520000D01*
X86100838Y-121671655D02*
X85360000Y-120520000D01*
X89245198Y-109870000D02*
X89655198Y-109460000D01*
X89655198Y-109460000D02*
X90380000Y-109460000D01*
X86100838Y-122659275D02*
X86100838Y-121671655D01*
D23*
X87340725Y-123899162D02*
X86100838Y-122659275D01*
X88703422Y-125002652D02*
X87340725Y-123899162D01*
X90174001Y-125957657D02*
X88703422Y-125002652D01*
X91736349Y-126753713D02*
X90174001Y-125957657D01*
X93373348Y-127382098D02*
X91736349Y-126753713D01*
X95067064Y-127835928D02*
X93373348Y-127382098D01*
X96798940Y-128110230D02*
X95067064Y-127835928D01*
X98550000Y-128202000D02*
X96798940Y-128110230D01*
X100301060Y-128110230D02*
X98550000Y-128202000D01*
X102032936Y-127835928D02*
X100301060Y-128110230D01*
X103726652Y-127382098D02*
X102032936Y-127835928D01*
D22*
X87790000Y-120320000D02*
X87988426Y-120959684D01*
X89220000Y-113520000D02*
X90350000Y-113520000D01*
D23*
X89040316Y-122011574D02*
X87988426Y-120959684D01*
X90196396Y-122947749D02*
X89040316Y-122011574D01*
X91444001Y-123757952D02*
X90196396Y-122947749D01*
X92769460Y-124433307D02*
X91444001Y-123757952D01*
X94158251Y-124966414D02*
X92769460Y-124433307D01*
X95595159Y-125351434D02*
X94158251Y-124966414D01*
X97064442Y-125584144D02*
X95595159Y-125351434D01*
X98550000Y-125662000D02*
X97064442Y-125584144D01*
X100035558Y-125584144D02*
X98550000Y-125662000D01*
X101504841Y-125351434D02*
X100035558Y-125584144D01*
X102941749Y-124966414D02*
X101504841Y-125351434D01*
D22*
X82530000Y-113960000D02*
X82025813Y-114060000D01*
D23*
X82164072Y-114932936D02*
X82025813Y-114060000D01*
X82025813Y-114060000D02*
X81889770Y-113201060D01*
X83246287Y-104636349D02*
X84042343Y-103074000D01*
X82617902Y-106273348D02*
X83246287Y-104636349D01*
X82164072Y-107967064D02*
X82617902Y-106273348D01*
X81889770Y-109698940D02*
X82164072Y-107967064D01*
X81798000Y-111450000D02*
X81889770Y-109698940D01*
X81889770Y-113201060D02*
X81798000Y-111450000D01*
X82617902Y-116626652D02*
X82164072Y-114932936D01*
X83246287Y-118263651D02*
X82617902Y-116626652D01*
X84042343Y-119825999D02*
X83246287Y-118263651D01*
X84997348Y-121296578D02*
X84042343Y-119825999D01*
D22*
X87890000Y-110500000D02*
X88770000Y-109550000D01*
D23*
X84415856Y-109964442D02*
X84529012Y-109250000D01*
X84529012Y-109250000D02*
X84648566Y-108495159D01*
X85033586Y-107058251D02*
X85566693Y-105669460D01*
X85566693Y-105669460D02*
X86242048Y-104344000D01*
X84648566Y-108495159D02*
X85033586Y-107058251D01*
X84338000Y-111450000D02*
X84415856Y-109964442D01*
X84415856Y-112935558D02*
X84338000Y-111450000D01*
X84648566Y-114404841D02*
X84415856Y-112935558D01*
X85033586Y-115841749D02*
X84648566Y-114404841D01*
X85566693Y-117230540D02*
X85033586Y-115841749D01*
X86242048Y-118555999D02*
X85566693Y-117230540D01*
X87052251Y-119803604D02*
X86242048Y-118555999D01*
D22*
X99410000Y-95130000D02*
X99430000Y-94744119D01*
X99640000Y-101040000D02*
X99410000Y-100530000D01*
D23*
X98550000Y-94698000D02*
X99430000Y-94744119D01*
X99430000Y-94744119D02*
X100301060Y-94789770D01*
X100301060Y-94789770D02*
X102032936Y-95064072D01*
X96798940Y-94789770D02*
X98550000Y-94698000D01*
X95067064Y-95064072D02*
X96798940Y-94789770D01*
X93373348Y-95517902D02*
X95067064Y-95064072D01*
X91736349Y-96146287D02*
X93373348Y-95517902D01*
X90174000Y-96942343D02*
X91736349Y-96146287D01*
X88703422Y-97897348D02*
X90174000Y-96942343D01*
X87340725Y-99000838D02*
X88703422Y-97897348D01*
X86100838Y-100240725D02*
X87340725Y-99000838D01*
X84997348Y-101603422D02*
X86100838Y-100240725D01*
D22*
X97840000Y-97660000D02*
X97820000Y-97276259D01*
X97520000Y-101000000D02*
X96700000Y-101000000D01*
D23*
X97064442Y-97315856D02*
X97820000Y-97276259D01*
X97820000Y-97276259D02*
X98550000Y-97238000D01*
X100035558Y-97315856D02*
X101504841Y-97548566D01*
X98550000Y-97238000D02*
X100035558Y-97315856D01*
X95595159Y-97548566D02*
X97064442Y-97315856D01*
X94158251Y-97933586D02*
X95595159Y-97548566D01*
X92769460Y-98466693D02*
X94158251Y-97933586D01*
X91444000Y-99142048D02*
X92769460Y-98466693D01*
X90196396Y-99952251D02*
X91444000Y-99142048D01*
X89040316Y-100888426D02*
X90196396Y-99952251D01*
X87988426Y-101940316D02*
X89040316Y-100888426D01*
X87052251Y-103096396D02*
X87988426Y-101940316D01*
D22*
X112370000Y-110670000D02*
X112684144Y-109964442D01*
D23*
X112451434Y-108495159D02*
X112684144Y-109964442D01*
X112066414Y-107058251D02*
X112451434Y-108495159D01*
X111533307Y-105669460D02*
X112066414Y-107058251D01*
X110857952Y-104344000D02*
X111533307Y-105669460D01*
X110047749Y-103096396D02*
X110857952Y-104344000D01*
X109111574Y-101940316D02*
X110047749Y-103096396D01*
X108059684Y-100888426D02*
X109111574Y-101940316D01*
X106903604Y-99952251D02*
X108059684Y-100888426D01*
X105656000Y-99142048D02*
X106903604Y-99952251D01*
X104330540Y-98466693D02*
X105656000Y-99142048D01*
X102941749Y-97933586D02*
X104330540Y-98466693D01*
X86878000Y-111450000D02*
X87555911Y-108920000D01*
X87555911Y-108920000D02*
X88441752Y-105614000D01*
D22*
X93410000Y-108920000D02*
X87555911Y-108920000D01*
D23*
X98550000Y-99778000D02*
X104386000Y-101341752D01*
X92714000Y-101341752D02*
X98550000Y-99778000D01*
X88441752Y-105614000D02*
X92714000Y-101341752D01*
X88441752Y-117285999D02*
X86878000Y-111450000D01*
X92714001Y-121558248D02*
X88441752Y-117285999D01*
X98550000Y-123122000D02*
X92714001Y-121558248D01*
X104386000Y-121558248D02*
X98550000Y-123122000D01*
X108658248Y-117285999D02*
X104386000Y-121558248D01*
X110222000Y-111450000D02*
X108658248Y-117285999D01*
X110100000Y-110270000D02*
X110222000Y-111450000D01*
X109840000Y-109040000D02*
X110100000Y-110270000D01*
X109540000Y-107850000D02*
X109840000Y-109040000D01*
X109130000Y-106670000D02*
X109540000Y-107850000D01*
X108910000Y-106140000D02*
X109130000Y-106670000D01*
X108658248Y-105614000D02*
X108910000Y-106140000D01*
D22*
X114640000Y-110980000D02*
X115210230Y-109698940D01*
X114510000Y-112300000D02*
X114640000Y-110980000D01*
D23*
X114935928Y-107967064D02*
X115210230Y-109698940D01*
X114482098Y-106273348D02*
X114935928Y-107967064D01*
X113853713Y-104636349D02*
X114482098Y-106273348D01*
X113057657Y-103074000D02*
X113853713Y-104636349D01*
X112102652Y-101603422D02*
X113057657Y-103074000D01*
X110999162Y-100240725D02*
X112102652Y-101603422D01*
X109759275Y-99000838D02*
X110999162Y-100240725D01*
X108396578Y-97897348D02*
X109759275Y-99000838D01*
X106926000Y-96942343D02*
X108396578Y-97897348D01*
X105363651Y-96146287D02*
X106926000Y-96942343D01*
X103726652Y-95517902D02*
X105363651Y-96146287D01*
D22*
X96920000Y-108470000D02*
X96920000Y-108185000D01*
G36*
X99694943Y-103974153D02*
X99758418Y-104037628D01*
X99756528Y-106966745D01*
X98526738Y-107450914D01*
X98505583Y-107464620D01*
X98491427Y-107485476D01*
X98486502Y-107510470D01*
X98487398Y-107631477D01*
X98477500Y-107641375D01*
X98477500Y-108279500D01*
X98492198Y-108279500D01*
X98495021Y-108660500D01*
X98477500Y-108660500D01*
X98477500Y-108680500D01*
X98362500Y-108680500D01*
X98362500Y-108660500D01*
X98353500Y-108660500D01*
X98353500Y-108279500D01*
X98362500Y-108279500D01*
X98362500Y-107641375D01*
X98353500Y-107632375D01*
X98353500Y-107040891D01*
X98370000Y-107044232D01*
X99470000Y-107044232D01*
X99540595Y-107030949D01*
X99605432Y-106989227D01*
X99648929Y-106925567D01*
X99664232Y-106850000D01*
X99664232Y-104950000D01*
X99650949Y-104879405D01*
X99629111Y-104845469D01*
X99685432Y-104809227D01*
X99728929Y-104745567D01*
X99744232Y-104670000D01*
X99744232Y-104170000D01*
X99730949Y-104099405D01*
X99689227Y-104034568D01*
X99625567Y-103991071D01*
X99550000Y-103975768D01*
X98950000Y-103975768D01*
X98879405Y-103989051D01*
X98814568Y-104030773D01*
X98771071Y-104094433D01*
X98755768Y-104170000D01*
X98755768Y-104670000D01*
X98769051Y-104740595D01*
X98778815Y-104755768D01*
X98621959Y-104755768D01*
X98628929Y-104745567D01*
X98644232Y-104670000D01*
X98644232Y-104170000D01*
X98630949Y-104099405D01*
X98589227Y-104034568D01*
X98525567Y-103991071D01*
X98450000Y-103975768D01*
X97850000Y-103975768D01*
X97779405Y-103989051D01*
X97714568Y-104030773D01*
X97700262Y-104051711D01*
X97670241Y-104051684D01*
X97659227Y-104034568D01*
X97595567Y-103991071D01*
X97520000Y-103975768D01*
X96920000Y-103975768D01*
X96849405Y-103989051D01*
X96784568Y-104030773D01*
X96741071Y-104094433D01*
X96725768Y-104170000D01*
X96725768Y-104670000D01*
X96739051Y-104740595D01*
X96748815Y-104755768D01*
X96591959Y-104755768D01*
X96598929Y-104745567D01*
X96614232Y-104670000D01*
X96614232Y-104170000D01*
X96600949Y-104099405D01*
X96559227Y-104034568D01*
X96495567Y-103991071D01*
X96420000Y-103975768D01*
X95820000Y-103975768D01*
X95749405Y-103989051D01*
X95684568Y-104030773D01*
X95641071Y-104094433D01*
X95625768Y-104170000D01*
X95625768Y-104670000D01*
X95639051Y-104740595D01*
X95680773Y-104805432D01*
X95719934Y-104832190D01*
X95691071Y-104874433D01*
X95675768Y-104950000D01*
X95675768Y-106850000D01*
X95689051Y-106920595D01*
X95730773Y-106985432D01*
X95794433Y-107028929D01*
X95870000Y-107044232D01*
X96966988Y-107044232D01*
X96975465Y-108680500D01*
X96872045Y-108680500D01*
X96863498Y-107509537D01*
X96858315Y-107484869D01*
X96843943Y-107464161D01*
X96822795Y-107450733D01*
X95563556Y-106966410D01*
X95567418Y-103949874D01*
X99694943Y-103974153D01*
X99694943Y-103974153D01*
G37*
X99694943Y-103974153D02*
X99758418Y-104037628D01*
X99756528Y-106966745D01*
X98526738Y-107450914D01*
X98505583Y-107464620D01*
X98491427Y-107485476D01*
X98486502Y-107510470D01*
X98487398Y-107631477D01*
X98477500Y-107641375D01*
X98477500Y-108279500D01*
X98492198Y-108279500D01*
X98495021Y-108660500D01*
X98477500Y-108660500D01*
X98477500Y-108680500D01*
X98362500Y-108680500D01*
X98362500Y-108660500D01*
X98353500Y-108660500D01*
X98353500Y-108279500D01*
X98362500Y-108279500D01*
X98362500Y-107641375D01*
X98353500Y-107632375D01*
X98353500Y-107040891D01*
X98370000Y-107044232D01*
X99470000Y-107044232D01*
X99540595Y-107030949D01*
X99605432Y-106989227D01*
X99648929Y-106925567D01*
X99664232Y-106850000D01*
X99664232Y-104950000D01*
X99650949Y-104879405D01*
X99629111Y-104845469D01*
X99685432Y-104809227D01*
X99728929Y-104745567D01*
X99744232Y-104670000D01*
X99744232Y-104170000D01*
X99730949Y-104099405D01*
X99689227Y-104034568D01*
X99625567Y-103991071D01*
X99550000Y-103975768D01*
X98950000Y-103975768D01*
X98879405Y-103989051D01*
X98814568Y-104030773D01*
X98771071Y-104094433D01*
X98755768Y-104170000D01*
X98755768Y-104670000D01*
X98769051Y-104740595D01*
X98778815Y-104755768D01*
X98621959Y-104755768D01*
X98628929Y-104745567D01*
X98644232Y-104670000D01*
X98644232Y-104170000D01*
X98630949Y-104099405D01*
X98589227Y-104034568D01*
X98525567Y-103991071D01*
X98450000Y-103975768D01*
X97850000Y-103975768D01*
X97779405Y-103989051D01*
X97714568Y-104030773D01*
X97700262Y-104051711D01*
X97670241Y-104051684D01*
X97659227Y-104034568D01*
X97595567Y-103991071D01*
X97520000Y-103975768D01*
X96920000Y-103975768D01*
X96849405Y-103989051D01*
X96784568Y-104030773D01*
X96741071Y-104094433D01*
X96725768Y-104170000D01*
X96725768Y-104670000D01*
X96739051Y-104740595D01*
X96748815Y-104755768D01*
X96591959Y-104755768D01*
X96598929Y-104745567D01*
X96614232Y-104670000D01*
X96614232Y-104170000D01*
X96600949Y-104099405D01*
X96559227Y-104034568D01*
X96495567Y-103991071D01*
X96420000Y-103975768D01*
X95820000Y-103975768D01*
X95749405Y-103989051D01*
X95684568Y-104030773D01*
X95641071Y-104094433D01*
X95625768Y-104170000D01*
X95625768Y-104670000D01*
X95639051Y-104740595D01*
X95680773Y-104805432D01*
X95719934Y-104832190D01*
X95691071Y-104874433D01*
X95675768Y-104950000D01*
X95675768Y-106850000D01*
X95689051Y-106920595D01*
X95730773Y-106985432D01*
X95794433Y-107028929D01*
X95870000Y-107044232D01*
X96966988Y-107044232D01*
X96975465Y-108680500D01*
X96872045Y-108680500D01*
X96863498Y-107509537D01*
X96858315Y-107484869D01*
X96843943Y-107464161D01*
X96822795Y-107450733D01*
X95563556Y-106966410D01*
X95567418Y-103949874D01*
X99694943Y-103974153D01*
M02*
