G04 #@! TF.FileFunction,Copper,L4,Bot,Signal*
%FSLAX46Y46*%
G04 Gerber Fmt 4.6, Leading zero omitted, Abs format (unit mm)*
G04 Created by KiCad (PCBNEW 4.0.6) date 02/04/18 20:59:17*
%MOMM*%
%LPD*%
G01*
G04 APERTURE LIST*
%ADD10C,0.100000*%
%ADD11R,0.800000X0.800000*%
%ADD12C,0.300000*%
%ADD13C,10.200000*%
%ADD14R,2.500000X5.100000*%
%ADD15C,1.000000*%
%ADD16C,0.355600*%
%ADD17C,0.127000*%
G04 APERTURE END LIST*
D10*
G36*
X113060757Y-119404048D02*
X112497841Y-119079048D01*
X113067841Y-118091780D01*
X113630757Y-118416780D01*
X113060757Y-119404048D01*
X113060757Y-119404048D01*
G37*
G36*
X112030757Y-121188060D02*
X111467841Y-120863060D01*
X112037841Y-119875792D01*
X112600757Y-120200792D01*
X112030757Y-121188060D01*
X112030757Y-121188060D01*
G37*
G36*
X114175705Y-119712901D02*
X113829295Y-119512901D01*
X114254295Y-118776779D01*
X114600705Y-118976779D01*
X114175705Y-119712901D01*
X114175705Y-119712901D01*
G37*
G36*
X113000705Y-121748061D02*
X112654295Y-121548061D01*
X113079295Y-120811939D01*
X113425705Y-121011939D01*
X113000705Y-121748061D01*
X113000705Y-121748061D01*
G37*
G36*
X112522391Y-102646628D02*
X111959475Y-102971628D01*
X111389475Y-101984360D01*
X111952391Y-101659360D01*
X112522391Y-102646628D01*
X112522391Y-102646628D01*
G37*
G36*
X113552391Y-104430640D02*
X112989475Y-104755640D01*
X112419475Y-103768372D01*
X112982391Y-103443372D01*
X113552391Y-104430640D01*
X113552391Y-104430640D01*
G37*
G36*
X113347339Y-101835481D02*
X113000929Y-102035481D01*
X112575929Y-101299359D01*
X112922339Y-101099359D01*
X113347339Y-101835481D01*
X113347339Y-101835481D01*
G37*
G36*
X114522339Y-103870641D02*
X114175929Y-104070641D01*
X113750929Y-103334519D01*
X114097339Y-103134519D01*
X114522339Y-103870641D01*
X114522339Y-103870641D01*
G37*
G36*
X103782410Y-103187200D02*
X103089590Y-102787200D01*
X103489590Y-102094380D01*
X104182410Y-102494380D01*
X103782410Y-103187200D01*
X103782410Y-103187200D01*
G37*
D11*
X98550000Y-101278000D03*
D10*
G36*
X94010410Y-102787200D02*
X93317590Y-103187200D01*
X92917590Y-102494380D01*
X93610410Y-102094380D01*
X94010410Y-102787200D01*
X94010410Y-102787200D01*
G37*
G36*
X90287200Y-106217590D02*
X89887200Y-106910410D01*
X89194380Y-106510410D01*
X89594380Y-105817590D01*
X90287200Y-106217590D01*
X90287200Y-106217590D01*
G37*
D11*
X88378000Y-111450000D03*
D10*
G36*
X89887200Y-115989589D02*
X90287200Y-116682409D01*
X89594380Y-117082409D01*
X89194380Y-116389589D01*
X89887200Y-115989589D01*
X89887200Y-115989589D01*
G37*
G36*
X93317591Y-119712800D02*
X94010411Y-120112800D01*
X93610411Y-120805620D01*
X92917591Y-120405620D01*
X93317591Y-119712800D01*
X93317591Y-119712800D01*
G37*
D11*
X98550000Y-121622000D03*
D10*
G36*
X103089590Y-120112800D02*
X103782410Y-119712800D01*
X104182410Y-120405620D01*
X103489590Y-120805620D01*
X103089590Y-120112800D01*
X103089590Y-120112800D01*
G37*
G36*
X106812800Y-116682409D02*
X107212800Y-115989589D01*
X107905620Y-116389589D01*
X107505620Y-117082409D01*
X106812800Y-116682409D01*
X106812800Y-116682409D01*
G37*
D11*
X108722000Y-111450000D03*
D10*
G36*
X110836365Y-110560854D02*
X110752742Y-109765237D01*
X111548359Y-109681614D01*
X111631982Y-110477231D01*
X110836365Y-110560854D01*
X110836365Y-110560854D01*
G37*
G36*
X110676118Y-109281451D02*
X110509788Y-108498933D01*
X111292306Y-108332603D01*
X111458636Y-109115121D01*
X110676118Y-109281451D01*
X110676118Y-109281451D01*
G37*
G36*
X110383014Y-108025806D02*
X110135801Y-107264961D01*
X110896646Y-107017748D01*
X111143859Y-107778593D01*
X110383014Y-108025806D01*
X110383014Y-108025806D01*
G37*
G36*
X109960265Y-106807677D02*
X109634876Y-106076840D01*
X110365713Y-105751451D01*
X110691102Y-106482288D01*
X109960265Y-106807677D01*
X109960265Y-106807677D01*
G37*
G36*
X109412504Y-105640410D02*
X109012504Y-104947590D01*
X109705324Y-104547590D01*
X110105324Y-105240410D01*
X109412504Y-105640410D01*
X109412504Y-105640410D01*
G37*
G36*
X108745730Y-104536795D02*
X108275502Y-103889581D01*
X108922716Y-103419353D01*
X109392944Y-104066567D01*
X108745730Y-104536795D01*
X108745730Y-104536795D01*
G37*
G36*
X107967250Y-103508922D02*
X107431946Y-102914406D01*
X108026462Y-102379102D01*
X108561766Y-102973618D01*
X107967250Y-103508922D01*
X107967250Y-103508922D01*
G37*
G36*
X107085594Y-102568054D02*
X106491078Y-102032750D01*
X107026382Y-101438234D01*
X107620898Y-101973538D01*
X107085594Y-102568054D01*
X107085594Y-102568054D01*
G37*
G36*
X106110419Y-101724498D02*
X105463205Y-101254270D01*
X105933433Y-100607056D01*
X106580647Y-101077284D01*
X106110419Y-101724498D01*
X106110419Y-101724498D01*
G37*
G36*
X105052410Y-100987496D02*
X104359590Y-100587496D01*
X104759590Y-99894676D01*
X105452410Y-100294676D01*
X105052410Y-100987496D01*
X105052410Y-100987496D01*
G37*
G36*
X103923160Y-100365124D02*
X103192323Y-100039735D01*
X103517712Y-99308898D01*
X104248549Y-99634287D01*
X103923160Y-100365124D01*
X103923160Y-100365124D01*
G37*
G36*
X102735039Y-99864199D02*
X101974194Y-99616986D01*
X102221407Y-98856141D01*
X102982252Y-99103354D01*
X102735039Y-99864199D01*
X102735039Y-99864199D01*
G37*
G36*
X113362451Y-110295352D02*
X113278828Y-109499735D01*
X114074445Y-109416112D01*
X114158068Y-110211729D01*
X113362451Y-110295352D01*
X113362451Y-110295352D01*
G37*
G36*
X113160612Y-108753356D02*
X112994282Y-107970838D01*
X113776800Y-107804508D01*
X113943130Y-108587026D01*
X113160612Y-108753356D01*
X113160612Y-108753356D01*
G37*
G36*
X112798698Y-107240903D02*
X112551485Y-106480058D01*
X113312330Y-106232845D01*
X113559543Y-106993690D01*
X112798698Y-107240903D01*
X112798698Y-107240903D01*
G37*
G36*
X112280671Y-105774566D02*
X111955282Y-105043729D01*
X112686119Y-104718340D01*
X113011508Y-105449177D01*
X112280671Y-105774566D01*
X112280671Y-105774566D01*
G37*
G36*
X111612209Y-104370410D02*
X111212209Y-103677590D01*
X111905029Y-103277590D01*
X112305029Y-103970410D01*
X111612209Y-104370410D01*
X111612209Y-104370410D01*
G37*
G36*
X110800633Y-103043821D02*
X110330405Y-102396607D01*
X110977619Y-101926379D01*
X111447847Y-102573593D01*
X110800633Y-103043821D01*
X110800633Y-103043821D01*
G37*
G36*
X109854838Y-101809331D02*
X109319534Y-101214815D01*
X109914050Y-100679511D01*
X110449354Y-101274027D01*
X109854838Y-101809331D01*
X109854838Y-101809331D01*
G37*
G36*
X108785185Y-100680466D02*
X108190669Y-100145162D01*
X108725973Y-99550646D01*
X109320489Y-100085950D01*
X108785185Y-100680466D01*
X108785185Y-100680466D01*
G37*
G36*
X107603393Y-99669595D02*
X106956179Y-99199367D01*
X107426407Y-98552153D01*
X108073621Y-99022381D01*
X107603393Y-99669595D01*
X107603393Y-99669595D01*
G37*
G36*
X106322410Y-98787791D02*
X105629590Y-98387791D01*
X106029590Y-97694971D01*
X106722410Y-98094971D01*
X106322410Y-98787791D01*
X106322410Y-98787791D01*
G37*
G36*
X104956271Y-98044718D02*
X104225434Y-97719329D01*
X104550823Y-96988492D01*
X105281660Y-97313881D01*
X104956271Y-98044718D01*
X104956271Y-98044718D01*
G37*
G36*
X103519942Y-97448515D02*
X102759097Y-97201302D01*
X103006310Y-96440457D01*
X103767155Y-96687670D01*
X103519942Y-97448515D01*
X103519942Y-97448515D01*
G37*
G36*
X101501067Y-99490212D02*
X100718549Y-99323882D01*
X100884879Y-98541364D01*
X101667397Y-98707694D01*
X101501067Y-99490212D01*
X101501067Y-99490212D01*
G37*
G36*
X100234763Y-99247258D02*
X99439146Y-99163635D01*
X99522769Y-98368018D01*
X100318386Y-98451641D01*
X100234763Y-99247258D01*
X100234763Y-99247258D01*
G37*
D11*
X98550000Y-98738000D03*
D10*
G36*
X97660854Y-99163635D02*
X96865237Y-99247258D01*
X96781614Y-98451641D01*
X97577231Y-98368018D01*
X97660854Y-99163635D01*
X97660854Y-99163635D01*
G37*
G36*
X96381451Y-99323882D02*
X95598933Y-99490212D01*
X95432603Y-98707694D01*
X96215121Y-98541364D01*
X96381451Y-99323882D01*
X96381451Y-99323882D01*
G37*
G36*
X95125806Y-99616986D02*
X94364961Y-99864199D01*
X94117748Y-99103354D01*
X94878593Y-98856141D01*
X95125806Y-99616986D01*
X95125806Y-99616986D01*
G37*
G36*
X93907677Y-100039735D02*
X93176840Y-100365124D01*
X92851451Y-99634287D01*
X93582288Y-99308898D01*
X93907677Y-100039735D01*
X93907677Y-100039735D01*
G37*
G36*
X92740410Y-100587496D02*
X92047590Y-100987496D01*
X91647590Y-100294676D01*
X92340410Y-99894676D01*
X92740410Y-100587496D01*
X92740410Y-100587496D01*
G37*
G36*
X91636795Y-101254270D02*
X90989581Y-101724498D01*
X90519353Y-101077284D01*
X91166567Y-100607056D01*
X91636795Y-101254270D01*
X91636795Y-101254270D01*
G37*
G36*
X90608922Y-102032750D02*
X90014406Y-102568054D01*
X89479102Y-101973538D01*
X90073618Y-101438234D01*
X90608922Y-102032750D01*
X90608922Y-102032750D01*
G37*
G36*
X89668054Y-102914406D02*
X89132750Y-103508922D01*
X88538234Y-102973618D01*
X89073538Y-102379102D01*
X89668054Y-102914406D01*
X89668054Y-102914406D01*
G37*
G36*
X88824498Y-103889581D02*
X88354270Y-104536795D01*
X87707056Y-104066567D01*
X88177284Y-103419353D01*
X88824498Y-103889581D01*
X88824498Y-103889581D01*
G37*
G36*
X102029162Y-97005718D02*
X101246644Y-96839388D01*
X101412974Y-96056870D01*
X102195492Y-96223200D01*
X102029162Y-97005718D01*
X102029162Y-97005718D01*
G37*
G36*
X100500265Y-96721172D02*
X99704648Y-96637549D01*
X99788271Y-95841932D01*
X100583888Y-95925555D01*
X100500265Y-96721172D01*
X100500265Y-96721172D01*
G37*
D11*
X98550000Y-96198000D03*
D10*
G36*
X97395352Y-96637549D02*
X96599735Y-96721172D01*
X96516112Y-95925555D01*
X97311729Y-95841932D01*
X97395352Y-96637549D01*
X97395352Y-96637549D01*
G37*
G36*
X95853356Y-96839388D02*
X95070838Y-97005718D01*
X94904508Y-96223200D01*
X95687026Y-96056870D01*
X95853356Y-96839388D01*
X95853356Y-96839388D01*
G37*
G36*
X91470410Y-98387791D02*
X90777590Y-98787791D01*
X90377590Y-98094971D01*
X91070410Y-97694971D01*
X91470410Y-98387791D01*
X91470410Y-98387791D01*
G37*
G36*
X88909331Y-100145162D02*
X88314815Y-100680466D01*
X87779511Y-100085950D01*
X88374027Y-99550646D01*
X88909331Y-100145162D01*
X88909331Y-100145162D01*
G37*
G36*
X87780466Y-101214815D02*
X87245162Y-101809331D01*
X86650646Y-101274027D01*
X87185950Y-100679511D01*
X87780466Y-101214815D01*
X87780466Y-101214815D01*
G37*
G36*
X86769595Y-102396607D02*
X86299367Y-103043821D01*
X85652153Y-102573593D01*
X86122381Y-101926379D01*
X86769595Y-102396607D01*
X86769595Y-102396607D01*
G37*
G36*
X88087496Y-104947590D02*
X87687496Y-105640410D01*
X86994676Y-105240410D01*
X87394676Y-104547590D01*
X88087496Y-104947590D01*
X88087496Y-104947590D01*
G37*
G36*
X87465124Y-106076840D02*
X87139735Y-106807677D01*
X86408898Y-106482288D01*
X86734287Y-105751451D01*
X87465124Y-106076840D01*
X87465124Y-106076840D01*
G37*
G36*
X86964199Y-107264961D02*
X86716986Y-108025806D01*
X85956141Y-107778593D01*
X86203354Y-107017748D01*
X86964199Y-107264961D01*
X86964199Y-107264961D01*
G37*
G36*
X86590212Y-108498933D02*
X86423882Y-109281451D01*
X85641364Y-109115121D01*
X85807694Y-108332603D01*
X86590212Y-108498933D01*
X86590212Y-108498933D01*
G37*
G36*
X86347258Y-109765237D02*
X86263635Y-110560854D01*
X85468018Y-110477231D01*
X85551641Y-109681614D01*
X86347258Y-109765237D01*
X86347258Y-109765237D01*
G37*
D11*
X85838000Y-111450000D03*
D10*
G36*
X86263635Y-112339146D02*
X86347258Y-113134763D01*
X85551641Y-113218386D01*
X85468018Y-112422769D01*
X86263635Y-112339146D01*
X86263635Y-112339146D01*
G37*
G36*
X86423882Y-113618549D02*
X86590212Y-114401067D01*
X85807694Y-114567397D01*
X85641364Y-113784879D01*
X86423882Y-113618549D01*
X86423882Y-113618549D01*
G37*
G36*
X86716986Y-114874194D02*
X86964199Y-115635039D01*
X86203354Y-115882252D01*
X85956141Y-115121407D01*
X86716986Y-114874194D01*
X86716986Y-114874194D01*
G37*
G36*
X87139735Y-116092323D02*
X87465124Y-116823160D01*
X86734287Y-117148549D01*
X86408898Y-116417712D01*
X87139735Y-116092323D01*
X87139735Y-116092323D01*
G37*
G36*
X87687496Y-117259589D02*
X88087496Y-117952409D01*
X87394676Y-118352409D01*
X86994676Y-117659589D01*
X87687496Y-117259589D01*
X87687496Y-117259589D01*
G37*
G36*
X88354270Y-118363205D02*
X88824498Y-119010419D01*
X88177284Y-119480647D01*
X87707056Y-118833433D01*
X88354270Y-118363205D01*
X88354270Y-118363205D01*
G37*
G36*
X85144718Y-105043729D02*
X84819329Y-105774566D01*
X84088492Y-105449177D01*
X84413881Y-104718340D01*
X85144718Y-105043729D01*
X85144718Y-105043729D01*
G37*
G36*
X84548515Y-106480058D02*
X84301302Y-107240903D01*
X83540457Y-106993690D01*
X83787670Y-106232845D01*
X84548515Y-106480058D01*
X84548515Y-106480058D01*
G37*
G36*
X83821172Y-109499735D02*
X83737549Y-110295352D01*
X82941932Y-110211729D01*
X83025555Y-109416112D01*
X83821172Y-109499735D01*
X83821172Y-109499735D01*
G37*
D11*
X83298000Y-111450000D03*
D10*
G36*
X83737549Y-112604648D02*
X83821172Y-113400265D01*
X83025555Y-113483888D01*
X82941932Y-112688271D01*
X83737549Y-112604648D01*
X83737549Y-112604648D01*
G37*
G36*
X83939388Y-114146644D02*
X84105718Y-114929162D01*
X83323200Y-115095492D01*
X83156870Y-114312974D01*
X83939388Y-114146644D01*
X83939388Y-114146644D01*
G37*
G36*
X84301302Y-115659097D02*
X84548515Y-116419942D01*
X83787670Y-116667155D01*
X83540457Y-115906310D01*
X84301302Y-115659097D01*
X84301302Y-115659097D01*
G37*
G36*
X84819329Y-117125434D02*
X85144718Y-117856271D01*
X84413881Y-118181660D01*
X84088492Y-117450823D01*
X84819329Y-117125434D01*
X84819329Y-117125434D01*
G37*
G36*
X85487791Y-118529589D02*
X85887791Y-119222409D01*
X85194971Y-119622409D01*
X84794971Y-118929589D01*
X85487791Y-118529589D01*
X85487791Y-118529589D01*
G37*
G36*
X86299367Y-119856179D02*
X86769595Y-120503393D01*
X86122381Y-120973621D01*
X85652153Y-120326407D01*
X86299367Y-119856179D01*
X86299367Y-119856179D01*
G37*
G36*
X89132750Y-119391078D02*
X89668054Y-119985594D01*
X89073538Y-120520898D01*
X88538234Y-119926382D01*
X89132750Y-119391078D01*
X89132750Y-119391078D01*
G37*
G36*
X90014406Y-120331946D02*
X90608922Y-120867250D01*
X90073618Y-121461766D01*
X89479102Y-120926462D01*
X90014406Y-120331946D01*
X90014406Y-120331946D01*
G37*
G36*
X90989581Y-121175502D02*
X91636795Y-121645730D01*
X91166567Y-122292944D01*
X90519353Y-121822716D01*
X90989581Y-121175502D01*
X90989581Y-121175502D01*
G37*
G36*
X92047591Y-121912504D02*
X92740411Y-122312504D01*
X92340411Y-123005324D01*
X91647591Y-122605324D01*
X92047591Y-121912504D01*
X92047591Y-121912504D01*
G37*
G36*
X93176840Y-122534876D02*
X93907677Y-122860265D01*
X93582288Y-123591102D01*
X92851451Y-123265713D01*
X93176840Y-122534876D01*
X93176840Y-122534876D01*
G37*
G36*
X94364961Y-123035801D02*
X95125806Y-123283014D01*
X94878593Y-124043859D01*
X94117748Y-123796646D01*
X94364961Y-123035801D01*
X94364961Y-123035801D01*
G37*
G36*
X95598933Y-123409788D02*
X96381451Y-123576118D01*
X96215121Y-124358636D01*
X95432603Y-124192306D01*
X95598933Y-123409788D01*
X95598933Y-123409788D01*
G37*
G36*
X96865237Y-123652742D02*
X97660854Y-123736365D01*
X97577231Y-124531982D01*
X96781614Y-124448359D01*
X96865237Y-123652742D01*
X96865237Y-123652742D01*
G37*
D11*
X98550000Y-124162000D03*
D10*
G36*
X99439146Y-123736365D02*
X100234763Y-123652742D01*
X100318386Y-124448359D01*
X99522769Y-124531982D01*
X99439146Y-123736365D01*
X99439146Y-123736365D01*
G37*
G36*
X100718549Y-123576118D02*
X101501067Y-123409788D01*
X101667397Y-124192306D01*
X100884879Y-124358636D01*
X100718549Y-123576118D01*
X100718549Y-123576118D01*
G37*
G36*
X101974194Y-123283014D02*
X102735039Y-123035801D01*
X102982252Y-123796646D01*
X102221407Y-124043859D01*
X101974194Y-123283014D01*
X101974194Y-123283014D01*
G37*
G36*
X87245162Y-121090669D02*
X87780466Y-121685185D01*
X87185950Y-122220489D01*
X86650646Y-121625973D01*
X87245162Y-121090669D01*
X87245162Y-121090669D01*
G37*
G36*
X88314815Y-122219534D02*
X88909331Y-122754838D01*
X88374027Y-123349354D01*
X87779511Y-122814050D01*
X88314815Y-122219534D01*
X88314815Y-122219534D01*
G37*
G36*
X89496607Y-123230405D02*
X90143821Y-123700633D01*
X89673593Y-124347847D01*
X89026379Y-123877619D01*
X89496607Y-123230405D01*
X89496607Y-123230405D01*
G37*
G36*
X90777591Y-124112209D02*
X91470411Y-124512209D01*
X91070411Y-125205029D01*
X90377591Y-124805029D01*
X90777591Y-124112209D01*
X90777591Y-124112209D01*
G37*
G36*
X92143729Y-124855282D02*
X92874566Y-125180671D01*
X92549177Y-125911508D01*
X91818340Y-125586119D01*
X92143729Y-124855282D01*
X92143729Y-124855282D01*
G37*
G36*
X95070838Y-125894282D02*
X95853356Y-126060612D01*
X95687026Y-126843130D01*
X94904508Y-126676800D01*
X95070838Y-125894282D01*
X95070838Y-125894282D01*
G37*
G36*
X96599735Y-126178828D02*
X97395352Y-126262451D01*
X97311729Y-127058068D01*
X96516112Y-126974445D01*
X96599735Y-126178828D01*
X96599735Y-126178828D01*
G37*
D11*
X98550000Y-126702000D03*
D10*
G36*
X99704648Y-126262451D02*
X100500265Y-126178828D01*
X100583888Y-126974445D01*
X99788271Y-127058068D01*
X99704648Y-126262451D01*
X99704648Y-126262451D01*
G37*
G36*
X101246644Y-126060612D02*
X102029162Y-125894282D01*
X102195492Y-126676800D01*
X101412974Y-126843130D01*
X101246644Y-126060612D01*
X101246644Y-126060612D01*
G37*
G36*
X102759097Y-125698698D02*
X103519942Y-125451485D01*
X103767155Y-126212330D01*
X103006310Y-126459543D01*
X102759097Y-125698698D01*
X102759097Y-125698698D01*
G37*
G36*
X104359590Y-122312504D02*
X105052410Y-121912504D01*
X105452410Y-122605324D01*
X104759590Y-123005324D01*
X104359590Y-122312504D01*
X104359590Y-122312504D01*
G37*
G36*
X105463205Y-121645730D02*
X106110419Y-121175502D01*
X106580647Y-121822716D01*
X105933433Y-122292944D01*
X105463205Y-121645730D01*
X105463205Y-121645730D01*
G37*
G36*
X107431946Y-119985594D02*
X107967250Y-119391078D01*
X108561766Y-119926382D01*
X108026462Y-120520898D01*
X107431946Y-119985594D01*
X107431946Y-119985594D01*
G37*
G36*
X109012504Y-117952409D02*
X109412504Y-117259589D01*
X110105324Y-117659589D01*
X109705324Y-118352409D01*
X109012504Y-117952409D01*
X109012504Y-117952409D01*
G37*
G36*
X109634876Y-116823160D02*
X109960265Y-116092323D01*
X110691102Y-116417712D01*
X110365713Y-117148549D01*
X109634876Y-116823160D01*
X109634876Y-116823160D01*
G37*
G36*
X110135801Y-115635039D02*
X110383014Y-114874194D01*
X111143859Y-115121407D01*
X110896646Y-115882252D01*
X110135801Y-115635039D01*
X110135801Y-115635039D01*
G37*
G36*
X110509788Y-114401067D02*
X110676118Y-113618549D01*
X111458636Y-113784879D01*
X111292306Y-114567397D01*
X110509788Y-114401067D01*
X110509788Y-114401067D01*
G37*
G36*
X110752742Y-113134763D02*
X110836365Y-112339146D01*
X111631982Y-112422769D01*
X111548359Y-113218386D01*
X110752742Y-113134763D01*
X110752742Y-113134763D01*
G37*
D11*
X111262000Y-111450000D03*
D10*
G36*
X104225434Y-125180671D02*
X104956271Y-124855282D01*
X105281660Y-125586119D01*
X104550823Y-125911508D01*
X104225434Y-125180671D01*
X104225434Y-125180671D01*
G37*
G36*
X105629590Y-124512209D02*
X106322410Y-124112209D01*
X106722410Y-124805029D01*
X106029590Y-125205029D01*
X105629590Y-124512209D01*
X105629590Y-124512209D01*
G37*
G36*
X106956179Y-123700633D02*
X107603393Y-123230405D01*
X108073621Y-123877619D01*
X107426407Y-124347847D01*
X106956179Y-123700633D01*
X106956179Y-123700633D01*
G37*
G36*
X108190669Y-122754838D02*
X108785185Y-122219534D01*
X109320489Y-122814050D01*
X108725973Y-123349354D01*
X108190669Y-122754838D01*
X108190669Y-122754838D01*
G37*
G36*
X109319534Y-121685185D02*
X109854838Y-121090669D01*
X110449354Y-121625973D01*
X109914050Y-122220489D01*
X109319534Y-121685185D01*
X109319534Y-121685185D01*
G37*
G36*
X110330405Y-120503393D02*
X110800633Y-119856179D01*
X111447847Y-120326407D01*
X110977619Y-120973621D01*
X110330405Y-120503393D01*
X110330405Y-120503393D01*
G37*
G36*
X111212209Y-119222409D02*
X111612209Y-118529589D01*
X112305029Y-118929589D01*
X111905029Y-119622409D01*
X111212209Y-119222409D01*
X111212209Y-119222409D01*
G37*
G36*
X111955282Y-117856271D02*
X112280671Y-117125434D01*
X113011508Y-117450823D01*
X112686119Y-118181660D01*
X111955282Y-117856271D01*
X111955282Y-117856271D01*
G37*
G36*
X112551485Y-116419942D02*
X112798698Y-115659097D01*
X113559543Y-115906310D01*
X113312330Y-116667155D01*
X112551485Y-116419942D01*
X112551485Y-116419942D01*
G37*
G36*
X112994282Y-114929162D02*
X113160612Y-114146644D01*
X113943130Y-114312974D01*
X113776800Y-115095492D01*
X112994282Y-114929162D01*
X112994282Y-114929162D01*
G37*
G36*
X113278828Y-113400265D02*
X113362451Y-112604648D01*
X114158068Y-112688271D01*
X114074445Y-113483888D01*
X113278828Y-113400265D01*
X113278828Y-113400265D01*
G37*
D11*
X113802000Y-111450000D03*
D12*
X98670000Y-111470000D03*
X97670000Y-111470000D03*
X97670000Y-110470000D03*
X98670000Y-110470000D03*
X99670000Y-110470000D03*
X99670000Y-111470000D03*
X99670000Y-112470000D03*
X98670000Y-112470000D03*
X97670000Y-112470000D03*
D13*
X98680000Y-111480000D03*
D14*
X106330000Y-111480000D03*
X91030000Y-111480000D03*
D10*
G36*
X107212800Y-106910410D02*
X106812800Y-106217590D01*
X107505620Y-105817590D01*
X107905620Y-106510410D01*
X107212800Y-106910410D01*
X107212800Y-106910410D01*
G37*
G36*
X85887791Y-103677590D02*
X85487791Y-104370410D01*
X84794971Y-103970410D01*
X85194971Y-103277590D01*
X85887791Y-103677590D01*
X85887791Y-103677590D01*
G37*
G36*
X93580058Y-125451485D02*
X94340903Y-125698698D01*
X94093690Y-126459543D01*
X93332845Y-126212330D01*
X93580058Y-125451485D01*
X93580058Y-125451485D01*
G37*
G36*
X106491078Y-120867250D02*
X107085594Y-120331946D01*
X107620898Y-120926462D01*
X107026382Y-121461766D01*
X106491078Y-120867250D01*
X106491078Y-120867250D01*
G37*
G36*
X108275502Y-119010419D02*
X108745730Y-118363205D01*
X109392944Y-118833433D01*
X108922716Y-119480647D01*
X108275502Y-119010419D01*
X108275502Y-119010419D01*
G37*
G36*
X84105718Y-107970838D02*
X83939388Y-108753356D01*
X83156870Y-108587026D01*
X83323200Y-107804508D01*
X84105718Y-107970838D01*
X84105718Y-107970838D01*
G37*
G36*
X90143821Y-99199367D02*
X89496607Y-99669595D01*
X89026379Y-99022381D01*
X89673593Y-98552153D01*
X90143821Y-99199367D01*
X90143821Y-99199367D01*
G37*
G36*
X94340903Y-97201302D02*
X93580058Y-97448515D01*
X93332845Y-96687670D01*
X94093690Y-96440457D01*
X94340903Y-97201302D01*
X94340903Y-97201302D01*
G37*
G36*
X92874566Y-97719329D02*
X92143729Y-98044718D01*
X91818340Y-97313881D01*
X92549177Y-96988492D01*
X92874566Y-97719329D01*
X92874566Y-97719329D01*
G37*
G36*
X103192323Y-122860265D02*
X103923160Y-122534876D01*
X104248549Y-123265713D01*
X103517712Y-123591102D01*
X103192323Y-122860265D01*
X103192323Y-122860265D01*
G37*
G36*
X107762658Y-126441156D02*
X108653665Y-125987165D01*
X109107656Y-126878172D01*
X108216649Y-127332163D01*
X107762658Y-126441156D01*
X107762658Y-126441156D01*
G37*
D15*
X107303579Y-127236232D02*
X107303579Y-127236232D01*
X106172000Y-127812800D02*
X106172000Y-127812800D01*
X105040422Y-128389368D02*
X105040422Y-128389368D01*
D11*
X94704600Y-106883200D03*
D16*
X101930200Y-122758200D03*
X102209600Y-107746800D03*
X97688400Y-104420000D03*
X98670000Y-111470000D03*
X94770000Y-105420000D03*
X105760000Y-108510000D03*
X105640000Y-118540000D03*
X104500000Y-113290000D03*
X101930200Y-118008400D03*
X100914200Y-116636800D03*
X107960000Y-109050000D03*
X107790000Y-114390000D03*
X107450000Y-117600000D03*
X94320000Y-127180000D03*
X93050428Y-113730428D03*
X99440000Y-118180000D03*
X88140000Y-113280000D03*
X107430000Y-115690000D03*
X102640000Y-118100000D03*
X96390000Y-116900000D03*
X106970000Y-118110000D03*
X97220000Y-120510000D03*
X91850000Y-102960000D03*
X91850000Y-114390000D03*
X98420000Y-116930000D03*
X105450000Y-102490000D03*
X104650000Y-115790000D03*
X91370000Y-114870000D03*
X93050000Y-113220000D03*
X97680000Y-118180000D03*
X99920000Y-116930000D03*
X104820000Y-104130000D03*
X90730000Y-115820000D03*
X103810000Y-115050000D03*
X101460000Y-118510000D03*
X101092000Y-117957600D03*
X102670000Y-103780000D03*
X102670000Y-101360000D03*
X90550000Y-116340000D03*
X108940000Y-112920000D03*
X102090000Y-121080000D03*
X108420000Y-116070000D03*
X97460000Y-116930000D03*
X96930000Y-116910000D03*
X95860000Y-116900000D03*
X104120000Y-111630000D03*
X93030000Y-112220000D03*
X103630000Y-105760000D03*
X100660000Y-101180000D03*
X92524010Y-118416858D03*
X92750000Y-105600000D03*
X92410000Y-105090000D03*
X101670000Y-101250000D03*
X102590000Y-120030000D03*
X103050000Y-121110000D03*
X109010000Y-108880000D03*
X109010000Y-109970000D03*
X104080000Y-110820000D03*
X93090000Y-110720000D03*
X108440000Y-106680000D03*
X103911400Y-122199400D03*
X100420000Y-120220000D03*
X104150000Y-126000000D03*
X97750000Y-127000000D03*
X97680000Y-122330000D03*
X102520000Y-121520000D03*
X102810000Y-122550000D03*
X88790000Y-118220000D03*
X84920000Y-120290000D03*
X89245198Y-109870000D03*
X89250000Y-118940000D03*
X87790000Y-120320000D03*
X89220000Y-113520000D03*
X82530000Y-113960000D03*
X87910000Y-112420000D03*
X84529012Y-109250000D03*
X88770000Y-109550000D03*
X99410000Y-95130000D03*
X99410000Y-100530000D03*
X97840000Y-97660000D03*
X96700000Y-101000000D03*
X112370000Y-110670000D03*
X109430000Y-110570000D03*
X114510000Y-112300000D03*
X109420000Y-112320000D03*
D17*
X101676200Y-123164600D02*
X101930200Y-122758200D01*
X103047800Y-128168400D02*
X101676200Y-123164600D01*
X104165400Y-128092200D02*
X103047800Y-128168400D01*
X105020989Y-128374926D02*
X104165400Y-128092200D01*
X102209600Y-107746800D02*
X98680000Y-111276400D01*
X98680000Y-111276400D02*
X98680000Y-111480000D01*
X98980000Y-111780000D02*
X98670000Y-111470000D01*
X108474022Y-123663222D02*
X106310000Y-121000000D01*
X108474022Y-126764750D02*
X108474022Y-123663222D01*
X106100000Y-111490000D02*
X106100000Y-108620000D01*
X106100000Y-108620000D02*
X105990000Y-108510000D01*
X105990000Y-108510000D02*
X105760000Y-108510000D01*
X105650000Y-119520000D02*
X105650000Y-118550000D01*
X105650000Y-118550000D02*
X105640000Y-118540000D01*
X105650000Y-111940000D02*
X106100000Y-111490000D01*
X106010000Y-120620000D02*
X105650000Y-119520000D01*
X106310000Y-121000000D02*
X106010000Y-120620000D01*
X104500000Y-113290000D02*
X104751447Y-113290000D01*
X104751447Y-113290000D02*
X106100000Y-111941447D01*
X106100000Y-111941447D02*
X106100000Y-111490000D01*
X114136634Y-103602580D02*
X112985933Y-104099506D01*
X114215000Y-119244840D02*
X113064299Y-118747914D01*
X110380000Y-113330000D02*
X107940000Y-113330000D01*
X107940000Y-113330000D02*
X106100000Y-111490000D01*
X114410000Y-113940000D02*
X110380000Y-113330000D01*
X114460000Y-114830000D02*
X114410000Y-113940000D01*
X110370000Y-109560000D02*
X108030000Y-109560000D01*
X108030000Y-109560000D02*
X106100000Y-111490000D01*
X114400000Y-109020000D02*
X110370000Y-109560000D01*
X114460000Y-108040000D02*
X114400000Y-109020000D01*
X114020000Y-106450000D02*
X114460000Y-108040000D01*
X113420000Y-104850000D02*
X114020000Y-106450000D01*
X112985933Y-104099506D02*
X113420000Y-104850000D01*
X114020000Y-116470000D02*
X114460000Y-114830000D01*
X113500000Y-117900000D02*
X114020000Y-116470000D01*
X113064299Y-118747914D02*
X113500000Y-117900000D01*
X102133400Y-118211600D02*
X101930200Y-118008400D01*
X102390101Y-118468301D02*
X102133400Y-118211600D01*
X107790000Y-114390000D02*
X107471699Y-114708301D01*
X107471699Y-114708301D02*
X104013387Y-114708301D01*
X103036010Y-114689680D02*
X101087690Y-116638000D01*
X104013387Y-114708301D02*
X103986785Y-114681699D01*
X103986785Y-114681699D02*
X103036010Y-114681699D01*
X101087690Y-116638000D02*
X100915400Y-116638000D01*
X103036010Y-114681699D02*
X103036010Y-114689680D01*
X100915400Y-116638000D02*
X100914200Y-116636800D01*
X105232200Y-121691400D02*
X105232200Y-119430800D01*
X105232200Y-119430800D02*
X104269701Y-118468301D01*
X104269701Y-118468301D02*
X102390101Y-118468301D01*
X107873800Y-125780800D02*
X105232200Y-121691400D01*
X107873800Y-126043580D02*
X107873800Y-125780800D01*
X107323011Y-127301475D02*
X107323011Y-126594369D01*
X107323011Y-126594369D02*
X107873800Y-126043580D01*
X82140000Y-112290000D02*
X83298000Y-111450000D01*
X81950000Y-113200000D02*
X82140000Y-112290000D01*
X107450000Y-117600000D02*
X108771926Y-118921926D01*
X108771926Y-118921926D02*
X108834223Y-118921926D01*
X82180000Y-114930000D02*
X81950000Y-113200000D01*
X93836874Y-125955514D02*
X94320000Y-127180000D01*
X91740000Y-126780000D02*
X93836874Y-125955514D01*
X90190000Y-125980000D02*
X91740000Y-126780000D01*
X88700000Y-125010000D02*
X90190000Y-125980000D01*
X87360000Y-123930000D02*
X88700000Y-125010000D01*
X86080000Y-122650000D02*
X87360000Y-123930000D01*
X85000000Y-121340000D02*
X86080000Y-122650000D01*
X84050000Y-119810000D02*
X85000000Y-121340000D01*
X83250000Y-118260000D02*
X84050000Y-119810000D01*
X82610000Y-116620000D02*
X83250000Y-118260000D01*
X82180000Y-114930000D02*
X82610000Y-116620000D01*
X81910000Y-109670000D02*
X83298000Y-111450000D01*
X82180000Y-107950000D02*
X81910000Y-109670000D01*
X82630000Y-106270000D02*
X82180000Y-107950000D01*
X83260000Y-104630000D02*
X82630000Y-106270000D01*
X84060000Y-103070000D02*
X83260000Y-104630000D01*
X85000000Y-101590000D02*
X84060000Y-103070000D01*
X86120000Y-100230000D02*
X85000000Y-101590000D01*
X87360000Y-98980000D02*
X86120000Y-100230000D01*
X88740000Y-97900000D02*
X87360000Y-98980000D01*
X90190000Y-96950000D02*
X88740000Y-97900000D01*
X91760000Y-96140000D02*
X90190000Y-96950000D01*
X93836874Y-96944486D02*
X91760000Y-96140000D01*
X95080000Y-95050000D02*
X93836874Y-96944486D01*
X96820000Y-94760000D02*
X95080000Y-95050000D01*
X98560000Y-94690000D02*
X96820000Y-94760000D01*
X100300000Y-94780000D02*
X98560000Y-94690000D01*
X102040000Y-95060000D02*
X100300000Y-94780000D01*
X103700000Y-95510000D02*
X102040000Y-95060000D01*
X105320000Y-96130000D02*
X103700000Y-95510000D01*
X106910000Y-96940000D02*
X105320000Y-96130000D01*
X108390000Y-97880000D02*
X106910000Y-96940000D01*
X109770000Y-99000000D02*
X108390000Y-97880000D01*
X111010000Y-100240000D02*
X109770000Y-99000000D01*
X110889126Y-102485100D02*
X111010000Y-100240000D01*
X108834223Y-118921926D02*
X110889126Y-120414900D01*
X110889126Y-102485100D02*
X108834223Y-103978074D01*
X93836874Y-96944486D02*
X94621777Y-99360170D01*
X85838000Y-111450000D02*
X88378000Y-111450000D01*
X83298000Y-111450000D02*
X85838000Y-111450000D01*
X93836874Y-125955514D02*
X94621777Y-123539830D01*
X99440000Y-118180000D02*
X99071699Y-117811699D01*
X99071699Y-117811699D02*
X94911699Y-117811699D01*
X94911699Y-117811699D02*
X93650000Y-116550000D01*
X93650000Y-116550000D02*
X93650000Y-116540000D01*
X93650000Y-116540000D02*
X93050428Y-115940428D01*
X93050428Y-115940428D02*
X93050428Y-113730428D01*
X107430000Y-115690000D02*
X108585086Y-115690000D01*
X108585086Y-115690000D02*
X109444366Y-116549280D01*
X109444366Y-116549280D02*
X109444366Y-117129571D01*
X109444366Y-117129571D02*
X109558914Y-117244119D01*
X109558914Y-117244119D02*
X109558914Y-117805999D01*
X111758619Y-119075999D02*
X109558914Y-117805999D01*
X109884444Y-101244421D02*
X107996856Y-102944012D01*
X92346453Y-97516605D02*
X93379564Y-99837011D01*
X83381552Y-113044268D02*
X85907638Y-112778766D01*
X95378932Y-126368706D02*
X95907027Y-123884212D01*
X102640000Y-118100000D02*
X106708553Y-118100000D01*
X106708553Y-118100000D02*
X106718553Y-118110000D01*
X106718553Y-118110000D02*
X106970000Y-118110000D01*
X92194000Y-100441086D02*
X93621415Y-101868501D01*
X105942655Y-102003144D02*
X107055988Y-102003144D01*
X93621415Y-101868501D02*
X105808012Y-101868501D01*
X105808012Y-101868501D02*
X105942655Y-102003144D01*
X91850000Y-102960000D02*
X91850000Y-100785086D01*
X91850000Y-100785086D02*
X92194000Y-100441086D01*
X86921751Y-114390000D02*
X91850000Y-114390000D01*
X86115788Y-114092973D02*
X86624724Y-114092973D01*
X86624724Y-114092973D02*
X86921751Y-114390000D01*
X112483395Y-117653547D02*
X110162989Y-116620436D01*
X107055988Y-102003144D02*
X108755579Y-100115556D01*
X90924000Y-98241381D02*
X92194000Y-100441086D01*
X83631294Y-114621068D02*
X86115788Y-114092973D01*
X96955732Y-126618448D02*
X97221234Y-124092362D01*
X104650000Y-115790000D02*
X102294914Y-115790000D01*
X98930795Y-117440795D02*
X98420000Y-116930000D01*
X102294914Y-115790000D02*
X101341699Y-116743215D01*
X101341699Y-116948301D02*
X100849205Y-117440795D01*
X101341699Y-116743215D02*
X101341699Y-116948301D01*
X100849205Y-117440795D02*
X98930795Y-117440795D01*
X102080000Y-102122511D02*
X103335199Y-103377710D01*
X103335199Y-103377710D02*
X104562290Y-103377710D01*
X104562290Y-103377710D02*
X105450000Y-102490000D01*
X94944523Y-102122511D02*
X102080000Y-102122511D01*
X91078074Y-101165777D02*
X91435152Y-101522855D01*
X91435152Y-101522855D02*
X91435152Y-103090238D01*
X93689324Y-103377710D02*
X94944523Y-102122511D01*
X91435152Y-103090238D02*
X91722624Y-103377710D01*
X91722624Y-103377710D02*
X93689324Y-103377710D01*
X86460170Y-115378223D02*
X90861777Y-115378223D01*
X90861777Y-115378223D02*
X91370000Y-114870000D01*
X105118301Y-115321699D02*
X104650000Y-115790000D01*
X110639830Y-115378223D02*
X110119246Y-115378223D01*
X110119246Y-115378223D02*
X110062722Y-115321699D01*
X110062722Y-115321699D02*
X105118301Y-115321699D01*
X98550000Y-121622000D02*
X98550000Y-124162000D01*
X110639830Y-115378223D02*
X113055514Y-116163126D01*
X107514900Y-99110874D02*
X106021926Y-101165777D01*
X89585100Y-99110874D02*
X91078074Y-101165777D01*
X84044486Y-116163126D02*
X86460170Y-115378223D01*
X98550000Y-126702000D02*
X98550000Y-124162000D01*
X97680000Y-118180000D02*
X94920776Y-118180000D01*
X94920776Y-118180000D02*
X92682127Y-115941351D01*
X92682127Y-115941351D02*
X92682127Y-113553643D01*
X92682127Y-113553643D02*
X93015770Y-113220000D01*
X93015770Y-113220000D02*
X93050000Y-113220000D01*
X103229985Y-103631720D02*
X104321720Y-103631720D01*
X104321720Y-103631720D02*
X104820000Y-104130000D01*
X93794539Y-103631719D02*
X95006258Y-102420000D01*
X95006258Y-102420000D02*
X102018265Y-102420000D01*
X102018265Y-102420000D02*
X103229985Y-103631720D01*
X90044012Y-102003144D02*
X90397952Y-102357084D01*
X90397952Y-102357084D02*
X90397952Y-102412262D01*
X90397952Y-102412262D02*
X91617409Y-103631719D01*
X91617409Y-103631719D02*
X93794539Y-103631719D01*
X86937011Y-116620436D02*
X87758368Y-115799079D01*
X87758368Y-115799079D02*
X90709079Y-115799079D01*
X90709079Y-115799079D02*
X90730000Y-115820000D01*
X110984212Y-114092973D02*
X110475276Y-114092973D01*
X110475276Y-114092973D02*
X109518249Y-115050000D01*
X109518249Y-115050000D02*
X103810000Y-115050000D01*
X103636000Y-120259210D02*
X103272470Y-120622740D01*
X103272470Y-120622740D02*
X101317260Y-120622740D01*
X101317260Y-120622740D02*
X100740000Y-121200000D01*
X100740000Y-121200000D02*
X100740000Y-121753887D01*
X100740000Y-121753887D02*
X99820000Y-122673887D01*
X99820000Y-122673887D02*
X99820000Y-124033596D01*
X99820000Y-124033596D02*
X99878766Y-124092362D01*
X99878766Y-124092362D02*
X100144268Y-126618448D01*
X113468706Y-114621068D02*
X110984212Y-114092973D01*
X106176000Y-98241381D02*
X104906000Y-100441086D01*
X88344421Y-100115556D02*
X90044012Y-102003144D01*
X84616605Y-117653547D02*
X86937011Y-116620436D01*
X101092000Y-117957600D02*
X102129600Y-116920000D01*
X102129600Y-116920000D02*
X106975209Y-116920000D01*
X106975209Y-116920000D02*
X107359210Y-116535999D01*
X87541086Y-117805999D02*
X89468954Y-117805999D01*
X89468954Y-117805999D02*
X90550000Y-116724953D01*
X90550000Y-116724953D02*
X90550000Y-116340000D01*
X101564010Y-102674010D02*
X102670000Y-103780000D01*
X89103144Y-102944012D02*
X90044861Y-103885729D01*
X90044861Y-103885729D02*
X93899754Y-103885728D01*
X93899754Y-103885728D02*
X95111472Y-102674010D01*
X95111472Y-102674010D02*
X101564010Y-102674010D01*
X103720436Y-99837011D02*
X102670000Y-100887447D01*
X102670000Y-100887447D02*
X102670000Y-101360000D01*
X101192973Y-123884212D02*
X101192973Y-122186251D01*
X101192973Y-122186251D02*
X102090000Y-121289224D01*
X102090000Y-121289224D02*
X102090000Y-121080000D01*
X108940000Y-112920000D02*
X111051128Y-112920000D01*
X111051128Y-112920000D02*
X111192362Y-112778766D01*
X101721068Y-126368706D02*
X101192973Y-123884212D01*
X111192362Y-112778766D02*
X113718448Y-113044268D01*
X104753547Y-97516605D02*
X103720436Y-99837011D01*
X87215556Y-101244421D02*
X89103144Y-102944012D01*
X85341381Y-119075999D02*
X87541086Y-117805999D01*
X108710000Y-118020000D02*
X108420000Y-116070000D01*
X111650000Y-119960000D02*
X108710000Y-118020000D01*
X112034299Y-120531926D02*
X111650000Y-119960000D01*
X113040000Y-121280000D02*
X112034299Y-120531926D01*
X109884444Y-121655579D02*
X107996856Y-119955988D01*
X109558914Y-105094000D02*
X111758619Y-103824000D01*
X95378932Y-96531294D02*
X95907027Y-99015788D01*
X83381552Y-109855732D02*
X85907638Y-110121234D01*
X92346453Y-125383395D02*
X93379564Y-123062989D01*
X107055988Y-120896856D02*
X108755579Y-122784444D01*
X112483395Y-105246453D02*
X110162989Y-106279564D01*
X96955732Y-96281552D02*
X97221234Y-98807638D01*
X83631294Y-108278932D02*
X86115788Y-108807027D01*
X90924001Y-124658619D02*
X92194001Y-122458914D01*
X98550000Y-98738000D02*
X98550000Y-101278000D01*
X107514900Y-123789126D02*
X106021926Y-121734223D01*
X113055514Y-106736874D02*
X110639830Y-107521777D01*
X98550000Y-96198000D02*
X98550000Y-98738000D01*
X84044486Y-106736874D02*
X86460170Y-107521777D01*
X89585100Y-123789126D02*
X91078074Y-121734223D01*
X103630000Y-105760000D02*
X106269066Y-108399066D01*
X106269066Y-108399066D02*
X110576251Y-108399066D01*
X110576251Y-108399066D02*
X110984212Y-108807027D01*
X92750000Y-105600000D02*
X95421980Y-102928020D01*
X95421980Y-102928020D02*
X100798020Y-102928020D01*
X100798020Y-102928020D02*
X103630000Y-105760000D01*
X88862982Y-106279564D02*
X88862982Y-106243644D01*
X88862982Y-106243644D02*
X89506626Y-105600000D01*
X89506626Y-105600000D02*
X92750000Y-105600000D01*
X99878766Y-98807638D02*
X99878766Y-100398766D01*
X99878766Y-100398766D02*
X100660000Y-101180000D01*
X104906000Y-122458914D02*
X104906000Y-120566966D01*
X103217335Y-118878301D02*
X92985453Y-118878301D01*
X104906000Y-120566966D02*
X103217335Y-118878301D01*
X92985453Y-118878301D02*
X92524010Y-118416858D01*
X86937011Y-106279564D02*
X88862982Y-106279564D01*
X104906000Y-122458914D02*
X106176000Y-124658619D01*
X110984212Y-108807027D02*
X113468706Y-108278932D01*
X100144268Y-96281552D02*
X99878766Y-98807638D01*
X84616605Y-105246453D02*
X86937011Y-106279564D01*
X88344421Y-122784444D02*
X90044012Y-120896856D01*
X103050000Y-121110000D02*
X103720436Y-123062989D01*
X92410000Y-105090000D02*
X92406000Y-105094000D01*
X92406000Y-105094000D02*
X87541086Y-105094000D01*
X101192973Y-99015788D02*
X101192973Y-100772973D01*
X101192973Y-100772973D02*
X101670000Y-101250000D01*
X102590000Y-120030000D02*
X101960000Y-119400000D01*
X101960000Y-119400000D02*
X89659132Y-119400000D01*
X89659132Y-119400000D02*
X89103144Y-119955988D01*
X109010000Y-109970000D02*
X111041128Y-109970000D01*
X111041128Y-109970000D02*
X111192362Y-110121234D01*
X104753547Y-125383395D02*
X103720436Y-123062989D01*
X113718448Y-109855732D02*
X111192362Y-110121234D01*
X101721068Y-96531294D02*
X101192973Y-99015788D01*
X85341381Y-103824000D02*
X87541086Y-105094000D01*
X87215556Y-121655579D02*
X89103144Y-119955988D01*
X108730000Y-104860000D02*
X108440000Y-106680000D01*
X108880000Y-104760000D02*
X108730000Y-104860000D01*
X111620000Y-102980000D02*
X108880000Y-104760000D01*
X111955933Y-102315494D02*
X111620000Y-102980000D01*
X112961634Y-101567420D02*
X111955933Y-102315494D01*
X104089200Y-122275600D02*
X103911400Y-122199400D01*
X106299000Y-126542800D02*
X104089200Y-122275600D01*
X106172000Y-127838200D02*
X106299000Y-126542800D01*
X102478223Y-123539830D02*
X103263126Y-125955514D01*
X111262000Y-111450000D02*
X108722000Y-111450000D01*
X113802000Y-111450000D02*
X111262000Y-111450000D01*
X103263126Y-96944486D02*
X102478223Y-99360170D01*
X86210874Y-102485100D02*
X88265777Y-103978074D01*
X86210874Y-120414900D02*
X88265777Y-118921926D01*
X97910000Y-123750000D02*
X97750000Y-127000000D01*
X97680000Y-122330000D02*
X97910000Y-123750000D01*
X102810000Y-122550000D02*
X102520000Y-121520000D01*
X88280000Y-118130000D02*
X88790000Y-118220000D01*
X87547081Y-118542919D02*
X88280000Y-118130000D01*
X87547081Y-118542919D02*
X84920000Y-120290000D01*
X89080000Y-119110000D02*
X89250000Y-118940000D01*
X89080000Y-119110000D02*
X87790000Y-120320000D01*
X82460000Y-112980000D02*
X82530000Y-113960000D01*
X82570000Y-112590000D02*
X82460000Y-112980000D01*
X83030000Y-112390000D02*
X82570000Y-112590000D01*
X86300000Y-112100000D02*
X83030000Y-112390000D01*
X87910000Y-112420000D02*
X86300000Y-112100000D01*
X86440000Y-109550000D02*
X84529012Y-109250000D01*
X88770000Y-109550000D02*
X86440000Y-109550000D01*
X99200000Y-99200000D02*
X99410000Y-95130000D01*
X99410000Y-100530000D02*
X99200000Y-99200000D01*
X97920000Y-99270000D02*
X97840000Y-97660000D01*
X96700000Y-101000000D02*
X97920000Y-99270000D01*
X110760000Y-110800000D02*
X112370000Y-110670000D01*
X109430000Y-110570000D02*
X110760000Y-110800000D01*
X114260000Y-112280000D02*
X114510000Y-112300000D01*
X110760000Y-112100000D02*
X114260000Y-112280000D01*
X109420000Y-112320000D02*
X110760000Y-112100000D01*
M02*
