M48
;DRILL file {KiCad 4.0.6} date 02/04/18 21:03:35
;FORMAT={-:-/ absolute / metric / decimal}
FMAT,2
METRIC,TZ
T1C0.254
T2C0.300
T3C0.650
%
G90
G05
M71
T1
X82.53Y-113.96
X84.529Y-109.25
X84.92Y-120.29
X87.79Y-120.32
X87.91Y-112.42
X88.14Y-113.28
X88.77Y-109.55
X88.79Y-118.22
X89.22Y-113.52
X89.245Y-109.87
X89.25Y-118.94
X90.55Y-116.34
X90.73Y-115.82
X91.37Y-114.87
X91.85Y-102.96
X91.85Y-114.39
X92.41Y-105.09
X92.524Y-118.417
X92.75Y-105.6
X93.03Y-112.22
X93.05Y-113.22
X93.05Y-113.73
X93.09Y-110.72
X94.32Y-127.18
X94.77Y-105.42
X95.86Y-116.9
X96.39Y-116.9
X96.7Y-101.
X96.93Y-116.91
X97.22Y-120.51
X97.46Y-116.93
X97.68Y-118.18
X97.68Y-122.33
X97.688Y-104.42
X97.75Y-127.
X97.84Y-97.66
X98.42Y-116.93
X98.67Y-111.47
X99.41Y-95.13
X99.41Y-100.53
X99.44Y-118.18
X99.92Y-116.93
X100.42Y-120.22
X100.66Y-101.18
X100.914Y-116.637
X101.092Y-117.958
X101.46Y-118.51
X101.67Y-101.25
X101.93Y-118.008
X101.93Y-122.758
X102.09Y-121.08
X102.21Y-107.747
X102.52Y-121.52
X102.59Y-120.03
X102.64Y-118.1
X102.67Y-101.36
X102.67Y-103.78
X102.81Y-122.55
X103.05Y-121.11
X103.63Y-105.76
X103.81Y-115.05
X103.911Y-122.199
X104.08Y-110.82
X104.12Y-111.63
X104.15Y-126.
X104.5Y-113.29
X104.65Y-115.79
X104.82Y-104.13
X105.45Y-102.49
X105.64Y-118.54
X105.76Y-108.51
X106.97Y-118.11
X107.43Y-115.69
X107.45Y-117.6
X107.79Y-114.39
X107.96Y-109.05
X108.42Y-116.07
X108.44Y-106.68
X108.94Y-112.92
X109.01Y-108.88
X109.01Y-109.97
X109.42Y-112.32
X109.43Y-110.57
X112.37Y-110.67
X114.51Y-112.3
T2
X83.298Y-111.45
X83.382Y-109.856
X83.382Y-113.044
X83.631Y-108.279
X83.631Y-114.621
X84.044Y-106.737
X84.044Y-116.163
X84.617Y-105.246
X84.617Y-117.654
X85.341Y-103.824
X85.341Y-119.076
X85.838Y-111.45
X85.908Y-110.121
X85.908Y-112.779
X86.116Y-108.807
X86.116Y-114.093
X86.211Y-102.485
X86.211Y-120.415
X86.46Y-107.522
X86.46Y-115.378
X86.937Y-106.28
X86.937Y-116.62
X87.216Y-101.244
X87.216Y-121.656
X87.541Y-105.094
X87.541Y-117.806
X88.266Y-103.978
X88.266Y-118.922
X88.344Y-100.116
X88.344Y-122.784
X88.378Y-111.45
X89.103Y-102.944
X89.103Y-119.956
X89.585Y-99.111
X89.585Y-123.789
X89.741Y-106.364
X89.741Y-116.536
X90.044Y-102.003
X90.044Y-120.897
X90.924Y-98.241
X90.924Y-124.659
X91.078Y-101.166
X91.078Y-121.734
X92.194Y-100.441
X92.194Y-122.459
X92.346Y-97.517
X92.346Y-125.383
X93.38Y-99.837
X93.38Y-123.063
X93.464Y-102.641
X93.464Y-120.259
X93.837Y-96.944
X93.837Y-125.956
X94.622Y-99.36
X94.622Y-123.54
X94.705Y-106.883
X95.379Y-96.531
X95.379Y-126.369
X95.907Y-99.016
X95.907Y-123.884
X96.956Y-96.282
X96.956Y-126.618
X97.221Y-98.808
X97.221Y-124.092
X97.67Y-110.47
X97.67Y-111.47
X97.67Y-112.47
X98.55Y-96.198
X98.55Y-98.738
X98.55Y-101.278
X98.55Y-121.622
X98.55Y-124.162
X98.55Y-126.702
X98.67Y-110.47
X98.67Y-111.47
X98.67Y-112.47
X99.67Y-110.47
X99.67Y-111.47
X99.67Y-112.47
X99.879Y-98.808
X99.879Y-124.092
X100.144Y-96.282
X100.144Y-126.618
X101.193Y-99.016
X101.193Y-123.884
X101.721Y-96.531
X101.721Y-126.369
X102.478Y-99.36
X102.478Y-123.54
X103.263Y-96.944
X103.263Y-125.956
X103.636Y-102.641
X103.636Y-120.259
X103.72Y-99.837
X103.72Y-123.063
X104.754Y-97.517
X104.754Y-125.383
X104.906Y-100.441
X104.906Y-122.459
X106.022Y-101.166
X106.022Y-121.734
X106.176Y-98.241
X106.176Y-124.659
X107.056Y-102.003
X107.056Y-120.897
X107.359Y-106.364
X107.359Y-116.536
X107.515Y-99.111
X107.515Y-123.789
X107.997Y-102.944
X107.997Y-119.956
X108.722Y-111.45
X108.756Y-100.116
X108.756Y-122.784
X108.834Y-103.978
X108.834Y-118.922
X109.559Y-105.094
X109.559Y-117.806
X109.884Y-101.244
X109.884Y-121.656
X110.163Y-106.28
X110.163Y-116.62
X110.64Y-107.522
X110.64Y-115.378
X110.889Y-102.485
X110.889Y-120.415
X110.984Y-108.807
X110.984Y-114.093
X111.192Y-110.121
X111.192Y-112.779
X111.262Y-111.45
X111.759Y-103.824
X111.759Y-119.076
X112.483Y-105.246
X112.483Y-117.654
X113.056Y-106.737
X113.056Y-116.163
X113.469Y-108.279
X113.469Y-114.621
X113.718Y-109.856
X113.718Y-113.044
X113.802Y-111.45
T3
X105.04Y-128.389
X106.172Y-127.813
X107.304Y-127.236
X108.435Y-126.66
T0
M30
