G04 #@! TF.FileFunction,Legend,Top*
%FSLAX46Y46*%
G04 Gerber Fmt 4.6, Leading zero omitted, Abs format (unit mm)*
G04 Created by KiCad (PCBNEW 4.0.6) date 08/27/17 16:41:40*
%MOMM*%
%LPD*%
G01*
G04 APERTURE LIST*
%ADD10C,0.100000*%
%ADD11C,0.254000*%
%ADD12C,0.150000*%
G04 APERTURE END LIST*
D10*
X93400000Y-106241429D02*
X93400000Y-105641429D01*
X93628572Y-105641429D01*
X93685714Y-105670000D01*
X93714286Y-105698571D01*
X93742857Y-105755714D01*
X93742857Y-105841429D01*
X93714286Y-105898571D01*
X93685714Y-105927143D01*
X93628572Y-105955714D01*
X93400000Y-105955714D01*
X94000000Y-106241429D02*
X94000000Y-105641429D01*
X94200000Y-106070000D01*
X94400000Y-105641429D01*
X94400000Y-106241429D01*
D11*
X89687829Y-112065157D02*
X89930001Y-112065157D01*
X90051086Y-112004614D01*
X90111629Y-111944071D01*
X90232715Y-111762443D01*
X90293258Y-111520271D01*
X90293258Y-111035929D01*
X90232715Y-110914843D01*
X90172172Y-110854300D01*
X90051086Y-110793757D01*
X89808915Y-110793757D01*
X89687829Y-110854300D01*
X89627286Y-110914843D01*
X89566743Y-111035929D01*
X89566743Y-111338643D01*
X89627286Y-111459729D01*
X89687829Y-111520271D01*
X89808915Y-111580814D01*
X90051086Y-111580814D01*
X90172172Y-111520271D01*
X90232715Y-111459729D01*
X90293258Y-111338643D01*
X98812172Y-119323757D02*
X98570001Y-119323757D01*
X98448915Y-119384300D01*
X98388372Y-119444843D01*
X98267286Y-119626471D01*
X98206743Y-119868643D01*
X98206743Y-120352986D01*
X98267286Y-120474071D01*
X98327829Y-120534614D01*
X98448915Y-120595157D01*
X98691086Y-120595157D01*
X98812172Y-120534614D01*
X98872715Y-120474071D01*
X98933258Y-120352986D01*
X98933258Y-120050271D01*
X98872715Y-119929186D01*
X98812172Y-119868643D01*
X98691086Y-119808100D01*
X98448915Y-119808100D01*
X98327829Y-119868643D01*
X98267286Y-119929186D01*
X98206743Y-120050271D01*
X106546201Y-110743757D02*
X107333258Y-110743757D01*
X106909458Y-111228100D01*
X107091086Y-111228100D01*
X107212172Y-111288643D01*
X107272715Y-111349186D01*
X107333258Y-111470271D01*
X107333258Y-111772986D01*
X107272715Y-111894071D01*
X107212172Y-111954614D01*
X107091086Y-112015157D01*
X106727829Y-112015157D01*
X106606743Y-111954614D01*
X106546201Y-111894071D01*
X98307829Y-103785157D02*
X97581314Y-103785157D01*
X97944572Y-103785157D02*
X97944572Y-102513757D01*
X97823486Y-102695386D01*
X97702400Y-102816471D01*
X97581314Y-102877014D01*
X98792171Y-102634843D02*
X98852714Y-102574300D01*
X98973800Y-102513757D01*
X99276514Y-102513757D01*
X99397600Y-102574300D01*
X99458143Y-102634843D01*
X99518686Y-102755929D01*
X99518686Y-102877014D01*
X99458143Y-103058643D01*
X98731629Y-103785157D01*
X99518686Y-103785157D01*
D12*
X103751192Y-101841271D02*
X104270808Y-102141271D01*
X104270808Y-102141271D02*
X104011000Y-101991271D01*
X104011000Y-101991271D02*
X104136000Y-101774765D01*
X98250000Y-100528000D02*
X98850000Y-100528000D01*
X98850000Y-100528000D02*
X98550000Y-100528000D01*
X98550000Y-100528000D02*
X98550000Y-100278000D01*
X92829192Y-102141271D02*
X93348808Y-101841271D01*
X93348808Y-101841271D02*
X93089000Y-101991271D01*
X93089000Y-101991271D02*
X92964000Y-101774765D01*
X88941271Y-106248808D02*
X89241271Y-105729192D01*
X89241271Y-105729192D02*
X89091271Y-105989000D01*
X89091271Y-105989000D02*
X88874765Y-105864000D01*
X87628000Y-111750000D02*
X87628000Y-111150000D01*
X87628000Y-111150000D02*
X87628000Y-111450000D01*
X87628000Y-111450000D02*
X87378000Y-111450000D01*
X89241271Y-117170807D02*
X88941271Y-116651191D01*
X88941271Y-116651191D02*
X89091271Y-116910999D01*
X89091271Y-116910999D02*
X88874765Y-117035999D01*
X93348809Y-121058729D02*
X92829193Y-120758729D01*
X92829193Y-120758729D02*
X93089001Y-120908729D01*
X93089001Y-120908729D02*
X92964001Y-121125235D01*
X98850000Y-122372000D02*
X98250000Y-122372000D01*
X98250000Y-122372000D02*
X98550000Y-122372000D01*
X98550000Y-122372000D02*
X98550000Y-122622000D01*
X104270808Y-120758729D02*
X103751192Y-121058729D01*
X103751192Y-121058729D02*
X104011000Y-120908729D01*
X104011000Y-120908729D02*
X104136000Y-121125235D01*
X108158729Y-116651191D02*
X107858729Y-117170807D01*
X107858729Y-117170807D02*
X108008729Y-116910999D01*
X108008729Y-116910999D02*
X108225235Y-117035999D01*
X109472000Y-111150000D02*
X109472000Y-111750000D01*
X109472000Y-111750000D02*
X109472000Y-111450000D01*
X109472000Y-111450000D02*
X109722000Y-111450000D01*
X111906894Y-109744481D02*
X111969612Y-110341195D01*
X111969612Y-110341195D02*
X111938253Y-110042838D01*
X111938253Y-110042838D02*
X112186883Y-110016706D01*
X111655449Y-108357649D02*
X111780197Y-108944537D01*
X111780197Y-108944537D02*
X111717823Y-108651093D01*
X111717823Y-108651093D02*
X111962360Y-108599115D01*
X111260417Y-107004697D02*
X111445827Y-107575331D01*
X111445827Y-107575331D02*
X111353122Y-107290014D01*
X111353122Y-107290014D02*
X111590886Y-107212760D01*
X110726127Y-105700448D02*
X110970169Y-106248576D01*
X110970169Y-106248576D02*
X110848148Y-105974512D01*
X110848148Y-105974512D02*
X111076534Y-105872828D01*
X110058433Y-104459192D02*
X110358433Y-104978808D01*
X110358433Y-104978808D02*
X110208433Y-104719000D01*
X110208433Y-104719000D02*
X110424939Y-104594000D01*
X109264650Y-103294530D02*
X109617322Y-103779940D01*
X109617322Y-103779940D02*
X109440986Y-103537235D01*
X109440986Y-103537235D02*
X109643240Y-103390289D01*
X108353476Y-102219221D02*
X108754954Y-102665107D01*
X108754954Y-102665107D02*
X108554215Y-102442164D01*
X108554215Y-102442164D02*
X108740001Y-102274881D01*
X107334893Y-101245046D02*
X107780779Y-101646524D01*
X107780779Y-101646524D02*
X107557836Y-101445785D01*
X107557836Y-101445785D02*
X107725119Y-101259999D01*
X106220060Y-100382678D02*
X106705470Y-100735350D01*
X106705470Y-100735350D02*
X106462765Y-100559014D01*
X106462765Y-100559014D02*
X106609711Y-100356760D01*
X105021192Y-99641567D02*
X105540808Y-99941567D01*
X105540808Y-99941567D02*
X105281000Y-99791567D01*
X105281000Y-99791567D02*
X105406000Y-99575061D01*
X103751424Y-99029831D02*
X104299552Y-99273873D01*
X104299552Y-99273873D02*
X104025488Y-99151852D01*
X104025488Y-99151852D02*
X104127172Y-98923466D01*
X102424669Y-98554173D02*
X102995303Y-98739583D01*
X102995303Y-98739583D02*
X102709986Y-98646878D01*
X102709986Y-98646878D02*
X102787240Y-98409114D01*
X114432980Y-109478979D02*
X114495698Y-110075693D01*
X114495698Y-110075693D02*
X114464339Y-109777336D01*
X114464339Y-109777336D02*
X114712969Y-109751204D01*
X114139943Y-107829554D02*
X114264691Y-108416442D01*
X114264691Y-108416442D02*
X114202317Y-108122998D01*
X114202317Y-108122998D02*
X114446854Y-108071020D01*
X113676101Y-106219794D02*
X113861511Y-106790428D01*
X113861511Y-106790428D02*
X113768806Y-106505111D01*
X113768806Y-106505111D02*
X114006570Y-106427857D01*
X113046533Y-104667337D02*
X113290575Y-105215465D01*
X113290575Y-105215465D02*
X113168554Y-104941401D01*
X113168554Y-104941401D02*
X113396940Y-104839717D01*
X112258138Y-103189192D02*
X112558138Y-103708808D01*
X112558138Y-103708808D02*
X112408138Y-103449000D01*
X112408138Y-103449000D02*
X112624644Y-103324000D01*
X111319553Y-101801556D02*
X111672225Y-102286966D01*
X111672225Y-102286966D02*
X111495889Y-102044261D01*
X111495889Y-102044261D02*
X111698143Y-101897315D01*
X110241064Y-100519630D02*
X110642542Y-100965516D01*
X110642542Y-100965516D02*
X110441803Y-100742573D01*
X110441803Y-100742573D02*
X110627589Y-100575290D01*
X109034484Y-99357458D02*
X109480370Y-99758936D01*
X109480370Y-99758936D02*
X109257427Y-99558197D01*
X109257427Y-99558197D02*
X109424710Y-99372411D01*
X107713034Y-98327775D02*
X108198444Y-98680447D01*
X108198444Y-98680447D02*
X107955739Y-98504111D01*
X107955739Y-98504111D02*
X108102685Y-98301857D01*
X106291192Y-97441862D02*
X106810808Y-97741862D01*
X106810808Y-97741862D02*
X106551000Y-97591862D01*
X106551000Y-97591862D02*
X106676000Y-97375356D01*
X104784535Y-96709425D02*
X105332663Y-96953467D01*
X105332663Y-96953467D02*
X105058599Y-96831446D01*
X105058599Y-96831446D02*
X105160283Y-96603060D01*
X103209572Y-96138489D02*
X103780206Y-96323899D01*
X103780206Y-96323899D02*
X103494889Y-96231194D01*
X103494889Y-96231194D02*
X103572143Y-95993430D01*
X101055463Y-98219803D02*
X101642351Y-98344551D01*
X101642351Y-98344551D02*
X101348907Y-98282177D01*
X101348907Y-98282177D02*
X101400885Y-98037640D01*
X99658805Y-98030388D02*
X100255519Y-98093106D01*
X100255519Y-98093106D02*
X99957162Y-98061747D01*
X99957162Y-98061747D02*
X99983294Y-97813117D01*
X98250000Y-97988000D02*
X98850000Y-97988000D01*
X98850000Y-97988000D02*
X98550000Y-97988000D01*
X98550000Y-97988000D02*
X98550000Y-97738000D01*
X96844481Y-98093106D02*
X97441195Y-98030388D01*
X97441195Y-98030388D02*
X97142838Y-98061747D01*
X97142838Y-98061747D02*
X97116706Y-97813117D01*
X95457649Y-98344551D02*
X96044537Y-98219803D01*
X96044537Y-98219803D02*
X95751093Y-98282177D01*
X95751093Y-98282177D02*
X95699115Y-98037640D01*
X94104697Y-98739583D02*
X94675331Y-98554173D01*
X94675331Y-98554173D02*
X94390014Y-98646878D01*
X94390014Y-98646878D02*
X94312760Y-98409114D01*
X92800448Y-99273873D02*
X93348576Y-99029831D01*
X93348576Y-99029831D02*
X93074512Y-99151852D01*
X93074512Y-99151852D02*
X92972828Y-98923466D01*
X91559192Y-99941567D02*
X92078808Y-99641567D01*
X92078808Y-99641567D02*
X91819000Y-99791567D01*
X91819000Y-99791567D02*
X91694000Y-99575061D01*
X90394530Y-100735350D02*
X90879940Y-100382678D01*
X90879940Y-100382678D02*
X90637235Y-100559014D01*
X90637235Y-100559014D02*
X90490289Y-100356760D01*
X89319221Y-101646524D02*
X89765107Y-101245046D01*
X89765107Y-101245046D02*
X89542164Y-101445785D01*
X89542164Y-101445785D02*
X89374881Y-101259999D01*
X88345046Y-102665107D02*
X88746524Y-102219221D01*
X88746524Y-102219221D02*
X88545785Y-102442164D01*
X88545785Y-102442164D02*
X88359999Y-102274881D01*
X87482678Y-103779940D02*
X87835350Y-103294530D01*
X87835350Y-103294530D02*
X87659014Y-103537235D01*
X87659014Y-103537235D02*
X87456760Y-103390289D01*
X101583558Y-95735309D02*
X102170446Y-95860057D01*
X102170446Y-95860057D02*
X101877002Y-95797683D01*
X101877002Y-95797683D02*
X101928980Y-95553146D01*
X99924307Y-95504302D02*
X100521021Y-95567020D01*
X100521021Y-95567020D02*
X100222664Y-95535661D01*
X100222664Y-95535661D02*
X100248796Y-95287031D01*
X98250000Y-95448000D02*
X98850000Y-95448000D01*
X98850000Y-95448000D02*
X98550000Y-95448000D01*
X98550000Y-95448000D02*
X98550000Y-95198000D01*
X96578979Y-95567020D02*
X97175693Y-95504302D01*
X97175693Y-95504302D02*
X96877336Y-95535661D01*
X96877336Y-95535661D02*
X96851204Y-95287031D01*
X94929554Y-95860057D02*
X95516442Y-95735309D01*
X95516442Y-95735309D02*
X95222998Y-95797683D01*
X95222998Y-95797683D02*
X95171020Y-95553146D01*
X90289192Y-97741862D02*
X90808808Y-97441862D01*
X90808808Y-97441862D02*
X90549000Y-97591862D01*
X90549000Y-97591862D02*
X90424000Y-97375356D01*
X87619630Y-99758936D02*
X88065516Y-99357458D01*
X88065516Y-99357458D02*
X87842573Y-99558197D01*
X87842573Y-99558197D02*
X87675290Y-99372411D01*
X86457458Y-100965516D02*
X86858936Y-100519630D01*
X86858936Y-100519630D02*
X86658197Y-100742573D01*
X86658197Y-100742573D02*
X86472411Y-100575290D01*
X85427775Y-102286966D02*
X85780447Y-101801556D01*
X85780447Y-101801556D02*
X85604111Y-102044261D01*
X85604111Y-102044261D02*
X85401857Y-101897315D01*
X86741567Y-104978808D02*
X87041567Y-104459192D01*
X87041567Y-104459192D02*
X86891567Y-104719000D01*
X86891567Y-104719000D02*
X86675061Y-104594000D01*
X86129831Y-106248576D02*
X86373873Y-105700448D01*
X86373873Y-105700448D02*
X86251852Y-105974512D01*
X86251852Y-105974512D02*
X86023466Y-105872828D01*
X85654173Y-107575331D02*
X85839583Y-107004697D01*
X85839583Y-107004697D02*
X85746878Y-107290014D01*
X85746878Y-107290014D02*
X85509114Y-107212760D01*
X85319803Y-108944537D02*
X85444551Y-108357649D01*
X85444551Y-108357649D02*
X85382177Y-108651093D01*
X85382177Y-108651093D02*
X85137640Y-108599115D01*
X85130388Y-110341195D02*
X85193106Y-109744481D01*
X85193106Y-109744481D02*
X85161747Y-110042838D01*
X85161747Y-110042838D02*
X84913117Y-110016706D01*
X85088000Y-111750000D02*
X85088000Y-111150000D01*
X85088000Y-111150000D02*
X85088000Y-111450000D01*
X85088000Y-111450000D02*
X84838000Y-111450000D01*
X85193106Y-113155519D02*
X85130388Y-112558805D01*
X85130388Y-112558805D02*
X85161747Y-112857162D01*
X85161747Y-112857162D02*
X84913117Y-112883294D01*
X85444551Y-114542351D02*
X85319803Y-113955463D01*
X85319803Y-113955463D02*
X85382177Y-114248907D01*
X85382177Y-114248907D02*
X85137640Y-114300885D01*
X85839583Y-115895303D02*
X85654173Y-115324669D01*
X85654173Y-115324669D02*
X85746878Y-115609986D01*
X85746878Y-115609986D02*
X85509114Y-115687240D01*
X86373873Y-117199552D02*
X86129831Y-116651424D01*
X86129831Y-116651424D02*
X86251852Y-116925488D01*
X86251852Y-116925488D02*
X86023466Y-117027172D01*
X87041567Y-118440807D02*
X86741567Y-117921191D01*
X86741567Y-117921191D02*
X86891567Y-118180999D01*
X86891567Y-118180999D02*
X86675061Y-118305999D01*
X87835350Y-119605470D02*
X87482678Y-119120060D01*
X87482678Y-119120060D02*
X87659014Y-119362765D01*
X87659014Y-119362765D02*
X87456760Y-119509711D01*
X83809425Y-105215465D02*
X84053467Y-104667337D01*
X84053467Y-104667337D02*
X83931446Y-104941401D01*
X83931446Y-104941401D02*
X83703060Y-104839717D01*
X83238489Y-106790428D02*
X83423899Y-106219794D01*
X83423899Y-106219794D02*
X83331194Y-106505111D01*
X83331194Y-106505111D02*
X83093430Y-106427857D01*
X82604302Y-110075693D02*
X82667020Y-109478979D01*
X82667020Y-109478979D02*
X82635661Y-109777336D01*
X82635661Y-109777336D02*
X82387031Y-109751204D01*
X82548000Y-111750000D02*
X82548000Y-111150000D01*
X82548000Y-111150000D02*
X82548000Y-111450000D01*
X82548000Y-111450000D02*
X82298000Y-111450000D01*
X82667020Y-113421021D02*
X82604302Y-112824307D01*
X82604302Y-112824307D02*
X82635661Y-113122664D01*
X82635661Y-113122664D02*
X82387031Y-113148796D01*
X82960057Y-115070446D02*
X82835309Y-114483558D01*
X82835309Y-114483558D02*
X82897683Y-114777002D01*
X82897683Y-114777002D02*
X82653146Y-114828980D01*
X83423899Y-116680206D02*
X83238489Y-116109572D01*
X83238489Y-116109572D02*
X83331194Y-116394889D01*
X83331194Y-116394889D02*
X83093430Y-116472143D01*
X84053467Y-118232663D02*
X83809425Y-117684535D01*
X83809425Y-117684535D02*
X83931446Y-117958599D01*
X83931446Y-117958599D02*
X83703060Y-118060283D01*
X84841862Y-119710807D02*
X84541862Y-119191191D01*
X84541862Y-119191191D02*
X84691862Y-119450999D01*
X84691862Y-119450999D02*
X84475356Y-119575999D01*
X85780447Y-121098444D02*
X85427775Y-120613034D01*
X85427775Y-120613034D02*
X85604111Y-120855739D01*
X85604111Y-120855739D02*
X85401857Y-121002685D01*
X88746524Y-120680779D02*
X88345046Y-120234893D01*
X88345046Y-120234893D02*
X88545785Y-120457836D01*
X88545785Y-120457836D02*
X88359999Y-120625119D01*
X89765107Y-121654954D02*
X89319221Y-121253476D01*
X89319221Y-121253476D02*
X89542164Y-121454215D01*
X89542164Y-121454215D02*
X89374881Y-121640001D01*
X90879940Y-122517322D02*
X90394530Y-122164650D01*
X90394530Y-122164650D02*
X90637235Y-122340986D01*
X90637235Y-122340986D02*
X90490289Y-122543240D01*
X92078809Y-123258433D02*
X91559193Y-122958433D01*
X91559193Y-122958433D02*
X91819001Y-123108433D01*
X91819001Y-123108433D02*
X91694001Y-123324939D01*
X93348576Y-123870169D02*
X92800448Y-123626127D01*
X92800448Y-123626127D02*
X93074512Y-123748148D01*
X93074512Y-123748148D02*
X92972828Y-123976534D01*
X94675331Y-124345827D02*
X94104697Y-124160417D01*
X94104697Y-124160417D02*
X94390014Y-124253122D01*
X94390014Y-124253122D02*
X94312760Y-124490886D01*
X96044537Y-124680197D02*
X95457649Y-124555449D01*
X95457649Y-124555449D02*
X95751093Y-124617823D01*
X95751093Y-124617823D02*
X95699115Y-124862360D01*
X97441195Y-124869612D02*
X96844481Y-124806894D01*
X96844481Y-124806894D02*
X97142838Y-124838253D01*
X97142838Y-124838253D02*
X97116706Y-125086883D01*
X98850000Y-124912000D02*
X98250000Y-124912000D01*
X98250000Y-124912000D02*
X98550000Y-124912000D01*
X98550000Y-124912000D02*
X98550000Y-125162000D01*
X100255519Y-124806894D02*
X99658805Y-124869612D01*
X99658805Y-124869612D02*
X99957162Y-124838253D01*
X99957162Y-124838253D02*
X99983294Y-125086883D01*
X101642351Y-124555449D02*
X101055463Y-124680197D01*
X101055463Y-124680197D02*
X101348907Y-124617823D01*
X101348907Y-124617823D02*
X101400885Y-124862360D01*
X102995303Y-124160417D02*
X102424669Y-124345827D01*
X102424669Y-124345827D02*
X102709986Y-124253122D01*
X102709986Y-124253122D02*
X102787240Y-124490886D01*
X86858936Y-122380370D02*
X86457458Y-121934484D01*
X86457458Y-121934484D02*
X86658197Y-122157427D01*
X86658197Y-122157427D02*
X86472411Y-122324710D01*
X88065516Y-123542542D02*
X87619630Y-123141064D01*
X87619630Y-123141064D02*
X87842573Y-123341803D01*
X87842573Y-123341803D02*
X87675290Y-123527589D01*
X89386966Y-124572225D02*
X88901556Y-124219553D01*
X88901556Y-124219553D02*
X89144261Y-124395889D01*
X89144261Y-124395889D02*
X88997315Y-124598143D01*
X90808809Y-125458138D02*
X90289193Y-125158138D01*
X90289193Y-125158138D02*
X90549001Y-125308138D01*
X90549001Y-125308138D02*
X90424001Y-125524644D01*
X92315465Y-126190575D02*
X91767337Y-125946533D01*
X91767337Y-125946533D02*
X92041401Y-126068554D01*
X92041401Y-126068554D02*
X91939717Y-126296940D01*
X95516442Y-127164691D02*
X94929554Y-127039943D01*
X94929554Y-127039943D02*
X95222998Y-127102317D01*
X95222998Y-127102317D02*
X95171020Y-127346854D01*
X97175693Y-127395698D02*
X96578979Y-127332980D01*
X96578979Y-127332980D02*
X96877336Y-127364339D01*
X96877336Y-127364339D02*
X96851204Y-127612969D01*
X98850000Y-127452000D02*
X98250000Y-127452000D01*
X98250000Y-127452000D02*
X98550000Y-127452000D01*
X98550000Y-127452000D02*
X98550000Y-127702000D01*
X100521021Y-127332980D02*
X99924307Y-127395698D01*
X99924307Y-127395698D02*
X100222664Y-127364339D01*
X100222664Y-127364339D02*
X100248796Y-127612969D01*
X102170446Y-127039943D02*
X101583558Y-127164691D01*
X101583558Y-127164691D02*
X101877002Y-127102317D01*
X101877002Y-127102317D02*
X101928980Y-127346854D01*
X103780206Y-126576101D02*
X103209572Y-126761511D01*
X103209572Y-126761511D02*
X103494889Y-126668806D01*
X103494889Y-126668806D02*
X103572143Y-126906570D01*
X105540808Y-122958433D02*
X105021192Y-123258433D01*
X105021192Y-123258433D02*
X105281000Y-123108433D01*
X105281000Y-123108433D02*
X105406000Y-123324939D01*
X106705470Y-122164650D02*
X106220060Y-122517322D01*
X106220060Y-122517322D02*
X106462765Y-122340986D01*
X106462765Y-122340986D02*
X106609711Y-122543240D01*
X108754954Y-120234893D02*
X108353476Y-120680779D01*
X108353476Y-120680779D02*
X108554215Y-120457836D01*
X108554215Y-120457836D02*
X108740001Y-120625119D01*
X110358433Y-117921191D02*
X110058433Y-118440807D01*
X110058433Y-118440807D02*
X110208433Y-118180999D01*
X110208433Y-118180999D02*
X110424939Y-118305999D01*
X110970169Y-116651424D02*
X110726127Y-117199552D01*
X110726127Y-117199552D02*
X110848148Y-116925488D01*
X110848148Y-116925488D02*
X111076534Y-117027172D01*
X111445827Y-115324669D02*
X111260417Y-115895303D01*
X111260417Y-115895303D02*
X111353122Y-115609986D01*
X111353122Y-115609986D02*
X111590886Y-115687240D01*
X111780197Y-113955463D02*
X111655449Y-114542351D01*
X111655449Y-114542351D02*
X111717823Y-114248907D01*
X111717823Y-114248907D02*
X111962360Y-114300885D01*
X111969612Y-112558805D02*
X111906894Y-113155519D01*
X111906894Y-113155519D02*
X111938253Y-112857162D01*
X111938253Y-112857162D02*
X112186883Y-112883294D01*
X112012000Y-111150000D02*
X112012000Y-111750000D01*
X112012000Y-111750000D02*
X112012000Y-111450000D01*
X112012000Y-111450000D02*
X112262000Y-111450000D01*
X105332663Y-125946533D02*
X104784535Y-126190575D01*
X104784535Y-126190575D02*
X105058599Y-126068554D01*
X105058599Y-126068554D02*
X105160283Y-126296940D01*
X106810808Y-125158138D02*
X106291192Y-125458138D01*
X106291192Y-125458138D02*
X106551000Y-125308138D01*
X106551000Y-125308138D02*
X106676000Y-125524644D01*
X108198444Y-124219553D02*
X107713034Y-124572225D01*
X107713034Y-124572225D02*
X107955739Y-124395889D01*
X107955739Y-124395889D02*
X108102685Y-124598143D01*
X109480370Y-123141064D02*
X109034484Y-123542542D01*
X109034484Y-123542542D02*
X109257427Y-123341803D01*
X109257427Y-123341803D02*
X109424710Y-123527589D01*
X110642542Y-121934484D02*
X110241064Y-122380370D01*
X110241064Y-122380370D02*
X110441803Y-122157427D01*
X110441803Y-122157427D02*
X110627589Y-122324710D01*
X111672225Y-120613034D02*
X111319553Y-121098444D01*
X111319553Y-121098444D02*
X111495889Y-120855739D01*
X111495889Y-120855739D02*
X111698143Y-121002685D01*
X112558138Y-119191191D02*
X112258138Y-119710807D01*
X112258138Y-119710807D02*
X112408138Y-119450999D01*
X112408138Y-119450999D02*
X112624644Y-119575999D01*
X113290575Y-117684535D02*
X113046533Y-118232663D01*
X113046533Y-118232663D02*
X113168554Y-117958599D01*
X113168554Y-117958599D02*
X113396940Y-118060283D01*
X113861511Y-116109572D02*
X113676101Y-116680206D01*
X113676101Y-116680206D02*
X113768806Y-116394889D01*
X113768806Y-116394889D02*
X114006570Y-116472143D01*
X114264691Y-114483558D02*
X114139943Y-115070446D01*
X114139943Y-115070446D02*
X114202317Y-114777002D01*
X114202317Y-114777002D02*
X114446854Y-114828980D01*
X114495698Y-112824307D02*
X114432980Y-113421021D01*
X114432980Y-113421021D02*
X114464339Y-113122664D01*
X114464339Y-113122664D02*
X114712969Y-113148796D01*
X114552000Y-111150000D02*
X114552000Y-111750000D01*
X114552000Y-111750000D02*
X114552000Y-111450000D01*
X114552000Y-111450000D02*
X114802000Y-111450000D01*
X101670000Y-108470000D02*
X101670000Y-114470000D01*
X101670000Y-114470000D02*
X95670000Y-114470000D01*
X95670000Y-114470000D02*
X95670000Y-108470000D01*
X95670000Y-108470000D02*
X101670000Y-108470000D01*
X107858729Y-105729192D02*
X108158729Y-106248808D01*
X108158729Y-106248808D02*
X108008729Y-105989000D01*
X108008729Y-105989000D02*
X108225235Y-105864000D01*
X84541862Y-103708808D02*
X84841862Y-103189192D01*
X84841862Y-103189192D02*
X84691862Y-103449000D01*
X84691862Y-103449000D02*
X84475356Y-103324000D01*
X93890428Y-126761511D02*
X93319794Y-126576101D01*
X93319794Y-126576101D02*
X93605111Y-126668806D01*
X93605111Y-126668806D02*
X93527857Y-126906570D01*
X107780779Y-121253476D02*
X107334893Y-121654954D01*
X107334893Y-121654954D02*
X107557836Y-121454215D01*
X107557836Y-121454215D02*
X107725119Y-121640001D01*
X109617322Y-119120060D02*
X109264650Y-119605470D01*
X109264650Y-119605470D02*
X109440986Y-119362765D01*
X109440986Y-119362765D02*
X109643240Y-119509711D01*
X82835309Y-108416442D02*
X82960057Y-107829554D01*
X82960057Y-107829554D02*
X82897683Y-108122998D01*
X82897683Y-108122998D02*
X82653146Y-108071020D01*
X88901556Y-98680447D02*
X89386966Y-98327775D01*
X89386966Y-98327775D02*
X89144261Y-98504111D01*
X89144261Y-98504111D02*
X88997315Y-98301857D01*
X93319794Y-96323899D02*
X93890428Y-96138489D01*
X93890428Y-96138489D02*
X93605111Y-96231194D01*
X93605111Y-96231194D02*
X93527857Y-95993430D01*
X91767337Y-96953467D02*
X92315465Y-96709425D01*
X92315465Y-96709425D02*
X92041401Y-96831446D01*
X92041401Y-96831446D02*
X91939717Y-96603060D01*
X104299552Y-123626127D02*
X103751424Y-123870169D01*
X103751424Y-123870169D02*
X104025488Y-123748148D01*
X104025488Y-123748148D02*
X104127172Y-123976534D01*
D10*
X93910000Y-106930000D02*
X93785000Y-106930000D01*
X93910000Y-106855000D02*
X93910000Y-107005000D01*
M02*
