G04 #@! TF.FileFunction,Soldermask,Top*
%FSLAX46Y46*%
G04 Gerber Fmt 4.6, Leading zero omitted, Abs format (unit mm)*
G04 Created by KiCad (PCBNEW 4.0.6) date 08/27/17 16:41:40*
%MOMM*%
%LPD*%
G01*
G04 APERTURE LIST*
%ADD10C,0.100000*%
%ADD11R,0.440000X0.640000*%
%ADD12R,0.840000X0.840000*%
%ADD13R,0.640000X0.440000*%
%ADD14R,0.370000X0.940000*%
%ADD15R,0.940000X0.370000*%
%ADD16R,2.940000X2.940000*%
%ADD17C,0.340000*%
%ADD18R,0.640000X0.540000*%
%ADD19R,1.140000X1.940000*%
%ADD20R,0.540000X0.540000*%
%ADD21R,1.040000X1.040000*%
%ADD22O,1.040000X1.040000*%
G04 APERTURE END LIST*
D10*
D11*
X94310000Y-108920000D03*
X93410000Y-108920000D03*
X108530000Y-110570000D03*
X109430000Y-110570000D03*
D10*
G36*
X104539731Y-101915483D02*
X103812269Y-101495483D01*
X104232269Y-100768021D01*
X104959731Y-101188021D01*
X104539731Y-101915483D01*
X104539731Y-101915483D01*
G37*
G36*
X103789731Y-103214521D02*
X103062269Y-102794521D01*
X103482269Y-102067059D01*
X104209731Y-102487059D01*
X103789731Y-103214521D01*
X103789731Y-103214521D01*
G37*
D12*
X98550000Y-99778000D03*
X98550000Y-101278000D03*
D10*
G36*
X93287731Y-101495483D02*
X92560269Y-101915483D01*
X92140269Y-101188021D01*
X92867731Y-100768021D01*
X93287731Y-101495483D01*
X93287731Y-101495483D01*
G37*
G36*
X94037731Y-102794521D02*
X93310269Y-103214521D01*
X92890269Y-102487059D01*
X93617731Y-102067059D01*
X94037731Y-102794521D01*
X94037731Y-102794521D01*
G37*
G36*
X89015483Y-105460269D02*
X88595483Y-106187731D01*
X87868021Y-105767731D01*
X88288021Y-105040269D01*
X89015483Y-105460269D01*
X89015483Y-105460269D01*
G37*
G36*
X90314521Y-106210269D02*
X89894521Y-106937731D01*
X89167059Y-106517731D01*
X89587059Y-105790269D01*
X90314521Y-106210269D01*
X90314521Y-106210269D01*
G37*
D12*
X86878000Y-111450000D03*
X88378000Y-111450000D03*
D10*
G36*
X88595483Y-116712268D02*
X89015483Y-117439730D01*
X88288021Y-117859730D01*
X87868021Y-117132268D01*
X88595483Y-116712268D01*
X88595483Y-116712268D01*
G37*
G36*
X89894521Y-115962268D02*
X90314521Y-116689730D01*
X89587059Y-117109730D01*
X89167059Y-116382268D01*
X89894521Y-115962268D01*
X89894521Y-115962268D01*
G37*
G36*
X92560270Y-120984517D02*
X93287732Y-121404517D01*
X92867732Y-122131979D01*
X92140270Y-121711979D01*
X92560270Y-120984517D01*
X92560270Y-120984517D01*
G37*
G36*
X93310270Y-119685479D02*
X94037732Y-120105479D01*
X93617732Y-120832941D01*
X92890270Y-120412941D01*
X93310270Y-119685479D01*
X93310270Y-119685479D01*
G37*
D12*
X98550000Y-123122000D03*
X98550000Y-121622000D03*
D10*
G36*
X103812269Y-121404517D02*
X104539731Y-120984517D01*
X104959731Y-121711979D01*
X104232269Y-122131979D01*
X103812269Y-121404517D01*
X103812269Y-121404517D01*
G37*
G36*
X103062269Y-120105479D02*
X103789731Y-119685479D01*
X104209731Y-120412941D01*
X103482269Y-120832941D01*
X103062269Y-120105479D01*
X103062269Y-120105479D01*
G37*
G36*
X108084517Y-117439730D02*
X108504517Y-116712268D01*
X109231979Y-117132268D01*
X108811979Y-117859730D01*
X108084517Y-117439730D01*
X108084517Y-117439730D01*
G37*
G36*
X106785479Y-116689730D02*
X107205479Y-115962268D01*
X107932941Y-116382268D01*
X107512941Y-117109730D01*
X106785479Y-116689730D01*
X106785479Y-116689730D01*
G37*
D12*
X110222000Y-111450000D03*
X108722000Y-111450000D03*
D11*
X108520000Y-112320000D03*
X109420000Y-112320000D03*
D10*
G36*
X112310347Y-110426043D02*
X112222543Y-109590645D01*
X113057941Y-109502841D01*
X113145745Y-110338239D01*
X112310347Y-110426043D01*
X112310347Y-110426043D01*
G37*
G36*
X110818565Y-110582835D02*
X110730761Y-109747437D01*
X111566159Y-109659633D01*
X111653963Y-110495031D01*
X110818565Y-110582835D01*
X110818565Y-110582835D01*
G37*
G36*
X112127935Y-108993304D02*
X111953289Y-108171660D01*
X112774933Y-107997014D01*
X112949579Y-108818658D01*
X112127935Y-108993304D01*
X112127935Y-108993304D01*
G37*
G36*
X110660713Y-109305172D02*
X110486067Y-108483528D01*
X111307711Y-108308882D01*
X111482357Y-109130526D01*
X110660713Y-109305172D01*
X110660713Y-109305172D01*
G37*
G36*
X111796757Y-107587482D02*
X111537183Y-106788594D01*
X112336071Y-106529020D01*
X112595645Y-107327908D01*
X111796757Y-107587482D01*
X111796757Y-107587482D01*
G37*
G36*
X110370173Y-108051008D02*
X110110599Y-107252120D01*
X110909487Y-106992546D01*
X111169061Y-107791434D01*
X110370173Y-108051008D01*
X110370173Y-108051008D01*
G37*
G36*
X111320447Y-106223978D02*
X110978789Y-105456600D01*
X111746167Y-105114942D01*
X112087825Y-105882320D01*
X111320447Y-106223978D01*
X111320447Y-106223978D01*
G37*
G36*
X109950129Y-106834082D02*
X109608471Y-106066704D01*
X110375849Y-105725046D01*
X110717507Y-106492424D01*
X109950129Y-106834082D01*
X109950129Y-106834082D01*
G37*
G36*
X110704221Y-104917731D02*
X110284221Y-104190269D01*
X111011683Y-103770269D01*
X111431683Y-104497731D01*
X110704221Y-104917731D01*
X110704221Y-104917731D01*
G37*
G36*
X109405183Y-105667731D02*
X108985183Y-104940269D01*
X109712645Y-104520269D01*
X110132645Y-105247731D01*
X109405183Y-105667731D01*
X109405183Y-105667731D01*
G37*
G36*
X109954832Y-103683053D02*
X109461092Y-103003479D01*
X110140666Y-102509739D01*
X110634406Y-103189313D01*
X109954832Y-103683053D01*
X109954832Y-103683053D01*
G37*
G36*
X108741306Y-104564731D02*
X108247566Y-103885157D01*
X108927140Y-103391417D01*
X109420880Y-104070991D01*
X108741306Y-104564731D01*
X108741306Y-104564731D01*
G37*
G36*
X109080488Y-102533472D02*
X108518418Y-101909230D01*
X109142660Y-101347160D01*
X109704730Y-101971402D01*
X109080488Y-102533472D01*
X109080488Y-102533472D01*
G37*
G36*
X107965770Y-103537168D02*
X107403700Y-102912926D01*
X108027942Y-102350856D01*
X108590012Y-102975098D01*
X107965770Y-103537168D01*
X107965770Y-103537168D01*
G37*
G36*
X108090770Y-101481582D02*
X107466528Y-100919512D01*
X108028598Y-100295270D01*
X108652840Y-100857340D01*
X108090770Y-101481582D01*
X108090770Y-101481582D01*
G37*
G36*
X107087074Y-102596300D02*
X106462832Y-102034230D01*
X107024902Y-101409988D01*
X107649144Y-101972058D01*
X107087074Y-102596300D01*
X107087074Y-102596300D01*
G37*
G36*
X106996521Y-100538908D02*
X106316947Y-100045168D01*
X106810687Y-99365594D01*
X107490261Y-99859334D01*
X106996521Y-100538908D01*
X106996521Y-100538908D01*
G37*
G36*
X106114843Y-101752434D02*
X105435269Y-101258694D01*
X105929009Y-100579120D01*
X106608583Y-101072860D01*
X106114843Y-101752434D01*
X106114843Y-101752434D01*
G37*
G36*
X105809731Y-99715779D02*
X105082269Y-99295779D01*
X105502269Y-98568317D01*
X106229731Y-98988317D01*
X105809731Y-99715779D01*
X105809731Y-99715779D01*
G37*
G36*
X105059731Y-101014817D02*
X104332269Y-100594817D01*
X104752269Y-99867355D01*
X105479731Y-100287355D01*
X105059731Y-101014817D01*
X105059731Y-101014817D01*
G37*
G36*
X104543400Y-99021211D02*
X103776022Y-98679553D01*
X104117680Y-97912175D01*
X104885058Y-98253833D01*
X104543400Y-99021211D01*
X104543400Y-99021211D01*
G37*
G36*
X103933296Y-100391529D02*
X103165918Y-100049871D01*
X103507576Y-99282493D01*
X104274954Y-99624151D01*
X103933296Y-100391529D01*
X103933296Y-100391529D01*
G37*
G36*
X103211406Y-98462817D02*
X102412518Y-98203243D01*
X102672092Y-97404355D01*
X103470980Y-97663929D01*
X103211406Y-98462817D01*
X103211406Y-98462817D01*
G37*
G36*
X102747880Y-99889401D02*
X101948992Y-99629827D01*
X102208566Y-98830939D01*
X103007454Y-99090513D01*
X102747880Y-99889401D01*
X102747880Y-99889401D01*
G37*
D13*
X97520000Y-101900000D03*
X97520000Y-101000000D03*
D10*
G36*
X114836433Y-110160541D02*
X114748629Y-109325143D01*
X115584027Y-109237339D01*
X115671831Y-110072737D01*
X114836433Y-110160541D01*
X114836433Y-110160541D01*
G37*
G36*
X113344651Y-110317333D02*
X113256847Y-109481935D01*
X114092245Y-109394131D01*
X114180049Y-110229529D01*
X113344651Y-110317333D01*
X113344651Y-110317333D01*
G37*
G36*
X114612429Y-108465209D02*
X114437783Y-107643565D01*
X115259427Y-107468919D01*
X115434073Y-108290563D01*
X114612429Y-108465209D01*
X114612429Y-108465209D01*
G37*
G36*
X113145207Y-108777077D02*
X112970561Y-107955433D01*
X113792205Y-107780787D01*
X113966851Y-108602431D01*
X113145207Y-108777077D01*
X113145207Y-108777077D01*
G37*
G36*
X114212441Y-106802579D02*
X113952867Y-106003691D01*
X114751755Y-105744117D01*
X115011329Y-106543005D01*
X114212441Y-106802579D01*
X114212441Y-106802579D01*
G37*
G36*
X112785857Y-107266105D02*
X112526283Y-106467217D01*
X113325171Y-106207643D01*
X113584745Y-107006531D01*
X112785857Y-107266105D01*
X112785857Y-107266105D01*
G37*
G36*
X113640853Y-105190867D02*
X113299195Y-104423489D01*
X114066573Y-104081831D01*
X114408231Y-104849209D01*
X113640853Y-105190867D01*
X113640853Y-105190867D01*
G37*
G36*
X112270535Y-105800971D02*
X111928877Y-105033593D01*
X112696255Y-104691935D01*
X113037913Y-105459313D01*
X112270535Y-105800971D01*
X112270535Y-105800971D01*
G37*
G36*
X112903926Y-103647731D02*
X112483926Y-102920269D01*
X113211388Y-102500269D01*
X113631388Y-103227731D01*
X112903926Y-103647731D01*
X112903926Y-103647731D01*
G37*
G36*
X111604888Y-104397731D02*
X111184888Y-103670269D01*
X111912350Y-103250269D01*
X112332350Y-103977731D01*
X111604888Y-104397731D01*
X111604888Y-104397731D01*
G37*
G36*
X112009735Y-102190079D02*
X111515995Y-101510505D01*
X112195569Y-101016765D01*
X112689309Y-101696339D01*
X112009735Y-102190079D01*
X112009735Y-102190079D01*
G37*
G36*
X110796209Y-103071757D02*
X110302469Y-102392183D01*
X110982043Y-101898443D01*
X111475783Y-102578017D01*
X110796209Y-103071757D01*
X110796209Y-103071757D01*
G37*
G36*
X110968076Y-100833881D02*
X110406006Y-100209639D01*
X111030248Y-99647569D01*
X111592318Y-100271811D01*
X110968076Y-100833881D01*
X110968076Y-100833881D01*
G37*
G36*
X109853358Y-101837577D02*
X109291288Y-101213335D01*
X109915530Y-100651265D01*
X110477600Y-101275507D01*
X109853358Y-101837577D01*
X109853358Y-101837577D01*
G37*
G36*
X109790361Y-99593994D02*
X109166119Y-99031924D01*
X109728189Y-98407682D01*
X110352431Y-98969752D01*
X109790361Y-99593994D01*
X109790361Y-99593994D01*
G37*
G36*
X108786665Y-100708712D02*
X108162423Y-100146642D01*
X108724493Y-99522400D01*
X109348735Y-100084470D01*
X108786665Y-100708712D01*
X108786665Y-100708712D01*
G37*
G36*
X108489495Y-98484005D02*
X107809921Y-97990265D01*
X108303661Y-97310691D01*
X108983235Y-97804431D01*
X108489495Y-98484005D01*
X108489495Y-98484005D01*
G37*
G36*
X107607817Y-99697531D02*
X106928243Y-99203791D01*
X107421983Y-98524217D01*
X108101557Y-99017957D01*
X107607817Y-99697531D01*
X107607817Y-99697531D01*
G37*
G36*
X107079731Y-97516074D02*
X106352269Y-97096074D01*
X106772269Y-96368612D01*
X107499731Y-96788612D01*
X107079731Y-97516074D01*
X107079731Y-97516074D01*
G37*
G36*
X106329731Y-98815112D02*
X105602269Y-98395112D01*
X106022269Y-97667650D01*
X106749731Y-98087650D01*
X106329731Y-98815112D01*
X106329731Y-98815112D01*
G37*
G36*
X105576511Y-96700805D02*
X104809133Y-96359147D01*
X105150791Y-95591769D01*
X105918169Y-95933427D01*
X105576511Y-96700805D01*
X105576511Y-96700805D01*
G37*
G36*
X104966407Y-98071123D02*
X104199029Y-97729465D01*
X104540687Y-96962087D01*
X105308065Y-97303745D01*
X104966407Y-98071123D01*
X104966407Y-98071123D01*
G37*
G36*
X103996309Y-96047133D02*
X103197421Y-95787559D01*
X103456995Y-94988671D01*
X104255883Y-95248245D01*
X103996309Y-96047133D01*
X103996309Y-96047133D01*
G37*
G36*
X103532783Y-97473717D02*
X102733895Y-97214143D01*
X102993469Y-96415255D01*
X103792357Y-96674829D01*
X103532783Y-97473717D01*
X103532783Y-97473717D01*
G37*
D13*
X99640000Y-101940000D03*
X99640000Y-101040000D03*
D10*
G36*
X101828340Y-98046711D02*
X101006696Y-97872065D01*
X101181342Y-97050421D01*
X102002986Y-97225067D01*
X101828340Y-98046711D01*
X101828340Y-98046711D01*
G37*
G36*
X101516472Y-99513933D02*
X100694828Y-99339287D01*
X100869474Y-98517643D01*
X101691118Y-98692289D01*
X101516472Y-99513933D01*
X101516472Y-99513933D01*
G37*
G36*
X100409355Y-97777457D02*
X99573957Y-97689653D01*
X99661761Y-96854255D01*
X100497159Y-96942059D01*
X100409355Y-97777457D01*
X100409355Y-97777457D01*
G37*
G36*
X100252563Y-99269239D02*
X99417165Y-99181435D01*
X99504969Y-98346037D01*
X100340367Y-98433841D01*
X100252563Y-99269239D01*
X100252563Y-99269239D01*
G37*
D12*
X98550000Y-97238000D03*
X98550000Y-98738000D03*
D10*
G36*
X97526043Y-97689653D02*
X96690645Y-97777457D01*
X96602841Y-96942059D01*
X97438239Y-96854255D01*
X97526043Y-97689653D01*
X97526043Y-97689653D01*
G37*
G36*
X97682835Y-99181435D02*
X96847437Y-99269239D01*
X96759633Y-98433841D01*
X97595031Y-98346037D01*
X97682835Y-99181435D01*
X97682835Y-99181435D01*
G37*
G36*
X96093304Y-97872065D02*
X95271660Y-98046711D01*
X95097014Y-97225067D01*
X95918658Y-97050421D01*
X96093304Y-97872065D01*
X96093304Y-97872065D01*
G37*
G36*
X96405172Y-99339287D02*
X95583528Y-99513933D01*
X95408882Y-98692289D01*
X96230526Y-98517643D01*
X96405172Y-99339287D01*
X96405172Y-99339287D01*
G37*
G36*
X94687482Y-98203243D02*
X93888594Y-98462817D01*
X93629020Y-97663929D01*
X94427908Y-97404355D01*
X94687482Y-98203243D01*
X94687482Y-98203243D01*
G37*
G36*
X95151008Y-99629827D02*
X94352120Y-99889401D01*
X94092546Y-99090513D01*
X94891434Y-98830939D01*
X95151008Y-99629827D01*
X95151008Y-99629827D01*
G37*
G36*
X93323978Y-98679553D02*
X92556600Y-99021211D01*
X92214942Y-98253833D01*
X92982320Y-97912175D01*
X93323978Y-98679553D01*
X93323978Y-98679553D01*
G37*
G36*
X93934082Y-100049871D02*
X93166704Y-100391529D01*
X92825046Y-99624151D01*
X93592424Y-99282493D01*
X93934082Y-100049871D01*
X93934082Y-100049871D01*
G37*
G36*
X92017731Y-99295779D02*
X91290269Y-99715779D01*
X90870269Y-98988317D01*
X91597731Y-98568317D01*
X92017731Y-99295779D01*
X92017731Y-99295779D01*
G37*
G36*
X92767731Y-100594817D02*
X92040269Y-101014817D01*
X91620269Y-100287355D01*
X92347731Y-99867355D01*
X92767731Y-100594817D01*
X92767731Y-100594817D01*
G37*
G36*
X90783053Y-100045168D02*
X90103479Y-100538908D01*
X89609739Y-99859334D01*
X90289313Y-99365594D01*
X90783053Y-100045168D01*
X90783053Y-100045168D01*
G37*
G36*
X91664731Y-101258694D02*
X90985157Y-101752434D01*
X90491417Y-101072860D01*
X91170991Y-100579120D01*
X91664731Y-101258694D01*
X91664731Y-101258694D01*
G37*
G36*
X89633472Y-100919512D02*
X89009230Y-101481582D01*
X88447160Y-100857340D01*
X89071402Y-100295270D01*
X89633472Y-100919512D01*
X89633472Y-100919512D01*
G37*
G36*
X90637168Y-102034230D02*
X90012926Y-102596300D01*
X89450856Y-101972058D01*
X90075098Y-101409988D01*
X90637168Y-102034230D01*
X90637168Y-102034230D01*
G37*
G36*
X88581582Y-101909230D02*
X88019512Y-102533472D01*
X87395270Y-101971402D01*
X87957340Y-101347160D01*
X88581582Y-101909230D01*
X88581582Y-101909230D01*
G37*
G36*
X89696300Y-102912926D02*
X89134230Y-103537168D01*
X88509988Y-102975098D01*
X89072058Y-102350856D01*
X89696300Y-102912926D01*
X89696300Y-102912926D01*
G37*
G36*
X87638908Y-103003479D02*
X87145168Y-103683053D01*
X86465594Y-103189313D01*
X86959334Y-102509739D01*
X87638908Y-103003479D01*
X87638908Y-103003479D01*
G37*
G36*
X88852434Y-103885157D02*
X88358694Y-104564731D01*
X87679120Y-104070991D01*
X88172860Y-103391417D01*
X88852434Y-103885157D01*
X88852434Y-103885157D01*
G37*
D11*
X88790000Y-110500000D03*
X87890000Y-110500000D03*
D10*
G36*
X102356435Y-95562217D02*
X101534791Y-95387571D01*
X101709437Y-94565927D01*
X102531081Y-94740573D01*
X102356435Y-95562217D01*
X102356435Y-95562217D01*
G37*
G36*
X102044567Y-97029439D02*
X101222923Y-96854793D01*
X101397569Y-96033149D01*
X102219213Y-96207795D01*
X102044567Y-97029439D01*
X102044567Y-97029439D01*
G37*
G36*
X100674857Y-95251371D02*
X99839459Y-95163567D01*
X99927263Y-94328169D01*
X100762661Y-94415973D01*
X100674857Y-95251371D01*
X100674857Y-95251371D01*
G37*
G36*
X100518065Y-96743153D02*
X99682667Y-96655349D01*
X99770471Y-95819951D01*
X100605869Y-95907755D01*
X100518065Y-96743153D01*
X100518065Y-96743153D01*
G37*
D12*
X98550000Y-94698000D03*
X98550000Y-96198000D03*
D10*
G36*
X97260541Y-95163567D02*
X96425143Y-95251371D01*
X96337339Y-94415973D01*
X97172737Y-94328169D01*
X97260541Y-95163567D01*
X97260541Y-95163567D01*
G37*
G36*
X97417333Y-96655349D02*
X96581935Y-96743153D01*
X96494131Y-95907755D01*
X97329529Y-95819951D01*
X97417333Y-96655349D01*
X97417333Y-96655349D01*
G37*
G36*
X95565209Y-95387571D02*
X94743565Y-95562217D01*
X94568919Y-94740573D01*
X95390563Y-94565927D01*
X95565209Y-95387571D01*
X95565209Y-95387571D01*
G37*
G36*
X95877077Y-96854793D02*
X95055433Y-97029439D01*
X94880787Y-96207795D01*
X95702431Y-96033149D01*
X95877077Y-96854793D01*
X95877077Y-96854793D01*
G37*
G36*
X90747731Y-97096074D02*
X90020269Y-97516074D01*
X89600269Y-96788612D01*
X90327731Y-96368612D01*
X90747731Y-97096074D01*
X90747731Y-97096074D01*
G37*
G36*
X91497731Y-98395112D02*
X90770269Y-98815112D01*
X90350269Y-98087650D01*
X91077731Y-97667650D01*
X91497731Y-98395112D01*
X91497731Y-98395112D01*
G37*
G36*
X87933881Y-99031924D02*
X87309639Y-99593994D01*
X86747569Y-98969752D01*
X87371811Y-98407682D01*
X87933881Y-99031924D01*
X87933881Y-99031924D01*
G37*
G36*
X88937577Y-100146642D02*
X88313335Y-100708712D01*
X87751265Y-100084470D01*
X88375507Y-99522400D01*
X88937577Y-100146642D01*
X88937577Y-100146642D01*
G37*
G36*
X86693994Y-100209639D02*
X86131924Y-100833881D01*
X85507682Y-100271811D01*
X86069752Y-99647569D01*
X86693994Y-100209639D01*
X86693994Y-100209639D01*
G37*
G36*
X87808712Y-101213335D02*
X87246642Y-101837577D01*
X86622400Y-101275507D01*
X87184470Y-100651265D01*
X87808712Y-101213335D01*
X87808712Y-101213335D01*
G37*
G36*
X85584005Y-101510505D02*
X85090265Y-102190079D01*
X84410691Y-101696339D01*
X84904431Y-101016765D01*
X85584005Y-101510505D01*
X85584005Y-101510505D01*
G37*
G36*
X86797531Y-102392183D02*
X86303791Y-103071757D01*
X85624217Y-102578017D01*
X86117957Y-101898443D01*
X86797531Y-102392183D01*
X86797531Y-102392183D01*
G37*
D11*
X88810000Y-112420000D03*
X87910000Y-112420000D03*
D10*
G36*
X86815779Y-104190269D02*
X86395779Y-104917731D01*
X85668317Y-104497731D01*
X86088317Y-103770269D01*
X86815779Y-104190269D01*
X86815779Y-104190269D01*
G37*
G36*
X88114817Y-104940269D02*
X87694817Y-105667731D01*
X86967355Y-105247731D01*
X87387355Y-104520269D01*
X88114817Y-104940269D01*
X88114817Y-104940269D01*
G37*
G36*
X86121211Y-105456600D02*
X85779553Y-106223978D01*
X85012175Y-105882320D01*
X85353833Y-105114942D01*
X86121211Y-105456600D01*
X86121211Y-105456600D01*
G37*
G36*
X87491529Y-106066704D02*
X87149871Y-106834082D01*
X86382493Y-106492424D01*
X86724151Y-105725046D01*
X87491529Y-106066704D01*
X87491529Y-106066704D01*
G37*
G36*
X85562817Y-106788594D02*
X85303243Y-107587482D01*
X84504355Y-107327908D01*
X84763929Y-106529020D01*
X85562817Y-106788594D01*
X85562817Y-106788594D01*
G37*
G36*
X86989401Y-107252120D02*
X86729827Y-108051008D01*
X85930939Y-107791434D01*
X86190513Y-106992546D01*
X86989401Y-107252120D01*
X86989401Y-107252120D01*
G37*
G36*
X85146711Y-108171660D02*
X84972065Y-108993304D01*
X84150421Y-108818658D01*
X84325067Y-107997014D01*
X85146711Y-108171660D01*
X85146711Y-108171660D01*
G37*
G36*
X86613933Y-108483528D02*
X86439287Y-109305172D01*
X85617643Y-109130526D01*
X85792289Y-108308882D01*
X86613933Y-108483528D01*
X86613933Y-108483528D01*
G37*
G36*
X84877457Y-109590645D02*
X84789653Y-110426043D01*
X83954255Y-110338239D01*
X84042059Y-109502841D01*
X84877457Y-109590645D01*
X84877457Y-109590645D01*
G37*
G36*
X86369239Y-109747437D02*
X86281435Y-110582835D01*
X85446037Y-110495031D01*
X85533841Y-109659633D01*
X86369239Y-109747437D01*
X86369239Y-109747437D01*
G37*
D12*
X84338000Y-111450000D03*
X85838000Y-111450000D03*
D10*
G36*
X84789653Y-112473957D02*
X84877457Y-113309355D01*
X84042059Y-113397159D01*
X83954255Y-112561761D01*
X84789653Y-112473957D01*
X84789653Y-112473957D01*
G37*
G36*
X86281435Y-112317165D02*
X86369239Y-113152563D01*
X85533841Y-113240367D01*
X85446037Y-112404969D01*
X86281435Y-112317165D01*
X86281435Y-112317165D01*
G37*
G36*
X84972065Y-113906696D02*
X85146711Y-114728340D01*
X84325067Y-114902986D01*
X84150421Y-114081342D01*
X84972065Y-113906696D01*
X84972065Y-113906696D01*
G37*
G36*
X86439287Y-113594828D02*
X86613933Y-114416472D01*
X85792289Y-114591118D01*
X85617643Y-113769474D01*
X86439287Y-113594828D01*
X86439287Y-113594828D01*
G37*
G36*
X85303243Y-115312518D02*
X85562817Y-116111406D01*
X84763929Y-116370980D01*
X84504355Y-115572092D01*
X85303243Y-115312518D01*
X85303243Y-115312518D01*
G37*
G36*
X86729827Y-114848992D02*
X86989401Y-115647880D01*
X86190513Y-115907454D01*
X85930939Y-115108566D01*
X86729827Y-114848992D01*
X86729827Y-114848992D01*
G37*
G36*
X85779553Y-116676022D02*
X86121211Y-117443400D01*
X85353833Y-117785058D01*
X85012175Y-117017680D01*
X85779553Y-116676022D01*
X85779553Y-116676022D01*
G37*
G36*
X87149871Y-116065918D02*
X87491529Y-116833296D01*
X86724151Y-117174954D01*
X86382493Y-116407576D01*
X87149871Y-116065918D01*
X87149871Y-116065918D01*
G37*
G36*
X86395779Y-117982268D02*
X86815779Y-118709730D01*
X86088317Y-119129730D01*
X85668317Y-118402268D01*
X86395779Y-117982268D01*
X86395779Y-117982268D01*
G37*
G36*
X87694817Y-117232268D02*
X88114817Y-117959730D01*
X87387355Y-118379730D01*
X86967355Y-117652268D01*
X87694817Y-117232268D01*
X87694817Y-117232268D01*
G37*
G36*
X87145168Y-119216947D02*
X87638908Y-119896521D01*
X86959334Y-120390261D01*
X86465594Y-119710687D01*
X87145168Y-119216947D01*
X87145168Y-119216947D01*
G37*
G36*
X88358694Y-118335269D02*
X88852434Y-119014843D01*
X88172860Y-119508583D01*
X87679120Y-118829009D01*
X88358694Y-118335269D01*
X88358694Y-118335269D01*
G37*
G36*
X83800805Y-104423489D02*
X83459147Y-105190867D01*
X82691769Y-104849209D01*
X83033427Y-104081831D01*
X83800805Y-104423489D01*
X83800805Y-104423489D01*
G37*
G36*
X85171123Y-105033593D02*
X84829465Y-105800971D01*
X84062087Y-105459313D01*
X84403745Y-104691935D01*
X85171123Y-105033593D01*
X85171123Y-105033593D01*
G37*
G36*
X83147133Y-106003691D02*
X82887559Y-106802579D01*
X82088671Y-106543005D01*
X82348245Y-105744117D01*
X83147133Y-106003691D01*
X83147133Y-106003691D01*
G37*
G36*
X84573717Y-106467217D02*
X84314143Y-107266105D01*
X83515255Y-107006531D01*
X83774829Y-106207643D01*
X84573717Y-106467217D01*
X84573717Y-106467217D01*
G37*
G36*
X82351371Y-109325143D02*
X82263567Y-110160541D01*
X81428169Y-110072737D01*
X81515973Y-109237339D01*
X82351371Y-109325143D01*
X82351371Y-109325143D01*
G37*
G36*
X83843153Y-109481935D02*
X83755349Y-110317333D01*
X82919951Y-110229529D01*
X83007755Y-109394131D01*
X83843153Y-109481935D01*
X83843153Y-109481935D01*
G37*
D12*
X81798000Y-111450000D03*
X83298000Y-111450000D03*
D10*
G36*
X82263567Y-112739459D02*
X82351371Y-113574857D01*
X81515973Y-113662661D01*
X81428169Y-112827263D01*
X82263567Y-112739459D01*
X82263567Y-112739459D01*
G37*
G36*
X83755349Y-112582667D02*
X83843153Y-113418065D01*
X83007755Y-113505869D01*
X82919951Y-112670471D01*
X83755349Y-112582667D01*
X83755349Y-112582667D01*
G37*
G36*
X82487571Y-114434791D02*
X82662217Y-115256435D01*
X81840573Y-115431081D01*
X81665927Y-114609437D01*
X82487571Y-114434791D01*
X82487571Y-114434791D01*
G37*
G36*
X83954793Y-114122923D02*
X84129439Y-114944567D01*
X83307795Y-115119213D01*
X83133149Y-114297569D01*
X83954793Y-114122923D01*
X83954793Y-114122923D01*
G37*
G36*
X82887559Y-116097421D02*
X83147133Y-116896309D01*
X82348245Y-117155883D01*
X82088671Y-116356995D01*
X82887559Y-116097421D01*
X82887559Y-116097421D01*
G37*
G36*
X84314143Y-115633895D02*
X84573717Y-116432783D01*
X83774829Y-116692357D01*
X83515255Y-115893469D01*
X84314143Y-115633895D01*
X84314143Y-115633895D01*
G37*
G36*
X83459147Y-117709133D02*
X83800805Y-118476511D01*
X83033427Y-118818169D01*
X82691769Y-118050791D01*
X83459147Y-117709133D01*
X83459147Y-117709133D01*
G37*
G36*
X84829465Y-117099029D02*
X85171123Y-117866407D01*
X84403745Y-118208065D01*
X84062087Y-117440687D01*
X84829465Y-117099029D01*
X84829465Y-117099029D01*
G37*
G36*
X84196074Y-119252268D02*
X84616074Y-119979730D01*
X83888612Y-120399730D01*
X83468612Y-119672268D01*
X84196074Y-119252268D01*
X84196074Y-119252268D01*
G37*
G36*
X85495112Y-118502268D02*
X85915112Y-119229730D01*
X85187650Y-119649730D01*
X84767650Y-118922268D01*
X85495112Y-118502268D01*
X85495112Y-118502268D01*
G37*
G36*
X85090265Y-120709921D02*
X85584005Y-121389495D01*
X84904431Y-121883235D01*
X84410691Y-121203661D01*
X85090265Y-120709921D01*
X85090265Y-120709921D01*
G37*
G36*
X86303791Y-119828243D02*
X86797531Y-120507817D01*
X86117957Y-121001557D01*
X85624217Y-120321983D01*
X86303791Y-119828243D01*
X86303791Y-119828243D01*
G37*
D11*
X91280000Y-109460000D03*
X90380000Y-109460000D03*
D10*
G36*
X88019512Y-120366528D02*
X88581582Y-120990770D01*
X87957340Y-121552840D01*
X87395270Y-120928598D01*
X88019512Y-120366528D01*
X88019512Y-120366528D01*
G37*
G36*
X89134230Y-119362832D02*
X89696300Y-119987074D01*
X89072058Y-120549144D01*
X88509988Y-119924902D01*
X89134230Y-119362832D01*
X89134230Y-119362832D01*
G37*
G36*
X89009230Y-121418418D02*
X89633472Y-121980488D01*
X89071402Y-122604730D01*
X88447160Y-122042660D01*
X89009230Y-121418418D01*
X89009230Y-121418418D01*
G37*
G36*
X90012926Y-120303700D02*
X90637168Y-120865770D01*
X90075098Y-121490012D01*
X89450856Y-120927942D01*
X90012926Y-120303700D01*
X90012926Y-120303700D01*
G37*
G36*
X90103479Y-122361092D02*
X90783053Y-122854832D01*
X90289313Y-123534406D01*
X89609739Y-123040666D01*
X90103479Y-122361092D01*
X90103479Y-122361092D01*
G37*
G36*
X90985157Y-121147566D02*
X91664731Y-121641306D01*
X91170991Y-122320880D01*
X90491417Y-121827140D01*
X90985157Y-121147566D01*
X90985157Y-121147566D01*
G37*
G36*
X91290270Y-123184221D02*
X92017732Y-123604221D01*
X91597732Y-124331683D01*
X90870270Y-123911683D01*
X91290270Y-123184221D01*
X91290270Y-123184221D01*
G37*
G36*
X92040270Y-121885183D02*
X92767732Y-122305183D01*
X92347732Y-123032645D01*
X91620270Y-122612645D01*
X92040270Y-121885183D01*
X92040270Y-121885183D01*
G37*
G36*
X92556600Y-123878789D02*
X93323978Y-124220447D01*
X92982320Y-124987825D01*
X92214942Y-124646167D01*
X92556600Y-123878789D01*
X92556600Y-123878789D01*
G37*
G36*
X93166704Y-122508471D02*
X93934082Y-122850129D01*
X93592424Y-123617507D01*
X92825046Y-123275849D01*
X93166704Y-122508471D01*
X93166704Y-122508471D01*
G37*
G36*
X93888594Y-124437183D02*
X94687482Y-124696757D01*
X94427908Y-125495645D01*
X93629020Y-125236071D01*
X93888594Y-124437183D01*
X93888594Y-124437183D01*
G37*
G36*
X94352120Y-123010599D02*
X95151008Y-123270173D01*
X94891434Y-124069061D01*
X94092546Y-123809487D01*
X94352120Y-123010599D01*
X94352120Y-123010599D01*
G37*
G36*
X95271660Y-124853289D02*
X96093304Y-125027935D01*
X95918658Y-125849579D01*
X95097014Y-125674933D01*
X95271660Y-124853289D01*
X95271660Y-124853289D01*
G37*
G36*
X95583528Y-123386067D02*
X96405172Y-123560713D01*
X96230526Y-124382357D01*
X95408882Y-124207711D01*
X95583528Y-123386067D01*
X95583528Y-123386067D01*
G37*
G36*
X96690645Y-125122543D02*
X97526043Y-125210347D01*
X97438239Y-126045745D01*
X96602841Y-125957941D01*
X96690645Y-125122543D01*
X96690645Y-125122543D01*
G37*
G36*
X96847437Y-123630761D02*
X97682835Y-123718565D01*
X97595031Y-124553963D01*
X96759633Y-124466159D01*
X96847437Y-123630761D01*
X96847437Y-123630761D01*
G37*
D12*
X98550000Y-125662000D03*
X98550000Y-124162000D03*
D10*
G36*
X99573957Y-125210347D02*
X100409355Y-125122543D01*
X100497159Y-125957941D01*
X99661761Y-126045745D01*
X99573957Y-125210347D01*
X99573957Y-125210347D01*
G37*
G36*
X99417165Y-123718565D02*
X100252563Y-123630761D01*
X100340367Y-124466159D01*
X99504969Y-124553963D01*
X99417165Y-123718565D01*
X99417165Y-123718565D01*
G37*
G36*
X101006696Y-125027935D02*
X101828340Y-124853289D01*
X102002986Y-125674933D01*
X101181342Y-125849579D01*
X101006696Y-125027935D01*
X101006696Y-125027935D01*
G37*
G36*
X100694828Y-123560713D02*
X101516472Y-123386067D01*
X101691118Y-124207711D01*
X100869474Y-124382357D01*
X100694828Y-123560713D01*
X100694828Y-123560713D01*
G37*
G36*
X102412518Y-124696757D02*
X103211406Y-124437183D01*
X103470980Y-125236071D01*
X102672092Y-125495645D01*
X102412518Y-124696757D01*
X102412518Y-124696757D01*
G37*
G36*
X101948992Y-123270173D02*
X102747880Y-123010599D01*
X103007454Y-123809487D01*
X102208566Y-124069061D01*
X101948992Y-123270173D01*
X101948992Y-123270173D01*
G37*
D13*
X99430000Y-121440000D03*
X99430000Y-122340000D03*
D10*
G36*
X86131924Y-122066119D02*
X86693994Y-122690361D01*
X86069752Y-123252431D01*
X85507682Y-122628189D01*
X86131924Y-122066119D01*
X86131924Y-122066119D01*
G37*
G36*
X87246642Y-121062423D02*
X87808712Y-121686665D01*
X87184470Y-122248735D01*
X86622400Y-121624493D01*
X87246642Y-121062423D01*
X87246642Y-121062423D01*
G37*
G36*
X87309639Y-123306006D02*
X87933881Y-123868076D01*
X87371811Y-124492318D01*
X86747569Y-123930248D01*
X87309639Y-123306006D01*
X87309639Y-123306006D01*
G37*
G36*
X88313335Y-122191288D02*
X88937577Y-122753358D01*
X88375507Y-123377600D01*
X87751265Y-122815530D01*
X88313335Y-122191288D01*
X88313335Y-122191288D01*
G37*
G36*
X88610505Y-124415995D02*
X89290079Y-124909735D01*
X88796339Y-125589309D01*
X88116765Y-125095569D01*
X88610505Y-124415995D01*
X88610505Y-124415995D01*
G37*
G36*
X89492183Y-123202469D02*
X90171757Y-123696209D01*
X89678017Y-124375783D01*
X88998443Y-123882043D01*
X89492183Y-123202469D01*
X89492183Y-123202469D01*
G37*
G36*
X90020270Y-125383926D02*
X90747732Y-125803926D01*
X90327732Y-126531388D01*
X89600270Y-126111388D01*
X90020270Y-125383926D01*
X90020270Y-125383926D01*
G37*
G36*
X90770270Y-124084888D02*
X91497732Y-124504888D01*
X91077732Y-125232350D01*
X90350270Y-124812350D01*
X90770270Y-124084888D01*
X90770270Y-124084888D01*
G37*
G36*
X91523489Y-126199195D02*
X92290867Y-126540853D01*
X91949209Y-127308231D01*
X91181831Y-126966573D01*
X91523489Y-126199195D01*
X91523489Y-126199195D01*
G37*
G36*
X92133593Y-124828877D02*
X92900971Y-125170535D01*
X92559313Y-125937913D01*
X91791935Y-125596255D01*
X92133593Y-124828877D01*
X92133593Y-124828877D01*
G37*
G36*
X94743565Y-127337783D02*
X95565209Y-127512429D01*
X95390563Y-128334073D01*
X94568919Y-128159427D01*
X94743565Y-127337783D01*
X94743565Y-127337783D01*
G37*
G36*
X95055433Y-125870561D02*
X95877077Y-126045207D01*
X95702431Y-126866851D01*
X94880787Y-126692205D01*
X95055433Y-125870561D01*
X95055433Y-125870561D01*
G37*
G36*
X96425143Y-127648629D02*
X97260541Y-127736433D01*
X97172737Y-128571831D01*
X96337339Y-128484027D01*
X96425143Y-127648629D01*
X96425143Y-127648629D01*
G37*
G36*
X96581935Y-126156847D02*
X97417333Y-126244651D01*
X97329529Y-127080049D01*
X96494131Y-126992245D01*
X96581935Y-126156847D01*
X96581935Y-126156847D01*
G37*
D12*
X98550000Y-128202000D03*
X98550000Y-126702000D03*
D10*
G36*
X99839459Y-127736433D02*
X100674857Y-127648629D01*
X100762661Y-128484027D01*
X99927263Y-128571831D01*
X99839459Y-127736433D01*
X99839459Y-127736433D01*
G37*
G36*
X99682667Y-126244651D02*
X100518065Y-126156847D01*
X100605869Y-126992245D01*
X99770471Y-127080049D01*
X99682667Y-126244651D01*
X99682667Y-126244651D01*
G37*
G36*
X101534791Y-127512429D02*
X102356435Y-127337783D01*
X102531081Y-128159427D01*
X101709437Y-128334073D01*
X101534791Y-127512429D01*
X101534791Y-127512429D01*
G37*
G36*
X101222923Y-126045207D02*
X102044567Y-125870561D01*
X102219213Y-126692205D01*
X101397569Y-126866851D01*
X101222923Y-126045207D01*
X101222923Y-126045207D01*
G37*
G36*
X103197421Y-127112441D02*
X103996309Y-126852867D01*
X104255883Y-127651755D01*
X103456995Y-127911329D01*
X103197421Y-127112441D01*
X103197421Y-127112441D01*
G37*
G36*
X102733895Y-125685857D02*
X103532783Y-125426283D01*
X103792357Y-126225171D01*
X102993469Y-126484745D01*
X102733895Y-125685857D01*
X102733895Y-125685857D01*
G37*
G36*
X105082269Y-123604221D02*
X105809731Y-123184221D01*
X106229731Y-123911683D01*
X105502269Y-124331683D01*
X105082269Y-123604221D01*
X105082269Y-123604221D01*
G37*
G36*
X104332269Y-122305183D02*
X105059731Y-121885183D01*
X105479731Y-122612645D01*
X104752269Y-123032645D01*
X104332269Y-122305183D01*
X104332269Y-122305183D01*
G37*
G36*
X106316947Y-122854832D02*
X106996521Y-122361092D01*
X107490261Y-123040666D01*
X106810687Y-123534406D01*
X106316947Y-122854832D01*
X106316947Y-122854832D01*
G37*
G36*
X105435269Y-121641306D02*
X106114843Y-121147566D01*
X106608583Y-121827140D01*
X105929009Y-122320880D01*
X105435269Y-121641306D01*
X105435269Y-121641306D01*
G37*
G36*
X108518418Y-120990770D02*
X109080488Y-120366528D01*
X109704730Y-120928598D01*
X109142660Y-121552840D01*
X108518418Y-120990770D01*
X108518418Y-120990770D01*
G37*
G36*
X107403700Y-119987074D02*
X107965770Y-119362832D01*
X108590012Y-119924902D01*
X108027942Y-120549144D01*
X107403700Y-119987074D01*
X107403700Y-119987074D01*
G37*
G36*
X110284221Y-118709730D02*
X110704221Y-117982268D01*
X111431683Y-118402268D01*
X111011683Y-119129730D01*
X110284221Y-118709730D01*
X110284221Y-118709730D01*
G37*
G36*
X108985183Y-117959730D02*
X109405183Y-117232268D01*
X110132645Y-117652268D01*
X109712645Y-118379730D01*
X108985183Y-117959730D01*
X108985183Y-117959730D01*
G37*
G36*
X110978789Y-117443400D02*
X111320447Y-116676022D01*
X112087825Y-117017680D01*
X111746167Y-117785058D01*
X110978789Y-117443400D01*
X110978789Y-117443400D01*
G37*
G36*
X109608471Y-116833296D02*
X109950129Y-116065918D01*
X110717507Y-116407576D01*
X110375849Y-117174954D01*
X109608471Y-116833296D01*
X109608471Y-116833296D01*
G37*
G36*
X111537183Y-116111406D02*
X111796757Y-115312518D01*
X112595645Y-115572092D01*
X112336071Y-116370980D01*
X111537183Y-116111406D01*
X111537183Y-116111406D01*
G37*
G36*
X110110599Y-115647880D02*
X110370173Y-114848992D01*
X111169061Y-115108566D01*
X110909487Y-115907454D01*
X110110599Y-115647880D01*
X110110599Y-115647880D01*
G37*
G36*
X111953289Y-114728340D02*
X112127935Y-113906696D01*
X112949579Y-114081342D01*
X112774933Y-114902986D01*
X111953289Y-114728340D01*
X111953289Y-114728340D01*
G37*
G36*
X110486067Y-114416472D02*
X110660713Y-113594828D01*
X111482357Y-113769474D01*
X111307711Y-114591118D01*
X110486067Y-114416472D01*
X110486067Y-114416472D01*
G37*
G36*
X112222543Y-113309355D02*
X112310347Y-112473957D01*
X113145745Y-112561761D01*
X113057941Y-113397159D01*
X112222543Y-113309355D01*
X112222543Y-113309355D01*
G37*
G36*
X110730761Y-113152563D02*
X110818565Y-112317165D01*
X111653963Y-112404969D01*
X111566159Y-113240367D01*
X110730761Y-113152563D01*
X110730761Y-113152563D01*
G37*
D12*
X112762000Y-111450000D03*
X111262000Y-111450000D03*
D11*
X105640000Y-113300000D03*
X106540000Y-113300000D03*
D10*
G36*
X104809133Y-126540853D02*
X105576511Y-126199195D01*
X105918169Y-126966573D01*
X105150791Y-127308231D01*
X104809133Y-126540853D01*
X104809133Y-126540853D01*
G37*
G36*
X104199029Y-125170535D02*
X104966407Y-124828877D01*
X105308065Y-125596255D01*
X104540687Y-125937913D01*
X104199029Y-125170535D01*
X104199029Y-125170535D01*
G37*
G36*
X106352269Y-125803926D02*
X107079731Y-125383926D01*
X107499731Y-126111388D01*
X106772269Y-126531388D01*
X106352269Y-125803926D01*
X106352269Y-125803926D01*
G37*
G36*
X105602269Y-124504888D02*
X106329731Y-124084888D01*
X106749731Y-124812350D01*
X106022269Y-125232350D01*
X105602269Y-124504888D01*
X105602269Y-124504888D01*
G37*
G36*
X107809921Y-124909735D02*
X108489495Y-124415995D01*
X108983235Y-125095569D01*
X108303661Y-125589309D01*
X107809921Y-124909735D01*
X107809921Y-124909735D01*
G37*
G36*
X106928243Y-123696209D02*
X107607817Y-123202469D01*
X108101557Y-123882043D01*
X107421983Y-124375783D01*
X106928243Y-123696209D01*
X106928243Y-123696209D01*
G37*
G36*
X109166119Y-123868076D02*
X109790361Y-123306006D01*
X110352431Y-123930248D01*
X109728189Y-124492318D01*
X109166119Y-123868076D01*
X109166119Y-123868076D01*
G37*
G36*
X108162423Y-122753358D02*
X108786665Y-122191288D01*
X109348735Y-122815530D01*
X108724493Y-123377600D01*
X108162423Y-122753358D01*
X108162423Y-122753358D01*
G37*
G36*
X110406006Y-122690361D02*
X110968076Y-122066119D01*
X111592318Y-122628189D01*
X111030248Y-123252431D01*
X110406006Y-122690361D01*
X110406006Y-122690361D01*
G37*
G36*
X109291288Y-121686665D02*
X109853358Y-121062423D01*
X110477600Y-121624493D01*
X109915530Y-122248735D01*
X109291288Y-121686665D01*
X109291288Y-121686665D01*
G37*
G36*
X111515995Y-121389495D02*
X112009735Y-120709921D01*
X112689309Y-121203661D01*
X112195569Y-121883235D01*
X111515995Y-121389495D01*
X111515995Y-121389495D01*
G37*
G36*
X110302469Y-120507817D02*
X110796209Y-119828243D01*
X111475783Y-120321983D01*
X110982043Y-121001557D01*
X110302469Y-120507817D01*
X110302469Y-120507817D01*
G37*
G36*
X112483926Y-119979730D02*
X112903926Y-119252268D01*
X113631388Y-119672268D01*
X113211388Y-120399730D01*
X112483926Y-119979730D01*
X112483926Y-119979730D01*
G37*
G36*
X111184888Y-119229730D02*
X111604888Y-118502268D01*
X112332350Y-118922268D01*
X111912350Y-119649730D01*
X111184888Y-119229730D01*
X111184888Y-119229730D01*
G37*
G36*
X113299195Y-118476511D02*
X113640853Y-117709133D01*
X114408231Y-118050791D01*
X114066573Y-118818169D01*
X113299195Y-118476511D01*
X113299195Y-118476511D01*
G37*
G36*
X111928877Y-117866407D02*
X112270535Y-117099029D01*
X113037913Y-117440687D01*
X112696255Y-118208065D01*
X111928877Y-117866407D01*
X111928877Y-117866407D01*
G37*
G36*
X113952867Y-116896309D02*
X114212441Y-116097421D01*
X115011329Y-116356995D01*
X114751755Y-117155883D01*
X113952867Y-116896309D01*
X113952867Y-116896309D01*
G37*
G36*
X112526283Y-116432783D02*
X112785857Y-115633895D01*
X113584745Y-115893469D01*
X113325171Y-116692357D01*
X112526283Y-116432783D01*
X112526283Y-116432783D01*
G37*
G36*
X114437783Y-115256435D02*
X114612429Y-114434791D01*
X115434073Y-114609437D01*
X115259427Y-115431081D01*
X114437783Y-115256435D01*
X114437783Y-115256435D01*
G37*
G36*
X112970561Y-114944567D02*
X113145207Y-114122923D01*
X113966851Y-114297569D01*
X113792205Y-115119213D01*
X112970561Y-114944567D01*
X112970561Y-114944567D01*
G37*
G36*
X114748629Y-113574857D02*
X114836433Y-112739459D01*
X115671831Y-112827263D01*
X115584027Y-113662661D01*
X114748629Y-113574857D01*
X114748629Y-113574857D01*
G37*
G36*
X113256847Y-113418065D02*
X113344651Y-112582667D01*
X114180049Y-112670471D01*
X114092245Y-113505869D01*
X113256847Y-113418065D01*
X113256847Y-113418065D01*
G37*
D12*
X115302000Y-111450000D03*
X113802000Y-111450000D03*
D11*
X93410000Y-107930000D03*
X94310000Y-107930000D03*
D14*
X100920000Y-108470000D03*
X100420000Y-108470000D03*
X99920000Y-108470000D03*
X99420000Y-108470000D03*
X98920000Y-108470000D03*
X98420000Y-108470000D03*
X97920000Y-108470000D03*
X97420000Y-108470000D03*
X96920000Y-108470000D03*
X96420000Y-108470000D03*
D15*
X95670000Y-111220000D03*
X95670000Y-110720000D03*
X95670000Y-110220000D03*
X95670000Y-109720000D03*
X95670000Y-109220000D03*
X95670000Y-111720000D03*
X95670000Y-112220000D03*
X95670000Y-112720000D03*
X95670000Y-113220000D03*
X95670000Y-113720000D03*
X101670000Y-111220000D03*
X101670000Y-110720000D03*
X101670000Y-110220000D03*
X101670000Y-109720000D03*
X101670000Y-109220000D03*
X101670000Y-111720000D03*
X101670000Y-112220000D03*
X101670000Y-112720000D03*
X101670000Y-113220000D03*
X101670000Y-113720000D03*
D14*
X98920000Y-114470000D03*
X99420000Y-114470000D03*
X99920000Y-114470000D03*
X100420000Y-114470000D03*
X100920000Y-114470000D03*
X98420000Y-114470000D03*
X97920000Y-114470000D03*
X97420000Y-114470000D03*
X96920000Y-114470000D03*
X96420000Y-114470000D03*
D16*
X98670000Y-111470000D03*
D17*
X98670000Y-111470000D03*
X97670000Y-111470000D03*
X97670000Y-110470000D03*
X98670000Y-110470000D03*
X99670000Y-110470000D03*
X99670000Y-111470000D03*
X99670000Y-112470000D03*
X98670000Y-112470000D03*
X97670000Y-112470000D03*
D18*
X97220000Y-104420000D03*
X96120000Y-104420000D03*
X98150000Y-104420000D03*
X99250000Y-104420000D03*
X103100000Y-108980000D03*
X104200000Y-108980000D03*
X106680000Y-109300000D03*
X105580000Y-109300000D03*
X103100000Y-108080000D03*
X104200000Y-108080000D03*
X103100000Y-107150000D03*
X104200000Y-107150000D03*
D10*
G36*
X108504517Y-106187731D02*
X108084517Y-105460269D01*
X108811979Y-105040269D01*
X109231979Y-105767731D01*
X108504517Y-106187731D01*
X108504517Y-106187731D01*
G37*
G36*
X107205479Y-106937731D02*
X106785479Y-106210269D01*
X107512941Y-105790269D01*
X107932941Y-106517731D01*
X107205479Y-106937731D01*
X107205479Y-106937731D01*
G37*
G36*
X84616074Y-102920269D02*
X84196074Y-103647731D01*
X83468612Y-103227731D01*
X83888612Y-102500269D01*
X84616074Y-102920269D01*
X84616074Y-102920269D01*
G37*
G36*
X85915112Y-103670269D02*
X85495112Y-104397731D01*
X84767650Y-103977731D01*
X85187650Y-103250269D01*
X85915112Y-103670269D01*
X85915112Y-103670269D01*
G37*
D19*
X98920000Y-105900000D03*
X96420000Y-105900000D03*
D10*
G36*
X93103691Y-126852867D02*
X93902579Y-127112441D01*
X93643005Y-127911329D01*
X92844117Y-127651755D01*
X93103691Y-126852867D01*
X93103691Y-126852867D01*
G37*
G36*
X93567217Y-125426283D02*
X94366105Y-125685857D01*
X94106531Y-126484745D01*
X93307643Y-126225171D01*
X93567217Y-125426283D01*
X93567217Y-125426283D01*
G37*
G36*
X107466528Y-121980488D02*
X108090770Y-121418418D01*
X108652840Y-122042660D01*
X108028598Y-122604730D01*
X107466528Y-121980488D01*
X107466528Y-121980488D01*
G37*
G36*
X106462832Y-120865770D02*
X107087074Y-120303700D01*
X107649144Y-120927942D01*
X107024902Y-121490012D01*
X106462832Y-120865770D01*
X106462832Y-120865770D01*
G37*
G36*
X109461092Y-119896521D02*
X109954832Y-119216947D01*
X110634406Y-119710687D01*
X110140666Y-120390261D01*
X109461092Y-119896521D01*
X109461092Y-119896521D01*
G37*
G36*
X108247566Y-119014843D02*
X108741306Y-118335269D01*
X109420880Y-118829009D01*
X108927140Y-119508583D01*
X108247566Y-119014843D01*
X108247566Y-119014843D01*
G37*
G36*
X82662217Y-107643565D02*
X82487571Y-108465209D01*
X81665927Y-108290563D01*
X81840573Y-107468919D01*
X82662217Y-107643565D01*
X82662217Y-107643565D01*
G37*
G36*
X84129439Y-107955433D02*
X83954793Y-108777077D01*
X83133149Y-108602431D01*
X83307795Y-107780787D01*
X84129439Y-107955433D01*
X84129439Y-107955433D01*
G37*
G36*
X89290079Y-97990265D02*
X88610505Y-98484005D01*
X88116765Y-97804431D01*
X88796339Y-97310691D01*
X89290079Y-97990265D01*
X89290079Y-97990265D01*
G37*
G36*
X90171757Y-99203791D02*
X89492183Y-99697531D01*
X88998443Y-99017957D01*
X89678017Y-98524217D01*
X90171757Y-99203791D01*
X90171757Y-99203791D01*
G37*
G36*
X93902579Y-95787559D02*
X93103691Y-96047133D01*
X92844117Y-95248245D01*
X93643005Y-94988671D01*
X93902579Y-95787559D01*
X93902579Y-95787559D01*
G37*
G36*
X94366105Y-97214143D02*
X93567217Y-97473717D01*
X93307643Y-96674829D01*
X94106531Y-96415255D01*
X94366105Y-97214143D01*
X94366105Y-97214143D01*
G37*
D11*
X91250000Y-113520000D03*
X90350000Y-113520000D03*
D13*
X97680000Y-121430000D03*
X97680000Y-122330000D03*
D10*
G36*
X92290867Y-96359147D02*
X91523489Y-96700805D01*
X91181831Y-95933427D01*
X91949209Y-95591769D01*
X92290867Y-96359147D01*
X92290867Y-96359147D01*
G37*
G36*
X92900971Y-97729465D02*
X92133593Y-98071123D01*
X91791935Y-97303745D01*
X92559313Y-96962087D01*
X92900971Y-97729465D01*
X92900971Y-97729465D01*
G37*
G36*
X103776022Y-124220447D02*
X104543400Y-123878789D01*
X104885058Y-124646167D01*
X104117680Y-124987825D01*
X103776022Y-124220447D01*
X103776022Y-124220447D01*
G37*
G36*
X103165918Y-122850129D02*
X103933296Y-122508471D01*
X104274954Y-123275849D01*
X103507576Y-123617507D01*
X103165918Y-122850129D01*
X103165918Y-122850129D01*
G37*
D20*
X94385000Y-106930000D03*
X93335000Y-106930000D03*
D21*
X100450000Y-129570000D03*
D22*
X99180000Y-129570000D03*
X97910000Y-129570000D03*
X96640000Y-129570000D03*
M02*
