G75*
G70*
%OFA0B0*%
%FSLAX24Y24*%
%IPPOS*%
%LPD*%
%AMOC8*
5,1,8,0,0,1.08239X$1,22.5*
%
%ADD10C,0.0060*%
D10*
X001928Y008506D02*
X001936Y008840D01*
X001961Y009173D01*
X002002Y009504D01*
X002059Y009833D01*
X002132Y010158D01*
X002221Y010480D01*
X002326Y010797D01*
X002446Y011108D01*
X002581Y011413D01*
X002731Y011711D01*
X002895Y012002D01*
X003074Y012284D01*
X003266Y012557D01*
X003472Y012820D01*
X003690Y013073D01*
X003920Y013314D01*
X004161Y013544D01*
X004414Y013762D01*
X004677Y013968D01*
X004950Y014160D01*
X005232Y014339D01*
X005523Y014503D01*
X005821Y014653D01*
X006126Y014788D01*
X006437Y014908D01*
X006754Y015013D01*
X007076Y015102D01*
X007401Y015175D01*
X007730Y015232D01*
X008061Y015273D01*
X008394Y015298D01*
X008728Y015306D01*
X009062Y015298D01*
X009395Y015273D01*
X009726Y015232D01*
X010055Y015175D01*
X010380Y015102D01*
X010702Y015013D01*
X011019Y014908D01*
X011330Y014788D01*
X011635Y014653D01*
X011933Y014503D01*
X012224Y014339D01*
X012506Y014160D01*
X012779Y013968D01*
X013042Y013762D01*
X013295Y013544D01*
X013536Y013314D01*
X013766Y013073D01*
X013984Y012820D01*
X014190Y012557D01*
X014382Y012284D01*
X014561Y012002D01*
X014725Y011711D01*
X014875Y011413D01*
X015010Y011108D01*
X015130Y010797D01*
X015235Y010480D01*
X015324Y010158D01*
X015397Y009833D01*
X015454Y009504D01*
X015495Y009173D01*
X015520Y008840D01*
X015528Y008506D01*
X015520Y008172D01*
X015495Y007839D01*
X015454Y007508D01*
X015397Y007179D01*
X015324Y006854D01*
X015235Y006532D01*
X015130Y006215D01*
X015010Y005904D01*
X014875Y005599D01*
X014725Y005301D01*
X014561Y005010D01*
X014382Y004728D01*
X014190Y004455D01*
X013984Y004192D01*
X013766Y003939D01*
X013536Y003698D01*
X013295Y003468D01*
X013042Y003250D01*
X012779Y003044D01*
X012506Y002852D01*
X012224Y002673D01*
X011933Y002509D01*
X011635Y002359D01*
X011330Y002224D01*
X011019Y002104D01*
X010702Y001999D01*
X010380Y001910D01*
X010055Y001837D01*
X009726Y001780D01*
X009395Y001739D01*
X009062Y001714D01*
X008728Y001706D01*
X008394Y001714D01*
X008061Y001739D01*
X007730Y001780D01*
X007401Y001837D01*
X007076Y001910D01*
X006754Y001999D01*
X006437Y002104D01*
X006126Y002224D01*
X005821Y002359D01*
X005523Y002509D01*
X005232Y002673D01*
X004950Y002852D01*
X004677Y003044D01*
X004414Y003250D01*
X004161Y003468D01*
X003920Y003698D01*
X003690Y003939D01*
X003472Y004192D01*
X003266Y004455D01*
X003074Y004728D01*
X002895Y005010D01*
X002731Y005301D01*
X002581Y005599D01*
X002446Y005904D01*
X002326Y006215D01*
X002221Y006532D01*
X002132Y006854D01*
X002059Y007179D01*
X002002Y007508D01*
X001961Y007839D01*
X001936Y008172D01*
X001928Y008506D01*
M02*
