%
M48
M72
T01C0.0100
T02C0.0118
T03C0.0130
T04C0.0236
%
T01
X6098Y6156
X6208Y7146
X5938Y7186
X6278Y7576
X6888Y8006
X6958Y8406
X6648Y9196
X6428Y9396
X7078Y9636
X7578Y9716
X8038Y10256
X8288Y10356
X9220Y10649
X9608Y10256
X10098Y10146
X10358Y10316
X10788Y10836
X11108Y10206
X11228Y9906
X11933Y9716
X12338Y9686
X12598Y9756
X12458Y9386
X12728Y8826
X12728Y8186
X12758Y7766
X10978Y8406
X10578Y8026
X10528Y7006
X10098Y6786
X9778Y6566
X10068Y6366
X11118Y6036
X10098Y5076
X9358Y4566
X9028Y4436
X8428Y4436
X8098Y4586
X7208Y6166
X7548Y6706
X5338Y7026
X4688Y7766
X4728Y8206
X4728Y8806
X5068Y9326
X5068Y9566
X4938Y9956
X5618Y9846
X6548Y10196
X6798Y10616
X5688Y10836
X3408Y10546
X3058Y8806
X3028Y8206
X8288Y11686
X8348Y12576
X9118Y12586
X9478Y12236
X9708Y12496
X9728Y11656
X9888Y9716
X10968Y9196
X12258Y10156
X14248Y9986
X14418Y8806
X14898Y8186
X9058Y2226
X8418Y2506
X8428Y14216
X9028Y14206
T02
X9122Y8900
X9122Y8506
X8728Y8506
X8334Y8506
X8334Y8900
X8728Y8900
X8728Y8113
X8334Y8113
X9122Y8113
T03
X4489Y4689
X4911Y4267
X5375Y3891
X5876Y3566
X6408Y3295
X6965Y3081
X7542Y2926
X8132Y2833
X8728Y2802
X9324Y2833
X9914Y2926
X10491Y3081
X11049Y3295
X11581Y3566
X12081Y3891
X12545Y4267
X12968Y4689
X13343Y5153
X13669Y5654
X13940Y6186
X14154Y6744
X14308Y7320
X14402Y7910
X14433Y8506
X14402Y9103
X14308Y9693
X14154Y10269
X13940Y10827
X13669Y11359
X13343Y11860
X12968Y12324
X12545Y12746
X12081Y13122
X11581Y13447
X11049Y13718
X10491Y13932
X9914Y14086
X9324Y14180
X8728Y14211
X8132Y14180
X7542Y14086
X6965Y13932
X6408Y13718
X5876Y13447
X5375Y13122
X4911Y12746
X4489Y12324
X4113Y11860
X3788Y11359
X3517Y10827
X3303Y10269
X3148Y9693
X3055Y9103
X3023Y8506
X3055Y7910
X3148Y7320
X3303Y6744
X3517Y6186
X3788Y5654
X4113Y5153
X4922Y5741
X4654Y6154
X4430Y6593
X4254Y7053
X4126Y7528
X4049Y8015
X4023Y8506
X4049Y8998
X4126Y9485
X4254Y9960
X4430Y10420
X4654Y10859
X4922Y11272
X5232Y11655
X5580Y12003
X5963Y12313
X6376Y12581
X6815Y12804
X7274Y12981
X7750Y13108
X8236Y13185
X8728Y13211
X9220Y13185
X9706Y13108
X10182Y12981
X10642Y12804
X11081Y12581
X11494Y12313
X11876Y12003
X12224Y11655
X12534Y11272
X12803Y10859
X13026Y10420
X13203Y9960
X13330Y9485
X13407Y8998
X13433Y8506
X13407Y8015
X13330Y7528
X13203Y7053
X13026Y6593
X12803Y6154
X12534Y5741
X12224Y5358
X11876Y5010
X11494Y4700
X11081Y4432
X10642Y4208
X10182Y4032
X9706Y3905
X9220Y3827
X8728Y3802
X8236Y3827
X7750Y3905
X7274Y4032
X6815Y4208
X6376Y4432
X5963Y4700
X5580Y5010
X5232Y5358
X5520Y6654
X6876Y5298
X8728Y4802
X10581Y5298
X11937Y6654
X12433Y8506
X11937Y10359
X10581Y11715
X8728Y12211
X6876Y11715
X5520Y10359
X5023Y8506
T04
X7228Y11296
X8228Y11296
X9228Y11296
X10228Y11296
M30
