G75*
G70*
%OFA0B0*%
%FSLAX24Y24*%
%IPPOS*%
%LPD*%
%AMOC8*
5,1,8,0,0,1.08239X$1,22.5*
%
%ADD10C,0.0060*%
%ADD11R,0.1000X0.2000*%
%ADD12C,0.2500*%
%ADD13C,0.0300*%
%ADD14R,0.0394X0.0394*%
%ADD15R,0.0335X0.0334*%
%ADD16C,0.0240*%
%ADD17C,0.0180*%
D10*
X004489Y004689D02*
X005232Y005358D01*
X005234Y005356D01*
X006228Y005356D01*
X006698Y004886D01*
X006998Y004886D01*
X007188Y005076D01*
X010098Y005076D01*
X010579Y005296D02*
X010581Y005298D01*
X011118Y006036D02*
X012528Y006036D01*
X013758Y005246D01*
X014234Y004865D01*
X014697Y005666D02*
X014758Y006036D01*
X013940Y006186D02*
X013026Y006593D01*
X012563Y007056D01*
X011728Y007056D01*
X011238Y006566D01*
X009778Y006566D01*
X010068Y006366D02*
X010328Y006365D01*
X012428Y006356D01*
X012803Y006154D01*
X012710Y006246D01*
X012803Y006154D02*
X013669Y005654D01*
X013343Y005153D02*
X012534Y005741D01*
X012224Y005358D02*
X012968Y004689D01*
X012545Y004267D02*
X011876Y005010D01*
X011494Y004700D02*
X012081Y003891D01*
X011581Y003566D02*
X011081Y004432D01*
X010642Y004209D02*
X011049Y003295D01*
X010491Y003081D02*
X010182Y004032D01*
X009706Y003905D02*
X009914Y002926D01*
X009324Y002833D02*
X009220Y003828D01*
X009358Y003966D01*
X009358Y004566D01*
X009028Y004436D02*
X008968Y003946D01*
X009058Y002226D01*
X008728Y002216D02*
X008728Y002802D01*
X008728Y003802D01*
X008728Y004802D01*
X008428Y004436D02*
X008488Y003956D01*
X008418Y002506D01*
X008132Y002833D02*
X008236Y003828D01*
X008098Y003966D01*
X008098Y004586D01*
X007274Y004032D02*
X006965Y003081D01*
X006408Y003295D02*
X006815Y004209D01*
X006376Y004432D02*
X005876Y003566D01*
X005375Y003891D02*
X005963Y004700D01*
X005580Y005010D02*
X004911Y004267D01*
X004113Y005153D02*
X004922Y005741D01*
X004654Y006154D02*
X006098Y006154D01*
X006098Y006156D01*
X006098Y006154D02*
X007196Y006154D01*
X007208Y006166D01*
X007546Y006654D02*
X005520Y006654D01*
X005338Y007026D02*
X004430Y006593D01*
X003517Y006186D01*
X003788Y005654D02*
X004654Y006154D01*
X004254Y007053D02*
X004508Y007306D01*
X005488Y007306D01*
X005608Y007186D01*
X005938Y007186D01*
X006278Y007576D02*
X005728Y008126D01*
X005728Y008506D01*
X005728Y008906D01*
X005718Y008906D01*
X005718Y009636D01*
X007078Y009636D01*
X007338Y009896D01*
X009408Y009896D01*
X009798Y009506D01*
X011378Y009506D01*
X011718Y009166D01*
X011718Y008346D01*
X011848Y008216D01*
X011848Y008386D01*
X011728Y008506D01*
X012178Y009056D01*
X014328Y009386D01*
X015208Y009496D01*
X014402Y009103D02*
X013407Y008998D01*
X013278Y008736D02*
X012728Y008826D01*
X012433Y008506D02*
X013433Y008506D01*
X014433Y008506D01*
X014418Y008806D02*
X013278Y008736D01*
X013298Y008266D02*
X012728Y008186D01*
X012758Y007766D02*
X013078Y007766D01*
X013330Y007528D01*
X014308Y007320D01*
X014148Y006746D02*
X013203Y007053D01*
X014154Y006744D01*
X014402Y007910D02*
X013407Y008015D01*
X013298Y008266D02*
X014898Y008186D01*
X014308Y009693D02*
X013330Y009485D01*
X012458Y009386D01*
X012598Y009756D02*
X012968Y009756D01*
X013058Y009666D01*
X014248Y009986D01*
X014154Y010269D02*
X013203Y009960D01*
X012292Y009960D01*
X012238Y009906D01*
X011228Y009906D01*
X011803Y010051D02*
X011983Y010051D01*
X012088Y010156D01*
X012258Y010156D01*
X012763Y010156D01*
X013026Y010420D01*
X013940Y010827D01*
X013669Y011359D02*
X012803Y010859D01*
X012548Y010986D02*
X011978Y010986D01*
X011640Y010649D01*
X009220Y010649D01*
X009408Y010496D02*
X009348Y010436D01*
X008638Y010436D01*
X008458Y010616D01*
X006798Y010616D01*
X006746Y010836D02*
X006192Y011391D01*
X006192Y011341D01*
X005688Y010836D01*
X006192Y011391D02*
X005580Y012003D01*
X004911Y012746D01*
X005375Y013122D02*
X005963Y012313D01*
X006376Y012581D02*
X006550Y012406D01*
X007078Y012406D01*
X007598Y011886D01*
X009328Y011886D01*
X009444Y012003D01*
X009784Y012003D01*
X009968Y012186D01*
X010858Y012186D01*
X011038Y012006D01*
X011873Y012006D01*
X011876Y012003D01*
X012545Y012746D01*
X012081Y013122D02*
X011494Y012313D01*
X011081Y012581D02*
X011581Y013447D01*
X011049Y013718D02*
X010642Y012804D01*
X010182Y012981D02*
X010491Y013932D01*
X009914Y014086D02*
X009698Y014436D01*
X009914Y014086D02*
X009706Y013108D01*
X009708Y012496D01*
X009478Y012236D02*
X009478Y012817D01*
X009220Y013075D01*
X009220Y013185D01*
X009324Y014180D01*
X009028Y014206D02*
X008958Y013046D01*
X009118Y012586D01*
X008728Y012211D02*
X008728Y013211D01*
X008728Y014211D01*
X008428Y014216D02*
X008488Y013056D01*
X008348Y012576D01*
X008236Y013185D02*
X008132Y014180D01*
X007542Y014086D02*
X007750Y013108D01*
X007274Y012981D02*
X006965Y013932D01*
X006408Y013718D02*
X006815Y012804D01*
X006376Y012581D02*
X005876Y013447D01*
X004489Y012324D02*
X005232Y011655D01*
X004922Y011272D02*
X004113Y011860D01*
X003718Y011756D02*
X003788Y011359D01*
X004654Y010859D01*
X004430Y010420D02*
X005268Y010016D01*
X005618Y009846D01*
X006668Y009846D01*
X006868Y010046D01*
X009698Y010046D01*
X010008Y010356D01*
X010318Y010356D01*
X010358Y010316D01*
X010788Y010836D02*
X006746Y010836D01*
X007578Y009716D02*
X007058Y009196D01*
X006648Y009196D01*
X005068Y009326D02*
X004377Y009326D01*
X004049Y008998D01*
X003055Y009103D01*
X003058Y008806D02*
X004218Y008746D01*
X004728Y008806D01*
X005023Y008506D02*
X004023Y008506D01*
X003023Y008506D01*
X003028Y008206D02*
X004158Y008266D01*
X004728Y008206D01*
X004688Y007766D02*
X004364Y007766D01*
X004126Y007528D01*
X003148Y007320D01*
X003308Y006746D02*
X002918Y006086D01*
X003303Y006744D02*
X004254Y007053D01*
X003308Y006746D01*
X003055Y007910D02*
X003700Y007978D01*
X004049Y008015D01*
X004126Y009485D02*
X004128Y009486D01*
X004878Y009486D01*
X004958Y009566D01*
X005068Y009566D01*
X004938Y009956D02*
X004158Y010256D01*
X003408Y010546D01*
X003303Y010269D02*
X004254Y009960D01*
X004430Y010420D02*
X003517Y010827D01*
X003148Y009693D02*
X004126Y009485D01*
X007548Y006706D02*
X007546Y006654D01*
X008729Y002217D02*
X008431Y002217D01*
X008134Y002232D01*
X007838Y002261D01*
X007544Y002305D01*
X007253Y002363D01*
X006964Y002435D01*
X006680Y002522D01*
X006400Y002622D01*
X006125Y002735D01*
X005856Y002862D01*
X005594Y003002D01*
X005338Y003155D01*
X005091Y003320D01*
X004852Y003496D01*
X004622Y003684D01*
X004401Y003884D01*
X004190Y004093D01*
X003990Y004313D01*
X003801Y004543D01*
X003623Y004781D01*
X003457Y005028D01*
X003303Y005282D01*
X003162Y005544D01*
X003034Y005812D01*
X002919Y006086D01*
X007750Y003905D02*
X007542Y002926D01*
X001928Y008506D02*
X001936Y008840D01*
X001961Y009173D01*
X002002Y009504D01*
X002059Y009833D01*
X002132Y010158D01*
X002221Y010480D01*
X002326Y010797D01*
X002446Y011108D01*
X002581Y011413D01*
X002731Y011711D01*
X002895Y012002D01*
X003074Y012284D01*
X003266Y012557D01*
X003472Y012820D01*
X003690Y013073D01*
X003920Y013314D01*
X004161Y013544D01*
X004414Y013762D01*
X004677Y013968D01*
X004950Y014160D01*
X005232Y014339D01*
X005523Y014503D01*
X005821Y014653D01*
X006126Y014788D01*
X006437Y014908D01*
X006754Y015013D01*
X007076Y015102D01*
X007401Y015175D01*
X007730Y015232D01*
X008061Y015273D01*
X008394Y015298D01*
X008728Y015306D01*
X009062Y015298D01*
X009395Y015273D01*
X009726Y015232D01*
X010055Y015175D01*
X010380Y015102D01*
X010702Y015013D01*
X011019Y014908D01*
X011330Y014788D01*
X011635Y014653D01*
X011933Y014503D01*
X012224Y014339D01*
X012506Y014160D01*
X012779Y013968D01*
X013042Y013762D01*
X013295Y013544D01*
X013536Y013314D01*
X013766Y013073D01*
X013984Y012820D01*
X014190Y012557D01*
X014382Y012284D01*
X014561Y012002D01*
X014725Y011711D01*
X014875Y011413D01*
X015010Y011108D01*
X015130Y010797D01*
X015235Y010480D01*
X015324Y010158D01*
X015397Y009833D01*
X015454Y009504D01*
X015495Y009173D01*
X015520Y008840D01*
X015528Y008506D01*
X015520Y008172D01*
X015495Y007839D01*
X015454Y007508D01*
X015397Y007179D01*
X015324Y006854D01*
X015235Y006532D01*
X015130Y006215D01*
X015010Y005904D01*
X014875Y005599D01*
X014725Y005301D01*
X014561Y005010D01*
X014382Y004728D01*
X014190Y004455D01*
X013984Y004192D01*
X013766Y003939D01*
X013536Y003698D01*
X013295Y003468D01*
X013042Y003250D01*
X012779Y003044D01*
X012506Y002852D01*
X012224Y002673D01*
X011933Y002509D01*
X011635Y002359D01*
X011330Y002224D01*
X011019Y002104D01*
X010702Y001999D01*
X010380Y001910D01*
X010055Y001837D01*
X009726Y001780D01*
X009395Y001739D01*
X009062Y001714D01*
X008728Y001706D01*
X008394Y001714D01*
X008061Y001739D01*
X007730Y001780D01*
X007401Y001837D01*
X007076Y001910D01*
X006754Y001999D01*
X006437Y002104D01*
X006126Y002224D01*
X005821Y002359D01*
X005523Y002509D01*
X005232Y002673D01*
X004950Y002852D01*
X004677Y003044D01*
X004414Y003250D01*
X004161Y003468D01*
X003920Y003698D01*
X003690Y003939D01*
X003472Y004192D01*
X003266Y004455D01*
X003074Y004728D01*
X002895Y005010D01*
X002731Y005301D01*
X002581Y005599D01*
X002446Y005904D01*
X002326Y006215D01*
X002221Y006532D01*
X002132Y006854D01*
X002059Y007179D01*
X002002Y007508D01*
X001961Y007839D01*
X001936Y008172D01*
X001928Y008506D01*
X008288Y010356D02*
X008378Y010266D01*
X009598Y010266D01*
X009608Y010256D01*
X009408Y010496D02*
X011358Y010496D01*
X011803Y010051D01*
X011933Y009716D02*
X009888Y009716D01*
X014728Y011066D02*
X014817Y010880D01*
X014899Y010691D01*
X014972Y010498D01*
X015036Y010302D01*
X015092Y010104D01*
X015140Y009903D01*
X015178Y009700D01*
X015208Y009496D01*
X014728Y011066D02*
X014728Y011335D01*
X014697Y011367D01*
X014234Y012168D02*
X013738Y011776D01*
X012548Y010986D01*
X012534Y011272D02*
X013343Y011860D01*
X012968Y012324D02*
X012224Y011655D01*
X011120Y011655D01*
X010778Y011996D01*
X010068Y011996D01*
X009728Y011656D01*
X009698Y014436D02*
X009423Y014482D01*
X009146Y014514D01*
X008867Y014533D01*
X008588Y014538D01*
X008309Y014529D01*
X008031Y014507D01*
X007754Y014472D01*
X007479Y014423D01*
X007207Y014360D01*
X006939Y014284D01*
X006674Y014196D01*
X006414Y014094D01*
X006159Y013980D01*
X005911Y013853D01*
X005668Y013715D01*
X005433Y013565D01*
X005205Y013403D01*
X004986Y013231D01*
X004775Y013048D01*
X004573Y012855D01*
X004381Y012653D01*
X004199Y012441D01*
X004028Y012220D01*
X003868Y011992D01*
X003719Y011756D01*
X015209Y009496D02*
X015244Y009177D01*
X015263Y008857D01*
X015268Y008536D01*
X015257Y008216D01*
X015230Y007896D01*
X015189Y007578D01*
X015133Y007262D01*
X015061Y006949D01*
X014975Y006640D01*
X014874Y006336D01*
X014759Y006036D01*
D11*
X011728Y008506D03*
X005728Y008506D03*
D12*
X008728Y008506D03*
D13*
X004489Y004689D03*
X004911Y004267D03*
X005375Y003891D03*
X005876Y003566D03*
X006408Y003295D03*
X006965Y003081D03*
X007542Y002926D03*
X008132Y002833D03*
X008728Y002802D03*
X009324Y002833D03*
X009914Y002926D03*
X010491Y003081D03*
X011049Y003295D03*
X011581Y003566D03*
X012081Y003891D03*
X012545Y004267D03*
X012968Y004689D03*
X013343Y005153D03*
X013669Y005654D03*
X013940Y006186D03*
X014154Y006744D03*
X014308Y007320D03*
X014402Y007910D03*
X014433Y008506D03*
X014402Y009103D03*
X014308Y009693D03*
X014154Y010269D03*
X013940Y010827D03*
X013669Y011359D03*
X013343Y011860D03*
X012968Y012324D03*
X012545Y012746D03*
X012081Y013122D03*
X011581Y013447D03*
X011049Y013718D03*
X010491Y013932D03*
X009914Y014086D03*
X009324Y014180D03*
X008728Y014211D03*
X008132Y014180D03*
X007542Y014086D03*
X006965Y013932D03*
X006408Y013718D03*
X005876Y013447D03*
X005375Y013122D03*
X004911Y012746D03*
X004489Y012324D03*
X004113Y011860D03*
X003788Y011359D03*
X003517Y010827D03*
X003303Y010269D03*
X003148Y009693D03*
X003055Y009103D03*
X003023Y008506D03*
X003055Y007910D03*
X003148Y007320D03*
X003303Y006744D03*
X003517Y006186D03*
X003788Y005654D03*
X004113Y005153D03*
X004922Y005741D03*
X004654Y006154D03*
X004430Y006593D03*
X004254Y007053D03*
X004126Y007528D03*
X004049Y008015D03*
X004023Y008506D03*
X004049Y008998D03*
X004126Y009485D03*
X004254Y009960D03*
X004430Y010420D03*
X004654Y010859D03*
X004922Y011272D03*
X005232Y011655D03*
X005580Y012003D03*
X005963Y012313D03*
X006376Y012581D03*
X006815Y012804D03*
X007274Y012981D03*
X007750Y013108D03*
X008236Y013185D03*
X008728Y013211D03*
X009220Y013185D03*
X009706Y013108D03*
X010182Y012981D03*
X010642Y012804D03*
X011081Y012581D03*
X011494Y012313D03*
X011876Y012003D03*
X012224Y011655D03*
X012534Y011272D03*
X012803Y010859D03*
X013026Y010420D03*
X013203Y009960D03*
X013330Y009485D03*
X013407Y008998D03*
X013433Y008506D03*
X013407Y008015D03*
X013330Y007528D03*
X013203Y007053D03*
X013026Y006593D03*
X012803Y006154D03*
X012534Y005741D03*
X012224Y005358D03*
X011876Y005010D03*
X011494Y004700D03*
X011081Y004432D03*
X010642Y004208D03*
X010182Y004032D03*
X009706Y003905D03*
X009220Y003827D03*
X008728Y003802D03*
X008236Y003827D03*
X007750Y003905D03*
X007274Y004032D03*
X006815Y004208D03*
X006376Y004432D03*
X005963Y004700D03*
X005580Y005010D03*
X005232Y005358D03*
X005520Y006654D03*
X006876Y005298D03*
X008728Y004802D03*
X010581Y005298D03*
X011937Y006654D03*
X012433Y008506D03*
X011937Y010359D03*
X010581Y011715D03*
X008728Y012211D03*
X006876Y011715D03*
X005520Y010359D03*
X005023Y008506D03*
D14*
X007228Y011296D03*
X008228Y011296D03*
X009228Y011296D03*
X010228Y011296D03*
D15*
G36*
X014295Y012396D02*
X014462Y012107D01*
X014173Y011940D01*
X014006Y012229D01*
X014295Y012396D01*
G37*
G36*
X014758Y011595D02*
X014925Y011306D01*
X014636Y011139D01*
X014469Y011428D01*
X014758Y011595D01*
G37*
G36*
X014925Y005727D02*
X014758Y005438D01*
X014469Y005605D01*
X014636Y005894D01*
X014925Y005727D01*
G37*
G36*
X014462Y004926D02*
X014295Y004637D01*
X014006Y004804D01*
X014173Y005093D01*
X014462Y004926D01*
G37*
D16*
X009122Y008113D03*
X008728Y008113D03*
X008334Y008113D03*
X008334Y008506D03*
X008334Y008900D03*
X008728Y008900D03*
X008728Y008506D03*
X009122Y008506D03*
X009122Y008900D03*
D17*
X009888Y009716D03*
X010098Y010146D03*
X010358Y010316D03*
X010788Y010836D03*
X011108Y010206D03*
X011228Y009906D03*
X011933Y009716D03*
X012338Y009686D03*
X012598Y009756D03*
X012458Y009386D03*
X012728Y008826D03*
X012728Y008186D03*
X012758Y007766D03*
X010978Y008406D03*
X010578Y008026D03*
X010528Y007006D03*
X010098Y006786D03*
X009778Y006566D03*
X010068Y006366D03*
X011118Y006036D03*
X010098Y005076D03*
X009358Y004566D03*
X009028Y004436D03*
X008428Y004436D03*
X008098Y004586D03*
X007208Y006166D03*
X007548Y006706D03*
X006208Y007146D03*
X005938Y007186D03*
X006278Y007576D03*
X006888Y008006D03*
X006958Y008406D03*
X006648Y009196D03*
X006428Y009396D03*
X007078Y009636D03*
X007578Y009716D03*
X008038Y010256D03*
X008288Y010356D03*
X009220Y010649D03*
X009608Y010256D03*
X010968Y009196D03*
X012258Y010156D03*
X014248Y009986D03*
X014418Y008806D03*
X014898Y008186D03*
X009728Y011656D03*
X009478Y012236D03*
X009708Y012496D03*
X009118Y012586D03*
X008348Y012576D03*
X008288Y011686D03*
X006798Y010616D03*
X006548Y010196D03*
X005618Y009846D03*
X005068Y009566D03*
X005068Y009326D03*
X004728Y008806D03*
X004728Y008206D03*
X004688Y007766D03*
X005338Y007026D03*
X006098Y006156D03*
X003028Y008206D03*
X003058Y008806D03*
X003408Y010546D03*
X004938Y009956D03*
X005688Y010836D03*
X008428Y014216D03*
X009028Y014206D03*
X008418Y002506D03*
X009058Y002226D03*
M02*
