G75*
G70*
%OFA0B0*%
%FSLAX24Y24*%
%IPPOS*%
%LPD*%
%AMOC8*
5,1,8,0,0,1.08239X$1,22.5*
%
%ADD10C,0.0030*%
D10*
X007563Y005621D02*
X007535Y005650D01*
X007563Y005621D02*
X007620Y005621D01*
X007648Y005650D01*
X007648Y005678D01*
X007620Y005706D01*
X007563Y005706D01*
X007535Y005735D01*
X007535Y005763D01*
X007563Y005792D01*
X007620Y005792D01*
X007648Y005763D01*
X007719Y005706D02*
X007747Y005735D01*
X007804Y005735D01*
X007833Y005706D01*
X007833Y005678D01*
X007719Y005678D01*
X007719Y005650D02*
X007719Y005706D01*
X007719Y005650D02*
X007747Y005621D01*
X007804Y005621D01*
X007903Y005650D02*
X007932Y005678D01*
X008017Y005678D01*
X008017Y005706D02*
X008017Y005621D01*
X007932Y005621D01*
X007903Y005650D01*
X007932Y005735D02*
X007988Y005735D01*
X008017Y005706D01*
X008087Y005735D02*
X008087Y005621D01*
X008201Y005621D02*
X008201Y005706D01*
X008172Y005735D01*
X008087Y005735D01*
X008456Y005706D02*
X008569Y005706D01*
X008569Y005621D02*
X008569Y005792D01*
X008456Y005792D02*
X008456Y005621D01*
X008640Y005650D02*
X008668Y005678D01*
X008753Y005678D01*
X008753Y005706D02*
X008753Y005621D01*
X008668Y005621D01*
X008640Y005650D01*
X008668Y005735D02*
X008725Y005735D01*
X008753Y005706D01*
X008824Y005678D02*
X008881Y005735D01*
X008909Y005735D01*
X008977Y005735D02*
X008977Y005621D01*
X008977Y005678D02*
X009034Y005735D01*
X009062Y005735D01*
X009131Y005735D02*
X009159Y005735D01*
X009159Y005621D01*
X009131Y005621D02*
X009187Y005621D01*
X009254Y005621D02*
X009254Y005735D01*
X009339Y005735D01*
X009367Y005706D01*
X009367Y005621D01*
X009438Y005650D02*
X009466Y005621D01*
X009551Y005621D01*
X009551Y005593D02*
X009551Y005735D01*
X009466Y005735D01*
X009438Y005706D01*
X009438Y005650D01*
X009494Y005565D02*
X009523Y005565D01*
X009551Y005593D01*
X009650Y005650D02*
X009679Y005621D01*
X009650Y005650D02*
X009650Y005763D01*
X009622Y005735D02*
X009679Y005735D01*
X009745Y005706D02*
X009773Y005735D01*
X009830Y005735D01*
X009858Y005706D01*
X009858Y005650D01*
X009830Y005621D01*
X009773Y005621D01*
X009745Y005650D01*
X009745Y005706D01*
X009929Y005735D02*
X010014Y005735D01*
X010042Y005706D01*
X010042Y005621D01*
X009929Y005621D02*
X009929Y005735D01*
X009919Y005971D02*
X010032Y005971D01*
X009976Y005971D02*
X009976Y006142D01*
X009919Y006085D01*
X009855Y006000D02*
X009827Y006000D01*
X009827Y005971D01*
X009855Y005971D01*
X009855Y006000D01*
X009756Y005971D02*
X009643Y005971D01*
X009699Y005971D02*
X009699Y006142D01*
X009643Y006085D01*
X009388Y006085D02*
X009331Y005971D01*
X009274Y006085D01*
X009204Y006056D02*
X009204Y006028D01*
X009090Y006028D01*
X009090Y006000D02*
X009090Y006056D01*
X009119Y006085D01*
X009175Y006085D01*
X009204Y006056D01*
X009175Y005971D02*
X009119Y005971D01*
X009090Y006000D01*
X009020Y005971D02*
X008963Y006028D01*
X008991Y006028D02*
X008906Y006028D01*
X008906Y005971D02*
X008906Y006142D01*
X008991Y006142D01*
X009020Y006113D01*
X009020Y006056D01*
X008991Y006028D01*
X009159Y005820D02*
X009159Y005792D01*
X008824Y005735D02*
X008824Y005621D01*
X008434Y010851D02*
X008462Y010880D01*
X008462Y010993D01*
X008434Y011022D01*
X008349Y011022D01*
X008349Y010851D01*
X008434Y010851D01*
X008278Y010851D02*
X008278Y011022D01*
X008165Y011022D02*
X008165Y010851D01*
X008094Y010880D02*
X008094Y010936D01*
X008037Y010936D01*
X007981Y010993D02*
X007981Y010880D01*
X008009Y010851D01*
X008066Y010851D01*
X008094Y010880D01*
X008094Y010993D02*
X008066Y011022D01*
X008009Y011022D01*
X007981Y010993D01*
X008165Y011022D02*
X008278Y010851D01*
X007472Y010880D02*
X007444Y010851D01*
X007387Y010851D01*
X007359Y010880D01*
X007288Y010908D02*
X007288Y011022D01*
X007359Y010993D02*
X007387Y011022D01*
X007444Y011022D01*
X007472Y010993D01*
X007472Y010965D01*
X007444Y010936D01*
X007472Y010908D01*
X007472Y010880D01*
X007444Y010936D02*
X007416Y010936D01*
X007288Y010908D02*
X007232Y010851D01*
X007175Y010908D01*
X007175Y011022D01*
X007104Y010993D02*
X007104Y010965D01*
X007076Y010936D01*
X007104Y010908D01*
X007104Y010880D01*
X007076Y010851D01*
X007019Y010851D01*
X006991Y010880D01*
X007047Y010936D02*
X007076Y010936D01*
X007104Y010993D02*
X007076Y011022D01*
X007019Y011022D01*
X006991Y010993D01*
M02*
