G75*
G70*
%OFA0B0*%
%FSLAX24Y24*%
%IPPOS*%
%LPD*%
%AMOC8*
5,1,8,0,0,1.08239X$1,22.5*
%
%ADD10R,0.1080X0.2080*%
%ADD11C,0.2580*%
%ADD12C,0.0380*%
%ADD13R,0.0472X0.0472*%
%ADD14R,0.0415X0.0414*%
%ADD15C,0.0320*%
D10*
X005728Y008506D03*
X011728Y008506D03*
D11*
X008728Y008506D03*
D12*
X004489Y004689D03*
X004911Y004267D03*
X005375Y003891D03*
X005876Y003566D03*
X006408Y003295D03*
X006965Y003081D03*
X007542Y002926D03*
X008132Y002833D03*
X008728Y002802D03*
X009324Y002833D03*
X009914Y002926D03*
X010491Y003081D03*
X011049Y003295D03*
X011581Y003566D03*
X012081Y003891D03*
X012545Y004267D03*
X012968Y004689D03*
X013343Y005153D03*
X013669Y005654D03*
X013940Y006186D03*
X014154Y006744D03*
X014308Y007320D03*
X014402Y007910D03*
X014433Y008506D03*
X014402Y009103D03*
X014308Y009693D03*
X014154Y010269D03*
X013940Y010827D03*
X013669Y011359D03*
X013343Y011860D03*
X012968Y012324D03*
X012545Y012746D03*
X012081Y013122D03*
X011581Y013447D03*
X011049Y013718D03*
X010491Y013932D03*
X009914Y014086D03*
X009324Y014180D03*
X008728Y014211D03*
X008132Y014180D03*
X007542Y014086D03*
X006965Y013932D03*
X006408Y013718D03*
X005876Y013447D03*
X005375Y013122D03*
X004911Y012746D03*
X004489Y012324D03*
X004113Y011860D03*
X003788Y011359D03*
X003517Y010827D03*
X003303Y010269D03*
X003148Y009693D03*
X003055Y009103D03*
X003023Y008506D03*
X003055Y007910D03*
X003148Y007320D03*
X003303Y006744D03*
X003517Y006186D03*
X003788Y005654D03*
X004113Y005153D03*
X004922Y005741D03*
X004654Y006154D03*
X004430Y006593D03*
X004254Y007053D03*
X004126Y007528D03*
X004049Y008015D03*
X004023Y008506D03*
X004049Y008998D03*
X004126Y009485D03*
X004254Y009960D03*
X004430Y010420D03*
X004654Y010859D03*
X004922Y011272D03*
X005232Y011655D03*
X005580Y012003D03*
X005963Y012313D03*
X006376Y012581D03*
X006815Y012804D03*
X007274Y012981D03*
X007750Y013108D03*
X008236Y013185D03*
X008728Y013211D03*
X009220Y013185D03*
X009706Y013108D03*
X010182Y012981D03*
X010642Y012804D03*
X011081Y012581D03*
X011494Y012313D03*
X011876Y012003D03*
X012224Y011655D03*
X012534Y011272D03*
X012803Y010859D03*
X013026Y010420D03*
X013203Y009960D03*
X013330Y009485D03*
X013407Y008998D03*
X013433Y008506D03*
X013407Y008015D03*
X013330Y007528D03*
X013203Y007053D03*
X013026Y006593D03*
X012803Y006154D03*
X012534Y005741D03*
X012224Y005358D03*
X011876Y005010D03*
X011494Y004700D03*
X011081Y004432D03*
X010642Y004208D03*
X010182Y004032D03*
X009706Y003905D03*
X009220Y003827D03*
X008728Y003802D03*
X008236Y003827D03*
X007750Y003905D03*
X007274Y004032D03*
X006815Y004208D03*
X006376Y004432D03*
X005963Y004700D03*
X005580Y005010D03*
X005232Y005358D03*
X005520Y006654D03*
X006876Y005298D03*
X008728Y004802D03*
X010581Y005298D03*
X011937Y006654D03*
X012433Y008506D03*
X011937Y010359D03*
X010581Y011715D03*
X008728Y012211D03*
X006876Y011715D03*
X005520Y010359D03*
X005023Y008506D03*
D13*
X007228Y011296D03*
X008228Y011296D03*
X009228Y011296D03*
X010228Y011296D03*
D14*
G36*
X014309Y012450D02*
X014516Y012093D01*
X014159Y011886D01*
X013952Y012243D01*
X014309Y012450D01*
G37*
G36*
X014772Y011649D02*
X014979Y011292D01*
X014622Y011085D01*
X014415Y011442D01*
X014772Y011649D01*
G37*
G36*
X014979Y005741D02*
X014772Y005384D01*
X014415Y005591D01*
X014622Y005948D01*
X014979Y005741D01*
G37*
G36*
X014516Y004940D02*
X014309Y004583D01*
X013952Y004790D01*
X014159Y005147D01*
X014516Y004940D01*
G37*
D15*
X009122Y008113D03*
X008728Y008113D03*
X008334Y008113D03*
X008334Y008506D03*
X008334Y008900D03*
X008728Y008900D03*
X008728Y008506D03*
X009122Y008506D03*
X009122Y008900D03*
M02*
